<svg xmlns="http://www.w3.org/2000/svg" width="360.945" height="310.617" viewBox="0 0 95.5 82.184"><defs><marker id="a" markerHeight="1" markerWidth="1" orient="auto-start-reverse" preserveAspectRatio="xMidYMid" refX="0" refY="0" style="overflow:visible" viewBox="0 0 1 1"><path d="M3-3 0 0l3 3" style="fill:none;stroke:context-stroke;stroke-width:1;stroke-linecap:butt" transform="rotate(180 .125 0)"/></marker><marker id="c" markerHeight="1" markerWidth="1" orient="auto-start-reverse" preserveAspectRatio="xMidYMid" refX="0" refY="0" style="overflow:visible" viewBox="0 0 1 1"><path d="M3-3 0 0l3 3" style="fill:none;stroke:context-stroke;stroke-width:1;stroke-linecap:butt" transform="rotate(180 .125 0)"/></marker><marker id="e" markerHeight="1" markerWidth="1" orient="auto-start-reverse" preserveAspectRatio="xMidYMid" refX="0" refY="0" style="overflow:visible" viewBox="0 0 1 1"><path d="M3-3 0 0l3 3" style="fill:none;stroke:context-stroke;stroke-width:1;stroke-linecap:butt" transform="rotate(180 .125 0)"/></marker><marker id="g" markerHeight="1" markerWidth="1" orient="auto-start-reverse" preserveAspectRatio="xMidYMid" refX="0" refY="0" style="overflow:visible" viewBox="0 0 1 1"><path d="M3-3 0 0l3 3" style="fill:none;stroke:context-stroke;stroke-width:1;stroke-linecap:butt" transform="rotate(180 .125 0)"/></marker><marker id="i" markerHeight="1" markerWidth="1" orient="auto-start-reverse" preserveAspectRatio="xMidYMid" refX="0" refY="0" style="overflow:visible" viewBox="0 0 1 1"><path d="M3-3 0 0l3 3" style="fill:none;stroke:context-stroke;stroke-width:1;stroke-linecap:butt" transform="rotate(180 .125 0)"/></marker><path id="j" d="M394.99 839.66h44.729v31.854H394.99z"/><path id="b" d="M68.923 371.193h55.409v42.345H68.923z"/><path id="d" d="M422.998 349.57h53.156v52.255h-53.156z"/><path id="f" d="M436.513 276.593h60.364v46.85h-60.364z"/><path id="h" d="M119.377 153.162h55.859v56.091h-55.859z"/></defs><g transform="translate(-25.489 -137.917)"><path d="M25.621 138.049h95.236v81.919H25.621z" style="opacity:1;fill:#fff;stroke:#fff;stroke-width:.264583;stroke-linejoin:round"/><path d="M-197.1 32.598h42.908v77.372H-197.1z" style="opacity:1;fill:#ffb380;stroke:#000;stroke-width:.264583;stroke-linejoin:round" transform="rotate(-90)"/><path d="M-192.21 32.598h33.127v77.372h-33.127z" style="fill:#fff;stroke:#000;stroke-width:.264583;stroke-linejoin:round" transform="rotate(-90)"/><path d="M-208.79 67.47h29.651v7.628h-29.651z" style="opacity:.5;fill:#999;stroke:#1a1a1a;stroke-width:.264583;stroke-linejoin:round" transform="rotate(-90)"/><path d="M71.218 216.57v-38.958" style="fill:#fca;stroke:purple;stroke-width:.264583;stroke-linejoin:round"/><path d="M67.47 210.378h7.262" style="fill:#999;stroke:#00f;stroke-width:.264582;stroke-linejoin:round;marker-start:url(#a);marker-end:url(#a)"/><text xml:space="preserve" style="font-size:16px;line-height:normal;font-family:&quot;Liberation Mono&quot;;-inkscape-font-specification:&quot;Liberation Mono&quot;;text-decoration-color:#000;white-space:pre;shape-inside:url(#b);display:inline;fill:#00f;stroke-width:1;-inkscape-stroke:none;stop-color:#000" transform="translate(54.191 113.425)scale(.26458)"><tspan x="68.924" y="385.43">D2</tspan></text><ellipse cx="71.152" cy="154.06" rx="11.737" ry="11.681" style="opacity:1;fill:#ccc;stroke:#999;stroke-width:.264583;stroke-linejoin:round"/><path d="M59.415 154.06h23.203" style="fill:#999;stroke:#00f;stroke-width:.264583;stroke-linejoin:round;marker-start:url(#c);marker-end:url(#c)"/><text xml:space="preserve" style="font-size:16px;line-height:normal;font-family:&quot;Liberation Mono&quot;;-inkscape-font-specification:&quot;Liberation Mono&quot;;text-decoration-color:#000;white-space:pre;shape-inside:url(#d);display:inline;fill:#00f;stroke-width:1;-inkscape-stroke:none;stop-color:#000" transform="translate(-43.475 62.087)scale(.26458)"><tspan x="422.998" y="363.807">D3</tspan></text><path d="M103.62 154.193v4.89" style="fill:#999;stroke:#00f;stroke-width:.264583;stroke-linejoin:round;marker-start:url(#e);marker-end:url(#e)"/><text xml:space="preserve" style="font-size:16px;line-height:normal;font-family:&quot;Liberation Mono&quot;;-inkscape-font-specification:&quot;Liberation Mono&quot;;text-decoration-color:#000;white-space:pre;shape-inside:url(#f);display:inline;fill:#00f;stroke-width:1;-inkscape-stroke:none;stop-color:#000" transform="translate(-14.39 75.684)scale(.26458)"><tspan x="436.512" y="290.83">T1</tspan></text><path d="M112.087 154.324v42.635" style="fill:#999;stroke:#00f;stroke-width:.264583;stroke-linejoin:round;marker-start:url(#g);marker-end:url(#g)"/><text xml:space="preserve" style="font-size:16px;line-height:normal;font-family:&quot;Liberation Mono&quot;;-inkscape-font-specification:&quot;Liberation Mono&quot;;text-decoration-color:#000;white-space:pre;shape-inside:url(#h);display:inline;fill:#00f;stroke-width:1;-inkscape-stroke:none;stop-color:#000" transform="translate(82.152 131.764)scale(.26458)"><tspan x="119.377" y="167.399">D1</tspan></text><path d="M32.598 175.647h76.965" style="fill:#999;stroke:#00f;stroke-width:.264583;stroke-linejoin:round;marker-start:url(#i);marker-end:url(#i)"/><text xml:space="preserve" style="font-size:16px;line-height:normal;font-family:&quot;Liberation Mono&quot;;-inkscape-font-specification:&quot;Liberation Mono&quot;;text-decoration-color:#000;white-space:pre;shape-inside:url(#j);fill:#00f;stroke-width:1;-inkscape-stroke:none;stop-color:#000" transform="translate(-35.906 -51.187)scale(.26458)"><tspan x="394.99" y="853.897">L1</tspan></text></g></svg>