<svg xmlns="http://www.w3.org/2000/svg" width="346.066" height="300.117" viewBox="0 0 91.563 79.406"><defs><path id="g" d="M422.998 349.57h53.156v52.255h-53.156z"/><path id="e" d="M68.923 371.193h55.409v42.345H68.923z"/><path id="c" d="M119.377 153.162h55.859v56.091h-55.859z"/><path id="b" d="M436.513 276.593h60.364v46.85h-60.364z"/><marker id="a" markerHeight="1" markerWidth="1" orient="auto-start-reverse" preserveAspectRatio="xMidYMid" refX="0" refY="0" style="overflow:visible" viewBox="0 0 1 1"><path d="M3-3 0 0l3 3" style="fill:none;stroke:context-stroke;stroke-width:1;stroke-linecap:butt" transform="rotate(180 .125 0)"/></marker><marker id="d" markerHeight="1" markerWidth="1" orient="auto-start-reverse" preserveAspectRatio="xMidYMid" refX="0" refY="0" style="overflow:visible" viewBox="0 0 1 1"><path d="M3-3 0 0l3 3" style="fill:none;stroke:context-stroke;stroke-width:1;stroke-linecap:butt" transform="rotate(180 .125 0)"/></marker><marker id="f" markerHeight="1" markerWidth="1" orient="auto-start-reverse" preserveAspectRatio="xMidYMid" refX="0" refY="0" style="overflow:visible" viewBox="0 0 1 1"><path d="M3-3 0 0l3 3" style="fill:none;stroke:context-stroke;stroke-width:1;stroke-linecap:butt" transform="rotate(180 .125 0)"/></marker></defs><g transform="translate(-16.077 -34.432)"><path d="M16.21 34.565h91.299v79.141H16.21z" style="opacity:1;fill:#fff;stroke:#fff;stroke-width:.264583;stroke-linejoin:round"/><circle cx="65.554" cy="74.374" r="21.454" style="fill:#fca;stroke:#1a1a1a;stroke-width:.264583;stroke-linejoin:round"/><circle cx="65.554" cy="74.374" r="16.564" style="fill:#fff;stroke:#1a1a1a;stroke-width:.264583;stroke-linejoin:round"/><path d="M27.52 70.56h32.896v7.628H27.52zM75.46 46.245h23.361v56.257H75.46z" style="opacity:.5;fill:#999;stroke:#1a1a1a;stroke-width:.264583;stroke-linejoin:round"/><path d="M65.554 52.92v4.89" style="opacity:1;fill:#999;stroke:#00f;stroke-width:.264583;stroke-linejoin:round;marker-start:url(#a);marker-end:url(#a)"/><text xml:space="preserve" style="font-size:16px;line-height:normal;font-family:&quot;Liberation Mono&quot;;-inkscape-font-specification:&quot;Liberation Mono&quot;;text-decoration-color:#000;white-space:pre;shape-inside:url(#b);fill:#00f;stroke-width:1;-inkscape-stroke:none;stop-color:#000" transform="translate(-52.457 -25.59)scale(.26458)"><tspan x="436.512" y="290.83">T1</tspan></text><path d="M22.381 74.242h43.173" style="opacity:1;fill:#fca;stroke:purple;stroke-width:.264583;stroke-linejoin:round"/><path d="M87.008 110.924v-73.1" style="fill:#fca;stroke:purple;stroke-width:.264583;stroke-linejoin:round"/><text xml:space="preserve" style="font-size:16px;line-height:normal;font-family:&quot;Liberation Mono&quot;;-inkscape-font-specification:&quot;Liberation Mono&quot;;text-decoration-color:#000;white-space:pre;shape-inside:url(#c);fill:#00f;stroke-width:1;-inkscape-stroke:none;stop-color:#000" transform="translate(8.545 8.463)scale(.26458)"><tspan x="119.377" y="167.399">D1</tspan></text><path d="m45.053 53.873 4.768 4.053" style="opacity:1;fill:#00f;stroke:#00f;stroke-width:.264583;stroke-linejoin:round;marker-end:url(#a)"/><path d="M25.932 70.683v7.261" style="fill:#999;stroke:#00f;stroke-width:.264582;stroke-linejoin:round;marker-start:url(#d);marker-end:url(#d)"/><text xml:space="preserve" style="font-size:16px;line-height:normal;font-family:&quot;Liberation Mono&quot;;-inkscape-font-specification:&quot;Liberation Mono&quot;;text-decoration-color:#000;white-space:pre;shape-inside:url(#e);fill:#00f;stroke-width:1;-inkscape-stroke:none;stop-color:#000" transform="translate(5.138 -18.713)scale(.26458)"><tspan x="68.924" y="385.43">D2</tspan></text><path d="M75.478 104.09h23.203" style="fill:#999;stroke:#00f;stroke-width:.264583;stroke-linejoin:round;marker-start:url(#f);marker-end:url(#f)"/><text xml:space="preserve" style="font-size:16px;line-height:normal;font-family:&quot;Liberation Mono&quot;;-inkscape-font-specification:&quot;Liberation Mono&quot;;text-decoration-color:#000;white-space:pre;shape-inside:url(#g);fill:#00f;stroke-width:1;-inkscape-stroke:none;stop-color:#000" transform="translate(-24.223 11.313)scale(.26458)"><tspan x="422.998" y="363.807">D3</tspan></text></g></svg>