<svg xmlns="http://www.w3.org/2000/svg" width="349.67" height="237.05" viewBox="0 0 92.517 62.72"><defs><path id="b" d="M321.641 1726.93h154.964v45.249H321.641z"/><path id="a" d="M138.979 1791.098h133.076v72.977H138.979z"/></defs><g transform="translate(-32.049 -404.395)"><path d="M32.181 404.527h92.252v62.455H32.181z" style="fill:#fff;stroke:#fff;stroke-width:.264582;stroke-linejoin:round"/><path d="m89.733 426.72 15.695-4.582-.334 12.68-4.429 11.723-1.14 1.984-1.72.995-1.837-.238-2.93-2.145-3.64-7.736z" style="fill:#fca;stroke:#fca;stroke-width:.264583;stroke-linejoin:round"/><ellipse cx="97.413" cy="445.364" rx="2.246" ry="2.189" style="fill:#fff;stroke:#fca;stroke-width:.264583;stroke-linejoin:round"/><path d="m38.353 429.57 15.696-4.582-.335 12.68-15.695 4.583z" style="fill:#fca;stroke:#fca;stroke-width:.264583;stroke-linejoin:round"/><path d="m37.756 438.354 12.37 4.128.335-12.68-1.337-13.86-2.34-2.949h-2.675l-1.84 1.917-4.346 12.385zM53.452 433.771l12.37 4.129.335-12.68-1.337-13.86-2.34-2.95h-2.676l-1.839 1.917-4.346 12.386z" style="fill:#00f;stroke:#00f;stroke-width:.264583;stroke-linejoin:round"/><path d="m50.294 431.424-12.37-4.129-.335 12.68 1.337 13.86 2.34 2.95h2.675l1.84-1.917 4.346-12.386zM65.99 426.841l-12.371-4.128-.334 12.68 1.337 13.86 2.34 2.949h2.675l1.84-1.917 4.346-12.385z" style="fill:#00f;stroke:#00f;stroke-width:.264583;stroke-linejoin:round"/><path d="m50.461 429.802 15.696-4.583-.334 12.68-15.696 4.583z" style="fill:#55d400;stroke:#55d400;stroke-width:.264583;stroke-linejoin:round"/><ellipse cx="45.347" cy="417.218" rx="2.246" ry="2.189" style="fill:#fff;stroke:#00f;stroke-width:.264583;stroke-linejoin:round"/><ellipse cx="42.646" cy="452.709" rx="2.246" ry="2.189" style="fill:#fff;stroke:#00f;stroke-width:.264583;stroke-linejoin:round"/><ellipse cx="58.365" cy="447.927" rx="2.246" ry="2.189" style="fill:#fff;stroke:#00f;stroke-width:.264583;stroke-linejoin:round"/><ellipse cx="60.982" cy="412.524" rx="2.246" ry="2.189" style="fill:#fff;stroke:#00f;stroke-width:.264583;stroke-linejoin:round"/><path d="m89.565 437.78 12.371 4.128.334-12.68-1.337-13.86-2.34-2.95h-2.675l-1.839 1.917-4.346 12.386zM105.261 433.197l12.37 4.128.335-12.68-1.337-13.86-2.34-2.949h-2.675l-1.84 1.917-4.346 12.385z" style="fill:#00f;stroke:#00f;stroke-width:.264583;stroke-linejoin:round"/><ellipse cx="97.156" cy="416.643" rx="2.246" ry="2.189" style="fill:#fff;stroke:#00f;stroke-width:.264583;stroke-linejoin:round"/><ellipse cx="112.791" cy="411.95" rx="2.246" ry="2.189" style="fill:#fff;stroke:#00f;stroke-width:.264583;stroke-linejoin:round"/><path d="m102.27 429.227 15.696-4.582-.334 12.68-4.429 11.722-1.14 1.985-1.72.995-1.837-.238-2.931-2.146-3.639-7.735z" style="fill:#55d400;stroke:#55d400;stroke-width:.264583;stroke-linejoin:round"/><ellipse cx="109.951" cy="447.871" rx="2.246" ry="2.189" style="fill:#fff;stroke:#55d400;stroke-width:.264583;stroke-linejoin:round"/><text xml:space="preserve" style="font-size:16px;line-height:normal;font-family:&quot;Liberation Mono&quot;;-inkscape-font-specification:&quot;Liberation Mono&quot;;text-decoration-color:#000;white-space:pre;shape-inside:url(#a);display:inline;fill:#000;stroke-width:1;-inkscape-stroke:none;stop-color:#000" transform="translate(3.54 -14.525)scale(.26458)"><tspan x="138.979" y="1805.334">straight</tspan></text><text xml:space="preserve" style="font-size:16px;line-height:normal;font-family:&quot;Liberation Mono&quot;;-inkscape-font-specification:&quot;Liberation Mono&quot;;text-decoration-color:#000;white-space:pre;shape-inside:url(#b);display:inline;fill:#000;stroke-width:1;-inkscape-stroke:none;stop-color:#000" transform="translate(8.857 -3.914)scale(.26458)"><tspan x="321.641" y="1741.166">twisted</tspan></text></g></svg>