<svg xmlns="http://www.w3.org/2000/svg" width="294.711" height="421.746" viewBox="0 0 77.976 111.587"><defs><path id="r" d="M329.366 547.881h33.128v28.668h-33.128z"/><path id="q" d="M337.011 488.529h40.773v32.914h-40.773z"/><path id="o" d="M383.517 531.317h62.433v43.958h-62.433z"/><path id="n" d="M366.316 458.054h58.611v40.773h-58.611z"/><path id="m" d="M421.104 421.104h52.24v44.595h-52.24z"/><path id="l" d="M380.969 402.629h60.522v52.24h-60.522z"/><path id="k" d="M429.386 467.518h59.885v43.413h-59.885z"/><path id="j" d="M414.638 382.88h70.173v49.692h-70.173z"/><path id="i" d="M414.638 361.219h45.964v42.684h-45.964z"/><path id="h" d="M391.162 288.632h63.707v73.225h-63.707z"/><path id="f" d="M171.056 528.769h63.386v32.809h-63.386z"/><path id="g" d="M171.056 528.769h63.386v32.809h-63.386z"/><marker id="a" markerHeight="1" markerWidth="1" orient="auto-start-reverse" preserveAspectRatio="xMidYMid" refX="0" refY="0" style="overflow:visible" viewBox="0 0 1 1"><path d="M3-3 0 0l3 3" style="fill:none;stroke:context-stroke;stroke-width:1;stroke-linecap:butt" transform="rotate(180 .125 0)"/></marker><marker id="b" markerHeight="1" markerWidth="1" orient="auto-start-reverse" preserveAspectRatio="xMidYMid" refX="0" refY="0" style="overflow:visible" viewBox="0 0 1 1"><path d="M3-3 0 0l3 3" style="fill:none;stroke:context-stroke;stroke-width:1;stroke-linecap:butt" transform="rotate(180 .125 0)"/></marker><marker id="c" markerHeight="1" markerWidth="1" orient="auto-start-reverse" preserveAspectRatio="xMidYMid" refX="0" refY="0" style="overflow:visible" viewBox="0 0 1 1"><path d="M3-3 0 0l3 3" style="fill:none;stroke:context-stroke;stroke-width:1;stroke-linecap:butt" transform="rotate(180 .125 0)"/></marker><marker id="d" markerHeight="1" markerWidth="1" orient="auto-start-reverse" preserveAspectRatio="xMidYMid" refX="0" refY="0" style="overflow:visible" viewBox="0 0 1 1"><path d="M3-3 0 0l3 3" style="fill:none;stroke:context-stroke;stroke-width:1;stroke-linecap:butt" transform="rotate(180 .125 0)"/></marker><marker id="e" markerHeight="1" markerWidth="1" orient="auto-start-reverse" preserveAspectRatio="xMidYMid" refX="0" refY="0" style="overflow:visible" viewBox="0 0 1 1"><path d="M3-3 0 0l3 3" style="fill:none;stroke:context-stroke;stroke-width:1;stroke-linecap:butt" transform="rotate(180 .125 0)"/></marker><marker id="p" markerHeight="1" markerWidth="1" orient="auto-start-reverse" preserveAspectRatio="xMidYMid" refX="0" refY="0" style="overflow:visible" viewBox="0 0 1 1"><path d="M3-3 0 0l3 3" style="fill:none;stroke:context-stroke;stroke-width:1;stroke-linecap:butt" transform="rotate(180 .125 0)"/></marker></defs><g transform="translate(-14.17 -26.09)"><path d="M14.303 26.222h77.711v111.322H14.303z" style="fill:#fff;stroke:#fff;stroke-width:.264583;stroke-linejoin:round"/><path d="m32.363 70.457 6.405-25.502s.483-3.518 1.338-5.027c.827-1.458 2.065-2.747 3.506-3.604 1.568-.934 3.445-1.512 5.27-1.482 2.037.033 4.106.756 5.827 1.847 1.181.749 2.172 1.854 2.853 3.076.874 1.568 1.433 5.19 1.433 5.19l6.406 25.502v17.53l-6.406 19.793s-.387 2.852-.904 4.18a6.4 6.4 0 0 1-1.05 1.796c-1.008 1.202-2.188 2.336-3.586 3.045a10.2 10.2 0 0 1-4.573 1.093c-1.576-.001-3.205-.365-4.596-1.105-1.592-.847-3.038-2.123-3.986-3.657-.975-1.579-1.532-5.352-1.532-5.352l-6.405-19.792Z" style="fill:#fca;stroke:#000;stroke-width:.264583;stroke-linejoin:round"/><circle cx="48.882" cy="79.222" r="8.004" style="fill:#fff;stroke:#000;stroke-width:.264583;stroke-linejoin:round"/><circle cx="48.882" cy="44.955" r="6.742" style="fill:#fff;stroke:#000;stroke-width:.264583;stroke-linejoin:round"/><circle cx="48.882" cy="107.78" r="5.225" style="fill:#fff;stroke:#000;stroke-width:.264583;stroke-linejoin:round"/><circle cx="48.882" cy="94.415" r="3.491" style="fill:#fff;stroke:#000;stroke-width:.264583;stroke-linejoin:round"/><circle cx="48.882" cy="61.549" r="6.077" style="fill:#fff;stroke:#000;stroke-width:.264584;stroke-linejoin:round"/><path d="M48.882 45.088h31.094M48.882 107.912h31.094M65.4 87.988h14.576M65.4 70.457h14.576" style="fill:#fff;stroke:#999;stroke-width:.264583;stroke-linejoin:round"/><path d="M32.363 123.579V87.988M65.533 123.698V88.106" style="fill:#fff;stroke:#ccc;stroke-width:.264583;stroke-linejoin:round"/><path d="M79.976 70.577v17.412" style="fill:#fff;stroke:#00f;stroke-width:.264583;stroke-linejoin:round;marker-start:url(#a);marker-end:url(#a)"/><path d="M79.976 45.576V69.97" style="fill:#fff;stroke:#00f;stroke-width:.264584;stroke-linejoin:round;marker-start:url(#b);marker-end:url(#b)"/><path d="M79.976 88.464v19.118" style="fill:#fff;stroke:#00f;stroke-width:.264584;stroke-linejoin:round;marker-start:url(#c);marker-end:url(#c)"/><path d="M32.746 122.81h32.318" style="fill:#fff;stroke:#666;stroke-width:.264585;stroke-linejoin:round;marker-start:url(#d);marker-end:url(#d)"/><path d="M65.401 70.457h4.72v17.53h-4.72zM27.644 70.457h4.72v17.53h-4.72z" style="fill:#fca;stroke:#1a1a1a;stroke-width:.264583;stroke-linejoin:round"/><path d="M27.644 130.144V88.099M70.12 130.033V87.988" style="fill:#fff;stroke:#ccc;stroke-width:.264583;stroke-linejoin:round"/><path d="M28.102 129.257h41.56" style="fill:#00f;stroke:#00f;stroke-width:.264585;stroke-linejoin:round;marker-start:url(#e);marker-end:url(#e)"/><text xml:space="preserve" style="font-size:16px;line-height:normal;font-family:&quot;Liberation Mono&quot;;-inkscape-font-specification:&quot;Liberation Mono&quot;;text-decoration-color:#000;white-space:pre;shape-inside:url(#f);display:inline;fill:#000;stroke-width:1;-inkscape-stroke:none;stop-color:#000" transform="translate(-.163 -17.193)scale(.26458)"><tspan x="171.057" y="543.006">W1A</tspan></text><text xml:space="preserve" style="font-size:16px;line-height:normal;font-family:&quot;Liberation Mono&quot;;-inkscape-font-specification:&quot;Liberation Mono&quot;;text-decoration-color:#000;white-space:pre;shape-inside:url(#g);display:inline;fill:#00f;stroke-width:1;-inkscape-stroke:none;stop-color:#000" transform="translate(-.186 -10.507)scale(.26458)"><tspan x="171.057" y="543.006">W2A</tspan></text><text xml:space="preserve" style="font-size:16px;line-height:normal;font-family:&quot;Liberation Mono&quot;;-inkscape-font-specification:&quot;Liberation Mono&quot;;text-decoration-color:#000;white-space:pre;shape-inside:url(#h);display:inline;fill:#00f;stroke-width:1;-inkscape-stroke:none;stop-color:#000" transform="translate(-22.587 .544)scale(.26458)"><tspan x="391.162" y="302.867">L1</tspan></text><text xml:space="preserve" style="font-size:16px;line-height:normal;font-family:&quot;Liberation Mono&quot;;-inkscape-font-specification:&quot;Liberation Mono&quot;;text-decoration-color:#000;white-space:pre;shape-inside:url(#i);display:inline;fill:#00f;stroke-width:1;-inkscape-stroke:none;stop-color:#000" transform="translate(-28.87 -40.15)scale(.26458)"><tspan x="414.639" y="375.455">L2</tspan></text><text xml:space="preserve" style="font-size:16px;line-height:normal;font-family:&quot;Liberation Mono&quot;;-inkscape-font-specification:&quot;Liberation Mono&quot;;text-decoration-color:#000;white-space:pre;shape-inside:url(#j);display:inline;fill:#00f;stroke-width:1;-inkscape-stroke:none;stop-color:#000" transform="translate(-28.316 -5.9)scale(.26458)"><tspan x="414.639" y="397.115">L3</tspan></text><text xml:space="preserve" style="font-size:16px;line-height:normal;font-family:&quot;Liberation Mono&quot;;-inkscape-font-specification:&quot;Liberation Mono&quot;;text-decoration-color:#000;white-space:pre;shape-inside:url(#k);display:inline;fill:#00f;stroke-width:1;-inkscape-stroke:none;stop-color:#000" transform="translate(-90.347 -92.288)scale(.26458)"><tspan x="429.387" y="481.754">D1</tspan></text><path d="M24.61 62.198 41.97 73.323" style="fill:#00f;stroke:#00f;stroke-width:.264583;stroke-linejoin:round;marker-end:url(#a)"/><path d="m29.063 33.81 13.653 7.08" style="fill:#00f;stroke:#00f;stroke-width:.264583;stroke-linejoin:round;marker-end:url(#a)"/><text xml:space="preserve" style="font-size:16px;line-height:normal;font-family:&quot;Liberation Mono&quot;;-inkscape-font-specification:&quot;Liberation Mono&quot;;text-decoration-color:#000;white-space:pre;shape-inside:url(#l);display:inline;fill:#00f;stroke-width:1;-inkscape-stroke:none;stop-color:#000" transform="translate(-81.582 -48.545)scale(.26458)"><tspan x="380.969" y="416.865">D3A</tspan></text><text xml:space="preserve" style="font-size:16px;line-height:normal;font-family:&quot;Liberation Mono&quot;;-inkscape-font-specification:&quot;Liberation Mono&quot;;text-decoration-color:#000;white-space:pre;shape-inside:url(#m);display:inline;fill:#00f;stroke-width:1;-inkscape-stroke:none;stop-color:#000" transform="translate(-90.347 -68.121)scale(.26458)"><tspan x="421.104" y="435.34">D2</tspan></text><path d="m26.8 46.354 16.52 11.293" style="fill:#00f;stroke:#00f;stroke-width:.264583;stroke-linejoin:round;marker-end:url(#a)"/><text xml:space="preserve" style="font-size:16px;line-height:normal;font-family:&quot;Liberation Mono&quot;;-inkscape-font-specification:&quot;Liberation Mono&quot;;text-decoration-color:#000;white-space:pre;shape-inside:url(#n);display:inline;fill:#00f;stroke-width:1;-inkscape-stroke:none;stop-color:#000" transform="translate(-77.705 -24.104)scale(.26458)"><tspan x="366.316" y="472.291">D4</tspan></text><text xml:space="preserve" style="font-size:16px;line-height:normal;font-family:&quot;Liberation Mono&quot;;-inkscape-font-specification:&quot;Liberation Mono&quot;;text-decoration-color:#000;white-space:pre;shape-inside:url(#o);display:inline;fill:#00f;stroke-width:1;-inkscape-stroke:none;stop-color:#000" transform="translate(-81.92 -30.51)scale(.26458)"><tspan x="383.518" y="545.555">D5</tspan></text><path d="M25.115 99.28 44.5 94.73" style="fill:#00f;stroke:#00f;stroke-width:.264583;stroke-linejoin:round;marker-end:url(#a)"/><path d="m24.61 112.091 18.541-3.54" style="fill:#00f;stroke:#00f;stroke-width:.264583;stroke-linejoin:round;marker-end:url(#a)"/><path d="M48.882 38.213v-3.371" style="fill:#00f;stroke:#00f;stroke-width:.264583;stroke-linejoin:round;marker-start:url(#a);marker-end:url(#a)"/><path d="M48.882 117.795v-4.678" style="fill:#00f;stroke:#00f;stroke-width:.264583;stroke-linejoin:round;marker-start:url(#p);marker-end:url(#p)"/><text xml:space="preserve" style="font-size:16px;line-height:normal;font-family:&quot;Liberation Mono&quot;;-inkscape-font-specification:&quot;Liberation Mono&quot;;text-decoration-color:#000;white-space:pre;shape-inside:url(#q);display:inline;fill:#00f;stroke-width:1;-inkscape-stroke:none;stop-color:#000" transform="translate(-42.432 -99.15)scale(.26458)"><tspan x="337.012" y="502.766">S1</tspan></text><text xml:space="preserve" style="font-size:16px;line-height:normal;font-family:&quot;Liberation Mono&quot;;-inkscape-font-specification:&quot;Liberation Mono&quot;;text-decoration-color:#000;white-space:pre;shape-inside:url(#r);display:inline;fill:#00f;stroke-width:1;-inkscape-stroke:none;stop-color:#000" transform="translate(-37.43 -32.575)scale(.26458)"><tspan x="329.365" y="562.117">S2</tspan></text></g></svg>