<svg xmlns="http://www.w3.org/2000/svg" width="361.582" height="208.685" viewBox="0 0 95.669 55.215"><defs><path id="h" d="M411.849 270.85H436.4v20.159h-24.551z"/><path id="f" d="M406.458 244.193h56.374v38.761h-56.374z"/><path id="e" d="M389.251 195.822h45.869v31.613h-45.869z"/><path id="d" d="M116.903 287.001h80.271v28.987h-80.271z"/><path id="c" d="M293.711 141.45h75.23v31.533h-75.23z"/><path id="a" d="M45.869 286.045h124.866v75.811H45.869z"/><marker id="b" markerHeight="1" markerWidth="1" orient="auto-start-reverse" preserveAspectRatio="xMidYMid" refX="0" refY="0" style="overflow:visible" viewBox="0 0 1 1"><path d="M3-3 0 0l3 3" style="fill:none;stroke:context-stroke;stroke-width:1;stroke-linecap:butt" transform="rotate(180 .125 0)"/></marker><marker id="g" markerHeight="1" markerWidth="1" orient="auto-start-reverse" preserveAspectRatio="xMidYMid" refX="0" refY="0" style="overflow:visible" viewBox="0 0 1 1"><path d="M3-3 0 0l3 3" style="fill:none;stroke:context-stroke;stroke-width:1;stroke-linecap:butt" transform="rotate(180 .125 0)"/></marker></defs><g transform="translate(-28.186 -38.973)"><path d="M28.318 39.106h95.404v54.95H28.318z" style="fill:#fff;stroke:#fff;stroke-width:.264583;stroke-linejoin:round"/><path d="M48.545 58.49h8.26l5.899-1.939s2.411-.779 3.17-1.71c.457-.561.711-1.363.622-2.082-.115-.935-.774-1.766-1.443-2.429-.644-.637-2.35-1.364-2.35-1.364l-5.899-1.938h-8.26z" style="fill:#ffd5d5;stroke:#000;stroke-width:.264583;stroke-linejoin:round"/><path d="m66.897 60.185 7.871 2.501 7.683.104s1.7-.51 2.341-1.082c.453-.402.77-.97.949-1.549.19-.613.232-1.296.097-1.924-.139-.65-.907-1.777-.907-1.777l-6.692-4.695-7.872-2.502-6.21.061s-2.398-.056-3.366.539c-.676.415-1.17 1.167-1.396 1.927-.252.85-.246 1.856.135 2.657.449.946 2.331 2.106 2.331 2.106z" style="fill:#f6ffd5;stroke:#000;stroke-width:.264583;stroke-linejoin:round"/><path d="m82.84 67.888 5.902 5.779 6.812 3.553s1.747.31 2.578.089c.585-.156 1.124-.52 1.544-.956a3.9 3.9 0 0 0 .954-1.674c.169-.643-.01-1.995-.01-1.995l-3.86-7.207-5.9-5.778-5.572-2.743s-2.116-1.131-3.248-1.036c-.79.067-1.571.515-2.115 1.092-.608.646-1.055 1.546-1.076 2.432-.025 1.047 1.132 2.931 1.132 2.931z" style="fill:#f6ffd5;stroke:#000;stroke-width:.264583;stroke-linejoin:round"/><path d="m107.41 85.28-2.791-7.774-3.819-4.897s-1.548-2.006-2.68-2.405c-.683-.24-1.506-.172-2.17.117-.802.35-1.494 1.041-1.888 1.822-.459.91-.4 3.03-.4 3.03l.169 6.207 2.791 7.773z" style="fill:#ffd5d5;stroke:#000;stroke-width:.264583;stroke-linejoin:round"/><circle cx="62.494" cy="52.93" r="2.023" style="fill:#fff;stroke:#000;stroke-width:.264583;stroke-linejoin:round"/><circle cx="82.038" cy="59.084" r="2.023" style="fill:#fff;stroke:#000;stroke-width:.264583;stroke-linejoin:round"/><circle cx="97.05" cy="73.305" r="2.023" style="fill:#fff;stroke:#000;stroke-width:.264583;stroke-linejoin:round"/><text xml:space="preserve" style="font-size:16px;line-height:normal;font-family:&quot;Liberation Mono&quot;;-inkscape-font-specification:&quot;Liberation Mono&quot;;text-decoration-color:#000;white-space:pre;shape-inside:url(#a);fill:#00f;stroke-width:1;-inkscape-stroke:none;stop-color:#000" transform="translate(18.879 -6.91)scale(.26458)"><tspan x="45.869" y="300.281">jointNb</tspan></text><path d="M61.861 55.119 49.725 69.783" style="fill:#f6ffd5;stroke:#00f;stroke-width:.264583;stroke-linejoin:round;marker-start:url(#b)"/><path d="M80.026 60.215 50.568 70.626" style="fill:#00f;stroke:#00f;stroke-width:.264583;stroke-linejoin:round;marker-start:url(#b)"/><path d="M42.898 52.8h29.44M59.38 51.937l27.992 9.117" style="fill:#999;stroke:#999;stroke-width:.264583;stroke-linejoin:round"/><text xml:space="preserve" style="font-size:16px;line-height:normal;font-family:&quot;Liberation Mono&quot;;-inkscape-font-specification:&quot;Liberation Mono&quot;;text-decoration-color:#000;white-space:pre;shape-inside:url(#c);fill:#00f;stroke-width:1;-inkscape-stroke:none;stop-color:#000" transform="translate(-1.06 6.827)scale(.26458)"><tspan x="293.711" y="155.686">jointA</tspan></text><path d="M70.143 52.86s.17.756.119 1.133c-.051.38-.417 1.072-.417 1.072" style="fill:none;stroke:#00f;stroke-width:.529167;stroke-linejoin:round"/><path d="m81.654 49.708-10.446 3.935" style="fill:none;stroke:#00f;stroke-width:.264583;stroke-linejoin:round;marker-end:url(#b)"/><text xml:space="preserve" style="font-size:16px;line-height:normal;font-family:&quot;Liberation Mono&quot;;-inkscape-font-specification:&quot;Liberation Mono&quot;;text-decoration-color:#000;white-space:pre;shape-inside:url(#d);fill:#00f;stroke-width:1;-inkscape-stroke:none;stop-color:#000" transform="translate(.59 -1.77)scale(.26458)"><tspan x="116.902" y="301.236">twist?</tspan></text><path d="m91.918 58.64 5.901 5.779" style="fill:#00f;stroke:#00f;stroke-width:.264583;stroke-linejoin:round;marker-start:url(#b);marker-end:url(#b)"/><text xml:space="preserve" style="font-size:16px;line-height:normal;font-family:&quot;Liberation Mono&quot;;-inkscape-font-specification:&quot;Liberation Mono&quot;;text-decoration-color:#000;white-space:pre;shape-inside:url(#e);fill:#00f;stroke-width:1;-inkscape-stroke:none;stop-color:#000" transform="translate(-8.054 5.324)scale(.26458)"><tspan x="389.25" y="210.059">L1</tspan></text><text xml:space="preserve" style="font-size:16px;line-height:normal;font-family:&quot;Liberation Mono&quot;;-inkscape-font-specification:&quot;Liberation Mono&quot;;text-decoration-color:#000;white-space:pre;shape-inside:url(#f);fill:#00f;stroke-width:1;-inkscape-stroke:none;stop-color:#000" transform="scale(.26458)"><tspan x="406.459" y="258.43">Dinit</tspan></text><path d="m99.073 72.776 8.47-4.4" style="fill:#00f;stroke:#00f;stroke-width:.264583;stroke-linejoin:round;marker-start:url(#b)"/><path d="m95.74 70.321-1.313-2.83" style="fill:#00f;stroke:#00f;stroke-width:.264583;stroke-linejoin:round;marker-start:url(#b)"/><path d="m96.172 71.436.925 1.919" style="fill:#00f;stroke:#00f;stroke-width:.264583;stroke-linejoin:round;marker-start:url(#g)"/><text xml:space="preserve" style="font-size:16px;line-height:normal;font-family:&quot;Liberation Mono&quot;;-inkscape-font-specification:&quot;Liberation Mono&quot;;text-decoration-color:#000;white-space:pre;shape-inside:url(#h);fill:#00f;stroke-width:1;-inkscape-stroke:none;stop-color:#000" transform="translate(-19.398 -6.377)scale(.26458)"><tspan x="411.85" y="285.086">S1</tspan></text></g></svg>