<svg xmlns="http://www.w3.org/2000/svg" width="295.356" height="392.204" viewBox="0 0 78.146 103.771"><defs><path id="p" d="M411.794 431.621h74.733v44.992h-74.733z"/><path id="o" d="M432.384 430.096h50.33v35.841h-50.33z"/><path id="n" d="M431.621 392.729h134.214v76.258H431.621z"/><path id="m" d="M431.621 512.455h64.819v50.33h-64.819z"/><path id="l" d="M362.226 118.2h60.625v39.654h-60.625z"/><path id="k" d="M254.321 465.937h63.676v40.417h-63.676z"/><path id="j" d="M365.658 292.45h64.438v42.323h-64.438z"/><path id="i" d="M354.982 231.443h49.186v28.597h-49.186z"/><path id="h" d="M361.282 221.622h71.987v51.227h-71.987z"/><marker id="a" markerHeight="1" markerWidth="1" orient="auto-start-reverse" preserveAspectRatio="xMidYMid" refX="0" refY="0" style="overflow:visible" viewBox="0 0 1 1"><path d="M3-3 0 0l3 3" style="fill:none;stroke:context-stroke;stroke-width:1;stroke-linecap:butt" transform="rotate(180,0.125,0)"/></marker><marker id="b" markerHeight="1" markerWidth="1" orient="auto-start-reverse" preserveAspectRatio="xMidYMid" refX="0" refY="0" style="overflow:visible" viewBox="0 0 1 1"><path d="M3-3 0 0l3 3" style="fill:none;stroke:context-stroke;stroke-width:1;stroke-linecap:butt" transform="rotate(180,0.125,0)"/></marker><marker id="c" markerHeight="1" markerWidth="1" orient="auto-start-reverse" preserveAspectRatio="xMidYMid" refX="0" refY="0" style="overflow:visible" viewBox="0 0 1 1"><path d="M3-3 0 0l3 3" style="fill:none;stroke:context-stroke;stroke-width:1;stroke-linecap:butt" transform="rotate(180,0.125,0)"/></marker><marker id="d" markerHeight="1" markerWidth="1" orient="auto-start-reverse" preserveAspectRatio="xMidYMid" refX="0" refY="0" style="overflow:visible" viewBox="0 0 1 1"><path d="M3-3 0 0l3 3" style="fill:none;stroke:context-stroke;stroke-width:1;stroke-linecap:butt" transform="rotate(180,0.125,0)"/></marker><marker id="e" markerHeight="1" markerWidth="1" orient="auto-start-reverse" preserveAspectRatio="xMidYMid" refX="0" refY="0" style="overflow:visible" viewBox="0 0 1 1"><path d="M3-3 0 0l3 3" style="fill:none;stroke:context-stroke;stroke-width:1;stroke-linecap:butt" transform="rotate(180,0.125,0)"/></marker><marker id="f" markerHeight="1" markerWidth="1" orient="auto-start-reverse" preserveAspectRatio="xMidYMid" refX="0" refY="0" style="overflow:visible" viewBox="0 0 1 1"><path d="M3-3 0 0l3 3" style="fill:none;stroke:context-stroke;stroke-width:1;stroke-linecap:butt" transform="rotate(180,0.125,0)"/></marker><marker id="g" markerHeight="1" markerWidth="1" orient="auto-start-reverse" preserveAspectRatio="xMidYMid" refX="0" refY="0" style="overflow:visible" viewBox="0 0 1 1"><path d="M3-3 0 0l3 3" style="fill:none;stroke:context-stroke;stroke-width:1;stroke-linecap:butt" transform="rotate(180,0.125,0)"/></marker></defs><g transform="translate(-30.536186,-19.842573)"><path d="M30.668 19.975h77.882v103.506H30.668z" style="opacity:1;fill:#fff;fill-opacity:1;stroke:#fff;stroke-width:.264583;stroke-linejoin:round;stroke-dasharray:none"/><circle cx="74.607" cy="74.949" r="10.451" style="fill:none;stroke:#1a1a1a;stroke-width:.264582;stroke-linejoin:round"/><path d="m67.446 54.973-3.29 19.976s.351 2.846.867 4.167c.327.837.822 1.612 1.384 2.312.63.786 1.369 1.5 2.196 2.075.882.613 1.866 1.101 2.89 1.423 1.002.314 2.064.48 3.114.474 1.132-.006 2.282-.179 3.351-.551 1.186-.413 2.332-1.022 3.292-1.831 1.079-.91 1.974-2.06 2.655-3.296.484-.877.763-1.863.974-2.842.135-.632.18-1.93.18-1.93l-3.29-19.977V34.714H67.445Z" style="fill:#fd5;stroke:#1a1a1a;stroke-width:.264583;stroke-linejoin:round"/><path d="m57.195 88.575 7.427-16.71s.968-2.285 1.694-3.277a9.3 9.3 0 0 1 1.94-1.938c.846-.634 1.783-1.173 2.78-1.523 1.14-.4 2.363-.607 3.571-.629a9.5 9.5 0 0 1 2.867.401c1.107.333 2.184.827 3.13 1.49.95.667 1.784 1.516 2.479 2.446.557.745 1.316 2.461 1.316 2.461l7.62 17.28v20.259H57.196z" style="opacity:1;fill:#faa;fill-opacity:.602007;stroke:#1a1a1a;stroke-width:.264583;stroke-linejoin:round"/><circle cx="74.607" cy="74.949" r="7.562" style="fill:#f95;stroke:#00f;stroke-width:.264583;stroke-linejoin:round"/><circle cx="74.607" cy="74.949" r="5.421" style="fill:#fff;stroke:#1a1a1a;stroke-width:.264583;stroke-linejoin:round"/><path d="M74.607 74.95h-31.63M67.446 54.973h-24.47M67.446 34.714h-24.47M57.195 88.575H42.976M57.063 108.835h-14.22" style="opacity:.5;fill:#fd5;stroke:#1a1a1a;stroke-width:.264583;stroke-linejoin:round"/><path d="m42.844 108.835.132-20.26" style="opacity:1;fill:#00f;fill-opacity:.602007;stroke:#00f;stroke-width:.264583;stroke-linejoin:round;stroke-dasharray:none;marker-start:url(#a);marker-end:url(#a)"/><path d="m42.976 88.243.133-13.031" style="fill:#00f;fill-opacity:.602007;stroke:#00f;stroke-width:.264583;stroke-linejoin:round;stroke-dasharray:none;marker-start:url(#b);marker-end:url(#b)"/><path d="m42.976 74.815.133-19.566" style="fill:#00f;fill-opacity:.602007;stroke:#00f;stroke-width:.264583;stroke-linejoin:round;stroke-dasharray:none;marker-start:url(#c);marker-end:url(#c)"/><path d="m42.978 54.858.133-19.873" style="fill:#00f;fill-opacity:.602007;stroke:#00f;stroke-width:.264583;stroke-linejoin:round;stroke-dasharray:none;marker-start:url(#d);marker-end:url(#d)"/><path d="M57.195 108.967v7.37M92.02 108.967v7.37" style="opacity:.5;fill:#fd5;stroke:#1a1a1a;stroke-width:.264583;stroke-linejoin:round"/><path d="m57.588 116.076 34.04.133" style="fill:#00f;fill-opacity:.602007;stroke:#00f;stroke-width:.264582;stroke-linejoin:round;stroke-dasharray:none;marker-start:url(#e);marker-end:url(#e)"/><path d="M67.449 27.343v7.371M81.768 27.343v7.371" style="opacity:.5;fill:#fd5;stroke:#1a1a1a;stroke-width:.264583;stroke-linejoin:round"/><path d="m67.83 27.648 13.557.133" style="fill:#00f;fill-opacity:.602007;stroke:#00f;stroke-width:.264582;stroke-linejoin:round;stroke-dasharray:none;marker-start:url(#f);marker-end:url(#f)"/><path d="M74.607 69.335v-1.86" style="opacity:1;fill:#00f;fill-opacity:.602007;stroke:#00f;stroke-width:.264583;stroke-linejoin:round;stroke-dasharray:none;marker-start:url(#a);marker-end:url(#a)"/><path d="M74.607 66.99v-2.237" style="fill:#00f;fill-opacity:.602007;stroke:#00f;stroke-width:.264583;stroke-linejoin:round;stroke-dasharray:none;marker-start:url(#g);marker-end:url(#g)"/><text xml:space="preserve" style="font-size:16px;line-height:normal;font-family:&quot;Liberation Mono&quot;;-inkscape-font-specification:&quot;Liberation Mono&quot;;text-decoration-color:#000;white-space:pre;shape-inside:url(#h);fill:#00f;stroke-width:1;-inkscape-stroke:none;stop-color:#000" transform="matrix(0.26458333,0,0,0.26458333,-2.6199922,8.3512831)"><tspan x="361.281" y="235.858">Taxis</tspan></text><text xml:space="preserve" style="font-size:16px;line-height:normal;font-family:&quot;Liberation Mono&quot;;-inkscape-font-specification:&quot;Liberation Mono&quot;;text-decoration-color:#000;white-space:pre;shape-inside:url(#i);fill:#00f;stroke-width:1;-inkscape-stroke:none;stop-color:#000" transform="matrix(0.26458333,0,0,0.26458333,-0.90794835,0.4035326)"><tspan x="354.982" y="245.68">S1</tspan></text><text xml:space="preserve" style="font-size:16px;line-height:normal;font-family:&quot;Liberation Mono&quot;;-inkscape-font-specification:&quot;Liberation Mono&quot;;text-decoration-color:#000;white-space:pre;shape-inside:url(#j);fill:#00f;stroke-width:1;-inkscape-stroke:none;stop-color:#000" transform="matrix(0.26458333,0,0,0.26458333,-3.9344428,-1.6141304)"><tspan x="365.658" y="306.686">R1</tspan></text><path d="m82.422 75.763 9.886 2.018" style="opacity:1;fill:#00f;fill-opacity:.602007;stroke:#00f;stroke-width:.264583;stroke-linejoin:round;stroke-dasharray:none;marker-start:url(#a)"/><path d="m76.167 68.6 16.444.606" style="opacity:1;fill:#00f;fill-opacity:.602007;stroke:navy;stroke-width:.264583;stroke-linejoin:round;stroke-dasharray:none;marker-start:url(#a)"/><path d="m75.763 65.776 16.848-1.917" style="opacity:1;fill:#00f;fill-opacity:.602007;stroke:navy;stroke-width:.264583;stroke-linejoin:round;stroke-dasharray:none;marker-start:url(#a)"/><text xml:space="preserve" style="font-size:16px;line-height:normal;font-family:&quot;Liberation Mono&quot;;-inkscape-font-specification:&quot;Liberation Mono&quot;;text-decoration-color:#000;white-space:pre;shape-inside:url(#k);fill:#00f;stroke-width:1;-inkscape-stroke:none;stop-color:#000" transform="matrix(0.26458333,0,0,0.26458333,4.2370923,-6.9609373)"><tspan x="254.32" y="480.174">W1</tspan></text><text xml:space="preserve" style="font-size:16px;line-height:normal;font-family:&quot;Liberation Mono&quot;;-inkscape-font-specification:&quot;Liberation Mono&quot;;text-decoration-color:#000;white-space:pre;shape-inside:url(#l);fill:#00f;stroke-width:1;-inkscape-stroke:none;stop-color:#000" transform="matrix(0.26458333,0,0,0.26458333,-22.799592,-8.2724183)"><tspan x="362.227" y="132.436">W2</tspan></text><text xml:space="preserve" style="font-size:16px;line-height:normal;font-family:&quot;Liberation Mono&quot;;-inkscape-font-specification:&quot;Liberation Mono&quot;;text-decoration-color:#000;white-space:pre;shape-inside:url(#m);fill:#00f;stroke-width:1;-inkscape-stroke:none;stop-color:#000" transform="matrix(0.26458333,0,0,0.26458333,-80.101221,-38.335597)"><tspan x="431.621" y="526.692">L11</tspan></text><text xml:space="preserve" style="font-size:16px;line-height:normal;font-family:&quot;Liberation Mono&quot;;-inkscape-font-specification:&quot;Liberation Mono&quot;;text-decoration-color:#000;white-space:pre;shape-inside:url(#n);fill:#00f;stroke-width:1;-inkscape-stroke:none;stop-color:#000" transform="matrix(0.26458333,0,0,0.26458333,-80.302987,-25.019021)"><tspan x="431.621" y="406.965">L12</tspan></text><text xml:space="preserve" style="font-size:16px;line-height:normal;font-family:&quot;Liberation Mono&quot;;-inkscape-font-specification:&quot;Liberation Mono&quot;;text-decoration-color:#000;white-space:pre;shape-inside:url(#o);fill:#00f;stroke-width:1;-inkscape-stroke:none;stop-color:#000" transform="matrix(0.26458333,0,0,0.26458333,-80.101221,-51.24864)"><tspan x="432.383" y="444.332">L22</tspan></text><text xml:space="preserve" style="font-size:16px;line-height:normal;font-family:&quot;Liberation Mono&quot;;-inkscape-font-specification:&quot;Liberation Mono&quot;;text-decoration-color:#000;white-space:pre;shape-inside:url(#p);fill:#00f;stroke-width:1;-inkscape-stroke:none;stop-color:#000" transform="matrix(0.26458333,0,0,0.26458333,-74.451765,-71.223504)"><tspan x="411.793" y="445.858">L21</tspan></text></g></svg>