<svg xmlns="http://www.w3.org/2000/svg" width="303.356" height="392.204" viewBox="0 0 80.263 103.771"><defs><path id="y" d="M2.5 274H84v62H2.5z"/><path id="t" d="M464.412 128.876h49.568v37.087h-49.568z"/><path id="s" d="M459.576 198.271h48.303v49.09h-48.303z"/><path id="r" d="M458.311 304.264h59.481v38.135h-59.481z"/><path id="q" d="M452.973 366.039h66.345v45.805h-66.345z"/><path id="p" d="M411.794 431.621h74.733v44.992h-74.733z"/><path id="o" d="M432.384 430.096h50.33v35.841h-50.33z"/><path id="n" d="M431.621 392.729h134.214v76.258H431.621z"/><path id="m" d="M431.621 512.455h64.819v50.33h-64.819z"/><path id="l" d="M362.226 118.2h60.625v39.654h-60.625z"/><path id="k" d="M254.321 465.937h63.676v40.417h-63.676z"/><path id="j" d="M365.658 292.45h64.438v42.323h-64.438z"/><path id="i" d="M354.982 231.443h49.186v28.597h-49.186z"/><path id="h" d="M361.282 221.622h71.987v51.227h-71.987z"/><marker id="a" markerHeight="1" markerWidth="1" orient="auto-start-reverse" preserveAspectRatio="xMidYMid" refX="0" refY="0" style="overflow:visible" viewBox="0 0 1 1"><path d="M3-3 0 0l3 3" style="fill:none;stroke:context-stroke;stroke-width:1;stroke-linecap:butt" transform="rotate(180 .125 0)"/></marker><marker id="b" markerHeight="1" markerWidth="1" orient="auto-start-reverse" preserveAspectRatio="xMidYMid" refX="0" refY="0" style="overflow:visible" viewBox="0 0 1 1"><path d="M3-3 0 0l3 3" style="fill:none;stroke:context-stroke;stroke-width:1;stroke-linecap:butt" transform="rotate(180 .125 0)"/></marker><marker id="c" markerHeight="1" markerWidth="1" orient="auto-start-reverse" preserveAspectRatio="xMidYMid" refX="0" refY="0" style="overflow:visible" viewBox="0 0 1 1"><path d="M3-3 0 0l3 3" style="fill:none;stroke:context-stroke;stroke-width:1;stroke-linecap:butt" transform="rotate(180 .125 0)"/></marker><marker id="d" markerHeight="1" markerWidth="1" orient="auto-start-reverse" preserveAspectRatio="xMidYMid" refX="0" refY="0" style="overflow:visible" viewBox="0 0 1 1"><path d="M3-3 0 0l3 3" style="fill:none;stroke:context-stroke;stroke-width:1;stroke-linecap:butt" transform="rotate(180 .125 0)"/></marker><marker id="e" markerHeight="1" markerWidth="1" orient="auto-start-reverse" preserveAspectRatio="xMidYMid" refX="0" refY="0" style="overflow:visible" viewBox="0 0 1 1"><path d="M3-3 0 0l3 3" style="fill:none;stroke:context-stroke;stroke-width:1;stroke-linecap:butt" transform="rotate(180 .125 0)"/></marker><marker id="f" markerHeight="1" markerWidth="1" orient="auto-start-reverse" preserveAspectRatio="xMidYMid" refX="0" refY="0" style="overflow:visible" viewBox="0 0 1 1"><path d="M3-3 0 0l3 3" style="fill:none;stroke:context-stroke;stroke-width:1;stroke-linecap:butt" transform="rotate(180 .125 0)"/></marker><marker id="g" markerHeight="1" markerWidth="1" orient="auto-start-reverse" preserveAspectRatio="xMidYMid" refX="0" refY="0" style="overflow:visible" viewBox="0 0 1 1"><path d="M3-3 0 0l3 3" style="fill:none;stroke:context-stroke;stroke-width:1;stroke-linecap:butt" transform="rotate(180 .125 0)"/></marker><marker id="u" markerHeight="1" markerWidth="1" orient="auto-start-reverse" preserveAspectRatio="xMidYMid" refX="0" refY="0" style="overflow:visible" viewBox="0 0 1 1"><path d="M3-3 0 0l3 3" style="fill:none;stroke:context-stroke;stroke-width:1;stroke-linecap:butt" transform="rotate(180 .125 0)"/></marker><marker id="v" markerHeight="1" markerWidth="1" orient="auto-start-reverse" preserveAspectRatio="xMidYMid" refX="0" refY="0" style="overflow:visible" viewBox="0 0 1 1"><path d="M3-3 0 0l3 3" style="fill:none;stroke:context-stroke;stroke-width:1;stroke-linecap:butt" transform="rotate(180 .125 0)"/></marker><marker id="w" markerHeight="1" markerWidth="1" orient="auto-start-reverse" preserveAspectRatio="xMidYMid" refX="0" refY="0" style="overflow:visible" viewBox="0 0 1 1"><path d="M3-3 0 0l3 3" style="fill:none;stroke:context-stroke;stroke-width:1;stroke-linecap:butt" transform="rotate(180 .125 0)"/></marker><marker id="x" markerHeight="1" markerWidth="1" orient="auto-start-reverse" preserveAspectRatio="xMidYMid" refX="0" refY="0" style="overflow:visible" viewBox="0 0 1 1"><path d="M3-3 0 0l3 3" style="fill:none;stroke:context-stroke;stroke-width:1;stroke-linecap:butt" transform="rotate(180 .125 0)"/></marker></defs><g transform="translate(-30.536 -19.843)"><path d="M30.668 19.975h79.998v103.506H30.668z" style="opacity:1;fill:#fff;fill-opacity:1;stroke:#fff;stroke-width:.264583;stroke-linejoin:round;stroke-dasharray:none"/><circle cx="74.607" cy="74.949" r="10.451" style="fill:none;stroke:#1a1a1a;stroke-width:.264582;stroke-linejoin:round"/><path d="m57.195 88.575 7.427-16.71s.968-2.285 1.694-3.277a9.3 9.3 0 0 1 1.94-1.938c.846-.634 1.783-1.173 2.78-1.523 1.14-.4 2.363-.607 3.571-.629a9.5 9.5 0 0 1 2.867.401c1.107.333 2.184.827 3.13 1.49.95.667 1.784 1.516 2.479 2.446.557.745 1.316 2.461 1.316 2.461l7.62 17.28v20.259H57.196z" style="opacity:1;fill:#faa;fill-opacity:.602007;stroke:#1a1a1a;stroke-width:.264583;stroke-linejoin:round"/><circle cx="74.607" cy="85.236" r="1.791" style="fill:#fff;stroke:#1a1a1a;stroke-width:.264583;stroke-linejoin:round"/><path d="m67.446 54.973-3.29 19.976s.351 2.846.867 4.167c.327.837.822 1.612 1.384 2.312.63.786 1.369 1.5 2.196 2.075.882.613 1.866 1.101 2.89 1.423 1.002.314 2.064.48 3.114.474 1.132-.006 2.282-.179 3.351-.551 1.186-.413 2.332-1.022 3.292-1.831 1.079-.91 1.974-2.06 2.655-3.296.484-.877.763-1.863.974-2.842.135-.632.18-1.93.18-1.93l-3.29-19.977V34.714H67.445Z" style="opacity:.8;fill:#fd5;stroke:#1a1a1a;stroke-width:.264583;stroke-linejoin:round"/><circle cx="74.607" cy="74.949" r="7.562" style="fill:#f95;stroke:#00f;stroke-width:.264583;stroke-linejoin:round"/><circle cx="74.607" cy="74.949" r="5.421" style="fill:#fff;stroke:#1a1a1a;stroke-width:.264583;stroke-linejoin:round"/><path d="M74.607 74.95h-31.63M67.446 54.973h-24.47M67.446 34.714h-24.47M57.195 88.575H42.976M57.063 108.835h-14.22" style="opacity:.5;fill:#fd5;stroke:#1a1a1a;stroke-width:.264583;stroke-linejoin:round"/><path d="m42.844 108.835.132-20.26" style="opacity:1;fill:#00f;fill-opacity:.602007;stroke:#00f;stroke-width:.264583;stroke-linejoin:round;stroke-dasharray:none;marker-start:url(#a);marker-end:url(#a)"/><path d="m42.976 88.243.133-13.031" style="fill:#00f;fill-opacity:.602007;stroke:#00f;stroke-width:.264583;stroke-linejoin:round;stroke-dasharray:none;marker-start:url(#b);marker-end:url(#b)"/><path d="m42.976 74.815.133-19.566" style="fill:#00f;fill-opacity:.602007;stroke:#00f;stroke-width:.264583;stroke-linejoin:round;stroke-dasharray:none;marker-start:url(#c);marker-end:url(#c)"/><path d="m42.978 54.858.133-19.873" style="fill:#00f;fill-opacity:.602007;stroke:#00f;stroke-width:.264583;stroke-linejoin:round;stroke-dasharray:none;marker-start:url(#d);marker-end:url(#d)"/><path d="M57.195 108.967v7.37M92.02 108.967v7.37" style="opacity:.5;fill:#fd5;stroke:#1a1a1a;stroke-width:.264583;stroke-linejoin:round"/><path d="m57.588 116.076 34.04.133" style="fill:#00f;fill-opacity:.602007;stroke:#00f;stroke-width:.264582;stroke-linejoin:round;stroke-dasharray:none;marker-start:url(#e);marker-end:url(#e)"/><path d="M67.449 27.343v7.371M81.768 27.343v7.371" style="opacity:.5;fill:#fd5;stroke:#1a1a1a;stroke-width:.264583;stroke-linejoin:round"/><path d="m67.83 27.648 13.557.133" style="fill:#00f;fill-opacity:.602007;stroke:#00f;stroke-width:.264582;stroke-linejoin:round;stroke-dasharray:none;marker-start:url(#f);marker-end:url(#f)"/><path d="M74.607 69.335v-1.86" style="opacity:1;fill:#00f;fill-opacity:.602007;stroke:#00f;stroke-width:.264583;stroke-linejoin:round;stroke-dasharray:none;marker-start:url(#a);marker-end:url(#a)"/><path d="M74.607 66.99v-2.237" style="fill:#00f;fill-opacity:.602007;stroke:#00f;stroke-width:.264583;stroke-linejoin:round;stroke-dasharray:none;marker-start:url(#g);marker-end:url(#g)"/><text xml:space="preserve" style="font-size:16px;line-height:normal;font-family:&quot;Liberation Mono&quot;;-inkscape-font-specification:&quot;Liberation Mono&quot;;text-decoration-color:#000;white-space:pre;shape-inside:url(#h);display:inline;fill:#00f;stroke-width:1;-inkscape-stroke:none;stop-color:#000" transform="translate(-2.62 8.351)scale(.26458)"><tspan x="361.281" y="235.858">Taxis</tspan></text><text xml:space="preserve" style="font-size:16px;line-height:normal;font-family:&quot;Liberation Mono&quot;;-inkscape-font-specification:&quot;Liberation Mono&quot;;text-decoration-color:#000;white-space:pre;shape-inside:url(#i);display:inline;fill:#00f;stroke-width:1;-inkscape-stroke:none;stop-color:#000" transform="translate(-.908 .404)scale(.26458)"><tspan x="354.982" y="245.68">S1</tspan></text><text xml:space="preserve" style="font-size:16px;line-height:normal;font-family:&quot;Liberation Mono&quot;;-inkscape-font-specification:&quot;Liberation Mono&quot;;text-decoration-color:#000;white-space:pre;shape-inside:url(#j);display:inline;fill:#00f;stroke-width:1;-inkscape-stroke:none;stop-color:#000" transform="translate(-3.934 -1.614)scale(.26458)"><tspan x="365.658" y="306.686">D1</tspan></text><path d="m82.422 75.763 9.886 2.018" style="opacity:1;fill:#00f;fill-opacity:.602007;stroke:#00f;stroke-width:.264583;stroke-linejoin:round;stroke-dasharray:none;marker-start:url(#a)"/><path d="m76.167 68.6 16.444.606" style="opacity:1;fill:#00f;fill-opacity:.602007;stroke:navy;stroke-width:.264583;stroke-linejoin:round;stroke-dasharray:none;marker-start:url(#a)"/><path d="m75.763 65.776 16.848-1.917" style="opacity:1;fill:#00f;fill-opacity:.602007;stroke:navy;stroke-width:.264583;stroke-linejoin:round;stroke-dasharray:none;marker-start:url(#a)"/><text xml:space="preserve" style="font-size:16px;line-height:normal;font-family:&quot;Liberation Mono&quot;;-inkscape-font-specification:&quot;Liberation Mono&quot;;text-decoration-color:#000;white-space:pre;shape-inside:url(#k);display:inline;fill:#00f;stroke-width:1;-inkscape-stroke:none;stop-color:#000" transform="translate(2.12 -6.96)scale(.26458)"><tspan x="254.32" y="480.174">W12A</tspan></text><text xml:space="preserve" style="font-size:16px;line-height:normal;font-family:&quot;Liberation Mono&quot;;-inkscape-font-specification:&quot;Liberation Mono&quot;;text-decoration-color:#000;white-space:pre;shape-inside:url(#l);display:inline;fill:#00f;stroke-width:1;-inkscape-stroke:none;stop-color:#000" transform="translate(-27.033 -8.272)scale(.26458)"><tspan x="362.227" y="132.436">W22A</tspan></text><text xml:space="preserve" style="font-size:16px;line-height:normal;font-family:&quot;Liberation Mono&quot;;-inkscape-font-specification:&quot;Liberation Mono&quot;;text-decoration-color:#000;white-space:pre;shape-inside:url(#m);display:inline;fill:#00f;stroke-width:1;-inkscape-stroke:none;stop-color:#000" transform="translate(-80.101 -38.336)scale(.26458)"><tspan x="431.621" y="526.692">L11</tspan></text><text xml:space="preserve" style="font-size:16px;line-height:normal;font-family:&quot;Liberation Mono&quot;;-inkscape-font-specification:&quot;Liberation Mono&quot;;text-decoration-color:#000;white-space:pre;shape-inside:url(#n);display:inline;fill:#00f;stroke-width:1;-inkscape-stroke:none;stop-color:#000" transform="translate(-80.303 -25.019)scale(.26458)"><tspan x="431.621" y="406.965">L12</tspan></text><text xml:space="preserve" style="font-size:16px;line-height:normal;font-family:&quot;Liberation Mono&quot;;-inkscape-font-specification:&quot;Liberation Mono&quot;;text-decoration-color:#000;white-space:pre;shape-inside:url(#o);display:inline;fill:#00f;stroke-width:1;-inkscape-stroke:none;stop-color:#000" transform="translate(-80.101 -51.249)scale(.26458)"><tspan x="432.383" y="444.332">L22</tspan></text><text xml:space="preserve" style="font-size:16px;line-height:normal;font-family:&quot;Liberation Mono&quot;;-inkscape-font-specification:&quot;Liberation Mono&quot;;text-decoration-color:#000;white-space:pre;shape-inside:url(#p);display:inline;fill:#00f;stroke-width:1;-inkscape-stroke:none;stop-color:#000" transform="translate(-74.452 -71.224)scale(.26458)"><tspan x="411.793" y="445.858">L21</tspan></text><circle cx="74.954" cy="99.624" r="7.215" style="fill:#fff;stroke:#1a1a1a;stroke-width:.264583;stroke-linejoin:round"/><circle cx="74.607" cy="44.921" r="5.424" style="fill:#fff;stroke:#1a1a1a;stroke-width:.264583;stroke-linejoin:round"/><circle cx="74.607" cy="59.739" r="3.748" style="fill:#fff;stroke:#1a1a1a;stroke-width:.264583;stroke-linejoin:round"/><text xml:space="preserve" style="font-size:16px;line-height:normal;font-family:&quot;Liberation Mono&quot;;-inkscape-font-specification:&quot;Liberation Mono&quot;;text-decoration-color:#000;white-space:pre;shape-inside:url(#q);display:inline;fill:#00f;stroke-width:1;-inkscape-stroke:none;stop-color:#000" transform="translate(-22.166 -3.333)scale(.26458)"><tspan x="452.973" y="380.276">D13A</tspan></text><text xml:space="preserve" style="font-size:16px;line-height:normal;font-family:&quot;Liberation Mono&quot;;-inkscape-font-specification:&quot;Liberation Mono&quot;;text-decoration-color:#000;white-space:pre;shape-inside:url(#r);display:inline;fill:#00f;stroke-width:1;-inkscape-stroke:none;stop-color:#000" transform="translate(-23.607 5.59)scale(.26458)"><tspan x="458.311" y="318.5">D12</tspan></text><text xml:space="preserve" style="font-size:16px;line-height:normal;font-family:&quot;Liberation Mono&quot;;-inkscape-font-specification:&quot;Liberation Mono&quot;;text-decoration-color:#000;white-space:pre;shape-inside:url(#s);display:inline;fill:#00f;stroke-width:1;-inkscape-stroke:none;stop-color:#000" transform="translate(-30.893 1.018)scale(.26458)"><tspan x="459.576" y="212.508">D22</tspan></text><text xml:space="preserve" style="font-size:16px;line-height:normal;font-family:&quot;Liberation Mono&quot;;-inkscape-font-specification:&quot;Liberation Mono&quot;;text-decoration-color:#000;white-space:pre;shape-inside:url(#t);display:inline;fill:#00f;stroke-width:1;-inkscape-stroke:none;stop-color:#000" transform="translate(-29.617 11.379)scale(.26458)"><tspan x="464.412" y="143.113">D23A</tspan></text><path d="m76.402 86.295 20.611 2.017" style="fill:#00f;fill-opacity:.602007;stroke:#00f;stroke-width:.264583;stroke-linejoin:round;stroke-dasharray:none;marker-start:url(#u)"/><path d="m82.553 97.884 14.388-2.018" style="fill:#00f;fill-opacity:.602007;stroke:#00f;stroke-width:.264583;stroke-linejoin:round;stroke-dasharray:none;marker-start:url(#v)"/><path d="m80.548 46.079 11.965 2.018" style="fill:#00f;fill-opacity:.602007;stroke:#00f;stroke-width:.264583;stroke-linejoin:round;stroke-dasharray:none;marker-start:url(#w)"/><path d="m78.566 58.462 11.965-2.017" style="fill:#00f;fill-opacity:.602007;stroke:#00f;stroke-width:.264583;stroke-linejoin:round;stroke-dasharray:none;marker-start:url(#x)"/><path d="M63.368 67.601s-1.735 2.519-2.117 3.969c-.45 1.706-.516 3.57-.132 5.291.3 1.348 1.852 3.705 1.852 3.705" style="fill:none;stroke:#00f;stroke-width:.264583;stroke-linejoin:round;marker-start:url(#a);marker-end:url(#a)"/><text xml:space="preserve" style="font-size:16px;line-height:normal;font-family:&quot;Liberation Mono&quot;;-inkscape-font-specification:&quot;Liberation Mono&quot;;text-decoration-color:#000;white-space:pre;shape-inside:url(#y);fill:#00f;stroke-width:1;-inkscape-stroke:none;stop-color:#000" transform="translate(45.905 -7.805)scale(.26458)"><tspan x="2.5" y="288.236">JointA</tspan></text></g></svg>