<svg xmlns="http://www.w3.org/2000/svg" width="352" height="395" viewBox="0 0 93.133 104.51"><defs><path id="y" d="M440.25 767h25.875v23.875H440.25z"/><path id="x" d="M435 764.125h30.875V790H435z"/><path id="t" d="M501.779 743.517h48.043v22.496h-48.043z"/><path id="s" d="M477.376 757.625h42.705v30.503h-42.705z"/><path id="r" d="M467.462 784.315h54.906v34.697h-54.906z"/><path id="q" d="M456.405 858.285h46.136v37.748h-46.136z"/><path id="m" d="M51.093 808.717h41.561v32.028H51.093z"/><path id="l" d="M82.359 774.783h47.661v34.697H82.359z"/><path id="k" d="M121.25 813.674h35.079v26.69H121.25z"/><path id="j" d="M256.99 553.253h48.424v23.259H256.99z"/><path id="i" d="M172.343 958.946h69.395v31.266h-69.395z"/><path id="h" d="M98.754 873.537h53.381v30.122H98.754z"/><path id="f" d="M85.028 701.575h63.294v38.51H85.028z"/><path id="z" d="M440.25 767h25.875v23.875H440.25z"/><marker id="a" markerHeight="1" markerWidth="1" orient="auto-start-reverse" preserveAspectRatio="xMidYMid" refX="0" refY="0" style="overflow:visible" viewBox="0 0 1 1"><path d="M3-3 0 0l3 3" style="fill:none;stroke:context-stroke;stroke-width:1;stroke-linecap:butt" transform="rotate(180 .125 0)"/></marker><marker id="b" markerHeight="1" markerWidth="1" orient="auto-start-reverse" preserveAspectRatio="xMidYMid" refX="0" refY="0" style="overflow:visible" viewBox="0 0 1 1"><path d="M3-3 0 0l3 3" style="fill:none;stroke:context-stroke;stroke-width:1;stroke-linecap:butt" transform="rotate(180 .125 0)"/></marker><marker id="c" markerHeight="1" markerWidth="1" orient="auto-start-reverse" preserveAspectRatio="xMidYMid" refX="0" refY="0" style="overflow:visible" viewBox="0 0 1 1"><path d="M3-3 0 0l3 3" style="fill:none;stroke:context-stroke;stroke-width:1;stroke-linecap:butt" transform="rotate(180 .125 0)"/></marker><marker id="d" markerHeight="1" markerWidth="1" orient="auto-start-reverse" preserveAspectRatio="xMidYMid" refX="0" refY="0" style="overflow:visible" viewBox="0 0 1 1"><path d="M3-3 0 0l3 3" style="fill:none;stroke:context-stroke;stroke-width:1;stroke-linecap:butt" transform="rotate(180 .125 0)"/></marker><marker id="e" markerHeight="1" markerWidth="1" orient="auto-start-reverse" preserveAspectRatio="xMidYMid" refX="0" refY="0" style="overflow:visible" viewBox="0 0 1 1"><path d="M3-3 0 0l3 3" style="fill:none;stroke:context-stroke;stroke-width:1;stroke-linecap:butt" transform="rotate(180 .125 0)"/></marker><marker id="g" markerHeight="1" markerWidth="1" orient="auto-start-reverse" preserveAspectRatio="xMidYMid" refX="0" refY="0" style="overflow:visible" viewBox="0 0 1 1"><path d="M3-3 0 0l3 3" style="fill:none;stroke:context-stroke;stroke-width:1;stroke-linecap:butt" transform="rotate(180 .125 0)"/></marker><marker id="n" markerHeight="1" markerWidth="1" orient="auto-start-reverse" preserveAspectRatio="xMidYMid" refX="0" refY="0" style="overflow:visible" viewBox="0 0 1 1"><path d="M3-3 0 0l3 3" style="fill:none;stroke:context-stroke;stroke-width:1;stroke-linecap:butt" transform="rotate(180 .125 0)"/></marker><marker id="o" markerHeight="1" markerWidth="1" orient="auto-start-reverse" preserveAspectRatio="xMidYMid" refX="0" refY="0" style="overflow:visible" viewBox="0 0 1 1"><path d="M3-3 0 0l3 3" style="fill:none;stroke:context-stroke;stroke-width:1;stroke-linecap:butt" transform="rotate(180 .125 0)"/></marker><marker id="p" markerHeight="1" markerWidth="1" orient="auto-start-reverse" preserveAspectRatio="xMidYMid" refX="0" refY="0" style="overflow:visible" viewBox="0 0 1 1"><path d="M3-3 0 0l3 3" style="fill:none;stroke:context-stroke;stroke-width:1;stroke-linecap:butt" transform="rotate(180 .125 0)"/></marker><marker id="u" markerHeight="1" markerWidth="1" orient="auto-start-reverse" preserveAspectRatio="xMidYMid" refX="0" refY="0" style="overflow:visible" viewBox="0 0 1 1"><path d="M3-3 0 0l3 3" style="fill:none;stroke:context-stroke;stroke-width:1;stroke-linecap:butt" transform="rotate(180 .125 0)"/></marker><marker id="v" markerHeight="1" markerWidth="1" orient="auto-start-reverse" preserveAspectRatio="xMidYMid" refX="0" refY="0" style="overflow:visible" viewBox="0 0 1 1"><path d="M3-3 0 0l3 3" style="fill:none;stroke:context-stroke;stroke-width:1;stroke-linecap:butt" transform="rotate(180 .125 0)"/></marker><marker id="w" markerHeight="1" markerWidth="1" orient="auto-start-reverse" preserveAspectRatio="xMidYMid" refX="0" refY="0" style="overflow:visible" viewBox="0 0 1 1"><path d="M3-3 0 0l3 3" style="fill:none;stroke:context-stroke;stroke-width:1;stroke-linecap:butt" transform="rotate(180 .125 0)"/></marker></defs><g transform="translate(-34.793 -151.474)"><path d="M34.925 151.606h92.869v104.246H34.925z" style="opacity:1;fill:#fff;stroke:#fff;stroke-width:.264583;stroke-linejoin:round;stroke-dasharray:none"/><path d="M89.814 220.621h21.561M85.798 186.94h25.577" style="fill:#ffe680;stroke:#999;stroke-width:.264583;stroke-linejoin:round"/><path d="M61.035 166.781v50.687h3.075V187.04h21.688v30.427h3.075V166.78z" style="opacity:1;fill:#ffe680;stroke:#1a1a1a;stroke-width:.264583;stroke-linejoin:round"/><path d="M57.019 196.543v44.337h35.87v-44.337h-3.075v24.078h-29.72v-24.078z" style="opacity:1;fill:#faa;stroke:#1a1a1a;stroke-width:.264583;stroke-linejoin:round"/><path d="M57.019 199.432H92.89v15.146H57.019z" style="opacity:.6;fill:#f95;stroke:#333;stroke-width:.264583;stroke-linejoin:round"/><circle cx="74.599" cy="176.297" r="7.215" style="fill:#fff;stroke:#1a1a1a;stroke-width:.264583;stroke-linejoin:round"/><circle cx="74.954" cy="230.751" r="7.215" style="fill:#fff;stroke:#1a1a1a;stroke-width:.264583;stroke-linejoin:round"/><path d="M88.873 166.781h22.502" style="opacity:1;fill:#ffe680;stroke:#999;stroke-width:.264583;stroke-linejoin:round"/><path d="M93.022 206.618h18.353M91.954 199.432h10.43M91.857 196.543h10.43M57.019 240.88v6.879M92.89 240.88h18.485M91.954 214.578h10.43M89.006 217.468h13.378M92.89 240.88v6.879" style="fill:#ffe680;stroke:#999;stroke-width:.264583;stroke-linejoin:round"/><path d="M57.019 247.148h35.87" style="opacity:1;fill:#ffe680;stroke:#00f;stroke-width:.264583;stroke-linejoin:round;stroke-dasharray:none;marker-start:url(#a);marker-end:url(#a)"/><path d="M57.134 218.504h2.96" style="fill:#ffe680;stroke:#00f;stroke-width:.264584;stroke-linejoin:round;stroke-dasharray:none;marker-start:url(#b);marker-end:url(#b)"/><path d="M61.156 190.838h2.96" style="fill:#ffe680;stroke:#00f;stroke-width:.264584;stroke-linejoin:round;stroke-dasharray:none;marker-start:url(#c);marker-end:url(#c)"/><path d="M61.035 159.903v6.878M88.873 159.903v6.878" style="fill:#ffe680;stroke:#999;stroke-width:.264583;stroke-linejoin:round"/><path d="M61.358 159.903h27.134" style="fill:#ffe680;stroke:#999;stroke-width:.264583;stroke-linejoin:round;stroke-dasharray:none;marker-start:url(#d);marker-end:url(#d)"/><path d="M61.206 198.026h6.134" style="opacity:1;fill:#ffe680;stroke:#00f;stroke-width:.264583;stroke-linejoin:round;stroke-dasharray:none;marker-start:url(#a)"/><path d="M59.94 198.026H52.5" style="fill:#ffe680;stroke:#00f;stroke-width:.264583;stroke-linejoin:round;stroke-dasharray:none;marker-start:url(#e)"/><path d="m51.854 170.392 15.334 3.43" style="opacity:1;fill:#ffe680;stroke:#00f;stroke-width:.264583;stroke-linejoin:round;stroke-dasharray:none;marker-end:url(#a)"/><text xml:space="preserve" style="font-size:16px;line-height:normal;font-family:&quot;Liberation Mono&quot;;-inkscape-font-specification:&quot;Liberation Mono&quot;;text-decoration-color:#000;white-space:pre;shape-inside:url(#f);fill:#00f;stroke-width:1;-inkscape-stroke:none;stop-color:#000" transform="translate(18.26 -18.36)scale(.26458)"><tspan x="85.027" y="715.811">D23B</tspan></text><path d="m51.872 235.152 15.334-3.43" style="fill:#ffe680;stroke:#00f;stroke-width:.264583;stroke-linejoin:round;stroke-dasharray:none;marker-end:url(#g)"/><text xml:space="preserve" style="font-size:16px;line-height:normal;font-family:&quot;Liberation Mono&quot;;-inkscape-font-specification:&quot;Liberation Mono&quot;;text-decoration-color:#000;white-space:pre;shape-inside:url(#h);fill:#00f;stroke-width:1;-inkscape-stroke:none;stop-color:#000" transform="translate(15.132 1.917)scale(.26458)"><tspan x="98.754" y="887.774">D13B</tspan></text><text xml:space="preserve" style="font-size:16px;line-height:normal;font-family:&quot;Liberation Mono&quot;;-inkscape-font-specification:&quot;Liberation Mono&quot;;text-decoration-color:#000;white-space:pre;shape-inside:url(#i);fill:#00f;stroke-width:1;-inkscape-stroke:none;stop-color:#000" transform="translate(24.239 -6.658)scale(.26458)"><tspan x="172.344" y="973.182">W12B</tspan></text><text xml:space="preserve" style="font-size:16px;line-height:normal;font-family:&quot;Liberation Mono&quot;;-inkscape-font-specification:&quot;Liberation Mono&quot;;text-decoration-color:#000;white-space:pre;shape-inside:url(#j);fill:#666;stroke-width:1;-inkscape-stroke:none;stop-color:#000" transform="translate(1.136 8.777)scale(.26458)"><tspan x="256.99" y="567.488">W22B</tspan></text><text xml:space="preserve" style="font-size:16px;line-height:normal;font-family:&quot;Liberation Mono&quot;;-inkscape-font-specification:&quot;Liberation Mono&quot;;text-decoration-color:#000;white-space:pre;shape-inside:url(#k);fill:#00f;stroke-width:1;-inkscape-stroke:none;stop-color:#000" transform="translate(18.764 .908)scale(.26458)"><tspan x="121.25" y="827.91">T1</tspan></text><text xml:space="preserve" style="font-size:16px;line-height:normal;font-family:&quot;Liberation Mono&quot;;-inkscape-font-specification:&quot;Liberation Mono&quot;;text-decoration-color:#000;white-space:pre;shape-inside:url(#l);fill:#00f;stroke-width:1;-inkscape-stroke:none;stop-color:#000" transform="translate(22.598 -8.878)scale(.26458)"><tspan x="82.359" y="789.02">E12</tspan></text><text xml:space="preserve" style="font-size:16px;line-height:normal;font-family:&quot;Liberation Mono&quot;;-inkscape-font-specification:&quot;Liberation Mono&quot;;text-decoration-color:#000;white-space:pre;shape-inside:url(#m);fill:#00f;stroke-width:1;-inkscape-stroke:none;stop-color:#000" transform="translate(41.564 -25.322)scale(.26458)"><tspan x="51.094" y="822.953">T2</tspan></text><path d="M111.375 166.777v19.782" style="opacity:1;fill:#00f;stroke:#00f;stroke-width:.264583;stroke-linejoin:round;stroke-dasharray:none;marker-start:url(#a);marker-end:url(#a)"/><path d="M111.375 221.002v19.782" style="fill:#00f;stroke:#00f;stroke-width:.264583;stroke-linejoin:round;stroke-dasharray:none;marker-start:url(#n);marker-end:url(#n)"/><path d="M111.375 187.253v18.993" style="fill:#00f;stroke:#00f;stroke-width:.264583;stroke-linejoin:round;stroke-dasharray:none;marker-start:url(#o);marker-end:url(#o)"/><path d="M111.375 206.746v13.491" style="fill:#00f;stroke:#00f;stroke-width:.264583;stroke-linejoin:round;stroke-dasharray:none;marker-start:url(#p);marker-end:url(#p)"/><text xml:space="preserve" style="font-size:16px;line-height:normal;font-family:&quot;Liberation Mono&quot;;-inkscape-font-specification:&quot;Liberation Mono&quot;;text-decoration-color:#000;white-space:pre;shape-inside:url(#q);fill:#00f;stroke-width:1;-inkscape-stroke:none;stop-color:#000" transform="translate(-8.878 1.614)scale(.26458)"><tspan x="456.404" y="872.522">L11</tspan></text><text xml:space="preserve" style="font-size:16px;line-height:normal;font-family:&quot;Liberation Mono&quot;;-inkscape-font-specification:&quot;Liberation Mono&quot;;text-decoration-color:#000;white-space:pre;shape-inside:url(#r);fill:#00f;stroke-width:1;-inkscape-stroke:none;stop-color:#000" transform="translate(-12.005 3.632)scale(.26458)"><tspan x="467.463" y="798.551">L12</tspan></text><text xml:space="preserve" style="font-size:16px;line-height:normal;font-family:&quot;Liberation Mono&quot;;-inkscape-font-specification:&quot;Liberation Mono&quot;;text-decoration-color:#000;white-space:pre;shape-inside:url(#s);fill:#00f;stroke-width:1;-inkscape-stroke:none;stop-color:#000" transform="translate(-14.325 -6.457)scale(.26458)"><tspan x="477.375" y="771.861">L22</tspan></text><text xml:space="preserve" style="font-size:16px;line-height:normal;font-family:&quot;Liberation Mono&quot;;-inkscape-font-specification:&quot;Liberation Mono&quot;;text-decoration-color:#000;white-space:pre;shape-inside:url(#t);fill:#00f;stroke-width:1;-inkscape-stroke:none;stop-color:#000" transform="translate(-20.782 -23.304)scale(.26458)"><tspan x="501.779" y="757.754">L21</tspan></text><path d="M102.384 199.758v14.496" style="fill:#00f;stroke:#00f;stroke-width:.264583;stroke-linejoin:round;stroke-dasharray:none;marker-start:url(#u);marker-end:url(#u)"/><path d="M102.384 196.948v2.158" style="fill:#00f;stroke:#00f;stroke-width:.264583;stroke-linejoin:round;stroke-dasharray:none;marker-start:url(#v);marker-end:url(#v)"/><path d="M102.384 214.965v2.158" style="fill:#00f;stroke:#00f;stroke-width:.264583;stroke-linejoin:round;stroke-dasharray:none;marker-start:url(#w);marker-end:url(#w)"/><text xml:space="preserve" style="font-size:16px;line-height:normal;font-family:&quot;Liberation Mono&quot;;-inkscape-font-specification:&quot;Liberation Mono&quot;;text-decoration-color:#000;white-space:pre;shape-inside:url(#x);fill:#00f;stroke-width:1;-inkscape-stroke:none;stop-color:#000" transform="translate(-12.6 2.249)scale(.26458)"><tspan x="435" y="778.361">D1</tspan></text><text xml:space="preserve" style="font-size:16px;line-height:normal;font-family:&quot;Liberation Mono&quot;;-inkscape-font-specification:&quot;Liberation Mono&quot;;text-decoration-color:#000;white-space:pre;shape-inside:url(#y);fill:#00f;stroke-width:1;-inkscape-stroke:none;stop-color:#000" transform="translate(-13.23 10.815)scale(.26458)"><tspan x="440.25" y="781.236">S1</tspan></text><text xml:space="preserve" style="font-size:16px;line-height:normal;font-family:&quot;Liberation Mono&quot;;-inkscape-font-specification:&quot;Liberation Mono&quot;;text-decoration-color:#000;white-space:pre;shape-inside:url(#z);display:inline;fill:#00f;stroke-width:1;-inkscape-stroke:none;stop-color:#000" transform="translate(-13.194 -7.252)scale(.26458)"><tspan x="440.25" y="781.236">S1</tspan></text></g></svg>