<svg xmlns="http://www.w3.org/2000/svg" width="348.5" height="335" viewBox="0 0 92.207 88.635"><defs><marker id="t" markerHeight="1" markerWidth="1" orient="auto-start-reverse" preserveAspectRatio="xMidYMid" refX="0" refY="0" style="overflow:visible" viewBox="0 0 1 1"><path d="M3-3 0 0l3 3" style="fill:none;stroke:context-stroke;stroke-width:1;stroke-linecap:butt" transform="rotate(180 .125 0)"/></marker><marker id="a" markerHeight="1" markerWidth="1" orient="auto-start-reverse" preserveAspectRatio="xMidYMid" refX="0" refY="0" style="overflow:visible" viewBox="0 0 1 1"><path d="M3-3 0 0l3 3" style="fill:none;stroke:context-stroke;stroke-width:1;stroke-linecap:butt" transform="rotate(180 .125 0)"/></marker><marker id="c" markerHeight="1" markerWidth="1" orient="auto-start-reverse" preserveAspectRatio="xMidYMid" refX="0" refY="0" style="overflow:visible" viewBox="0 0 1 1"><path d="M3-3 0 0l3 3" style="fill:none;stroke:context-stroke;stroke-width:1;stroke-linecap:butt" transform="rotate(180 .125 0)"/></marker><marker id="e" markerHeight="1" markerWidth="1" orient="auto-start-reverse" preserveAspectRatio="xMidYMid" refX="0" refY="0" style="overflow:visible" viewBox="0 0 1 1"><path d="M3-3 0 0l3 3" style="fill:none;stroke:context-stroke;stroke-width:1;stroke-linecap:butt" transform="rotate(180 .125 0)"/></marker><marker id="g" markerHeight="1" markerWidth="1" orient="auto-start-reverse" preserveAspectRatio="xMidYMid" refX="0" refY="0" style="overflow:visible" viewBox="0 0 1 1"><path d="M3-3 0 0l3 3" style="fill:none;stroke:context-stroke;stroke-width:1;stroke-linecap:butt" transform="rotate(180 .125 0)"/></marker><marker id="i" markerHeight="1" markerWidth="1" orient="auto-start-reverse" preserveAspectRatio="xMidYMid" refX="0" refY="0" style="overflow:visible" viewBox="0 0 1 1"><path d="M3-3 0 0l3 3" style="fill:none;stroke:context-stroke;stroke-width:1;stroke-linecap:butt" transform="rotate(180 .125 0)"/></marker><marker id="k" markerHeight="1" markerWidth="1" orient="auto-start-reverse" preserveAspectRatio="xMidYMid" refX="0" refY="0" style="overflow:visible" viewBox="0 0 1 1"><path d="M3-3 0 0l3 3" style="fill:none;stroke:context-stroke;stroke-width:1;stroke-linecap:butt" transform="rotate(180 .125 0)"/></marker><marker id="m" markerHeight="1" markerWidth="1" orient="auto-start-reverse" preserveAspectRatio="xMidYMid" refX="0" refY="0" style="overflow:visible" viewBox="0 0 1 1"><path d="M3-3 0 0l3 3" style="fill:none;stroke:context-stroke;stroke-width:1;stroke-linecap:butt" transform="rotate(180 .125 0)"/></marker><marker id="o" markerHeight="1" markerWidth="1" orient="auto-start-reverse" preserveAspectRatio="xMidYMid" refX="0" refY="0" style="overflow:visible" viewBox="0 0 1 1"><path d="M3-3 0 0l3 3" style="fill:none;stroke:context-stroke;stroke-width:1;stroke-linecap:butt" transform="rotate(180 .125 0)"/></marker><marker id="p" markerHeight="1" markerWidth="1" orient="auto-start-reverse" preserveAspectRatio="xMidYMid" refX="0" refY="0" style="overflow:visible" viewBox="0 0 1 1"><path d="M3-3 0 0l3 3" style="fill:none;stroke:context-stroke;stroke-width:1;stroke-linecap:butt" transform="rotate(180 .125 0)"/></marker><path id="r" d="M446 1013h109v82H446z"/><path id="b" d="M435 764.125h30.875V790H435z"/><path id="d" d="M172.343 958.946h69.395v31.266h-69.395z"/><path id="f" d="M254.321 465.937h63.676v40.417h-63.676z"/><path id="h" d="M254.321 465.937h63.676v40.417h-63.676z"/><path id="j" d="M256.99 553.253h48.424v23.259H256.99z"/><path id="l" d="M121.25 813.674h35.079v26.69H121.25z"/><path id="n" d="M51.093 808.717h41.561v32.028H51.093z"/><path id="q" d="M82.359 774.783h47.661v34.697H82.359z"/><path id="s" d="M446 1013h109v82H446z"/></defs><path d="M37.835 275.431h91.943v88.371H37.835z" style="opacity:1;fill:#fff;stroke:#fff;stroke-width:.264583;stroke-linejoin:round;stroke-dasharray:none" transform="translate(-37.703 -275.299)"/><path d="M87.041 301.971h3.075v33.474h-3.075zM62.712 301.971h3.075v33.474h-3.075z" style="fill:#ffe680;stroke:#333;stroke-width:.264583;stroke-linejoin:round" transform="translate(-37.703 -275.299)"/><path d="M91.274 288.307h3.075v60.801h-3.075zM58.479 288.307h3.075v60.801h-3.075z" style="fill:#faa;stroke:#333;stroke-width:.264583;stroke-linejoin:round" transform="translate(-37.703 -275.299)"/><path d="M58.479 311.135H94.35v15.146H58.479z" style="opacity:.6;fill:#f95;stroke:#333;stroke-width:.264583;stroke-linejoin:round" transform="translate(-37.703 -275.299)"/><path d="M-291.383 58.479h3.075V94.35h-3.075zM-349.109 58.479h3.075V94.35h-3.075z" style="fill:#faa;stroke:#333;stroke-width:.264583;stroke-linejoin:round" transform="rotate(-90 -156.501 -118.798)"/><path d="M-305.046 62.712h3.075v27.404h-3.075zM-335.445 62.712h3.075v27.404h-3.075z" style="fill:#ffe680;stroke:#333;stroke-width:.264583;stroke-linejoin:round" transform="rotate(-90 -156.501 -118.798)"/><path d="M94.35 311.135h10.43M94.35 326.281h10.43" style="fill:#ffe680;stroke:#999;stroke-width:.264583;stroke-linejoin:round" transform="translate(-37.703 -275.299)"/><path d="M104.78 311.461v14.496" style="fill:#00f;stroke:#00f;stroke-width:.264583;stroke-linejoin:round;stroke-dasharray:none;marker-start:url(#a);marker-end:url(#a)" transform="translate(-37.703 -275.299)"/><text xml:space="preserve" style="font-size:16px;line-height:normal;font-family:&quot;Liberation Mono&quot;;-inkscape-font-specification:&quot;Liberation Mono&quot;;text-decoration-color:#000;white-space:pre;shape-inside:url(#b);display:inline;fill:#00f;stroke-width:1;-inkscape-stroke:none;stop-color:#000" transform="translate(-47.908 -161.347)scale(.26458)"><tspan x="435" y="778.361">D1</tspan></text><path d="M58.48 349.109v6.879M94.35 349.109v6.879" style="fill:#ffe680;stroke:#999;stroke-width:.264583;stroke-linejoin:round" transform="translate(-37.703 -275.299)"/><path d="M58.48 355.376h35.87" style="fill:#ffe680;stroke:#00f;stroke-width:.264583;stroke-linejoin:round;stroke-dasharray:none;marker-start:url(#c);marker-end:url(#c)" transform="translate(-37.703 -275.299)"/><text xml:space="preserve" style="font-size:16px;line-height:normal;font-family:&quot;Liberation Mono&quot;;-inkscape-font-specification:&quot;Liberation Mono&quot;;text-decoration-color:#000;white-space:pre;shape-inside:url(#d);display:inline;fill:#00f;stroke-width:1;-inkscape-stroke:none;stop-color:#000" transform="translate(-12.004 -173.729)scale(.26458)"><tspan x="172.344" y="973.182">W12B</tspan></text><path d="M58.347 288.307h-7.371M58.347 349.241h-7.371" style="opacity:.5;fill:#fd5;stroke:#1a1a1a;stroke-width:.264583;stroke-linejoin:round" transform="translate(-37.703 -275.299)"/><path d="m50.976 288.134-.132 60.895" style="fill:#00f;fill-opacity:.602007;stroke:#00f;stroke-width:.264583;stroke-linejoin:round;stroke-dasharray:none;marker-start:url(#e);marker-end:url(#e)" transform="translate(-37.703 -275.299)"/><text xml:space="preserve" style="font-size:16px;line-height:normal;font-family:&quot;Liberation Mono&quot;;-inkscape-font-specification:&quot;Liberation Mono&quot;;text-decoration-color:#000;white-space:pre;shape-inside:url(#f);display:inline;fill:#00f;stroke-width:1;-inkscape-stroke:none;stop-color:#000" transform="translate(-65.262 -82.37)scale(.26458)"><tspan x="254.32" y="480.174">W12A</tspan></text><path d="M117.536 301.971H90.25M117.536 335.445H90.25" style="opacity:.5;fill:#fd5;stroke:#1a1a1a;stroke-width:.264583;stroke-linejoin:round" transform="translate(-37.703 -275.299)"/><path d="m113.832 302.072-.132 33.152" style="fill:#00f;fill-opacity:.602007;stroke:#00f;stroke-width:.264583;stroke-linejoin:round;stroke-dasharray:none;marker-start:url(#g);marker-end:url(#g)" transform="translate(-37.703 -275.299)"/><text xml:space="preserve" style="font-size:16px;line-height:normal;font-family:&quot;Liberation Mono&quot;;-inkscape-font-specification:&quot;Liberation Mono&quot;;text-decoration-color:#000;white-space:pre;shape-inside:url(#h);display:inline;fill:#00f;stroke-width:1;-inkscape-stroke:none;stop-color:#000" transform="translate(9.303 -83.168)scale(.26458)"><tspan x="254.32" y="480.174">W22A</tspan></text><path d="M62.712 296.644v5.195M90.116 296.776v5.195" style="fill:#ffe680;stroke:#999;stroke-width:.264583;stroke-linejoin:round" transform="translate(-37.703 -275.299)"/><path d="M62.98 298.231h26.869" style="fill:#ffe680;stroke:#666;stroke-width:.264583;stroke-linejoin:round;stroke-dasharray:none;marker-start:url(#i);marker-end:url(#i)" transform="translate(-37.703 -275.299)"/><text xml:space="preserve" style="font-size:16px;line-height:normal;font-family:&quot;Liberation Mono&quot;;-inkscape-font-specification:&quot;Liberation Mono&quot;;text-decoration-color:#000;white-space:pre;shape-inside:url(#j);display:inline;fill:#666;stroke-width:1;-inkscape-stroke:none;stop-color:#000" transform="translate(-34.154 -128.193)scale(.26458)"><tspan x="256.99" y="567.488">W22B</tspan></text><path d="M91.332 341.946h2.96" style="fill:#ffe680;stroke:#00f;stroke-width:.264584;stroke-linejoin:round;stroke-dasharray:none;marker-start:url(#k);marker-end:url(#k)" transform="translate(-37.703 -275.299)"/><text xml:space="preserve" style="font-size:16px;line-height:normal;font-family:&quot;Liberation Mono&quot;;-inkscape-font-specification:&quot;Liberation Mono&quot;;text-decoration-color:#000;white-space:pre;shape-inside:url(#l);display:inline;fill:#00f;stroke-width:1;-inkscape-stroke:none;stop-color:#000" transform="translate(15.26 -150.95)scale(.26458)"><tspan x="121.25" y="827.91">T1</tspan></text><path d="M87.132 329.733h2.96" style="fill:#ffe680;stroke:#00f;stroke-width:.264584;stroke-linejoin:round;stroke-dasharray:none;marker-start:url(#m);marker-end:url(#m)" transform="translate(-37.703 -275.299)"/><text xml:space="preserve" style="font-size:16px;line-height:normal;font-family:&quot;Liberation Mono&quot;;-inkscape-font-specification:&quot;Liberation Mono&quot;;text-decoration-color:#000;white-space:pre;shape-inside:url(#n);display:inline;fill:#00f;stroke-width:1;-inkscape-stroke:none;stop-color:#000" transform="translate(29.837 -161.725)scale(.26458)"><tspan x="51.094" y="822.953">T2</tspan></text><path d="M91.439 307.774h6.135" style="fill:#ffe680;stroke:#00f;stroke-width:.264583;stroke-linejoin:round;stroke-dasharray:none;marker-start:url(#o)" transform="translate(-37.703 -275.299)"/><path d="M89.812 307.807h-4.456" style="fill:#ffe680;stroke:#00f;stroke-width:.264583;stroke-linejoin:round;stroke-dasharray:none;marker-start:url(#p)" transform="translate(-37.703 -275.299)"/><text xml:space="preserve" style="font-size:16px;line-height:normal;font-family:&quot;Liberation Mono&quot;;-inkscape-font-specification:&quot;Liberation Mono&quot;;text-decoration-color:#000;white-space:pre;shape-inside:url(#q);display:inline;fill:#00f;stroke-width:1;-inkscape-stroke:none;stop-color:#000" transform="translate(38.795 -174.897)scale(.26458)"><tspan x="82.359" y="789.02">E12</tspan></text><text xml:space="preserve" style="font-size:16px;line-height:normal;font-family:&quot;Liberation Mono&quot;;-inkscape-font-specification:&quot;Liberation Mono&quot;;text-decoration-color:#000;white-space:pre;shape-inside:url(#r);fill:#00f;stroke-width:1;-inkscape-stroke:none;stop-color:#000" transform="translate(-51.197 -265.774)scale(.26458)"><tspan x="446" y="1027.236">J1radius
</tspan><tspan x="446" y="1047.236">J1Neutral
</tspan><tspan x="446" y="1067.236">J1Mark</tspan></text><text xml:space="preserve" style="font-size:16px;line-height:normal;font-family:&quot;Liberation Mono&quot;;-inkscape-font-specification:&quot;Liberation Mono&quot;;text-decoration-color:#000;white-space:pre;shape-inside:url(#s);display:inline;fill:#00f;stroke-width:1;-inkscape-stroke:none;stop-color:#000" transform="translate(-50.238 -202.973)scale(.26458)"><tspan x="446" y="1027.236">J2radius
</tspan><tspan x="446" y="1047.236">J2Neutral
</tspan><tspan x="446" y="1067.236">J2Mark</tspan></text><path d="m90.355 335.36 14.817 7.54" style="fill:#00f;stroke:#00f;stroke-width:.264583;stroke-linejoin:round;marker-start:url(#t)" transform="translate(-37.703 -275.299)"/><path d="m95.382 287.602 9.393-2.646" style="fill:#00f;stroke:#00f;stroke-width:.264583;stroke-linejoin:round;marker-start:url(#t)" transform="translate(-37.703 -275.299)"/></svg>