<svg xmlns="http://www.w3.org/2000/svg" width="270.481" height="200.403" viewBox="0 0 71.565 53.023"><defs><path id="o" d="M226.16 421.741h89.827v78.997H226.16z"/><path id="n" d="M184.114 417.282h89.827v79.634h-89.827z"/><path id="m" d="M191.758 387.339h94.924v90.464h-94.924z"/><path id="k" d="M212.782 378.42h87.916v61.159h-87.916z"/><path id="h" d="M173.283 432.571h102.568v64.981H173.283z"/><path id="f" d="M198.766 353.575h49.054v31.216h-49.054z"/><path id="e" d="M87.279 342.744h68.167v53.514H87.279z"/><path id="d" d="M122.318 401.355h81.545v53.514h-81.545z"/><path id="c" d="M239.539 117.221h150.986v58.611H239.539z"/><path id="j" d="M173.283 432.571h102.568v64.981H173.283z"/><marker id="l" markerHeight="1" markerWidth="1" orient="auto-start-reverse" preserveAspectRatio="xMidYMid" refX="0" refY="0" style="overflow:visible" viewBox="0 0 1 1"><path d="M3-3 0 0l3 3" style="fill:none;stroke:context-stroke;stroke-width:1;stroke-linecap:round" transform="rotate(180 .125 0)"/></marker><marker id="b" markerHeight="1" markerWidth="1" orient="auto-start-reverse" preserveAspectRatio="xMidYMid" refX="0" refY="0" style="overflow:visible" viewBox="0 0 1 1"><path d="m1 0-3 3h-2l3-3-3-3h2z" style="fill:context-stroke;fill-rule:evenodd;stroke:none"/></marker><marker id="a" markerHeight="1" markerWidth="1" orient="auto-start-reverse" preserveAspectRatio="xMidYMid" refX="0" refY="0" style="overflow:visible" viewBox="0 0 1 1"><path d="m1 0-3 3h-2l3-3-3-3h2z" style="fill:context-stroke;fill-rule:evenodd;stroke:none"/></marker><marker id="g" markerHeight="1" markerWidth="1" orient="auto-start-reverse" preserveAspectRatio="xMidYMid" refX="0" refY="0" style="overflow:visible" viewBox="0 0 1 1"><path d="m1 0-3 3h-2l3-3-3-3h2z" style="fill:context-stroke;fill-rule:evenodd;stroke:none"/></marker><marker id="i" markerHeight="1" markerWidth="1" orient="auto-start-reverse" preserveAspectRatio="xMidYMid" refX="0" refY="0" style="overflow:visible" viewBox="0 0 1 1"><path d="m1 0-3 3h-2l3-3-3-3h2z" style="fill:context-stroke;fill-rule:evenodd;stroke:none"/></marker></defs><g transform="translate(-16.05 -33.242)"><path d="M16.182 33.375h71.3v52.759h-71.3z" style="fill:#fff;stroke:#fff;stroke-width:.264583;stroke-linejoin:round"/><path d="M25.958 49.994h21.407v26.464H25.958z" style="fill:#fff6d5;stroke:#000;stroke-width:.264583;stroke-linejoin:round"/><rect width="7.417" height="26.464" x="47.365" y="49.994" ry="0" style="fill:#ffb380;stroke:#000;stroke-width:.264583;stroke-linejoin:round"/><path d="M54.781 49.994v26.464l17.812-13.232-17.812-13.232" style="fill:#fff6d5;stroke:#000;stroke-width:.264583;stroke-linejoin:round"/><path d="M23.312 49.994v26.464" style="fill:#00f;stroke:#00f;stroke-width:.264583;stroke-linejoin:round;marker-start:url(#a);marker-end:url(#a)"/><path d="M25.958 79.633h21.407" style="fill:#00f;stroke:#00f;stroke-width:.264583;stroke-linejoin:round;marker-start:url(#a);marker-end:url(#a)"/><path d="M54.781 79.63h17.812" style="fill:#00f;stroke:#00f;stroke-width:.264583;stroke-linejoin:round;marker-start:url(#a);marker-end:url(#b)"/><path d="m50.23 55.388 6.237-13.822" style="fill:#00f;stroke:#00f;stroke-width:.264583;stroke-linejoin:round;marker-start:url(#b)"/><text xml:space="preserve" style="font-size:14.6667px;line-height:normal;font-family:&quot;Liberation Mono&quot;;-inkscape-font-specification:&quot;Liberation Mono&quot;;text-decoration-color:#000;white-space:pre;shape-inside:url(#c);display:inline;fill:#00f;stroke-width:1;-inkscape-stroke:none;stop-color:#000" transform="translate(-8.765 5.057)scale(.26458)"><tspan x="239.539" y="130.271">[Ja, Jr, Jn]
</tspan></text><text xml:space="preserve" style="font-size:14.6667px;line-height:normal;font-family:&quot;Liberation Mono&quot;;-inkscape-font-specification:&quot;Liberation Mono&quot;;text-decoration-color:#000;white-space:pre;shape-inside:url(#d);display:inline;fill:#00f;stroke-width:1;-inkscape-stroke:none;stop-color:#000" transform="translate(-13.485 -45.848)scale(.26458)"><tspan x="122.318" y="414.406">W</tspan></text><text xml:space="preserve" style="font-size:14.6667px;line-height:normal;font-family:&quot;Liberation Mono&quot;;-inkscape-font-specification:&quot;Liberation Mono&quot;;text-decoration-color:#000;white-space:pre;shape-inside:url(#e);display:inline;fill:#00f;stroke-width:1;-inkscape-stroke:none;stop-color:#000" transform="translate(10.788 -10.788)scale(.26458)"><tspan x="87.279" y="355.794">L1</tspan></text><text xml:space="preserve" style="font-size:14.6667px;line-height:normal;font-family:&quot;Liberation Mono&quot;;-inkscape-font-specification:&quot;Liberation Mono&quot;;text-decoration-color:#000;white-space:pre;shape-inside:url(#f);display:inline;fill:#00f;stroke-width:1;-inkscape-stroke:none;stop-color:#000" transform="translate(9.27 -13.822)scale(.26458)"><tspan x="198.766" y="366.624">L2</tspan></text><path d="m26.698 49.176 6.236-9.566" style="fill:#00f;stroke:#00f;stroke-width:.264583;stroke-linejoin:round;marker-start:url(#g)"/><text xml:space="preserve" style="font-size:14.6667px;line-height:normal;font-family:&quot;Liberation Mono&quot;;-inkscape-font-specification:&quot;Liberation Mono&quot;;text-decoration-color:#000;white-space:pre;shape-inside:url(#h);display:inline;fill:#00f;stroke-width:1;-inkscape-stroke:none;stop-color:#000" transform="translate(-12.642 -79.728)scale(.26458)"><tspan x="173.283" y="445.622">R1</tspan></text><path d="m73.24 62.201 6.236-9.566" style="fill:#00f;stroke:#00f;stroke-width:.264583;stroke-linejoin:round;marker-start:url(#i)"/><text xml:space="preserve" style="font-size:14.6667px;line-height:normal;font-family:&quot;Liberation Mono&quot;;-inkscape-font-specification:&quot;Liberation Mono&quot;;text-decoration-color:#000;white-space:pre;shape-inside:url(#j);display:inline;fill:#00f;stroke-width:1;-inkscape-stroke:none;stop-color:#000" transform="translate(33.9 -66.703)scale(.26458)"><tspan x="173.283" y="445.622">R2</tspan></text><path d="m75.851 75.832 5.9-9.102" style="fill:#fff;stroke:purple;stroke-width:.264583;stroke-linejoin:round;marker-end:url(#b)"/><text xml:space="preserve" style="font-size:14.6667px;line-height:normal;font-family:&quot;Liberation Mono&quot;;-inkscape-font-specification:&quot;Liberation Mono&quot;;text-decoration-color:#000;white-space:pre;shape-inside:url(#k);display:inline;fill:purple;stroke-width:1;-inkscape-stroke:none;stop-color:#000" transform="translate(23.261 -29.854)scale(.26458)"><tspan x="212.781" y="391.47">T</tspan></text><path d="M49.846 71.974V61.861" style="fill:purple;stroke:#d45500;stroke-width:.264583;stroke-linejoin:round;marker-end:url(#l)"/><text xml:space="preserve" style="font-size:14.6667px;line-height:normal;font-family:&quot;Liberation Mono&quot;;-inkscape-font-specification:&quot;Liberation Mono&quot;;text-decoration-color:#000;white-space:pre;shape-inside:url(#m);display:inline;fill:#d45500;stroke-width:1;-inkscape-stroke:none;stop-color:#000" transform="translate(-2.238 -30.34)scale(.26458)"><tspan x="191.758" y="400.39">A</tspan></text><text xml:space="preserve" style="font-size:14.6667px;line-height:normal;font-family:&quot;Liberation Mono&quot;;-inkscape-font-specification:&quot;Liberation Mono&quot;;text-decoration-color:#000;white-space:pre;shape-inside:url(#n);display:inline;fill:#d45500;stroke-width:1;-inkscape-stroke:none;stop-color:#000" transform="translate(-.047 -53.939)scale(.26458)"><tspan x="184.113" y="430.331">B</tspan></text><text xml:space="preserve" style="font-size:14.6667px;line-height:normal;font-family:&quot;Liberation Mono&quot;;-inkscape-font-specification:&quot;Liberation Mono&quot;;text-decoration-color:#000;white-space:pre;shape-inside:url(#o);display:inline;fill:#a40;stroke-width:1;-inkscape-stroke:none;stop-color:#000" transform="translate(-9.776 -46.522)scale(.26458)"><tspan x="226.16" y="434.792">J1</tspan></text></g></svg>