<svg xmlns="http://www.w3.org/2000/svg" width="538.304" height="302.761" viewBox="0 0 142.426 80.106"><defs><path id="w" d="M350.471 400.024h40.092v37.39h-40.092z"/><path id="v" d="M295.964 400.024H330.2v27.479h-34.236z"/><path id="o" d="M161.816 322.677h37.906v33.128h-37.906z"/><path id="n" d="M130.6 183.795h99.383v65.937H130.6z"/><path id="m" d="M333.188 299.105h31.854v25.801h-31.854z"/><path id="l" d="M109.576 123.91h32.172v26.757h-32.172z"/><path id="k" d="M186.662 158.312h36.632v30.579h-36.632z"/><path id="j" d="M138.563 151.304h34.083v27.713h-34.083z"/><path id="i" d="M194.307 194.625h30.261v25.164h-30.261z"/><path id="h" d="M186.025 161.179h24.846v23.253h-24.846z"/><path id="g" d="M140.156 181.884h27.394v23.89h-27.394z"/><path id="f" d="M84.093 170.735h25.483v20.386H84.093z"/><path id="e" d="M90.146 199.085h40.135v23.253H90.146z"/><path id="d" d="M27.394 268.526h26.757v24.209H27.394z"/><path id="s" d="M161.816 322.677h37.906v33.128h-37.906z"/><path id="t" d="M161.816 322.677h37.906v33.128h-37.906z"/><path id="u" d="M161.816 322.677h37.906v33.128h-37.906z"/><path id="y" d="M295.964 400.024H330.2v27.479h-34.236z"/><path id="z" d="M350.471 400.024h40.092v37.39h-40.092z"/><path id="B" d="M295.964 400.024H330.2v27.479h-34.236z"/><path id="C" d="M350.471 400.024h40.092v37.39h-40.092z"/><path id="E" d="M295.964 400.024H330.2v27.479h-34.236z"/><path id="F" d="M350.471 400.024h40.092v37.39h-40.092z"/><marker id="b" markerHeight="1" markerWidth="1" orient="auto-start-reverse" preserveAspectRatio="xMidYMid" refX="0" refY="0" style="overflow:visible" viewBox="0 0 1 1"><path d="M3-3 0 0l3 3" style="fill:none;stroke:context-stroke;stroke-width:1;stroke-linecap:round" transform="rotate(180,0.125,0)"/></marker><marker id="c" markerHeight="1" markerWidth="1" orient="auto-start-reverse" preserveAspectRatio="xMidYMid" refX="0" refY="0" style="overflow:visible" viewBox="0 0 1 1"><path d="M3-3 0 0l3 3" style="fill:none;stroke:context-stroke;stroke-width:1;stroke-linecap:round" transform="rotate(180,0.125,0)"/></marker><marker id="a" markerHeight="1" markerWidth="1" orient="auto-start-reverse" preserveAspectRatio="xMidYMid" refX="0" refY="0" style="overflow:visible" viewBox="0 0 1 1"><path d="M3-3 0 0l3 3" style="fill:none;stroke:context-stroke;stroke-width:1;stroke-linecap:round" transform="rotate(180,0.125,0)"/></marker><marker id="p" markerHeight="1" markerWidth="1" orient="auto-start-reverse" preserveAspectRatio="xMidYMid" refX="0" refY="0" style="overflow:visible" viewBox="0 0 1 1"><path d="M3-3 0 0l3 3" style="fill:none;stroke:context-stroke;stroke-width:1;stroke-linecap:round" transform="rotate(180,0.125,0)"/></marker><marker id="q" markerHeight="1" markerWidth="1" orient="auto-start-reverse" preserveAspectRatio="xMidYMid" refX="0" refY="0" style="overflow:visible" viewBox="0 0 1 1"><path d="M3-3 0 0l3 3" style="fill:none;stroke:context-stroke;stroke-width:1;stroke-linecap:round" transform="rotate(180,0.125,0)"/></marker><marker id="r" markerHeight="1" markerWidth="1" orient="auto-start-reverse" preserveAspectRatio="xMidYMid" refX="0" refY="0" style="overflow:visible" viewBox="0 0 1 1"><path d="M3-3 0 0l3 3" style="fill:none;stroke:context-stroke;stroke-width:1;stroke-linecap:round" transform="rotate(180,0.125,0)"/></marker><marker id="x" markerHeight="1" markerWidth="1" orient="auto-start-reverse" preserveAspectRatio="xMidYMid" refX="0" refY="0" style="overflow:visible" viewBox="0 0 1 1"><path d="M3-3 0 0l3 3" style="fill:none;stroke:context-stroke;stroke-width:1;stroke-linecap:round" transform="rotate(180,0.125,0)"/></marker><marker id="A" markerHeight="1" markerWidth="1" orient="auto-start-reverse" preserveAspectRatio="xMidYMid" refX="0" refY="0" style="overflow:visible" viewBox="0 0 1 1"><path d="M3-3 0 0l3 3" style="fill:none;stroke:context-stroke;stroke-width:1;stroke-linecap:round" transform="rotate(180,0.125,0)"/></marker><marker id="D" markerHeight="1" markerWidth="1" orient="auto-start-reverse" preserveAspectRatio="xMidYMid" refX="0" refY="0" style="overflow:visible" viewBox="0 0 1 1"><path d="M3-3 0 0l3 3" style="fill:none;stroke:context-stroke;stroke-width:1;stroke-linecap:round" transform="rotate(180,0.125,0)"/></marker></defs><path d="M8.293 21.511h142.162v79.841H8.293z" style="fill:#fff;stroke:#fff;stroke-width:.264583;stroke-linejoin:round;stroke-dasharray:none" transform="translate(-8.1609545,-21.379183)"/><path d="M65.455-126.908h8.028v24.768h-8.028z" style="fill:#ffe6d5;stroke:#ffe6d5;stroke-width:.264584;stroke-linejoin:round" transform="translate(-8.1609545,-21.379183) matrix(0.18383156,0.98295776,-0.9838766,0.17884864,0,0)"/><path d="M114.451 27.72h9.051v28.454h-9.051z" style="fill:#ffe6d5;stroke:#ffe6d5;stroke-width:.264594;stroke-linejoin:round" transform="translate(-8.1609545,-21.379183) matrix(0.97517465,0.22143714,-0.23495092,0.97200724,0,0)"/><path d="M5.159 97.405h9.279v28.483H5.159z" style="fill:#ffe6d5;stroke:#ffe6d5;stroke-width:.26463;stroke-linejoin:round" transform="translate(-8.1609545,-21.379183) matrix(0.69693451,-0.71713478,0.69824515,0.71585873,0,0)"/><path d="M63.379 66.027h8.033v24.699h-8.033z" style="fill:#ffe6d5;stroke:#ffe6d5;stroke-width:.264583;stroke-linejoin:round" transform="translate(-8.1609545,-21.379183)"/><path d="M24.073 66.027h39.306v24.699H24.073zM71.412 66.027v24.7l20.084-4.309ZM78.074 59.374l19.888 20.39 6.905-27.476ZM113.923 54.292l-6.686 27.658 31.18-32.426Z" style="fill:#fff6d5;stroke:#d4aa00;stroke-width:.264583;stroke-linejoin:round" transform="translate(-8.1609545,-21.379183)"/><path d="M102.512 49.866h24.767v15.565h-24.767z" style="fill:#fff6d5;stroke:#d4aa00;stroke-width:.264584;stroke-linejoin:round" transform="translate(-8.1609545,-21.379183) matrix(0.98391242,-0.17865146,0.17824189,0.9839867,0,0)"/><path d="M18.669 66.027v24.7" style="fill:#fff6d5;stroke:#00f;stroke-width:.264583;stroke-linejoin:round;stroke-dasharray:none;marker-start:url(#a);marker-end:url(#b)" transform="translate(-8.1609545,-21.379183)"/><path d="M24.073 63.322h39.306" style="fill:#fff6d5;stroke:#00f;stroke-width:.264583;stroke-linejoin:round;stroke-dasharray:none;marker-start:url(#a);marker-end:url(#c)" transform="translate(-8.1609545,-21.379183)"/><path d="m73.564 63.586 20.084 20.391" style="fill:#fff6d5;stroke:#00f;stroke-width:.264583;stroke-linejoin:round;stroke-dasharray:none;marker-start:url(#c);marker-end:url(#c)" transform="translate(-8.1609545,-21.379183)"/><path d="M71.7 72.202s1.484.411 2.151.143c.723-.29 1.578-1.723 1.578-1.723" style="fill:#fff6d5;stroke:#00f;stroke-width:.264583;stroke-linejoin:round;stroke-dasharray:none" transform="translate(-8.1609545,-21.379183)"/><path d="m100.786 79.995 6.905-27.476" style="fill:#fff6d5;stroke:#00f;stroke-width:.264583;stroke-linejoin:round;stroke-dasharray:none;marker-start:url(#c);marker-end:url(#c)" transform="translate(-8.1609545,-21.379183)"/><path d="M94.652 76.223s1.242-1.595 2.152-1.867c.693-.208 2.151.287 2.151.287" style="fill:#fff6d5;stroke:#00f;stroke-width:.264583;stroke-linejoin:round;stroke-dasharray:none" transform="translate(-8.1609545,-21.379183)"/><path d="m113.492 51.707 24.448-4.759" style="fill:#fff6d5;stroke:#00f;stroke-width:.264583;stroke-linejoin:round;stroke-dasharray:none;marker-start:url(#c);marker-end:url(#c)" transform="translate(-8.1609545,-21.379183)"/><path d="M113.157 57.124s2.158-.283 2.87-1.005c.53-.54.716-2.154.716-2.154" style="fill:#fff6d5;stroke:#00f;stroke-width:.264583;stroke-linejoin:round;stroke-dasharray:none" transform="translate(-8.1609545,-21.379183)"/><path d="m137.563 25.755 2.774 15.312" style="fill:#fff6d5;stroke:#00f;stroke-width:.264583;stroke-linejoin:round;stroke-dasharray:none;marker-start:url(#c);marker-end:url(#c)" transform="translate(-8.1609545,-21.379183)"/><text xml:space="preserve" style="font-size:14.6667px;line-height:normal;font-family:&quot;Liberation Mono&quot;;-inkscape-font-specification:&quot;Liberation Mono&quot;;text-decoration-color:#000;white-space:pre;shape-inside:url(#d);display:inline;fill:#00f;stroke-width:1;-inkscape-stroke:none;stop-color:#000" transform="translate(-8.1609545,-21.379183) matrix(0.26458333,0,0,0.26458333,5.3649504,4.9096726)"><tspan x="27.395" y="281.575">L1</tspan></text><text xml:space="preserve" style="font-size:14.6667px;line-height:normal;font-family:&quot;Liberation Mono&quot;;-inkscape-font-specification:&quot;Liberation Mono&quot;;text-decoration-color:#000;white-space:pre;shape-inside:url(#e);display:inline;fill:#00f;stroke-width:1;-inkscape-stroke:none;stop-color:#000" transform="translate(-8.1609545,-21.379183) matrix(0.26458333,0,0,0.26458333,15.841588,5.4422127)"><tspan x="90.146" y="212.134">W1</tspan></text><text xml:space="preserve" style="font-size:14.6667px;line-height:normal;font-family:&quot;Liberation Mono&quot;;-inkscape-font-specification:&quot;Liberation Mono&quot;;text-decoration-color:#000;white-space:pre;shape-inside:url(#f);display:inline;fill:#00f;stroke-width:1;-inkscape-stroke:none;stop-color:#000" transform="translate(-8.1609545,-21.379183) matrix(0.26458333,0,0,0.26458333,50.077527,28.426059)"><tspan x="84.094" y="183.784">A2</tspan></text><text xml:space="preserve" style="font-size:14.6667px;line-height:normal;font-family:&quot;Liberation Mono&quot;;-inkscape-font-specification:&quot;Liberation Mono&quot;;text-decoration-color:#000;white-space:pre;shape-inside:url(#g);display:inline;fill:#00f;stroke-width:1;-inkscape-stroke:none;stop-color:#000" transform="translate(-8.1609545,-21.379183) matrix(0.26458333,0,0,0.26458333,42.088968,16.451391)"><tspan x="140.156" y="194.935">L2</tspan></text><text xml:space="preserve" style="font-size:14.6667px;line-height:normal;font-family:&quot;Liberation Mono&quot;;-inkscape-font-specification:&quot;Liberation Mono&quot;;text-decoration-color:#000;white-space:pre;shape-inside:url(#h);display:inline;fill:#00f;stroke-width:1;-inkscape-stroke:none;stop-color:#000" transform="translate(-8.1609545,-21.379183) matrix(0.26458333,0,0,0.26458333,45.157505,26.714035)"><tspan x="186.025" y="174.23">A3</tspan></text><text xml:space="preserve" style="font-size:14.6667px;line-height:normal;font-family:&quot;Liberation Mono&quot;;-inkscape-font-specification:&quot;Liberation Mono&quot;;text-decoration-color:#000;white-space:pre;shape-inside:url(#i);display:inline;fill:#00f;stroke-width:1;-inkscape-stroke:none;stop-color:#000" transform="translate(-8.1609545,-21.379183) matrix(0.26458333,0,0,0.26458333,55.438117,7.7890247)"><tspan x="194.307" y="207.675">L3</tspan></text><text xml:space="preserve" style="font-size:14.6667px;line-height:normal;font-family:&quot;Liberation Mono&quot;;-inkscape-font-specification:&quot;Liberation Mono&quot;;text-decoration-color:#000;white-space:pre;shape-inside:url(#j);display:inline;fill:#00f;stroke-width:1;-inkscape-stroke:none;stop-color:#000" transform="translate(-8.1609545,-21.379183) matrix(0.26458333,0,0,0.26458333,79.290167,15.839958)"><tspan x="138.563" y="164.355">A4</tspan></text><text xml:space="preserve" style="font-size:14.6667px;line-height:normal;font-family:&quot;Liberation Mono&quot;;-inkscape-font-specification:&quot;Liberation Mono&quot;;text-decoration-color:#000;white-space:pre;shape-inside:url(#k);display:inline;fill:#00f;stroke-width:1;-inkscape-stroke:none;stop-color:#000" transform="translate(-8.1609545,-21.379183) matrix(0.26458333,0,0,0.26458333,67.740404,3.5750623)"><tspan x="186.662" y="171.363">L4</tspan></text><text xml:space="preserve" style="font-size:14.6667px;line-height:normal;font-family:&quot;Liberation Mono&quot;;-inkscape-font-specification:&quot;Liberation Mono&quot;;text-decoration-color:#000;white-space:pre;shape-inside:url(#l);display:inline;fill:#00f;stroke-width:1;-inkscape-stroke:none;stop-color:#000" transform="translate(-8.1609545,-21.379183) matrix(0.26458333,0,0,0.26458333,110.61269,-3.0621206)"><tspan x="109.576" y="136.96">W5</tspan></text><path d="m132.093 94.747 5.308-9.19" style="fill:#fff;stroke:purple;stroke-width:.264583;stroke-linejoin:round;marker-end:url(#c)" transform="translate(-8.1609545,-21.379183)"/><text xml:space="preserve" style="font-size:14.6667px;line-height:normal;font-family:&quot;Liberation Mono&quot;;-inkscape-font-specification:&quot;Liberation Mono&quot;;text-decoration-color:#000;white-space:pre;shape-inside:url(#m);display:inline;fill:purple;stroke-width:1;-inkscape-stroke:none;stop-color:#000" transform="translate(-8.1609545,-21.379183) matrix(0.26458333,0,0,0.26458333,47.112017,11.950284)"><tspan x="333.188" y="312.156">Th</tspan></text><text xml:space="preserve" style="font-size:14.6667px;line-height:normal;font-family:&quot;Liberation Mono&quot;;-inkscape-font-specification:&quot;Liberation Mono&quot;;text-decoration-color:#000;white-space:pre;shape-inside:url(#n);display:inline;fill:green;stroke-width:1;-inkscape-stroke:none;stop-color:#000" transform="translate(-8.1609545,-21.379183) matrix(0.26458333,0,0,0.26458333,12.385714,-20.033647)"><tspan x="130.6" y="196.845">Jradius
</tspan><tspan x="130.6" y="215.178">Jneutral
</tspan><tspan x="130.6" y="233.512">Jmark</tspan></text><path d="m64.67 41.185 3.013 22.832" style="fill:green;stroke:green;stroke-width:.264583;stroke-linejoin:round;marker-end:url(#c)" transform="translate(-8.1609545,-21.379183)"/><path d="m66.392 40.036 8.607 18.955" style="fill:green;stroke:green;stroke-width:.264583;stroke-linejoin:round;marker-end:url(#c)" transform="translate(-8.1609545,-21.379183)"/><path d="m68.83 39.892 42.462 9.334" style="fill:green;stroke:green;stroke-width:.264583;stroke-linejoin:round;marker-end:url(#a)" transform="translate(-8.1609545,-21.379183)"/><path d="M64.403 91.588s1.627 1.657 2.833 1.723c1.238.067 3.21-1.436 3.21-1.436" style="fill:#fff;stroke:#f60;stroke-width:.264583;stroke-linejoin:round;marker-start:url(#c);marker-end:url(#c)" transform="translate(-8.1609545,-21.379183)"/><text xml:space="preserve" style="font-size:14.6667px;line-height:normal;font-family:&quot;Liberation Mono&quot;;-inkscape-font-specification:&quot;Liberation Mono&quot;;text-decoration-color:#000;white-space:pre;shape-inside:url(#o);display:inline;fill:#f60;stroke-width:1;-inkscape-stroke:none;stop-color:#000" transform="translate(-8.1609545,-21.379183) matrix(0.26458333,0,0,0.26458333,21.680388,8.5501949)"><tspan x="161.816" y="335.726">J1</tspan></text><path d="M92.7 86.7s2.321.056 3.233-.738c.936-.814 1.306-3.268 1.306-3.268" style="fill:none;stroke:#f60;stroke-width:.264583;stroke-linejoin:round;marker-start:url(#p);marker-end:url(#p)" transform="translate(-8.1609545,-21.379183)"/><path d="M99.335 80.848s1.254 1.955 2.422 2.266c1.198.32 3.436-.75 3.436-.75" style="fill:none;stroke:#f60;stroke-width:.264583;stroke-linejoin:round;marker-start:url(#q);marker-end:url(#q)" transform="translate(-8.1609545,-21.379183)"/><path d="M139.32 48.584s1.183-1.998.937-3.182c-.252-1.216-2.21-2.739-2.21-2.739" style="fill:none;stroke:#f60;stroke-width:.264583;stroke-linejoin:round;marker-start:url(#r);marker-end:url(#r)" transform="translate(-8.1609545,-21.379183)"/><text xml:space="preserve" style="font-size:14.6667px;line-height:normal;font-family:&quot;Liberation Mono&quot;;-inkscape-font-specification:&quot;Liberation Mono&quot;;text-decoration-color:#000;white-space:pre;shape-inside:url(#s);display:inline;fill:#f60;stroke-width:1;-inkscape-stroke:none;stop-color:#000" transform="translate(-8.1609545,-21.379183) matrix(0.26458333,0,0,0.26458333,52.348268,1.9019722)"><tspan x="161.816" y="335.726">J2</tspan></text><text xml:space="preserve" style="font-size:14.6667px;line-height:normal;font-family:&quot;Liberation Mono&quot;;-inkscape-font-specification:&quot;Liberation Mono&quot;;text-decoration-color:#000;white-space:pre;shape-inside:url(#t);display:inline;fill:#f60;stroke-width:1;-inkscape-stroke:none;stop-color:#000" transform="translate(-8.1609545,-21.379183) matrix(0.26458333,0,0,0.26458333,58.081261,-1.986989)"><tspan x="161.816" y="335.726">J3</tspan></text><text xml:space="preserve" style="font-size:14.6667px;line-height:normal;font-family:&quot;Liberation Mono&quot;;-inkscape-font-specification:&quot;Liberation Mono&quot;;text-decoration-color:#000;white-space:pre;shape-inside:url(#u);display:inline;fill:#f60;stroke-width:1;-inkscape-stroke:none;stop-color:#000" transform="translate(-8.1609545,-21.379183) matrix(0.26458333,0,0,0.26458333,97.552443,-42.266044)"><tspan x="161.816" y="335.726">J4</tspan></text><path d="M64.958 83.075v-9.297" style="fill:purple;stroke:#d45500;stroke-width:.264583;stroke-linejoin:round;marker-end:url(#b)" transform="translate(-8.1609545,-21.379183)"/><text xml:space="preserve" style="font-size:14.6667px;line-height:normal;font-family:&quot;Liberation Mono&quot;;-inkscape-font-specification:&quot;Liberation Mono&quot;;text-decoration-color:#000;white-space:pre;shape-inside:url(#v);display:inline;fill:#d45500;stroke-width:1;-inkscape-stroke:none;stop-color:#000" transform="translate(-8.1609545,-21.379183) matrix(0.26458333,0,0,0.26458333,-14.660226,-22.645878)"><tspan x="295.963" y="413.074">A</tspan></text><text xml:space="preserve" style="font-size:14.6667px;line-height:normal;font-family:&quot;Liberation Mono&quot;;-inkscape-font-specification:&quot;Liberation Mono&quot;;text-decoration-color:#000;white-space:pre;shape-inside:url(#w);display:inline;fill:#d45500;stroke-width:1;-inkscape-stroke:none;stop-color:#000" transform="translate(-8.1609545,-21.379183) matrix(0.26458333,0,0,0.26458333,-29.201263,-36.233404)"><tspan x="350.471" y="413.074">B</tspan></text><path d="m86.688 72.48 6.56 6.587" style="fill:purple;stroke:#d45500;stroke-width:.264583;stroke-linejoin:round;marker-end:url(#x)" transform="translate(-8.1609545,-21.379183)"/><text xml:space="preserve" style="font-size:14.6667px;line-height:normal;font-family:&quot;Liberation Mono&quot;;-inkscape-font-specification:&quot;Liberation Mono&quot;;text-decoration-color:#000;white-space:pre;shape-inside:url(#y);display:inline;fill:#d45500;stroke-width:1;-inkscape-stroke:none;stop-color:#000" transform="translate(-8.1609545,-21.379183) matrix(0.26458333,0,0,0.26458333,5.2812722,-37.115198)"><tspan x="295.963" y="413.074">A</tspan></text><text xml:space="preserve" style="font-size:14.6667px;line-height:normal;font-family:&quot;Liberation Mono&quot;;-inkscape-font-specification:&quot;Liberation Mono&quot;;text-decoration-color:#000;white-space:pre;shape-inside:url(#z);display:inline;fill:#d45500;stroke-width:1;-inkscape-stroke:none;stop-color:#000" transform="translate(-8.1609545,-21.379183) matrix(0.26458333,0,0,0.26458333,0.54742501,-27.408491)"><tspan x="350.471" y="413.074">B</tspan></text><path d="m104.117 76.895 2.278-9.013" style="fill:purple;stroke:#d45500;stroke-width:.264583;stroke-linejoin:round;marker-end:url(#A)" transform="translate(-8.1609545,-21.379183)"/><text xml:space="preserve" style="font-size:14.6667px;line-height:normal;font-family:&quot;Liberation Mono&quot;;-inkscape-font-specification:&quot;Liberation Mono&quot;;text-decoration-color:#000;white-space:pre;shape-inside:url(#B);display:inline;fill:#d45500;stroke-width:1;-inkscape-stroke:none;stop-color:#000" transform="translate(-8.1609545,-21.379183) matrix(0.26458333,0,0,0.26458333,24.236556,-29.028982)"><tspan x="295.963" y="413.074">A</tspan></text><text xml:space="preserve" style="font-size:14.6667px;line-height:normal;font-family:&quot;Liberation Mono&quot;;-inkscape-font-specification:&quot;Liberation Mono&quot;;text-decoration-color:#000;white-space:pre;shape-inside:url(#C);display:inline;fill:#d45500;stroke-width:1;-inkscape-stroke:none;stop-color:#000" transform="translate(-8.1609545,-21.379183) matrix(0.26458333,0,0,0.26458333,12.778249,-42.118602)"><tspan x="350.471" y="413.074">B</tspan></text><path d="m133.567 44.782-7.08 1.314" style="fill:purple;stroke:#d45500;stroke-width:.264583;stroke-linejoin:round;marker-end:url(#D)" transform="translate(-8.1609545,-21.379183)"/><text xml:space="preserve" style="font-size:14.6667px;line-height:normal;font-family:&quot;Liberation Mono&quot;;-inkscape-font-specification:&quot;Liberation Mono&quot;;text-decoration-color:#000;white-space:pre;shape-inside:url(#E);display:inline;fill:#d45500;stroke-width:1;-inkscape-stroke:none;stop-color:#000" transform="translate(-8.1609545,-21.379183) matrix(0.26458333,0,0,0.26458333,56.210571,-63.839848)"><tspan x="295.963" y="413.074">A</tspan></text><text xml:space="preserve" style="font-size:14.6667px;line-height:normal;font-family:&quot;Liberation Mono&quot;;-inkscape-font-specification:&quot;Liberation Mono&quot;;text-decoration-color:#000;white-space:pre;shape-inside:url(#F);display:inline;fill:#d45500;stroke-width:1;-inkscape-stroke:none;stop-color:#000" transform="translate(-8.1609545,-21.379183) matrix(0.26458333,0,0,0.26458333,31.053119,-61.720654)"><tspan x="350.471" y="413.074">B</tspan></text></svg>