<svg xmlns="http://www.w3.org/2000/svg" width="226.39" height="170.043" viewBox="0 0 59.899 44.99"><defs><path id="e" d="M312.674 187.825h43.366v33.422h-43.366z"/><path id="d" d="M225.667 287.262h43.918v28.174h-43.918z"/><path id="c" d="M253.564 280.633h50.271v34.527h-50.271z"/><path id="b" d="M117.115 258.536h70.987v42.813h-70.987z"/><marker id="a" markerHeight="1" markerWidth="1" orient="auto-start-reverse" preserveAspectRatio="xMidYMid" refX="0" refY="0" style="overflow:visible" viewBox="0 0 1 1"><path d="M3-3 0 0l3 3" style="fill:none;stroke:context-stroke;stroke-width:1;stroke-linecap:butt" transform="rotate(180 .125 0)"/></marker></defs><path d="M26.309 33.325h59.635v44.726H26.309z" style="fill:#fff;stroke:#fff;stroke-width:.264583;stroke-linejoin:round;stroke-dasharray:none" transform="translate(-26.177 -33.193)"/><path d="m34.056 64.896 2.923 2.193M34.275 66.87l1.9-1.9M35.152 65.92l45.75-21.998" style="fill:#fff;stroke:#000;stroke-width:.264583;stroke-linejoin:round" transform="translate(-26.177 -33.193)"/><path d="M32.11 58.705 77.2 37.031" style="fill:#f95;stroke:#f95;stroke-width:.264583;stroke-linejoin:round;stroke-dasharray:none;marker-start:url(#a);marker-end:url(#a)" transform="translate(-26.177 -33.193)"/><path d="m35.256 65.747-3.378-7.173M80.783 43.918l-3.377-7.172" style="fill:#fff;stroke:#ccc;stroke-width:.264583;stroke-linejoin:round" transform="translate(-26.177 -33.193)"/><text xml:space="preserve" x="-4.397" style="font-size:14.6667px;line-height:normal;font-family:&quot;Liberation Mono&quot;;-inkscape-font-specification:&quot;Liberation Mono&quot;;text-align:center;text-decoration-color:#000;white-space:pre;shape-inside:url(#b);display:inline;fill:#000;stroke-width:1;-inkscape-stroke:none;stop-color:#000" transform="translate(-31.074 -35.385)scale(.26458)"><tspan x="148.208" y="271.585">A
</tspan><tspan x="121.803" y="289.919">(Ax,Ay)</tspan></text><path d="M35.371 65.92h16.151" style="fill:#fff;stroke:#ccc;stroke-width:.264583;stroke-linejoin:round;stroke-dasharray:none" transform="translate(-26.177 -33.193)"/><text xml:space="preserve" style="font-size:14.6667px;line-height:normal;font-family:&quot;Liberation Mono&quot;;-inkscape-font-specification:&quot;Liberation Mono&quot;;text-align:end;text-decoration-color:#000;white-space:pre;shape-inside:url(#c);display:inline;fill:#000;stroke-width:1;-inkscape-stroke:none;stop-color:#000" transform="translate(-50.879 -63.887)scale(.26458)"><tspan x="277.43" y="293.683">lAB</tspan></text><path d="M49.403 65.7s.766-1.946.585-2.923C49.788 61.7 48.234 60 48.234 60" style="fill:none;stroke:#f95;stroke-width:.264583;stroke-linejoin:round;stroke-dasharray:none;marker-end:url(#a)" transform="translate(-26.177 -33.193)"/><text xml:space="preserve" style="font-size:14.6667px;line-height:normal;font-family:&quot;Liberation Mono&quot;;-inkscape-font-specification:&quot;Liberation Mono&quot;;text-align:end;text-decoration-color:#000;white-space:pre;shape-inside:url(#d);display:inline;fill:#000;stroke-width:1;-inkscape-stroke:none;stop-color:#000" transform="translate(-39.843 -48.978)scale(.26458)"><tspan x="243.18" y="300.312">aAB</tspan></text><text xml:space="preserve" x="-3.545" style="font-size:14.6667px;line-height:normal;font-family:&quot;Liberation Mono&quot;;-inkscape-font-specification:&quot;Liberation Mono&quot;;text-align:center;text-decoration-color:#000;white-space:pre;shape-inside:url(#e);display:inline;fill:#000;stroke-width:1;-inkscape-stroke:none;stop-color:#000" transform="translate(-32.17 -40.063)scale(.26458)"><tspan x="329.956" y="200.876">B</tspan></text></svg>