<svg xmlns="http://www.w3.org/2000/svg" width="504.261" height="415.873" viewBox="0 0 133.419 110.033"><defs><path id="B" d="M324.023 1595.508h40.234v20.117h-40.234z"/><path id="A" d="M266.992 1581.055h43.945v21.484h-43.945z"/><path id="z" d="M264.063 1577.734h40.82v25h-40.82z"/><path id="y" d="M273.438 1581.25h31.641v16.797h-31.641z"/><path id="x" d="M257.813 1582.031h42.188v18.945h-42.188z"/><path id="w" d="M419.727 1473.828h30.859v22.07h-30.859z"/><path id="v" d="M350.391 1470.117h30.078v25.586h-30.078z"/><path id="u" d="M304.102 1591.016h23.633v16.797h-23.633z"/><path id="t" d="M269.141 1570.313h25.781v21.094h-25.781z"/><path id="s" d="M239.453 1666.406h68.75v32.031h-68.75z"/><path id="r" d="M264.844 1608.594h67.969v34.375h-67.969z"/><path id="q" d="M174.609 1623.438h78.906v40.234h-78.906z"/><path id="p" d="M59.435 1457.422h51.112v30.409H59.435z"/><path id="j" d="M184.766 1433.984h47.266v29.297h-47.266z"/><path id="i" d="M123.047 1408.203h47.656v25.391h-47.656z"/><path id="h" d="M114.063 1419.141h50.391v40.625h-50.391z"/><path id="g" d="M149.219 1423.438h53.906v31.25h-53.906z"/><path id="f" d="M81.25 1427.344h51.563v21.094H81.25z"/><path id="e" d="M153.125 1383.984h25.391v29.688h-25.391z"/><path id="d" d="M132.031 1403.516h21.484v19.922h-21.484z"/><path id="c" d="M57.422 1363.281H93.75v36.328H57.422z"/><path id="b" d="M159.766 1333.203h48.047v26.172h-48.047z"/><path id="k" d="M57.422 1363.281H93.75v36.328H57.422z"/><path id="l" d="M153.125 1383.984h25.391v29.688h-25.391z"/><path id="m" d="M132.031 1403.516h21.484v19.922h-21.484z"/><path id="n" d="M123.047 1408.203h47.656v25.391h-47.656z"/><path id="o" d="M184.766 1433.984h47.266v29.297h-47.266z"/><path id="C" d="M57.422 1363.281H93.75v36.328H57.422z"/><path id="D" d="M132.031 1403.516h21.484v19.922h-21.484z"/><path id="E" d="M153.125 1383.984h25.391v29.688h-25.391z"/><path id="F" d="M81.25 1427.344h51.563v21.094H81.25z"/><path id="G" d="M59.435 1457.422h51.112v30.409H59.435z"/><path id="H" d="M123.047 1408.203h47.656v25.391h-47.656z"/><path id="I" d="M184.766 1433.984h47.266v29.297h-47.266z"/><marker id="a" markerHeight="1" markerWidth="1" orient="auto-start-reverse" preserveAspectRatio="xMidYMid" refX="0" refY="0" style="overflow:visible" viewBox="0 0 1 1"><path d="M3-3 0 0l3 3" style="fill:none;stroke:context-stroke;stroke-width:1;stroke-linecap:butt" transform="rotate(180 .125 0)"/></marker></defs><g transform="translate(-8.93 -334.289)"><path d="M9.062 334.421h133.154v109.768H9.062z" style="fill:#fff;stroke:#fff;stroke-width:.264583;stroke-linejoin:round;stroke-dasharray:none"/><path d="m26.818 356.24 30.987-14.617" style="fill:none;stroke:teal;stroke-width:.264583;stroke-linejoin:round"/><path d="M26.894 356.492h52.917v52.917H26.894z" style="fill:none;stroke:#ececec;stroke-width:.264583;stroke-linejoin:round"/><path d="m79.81 356.492 30.987-14.617M80 409.42l30.986-14.615M26.894 409.408l30.987-14.616M57.805 341.623l-6.361 22.808-24.626-8.191" style="fill:none;stroke:teal;stroke-width:.264583;stroke-linejoin:round"/><path d="M41.134 356.607s.353-2.422.104-3.558c-.221-1.009-1.344-2.562-1.344-2.562" style="fill:none;stroke:#999;stroke-width:.264583;stroke-linejoin:round;stroke-dasharray:none;marker-end:url(#a)"/><text xml:space="preserve" style="font-size:14.6667px;line-height:normal;font-family:&quot;Liberation Mono&quot;;-inkscape-font-specification:&quot;Liberation Mono&quot;;text-decoration-color:#000;white-space:pre;shape-inside:url(#b);fill:#999;stroke-width:1;-inkscape-stroke:none;stop-color:#000" transform="translate(-.517 -1.24)scale(.26458)"><tspan x="159.766" y="1346.253">aAB</tspan></text><path d="M33.407 353.753s.693 1.307.596 1.993c-.12.844-1.384 2.15-1.384 2.15" style="fill:none;stroke:#00f;stroke-width:.264583;stroke-linejoin:round;stroke-dasharray:none;marker-start:url(#a)"/><text xml:space="preserve" style="font-size:14.6667px;line-height:normal;font-family:&quot;Liberation Mono&quot;;-inkscape-font-specification:&quot;Liberation Mono&quot;;text-decoration-color:#000;white-space:pre;shape-inside:url(#c);fill:#000;stroke-width:1;-inkscape-stroke:none;stop-color:#000" transform="translate(7.958 -6.201)scale(.26458)"><tspan x="57.422" y="1376.331">A</tspan></text><text xml:space="preserve" style="font-size:14.6667px;line-height:normal;font-family:&quot;Liberation Mono&quot;;-inkscape-font-specification:&quot;Liberation Mono&quot;;text-decoration-color:#000;white-space:pre;shape-inside:url(#d);fill:#000;stroke-width:1;-inkscape-stroke:none;stop-color:#000" transform="translate(22.944 -32.143)scale(.26458)"><tspan x="132.031" y="1416.566">B</tspan></text><text xml:space="preserve" style="font-size:14.6667px;line-height:normal;font-family:&quot;Liberation Mono&quot;;-inkscape-font-specification:&quot;Liberation Mono&quot;;text-decoration-color:#000;white-space:pre;shape-inside:url(#e);fill:#000;stroke-width:1;-inkscape-stroke:none;stop-color:#000" transform="translate(10.439 -1.964)scale(.26458)"><tspan x="153.125" y="1397.034">C</tspan></text><text xml:space="preserve" style="font-size:14.6667px;line-height:normal;font-family:&quot;Liberation Mono&quot;;-inkscape-font-specification:&quot;Liberation Mono&quot;;text-decoration-color:#000;white-space:pre;shape-inside:url(#f);fill:#00f;stroke-width:1;-inkscape-stroke:none;stop-color:#000" transform="translate(3.617 -28.422)scale(.26458)"><tspan x="81.25" y="1440.394">aCAB</tspan></text><text xml:space="preserve" style="font-size:14.6667px;line-height:normal;font-family:&quot;Liberation Mono&quot;;-inkscape-font-specification:&quot;Liberation Mono&quot;;text-decoration-color:#000;white-space:pre;shape-inside:url(#g);fill:#00f;stroke-width:1;-inkscape-stroke:none;stop-color:#000" transform="translate(6.305 -37.207)scale(.26458)"><tspan x="149.219" y="1436.488">aABC</tspan></text><path d="M52.813 344.062s.288 1.818.93 2.377c.562.488 2.17.517 2.17.517" style="fill:none;stroke:#00f;stroke-width:.264583;stroke-linejoin:round;stroke-dasharray:none;marker-end:url(#a)"/><text xml:space="preserve" style="font-size:14.6667px;line-height:normal;font-family:&quot;Liberation Mono&quot;;-inkscape-font-specification:&quot;Liberation Mono&quot;;text-decoration-color:#000;white-space:pre;shape-inside:url(#h);fill:#00f;stroke-width:1;-inkscape-stroke:none;stop-color:#000" transform="translate(7.028 -30.903)scale(.26458)"><tspan x="114.063" y="1432.191">lAB</tspan></text><text xml:space="preserve" style="font-size:14.6667px;line-height:normal;font-family:&quot;Liberation Mono&quot;;-inkscape-font-specification:&quot;Liberation Mono&quot;;text-decoration-color:#000;white-space:pre;shape-inside:url(#i);fill:purple;stroke-width:1;-inkscape-stroke:none;stop-color:#000" transform="translate(1.24 -11.679)scale(.26458)"><tspan x="123.047" y="1421.253">lAC</tspan></text><text xml:space="preserve" style="font-size:14.6667px;line-height:normal;font-family:&quot;Liberation Mono&quot;;-inkscape-font-specification:&quot;Liberation Mono&quot;;text-decoration-color:#000;white-space:pre;shape-inside:url(#j);fill:purple;stroke-width:1;-inkscape-stroke:none;stop-color:#000" transform="translate(5.994 -27.285)scale(.26458)"><tspan x="184.766" y="1447.034">lBC</tspan></text><path d="m57.88 394.792-42.997 43.01 12.011-28.394" style="fill:none;stroke:teal;stroke-width:.264583;stroke-linejoin:round;stroke-dasharray:none"/><text xml:space="preserve" style="font-size:14.6667px;line-height:normal;font-family:&quot;Liberation Mono&quot;;-inkscape-font-specification:&quot;Liberation Mono&quot;;text-decoration-color:#000;white-space:pre;shape-inside:url(#k);display:inline;fill:#000;stroke-width:1;-inkscape-stroke:none;stop-color:#000" transform="translate(8.713 45.386)scale(.26458)"><tspan x="57.422" y="1376.331">A</tspan></text><text xml:space="preserve" style="font-size:14.6667px;line-height:normal;font-family:&quot;Liberation Mono&quot;;-inkscape-font-specification:&quot;Liberation Mono&quot;;text-decoration-color:#000;white-space:pre;shape-inside:url(#l);display:inline;fill:#000;stroke-width:1;-inkscape-stroke:none;stop-color:#000" transform="translate(-26.953 71.668)scale(.26458)"><tspan x="153.125" y="1397.034">C</tspan></text><text xml:space="preserve" style="font-size:14.6667px;line-height:normal;font-family:&quot;Liberation Mono&quot;;-inkscape-font-specification:&quot;Liberation Mono&quot;;text-decoration-color:#000;white-space:pre;shape-inside:url(#m);display:inline;fill:#000;stroke-width:1;-inkscape-stroke:none;stop-color:#000" transform="translate(23.762 20.134)scale(.26458)"><tspan x="132.031" y="1416.566">B</tspan></text><text xml:space="preserve" style="font-size:14.6667px;line-height:normal;font-family:&quot;Liberation Mono&quot;;-inkscape-font-specification:&quot;Liberation Mono&quot;;text-decoration-color:#000;white-space:pre;shape-inside:url(#n);display:inline;fill:#00f;stroke-width:1;-inkscape-stroke:none;stop-color:#000" transform="translate(-18.312 46.194)scale(.26458)"><tspan x="123.047" y="1421.253">lAC</tspan></text><text xml:space="preserve" style="font-size:14.6667px;line-height:normal;font-family:&quot;Liberation Mono&quot;;-inkscape-font-specification:&quot;Liberation Mono&quot;;text-decoration-color:#000;white-space:pre;shape-inside:url(#o);display:inline;fill:#00f;stroke-width:1;-inkscape-stroke:none;stop-color:#000" transform="translate(-11.932 35.975)scale(.26458)"><tspan x="184.766" y="1447.034">lBC</tspan></text><text xml:space="preserve" style="font-size:14.6667px;line-height:normal;font-family:&quot;Liberation Mono&quot;;-inkscape-font-specification:&quot;Liberation Mono&quot;;text-decoration-color:#000;white-space:pre;shape-inside:url(#p);fill:#00f;stroke-width:1;-inkscape-stroke:none;stop-color:#000" transform="translate(20.148 12.092)scale(.26458)"><tspan x="59.436" y="1470.472">lAB</tspan></text><path d="M25.425 413.205s2.33-.158 3.307-.724c.844-.489 1.7-1.23 1.964-2.17.199-.71-.414-2.17-.414-2.17" style="fill:none;stroke:purple;stroke-width:.264583;stroke-linejoin:round;stroke-dasharray:none;marker-end:url(#a)"/><path d="M48.68 399.252s.02 1.11.31 1.55c.298.456 1.343.93 1.343.93" style="fill:none;stroke:purple;stroke-width:.264583;stroke-linejoin:round;stroke-dasharray:none;marker-end:url(#a)"/><path d="M21.6 430.611s-.05-1.373-.62-1.804c-.46-.347-1.86-.327-1.86-.327" style="fill:none;stroke:purple;stroke-width:.264583;stroke-linejoin:round;stroke-dasharray:none;marker-end:url(#a)"/><text xml:space="preserve" style="font-size:14.6667px;line-height:normal;font-family:&quot;Liberation Mono&quot;;-inkscape-font-specification:&quot;Liberation Mono&quot;;text-decoration-color:#000;white-space:pre;shape-inside:url(#q);fill:purple;stroke-width:1;-inkscape-stroke:none;stop-color:#000" transform="translate(-14.78 -21.91)scale(.26458)"><tspan x="174.609" y="1636.488">aCAB</tspan></text><text xml:space="preserve" style="font-size:14.6667px;line-height:normal;font-family:&quot;Liberation Mono&quot;;-inkscape-font-specification:&quot;Liberation Mono&quot;;text-decoration-color:#000;white-space:pre;shape-inside:url(#r);fill:purple;stroke-width:1;-inkscape-stroke:none;stop-color:#000" transform="translate(-18.604 -24.805)scale(.26458)"><tspan x="264.844" y="1621.644">aABC</tspan></text><text xml:space="preserve" style="font-size:14.6667px;line-height:normal;font-family:&quot;Liberation Mono&quot;;-inkscape-font-specification:&quot;Liberation Mono&quot;;text-decoration-color:#000;white-space:pre;shape-inside:url(#s);fill:purple;stroke-width:1;-inkscape-stroke:none;stop-color:#000" transform="translate(-42.891 -9.198)scale(.26458)"><tspan x="239.453" y="1679.456">aBCA</tspan></text><ellipse cx="110.986" cy="394.805" rx="28.54" ry="28.415" style="fill:none;stroke:#b3b3b3;stroke-width:.264583;stroke-linejoin:round;stroke-dasharray:none"/><path d="m71.21 406.7 63.355 19.844" style="fill:none;stroke:#b3b3b3;stroke-width:.264583;stroke-linejoin:round;stroke-dasharray:none"/><path d="m80 409.42 8.367 2.544 22.619-17.16" style="fill:none;stroke:#f0f;stroke-width:.264583;stroke-linejoin:round;stroke-dasharray:none"/><path d="m110.986 394.805 8.697 27.185-39.735-12.31" style="fill:none;stroke:#faa;stroke-width:.264583;stroke-linejoin:round;stroke-dasharray:none"/><text xml:space="preserve" style="font-size:14.6667px;line-height:normal;font-family:&quot;Liberation Mono&quot;;-inkscape-font-specification:&quot;Liberation Mono&quot;;text-decoration-color:#000;white-space:pre;shape-inside:url(#t);fill:#000;stroke-width:1;-inkscape-stroke:none;stop-color:#000" transform="translate(5.013 -8.527)scale(.26458)"><tspan x="269.141" y="1583.363">A</tspan></text><text xml:space="preserve" style="font-size:14.6667px;line-height:normal;font-family:&quot;Liberation Mono&quot;;-inkscape-font-specification:&quot;Liberation Mono&quot;;text-decoration-color:#000;white-space:pre;shape-inside:url(#u);fill:#000;stroke-width:1;-inkscape-stroke:none;stop-color:#000" transform="translate(29.869 -30.024)scale(.26458)"><tspan x="304.102" y="1604.066">B</tspan></text><text xml:space="preserve" style="font-size:14.6667px;line-height:normal;font-family:&quot;Liberation Mono&quot;;-inkscape-font-specification:&quot;Liberation Mono&quot;;text-decoration-color:#000;white-space:pre;shape-inside:url(#v);fill:#000;stroke-width:1;-inkscape-stroke:none;stop-color:#000" transform="translate(-6.976 22.841)scale(.26458)"><tspan x="350.391" y="1483.167">C1</tspan></text><text xml:space="preserve" style="font-size:14.6667px;line-height:normal;font-family:&quot;Liberation Mono&quot;;-inkscape-font-specification:&quot;Liberation Mono&quot;;text-decoration-color:#000;white-space:pre;shape-inside:url(#w);fill:#000;stroke-width:1;-inkscape-stroke:none;stop-color:#000" transform="translate(6.46 31.884)scale(.26458)"><tspan x="419.727" y="1486.878">C2</tspan></text><path d="M82.45 409.923s.26-.448.31-.697c.053-.271-.026-.827-.026-.827" style="fill:none;stroke:#00f;stroke-width:.264583;stroke-linejoin:round;stroke-dasharray:none;marker-end:url(#a)"/><text xml:space="preserve" style="font-size:14.6667px;line-height:normal;font-family:&quot;Liberation Mono&quot;;-inkscape-font-specification:&quot;Liberation Mono&quot;;text-decoration-color:#000;white-space:pre;shape-inside:url(#x);fill:#00f;stroke-width:1;-inkscape-stroke:none;stop-color:#000" transform="translate(6.356 -15.09)scale(.26458)"><tspan x="257.813" y="1595.081">aCAB</tspan></text><text xml:space="preserve" style="font-size:14.6667px;line-height:normal;font-family:&quot;Liberation Mono&quot;;-inkscape-font-specification:&quot;Liberation Mono&quot;;text-decoration-color:#000;white-space:pre;shape-inside:url(#y);fill:#00f;stroke-width:1;-inkscape-stroke:none;stop-color:#000" transform="translate(18.087 -21.446)scale(.26458)"><tspan x="273.438" y="1594.3">lAB</tspan></text><text xml:space="preserve" style="font-size:14.6667px;line-height:normal;font-family:&quot;Liberation Mono&quot;;-inkscape-font-specification:&quot;Liberation Mono&quot;;text-decoration-color:#000;white-space:pre;shape-inside:url(#z);fill:#00f;stroke-width:1;-inkscape-stroke:none;stop-color:#000" transform="translate(44.493 -13.126)scale(.26458)"><tspan x="264.063" y="1590.784">lBC</tspan></text><text xml:space="preserve" style="font-size:14.6667px;line-height:normal;font-family:&quot;Liberation Mono&quot;;-inkscape-font-specification:&quot;Liberation Mono&quot;;text-decoration-color:#000;white-space:pre;shape-inside:url(#A);fill:purple;stroke-width:1;-inkscape-stroke:none;stop-color:#000" transform="translate(5.168 -7.648)scale(.26458)"><tspan x="266.992" y="1594.105">lAC1</tspan></text><text xml:space="preserve" style="font-size:14.6667px;line-height:normal;font-family:&quot;Liberation Mono&quot;;-inkscape-font-specification:&quot;Liberation Mono&quot;;text-decoration-color:#000;white-space:pre;shape-inside:url(#B);fill:purple;stroke-width:1;-inkscape-stroke:none;stop-color:#000" transform="translate(11.524 -10.955)scale(.26458)"><tspan x="324.023" y="1608.558">lAC2</tspan></text><path d="m79.81 356.492 56.999 5.057-26.012-19.674" style="fill:none;stroke:teal;stroke-width:.264583;stroke-linejoin:round"/><text xml:space="preserve" style="font-size:14.6667px;line-height:normal;font-family:&quot;Liberation Mono&quot;;-inkscape-font-specification:&quot;Liberation Mono&quot;;text-decoration-color:#000;white-space:pre;shape-inside:url(#C);display:inline;fill:#000;stroke-width:1;-inkscape-stroke:none;stop-color:#000" transform="translate(60.585 -5.914)scale(.26458)"><tspan x="57.422" y="1376.331">A</tspan></text><text xml:space="preserve" style="font-size:14.6667px;line-height:normal;font-family:&quot;Liberation Mono&quot;;-inkscape-font-specification:&quot;Liberation Mono&quot;;text-decoration-color:#000;white-space:pre;shape-inside:url(#D);display:inline;fill:#000;stroke-width:1;-inkscape-stroke:none;stop-color:#000" transform="translate(74.606 -33.796)scale(.26458)"><tspan x="132.031" y="1416.566">B</tspan></text><text xml:space="preserve" style="font-size:14.6667px;line-height:normal;font-family:&quot;Liberation Mono&quot;;-inkscape-font-specification:&quot;Liberation Mono&quot;;text-decoration-color:#000;white-space:pre;shape-inside:url(#E);display:inline;fill:#000;stroke-width:1;-inkscape-stroke:none;stop-color:#000" transform="translate(96.955 -6.388)scale(.26458)"><tspan x="153.125" y="1397.034">C</tspan></text><path d="M90.329 357.076s.682-1.738.584-2.63c-.087-.802-1.023-2.193-1.023-2.193" style="fill:none;stroke:#00f;stroke-width:.264583;stroke-linejoin:round;stroke-dasharray:none;marker-end:url(#a)"/><text xml:space="preserve" style="font-size:14.6667px;line-height:normal;font-family:&quot;Liberation Mono&quot;;-inkscape-font-specification:&quot;Liberation Mono&quot;;text-decoration-color:#000;white-space:pre;shape-inside:url(#F);display:inline;fill:#00f;stroke-width:1;-inkscape-stroke:none;stop-color:#000" transform="translate(70.072 -25.514)scale(.26458)"><tspan x="81.25" y="1440.394">aCAB</tspan></text><text xml:space="preserve" style="font-size:14.6667px;line-height:normal;font-family:&quot;Liberation Mono&quot;;-inkscape-font-specification:&quot;Liberation Mono&quot;;text-decoration-color:#000;white-space:pre;shape-inside:url(#G);display:inline;fill:#00f;stroke-width:1;-inkscape-stroke:none;stop-color:#000" transform="translate(75.383 -41.863)scale(.26458)"><tspan x="59.436" y="1470.472">lAB</tspan></text><text xml:space="preserve" style="font-size:14.6667px;line-height:normal;font-family:&quot;Liberation Mono&quot;;-inkscape-font-specification:&quot;Liberation Mono&quot;;text-decoration-color:#000;white-space:pre;shape-inside:url(#H);display:inline;fill:#00f;stroke-width:1;-inkscape-stroke:none;stop-color:#000" transform="translate(72.938 -13.353)scale(.26458)"><tspan x="123.047" y="1421.253">lAC</tspan></text><text xml:space="preserve" style="font-size:14.6667px;line-height:normal;font-family:&quot;Liberation Mono&quot;;-inkscape-font-specification:&quot;Liberation Mono&quot;;text-decoration-color:#000;white-space:pre;shape-inside:url(#I);display:inline;fill:purple;stroke-width:1;-inkscape-stroke:none;stop-color:#000" transform="translate(72.957 -33.21)scale(.26458)"><tspan x="184.766" y="1447.034">lBC</tspan></text></g></svg>