<svg xmlns="http://www.w3.org/2000/svg" width="502.016" height="224.436" viewBox="0 0 132.825 59.382"><defs><path id="i" d="M229.537 302.745h106.761v57.194H229.537z"/><path id="b" d="M67.107 392.729h61.007v46.517H67.107z"/><path id="c" d="M256.99 429.333h70.92v44.992h-70.92z"/><path id="d" d="M179.969 314.183h53.381v38.129h-53.381z"/><path id="f" d="M317.996 442.297h59.481v60.244h-59.481z"/><path id="g" d="M455.261 216.573h45.755v39.654h-45.755z"/><path id="h" d="M349.262 143.365h64.057v52.618h-64.057z"/><marker id="a" markerHeight="1" markerWidth="1" orient="auto-start-reverse" preserveAspectRatio="xMidYMid" refX="0" refY="0" style="overflow:visible" viewBox="0 0 1 1"><path d="M3-3 0 0l3 3" style="fill:none;stroke:context-stroke;stroke-width:1;stroke-linecap:butt" transform="rotate(180 .125 0)"/></marker><marker id="e" markerHeight="1" markerWidth="1" orient="auto-start-reverse" preserveAspectRatio="xMidYMid" refX="0" refY="0" style="overflow:visible" viewBox="0 0 1 1"><path d="M3-3 0 0l3 3" style="fill:none;stroke:context-stroke;stroke-width:1;stroke-linecap:butt" transform="rotate(180 .125 0)"/></marker></defs><path d="M15.132 31.879h132.56v59.118H15.132z" style="fill:#fff;stroke:#fff;stroke-width:.264583;stroke-linejoin:round;stroke-dasharray:none" transform="translate(-15 -31.747)"/><path d="M20.706 71.32h103.91" style="fill:none;stroke:#d4aa00;stroke-width:.264583;stroke-linejoin:round" transform="translate(-15 -31.747)"/><path d="m20.706 71.32 14.93-26.027" style="fill:none;stroke:#00f;stroke-width:.264583;stroke-linejoin:round;stroke-dasharray:none;marker-end:url(#a)" transform="translate(-15 -31.747)"/><path d="m124.616 71.32 12.307 14.528" style="fill:none;stroke:#00f;stroke-width:.264583;stroke-linejoin:round;stroke-dasharray:none;marker-end:url(#a)" transform="translate(-15 -31.747)"/><path d="M124.616 71.32h18.562" style="fill:none;stroke:#b3b3b3;stroke-width:.264583;stroke-linejoin:round;stroke-dasharray:none" transform="translate(-15 -31.747)"/><text xml:space="preserve" style="font-size:16px;line-height:normal;font-family:&quot;Liberation Mono&quot;;-inkscape-font-specification:&quot;Liberation Mono&quot;;text-decoration-color:#000;white-space:pre;shape-inside:url(#b);display:inline;fill:#000;stroke-width:1;-inkscape-stroke:none;stop-color:#000" transform="translate(-13.462 -63.932)scale(.26458)"><tspan x="67.107" y="406.965">A</tspan></text><text xml:space="preserve" style="font-size:16px;line-height:normal;font-family:&quot;Liberation Mono&quot;;-inkscape-font-specification:&quot;Liberation Mono&quot;;text-decoration-color:#000;white-space:pre;shape-inside:url(#c);display:inline;fill:#000;stroke-width:1;-inkscape-stroke:none;stop-color:#000" transform="translate(41.015 -79.065)scale(.26458)"><tspan x="256.99" y="443.57">B</tspan></text><path d="m55.67 37.965 58.396 13.243" style="fill:none;stroke:red;stroke-width:.264583;stroke-linejoin:round;stroke-dasharray:none;marker-start:url(#a);marker-end:url(#a)" transform="translate(-15 -31.747)"/><path d="M84.868 44.586h31.791" style="fill:none;stroke:#b3b3b3;stroke-width:.264583;stroke-linejoin:round;stroke-dasharray:none" transform="translate(-15 -31.747)"/><path d="M30.19 71.119s.594-3.313-.203-4.64c-.884-1.475-4.439-2.624-4.439-2.624" style="fill:none;stroke:#4a0;stroke-width:.264583;stroke-linejoin:round;stroke-dasharray:none;marker-end:url(#a)" transform="translate(-15 -31.747)"/><text xml:space="preserve" style="font-size:16px;line-height:normal;font-family:&quot;Liberation Mono&quot;;-inkscape-font-specification:&quot;Liberation Mono&quot;;text-decoration-color:#000;white-space:pre;shape-inside:url(#d);display:inline;fill:#4a0;stroke-width:1;-inkscape-stroke:none;stop-color:#000" transform="translate(-32.603 -53.288)scale(.26458)"><tspan x="179.969" y="328.42">a</tspan></text><path d="M135.91 71.511s.542 3.447-.213 4.895c-.702 1.346-3.616 2.767-3.616 2.767" style="fill:none;stroke:#4a0;stroke-width:.264583;stroke-linejoin:round;stroke-dasharray:none;marker-end:url(#a)" transform="translate(-15 -31.747)"/><path d="M106.8 44.817s.236 1.832-.094 2.602c-.306.716-1.58 1.47-1.58 1.47" style="fill:none;stroke:#4a0;stroke-width:.264583;stroke-linejoin:round;stroke-dasharray:none;marker-end:url(#e)" transform="translate(-15 -31.747)"/><text xml:space="preserve" style="font-size:16px;line-height:normal;font-family:&quot;Liberation Mono&quot;;-inkscape-font-specification:&quot;Liberation Mono&quot;;text-decoration-color:#000;white-space:pre;shape-inside:url(#f);display:inline;fill:#4a0;stroke-width:1;-inkscape-stroke:none;stop-color:#000" transform="translate(37.787 -74.626)scale(.26458)"><tspan x="317.996" y="456.533">b</tspan></text><text xml:space="preserve" style="font-size:16px;line-height:normal;font-family:&quot;Liberation Mono&quot;;-inkscape-font-specification:&quot;Liberation Mono&quot;;text-decoration-color:#000;white-space:pre;shape-inside:url(#g);display:inline;fill:#4a0;stroke-width:1;-inkscape-stroke:none;stop-color:#000" transform="translate(-27.99 -43.958)scale(.26458)"><tspan x="455.262" y="230.809">c</tspan></text><text xml:space="preserve" style="font-size:16px;line-height:normal;font-family:&quot;Liberation Mono&quot;;-inkscape-font-specification:&quot;Liberation Mono&quot;;text-decoration-color:#000;white-space:pre;shape-inside:url(#h);display:inline;fill:#000;stroke-width:1;-inkscape-stroke:none;stop-color:#000" transform="translate(-22.541 -31.044)scale(.26458)"><tspan x="349.262" y="157.602">C</tspan></text><text xml:space="preserve" style="font-size:16px;line-height:normal;font-family:&quot;Liberation Mono&quot;;-inkscape-font-specification:&quot;Liberation Mono&quot;;text-decoration-color:#000;white-space:pre;shape-inside:url(#i);fill:#000;stroke-width:1;-inkscape-stroke:none;stop-color:#000" transform="translate(-1.684 -38.607)scale(.26458)"><tspan x="229.537" y="316.981">lAB</tspan></text></svg>