<svg xmlns="http://www.w3.org/2000/svg" width="517.268" height="460.074" viewBox="0 0 136.86 121.728"><defs><path id="m" d="M485.002 591.001h45.755v28.216h-45.755z"/><path id="l" d="M539.145 513.98h59.481v60.244h-59.481z"/><path id="k" d="M212.76 490.34h45.755v38.892H212.76z"/><path id="i" d="M203.609 350.787h81.596v23.64h-81.596z"/><path id="h" d="M349.262 143.365h64.057v52.618h-64.057z"/><path id="g" d="M455.261 216.573h45.755v39.654h-45.755z"/><path id="f" d="M317.996 442.297h59.481v60.244h-59.481z"/><path id="d" d="M179.969 314.183h53.381v38.129h-53.381z"/><path id="c" d="M256.99 429.333h70.92v44.992h-70.92z"/><path id="b" d="M67.107 392.729h61.007v46.517H67.107z"/><path id="j" d="M203.609 350.787h81.596v23.64h-81.596z"/><marker id="a" markerHeight="1" markerWidth="1" orient="auto-start-reverse" preserveAspectRatio="xMidYMid" refX="0" refY="0" style="overflow:visible" viewBox="0 0 1 1"><path d="M3-3 0 0l3 3" style="fill:none;stroke:context-stroke;stroke-width:1;stroke-linecap:butt" transform="rotate(180 .125 0)"/></marker><marker id="e" markerHeight="1" markerWidth="1" orient="auto-start-reverse" preserveAspectRatio="xMidYMid" refX="0" refY="0" style="overflow:visible" viewBox="0 0 1 1"><path d="M3-3 0 0l3 3" style="fill:none;stroke:context-stroke;stroke-width:1;stroke-linecap:butt" transform="rotate(180 .125 0)"/></marker></defs><path d="M10.895 210.039h136.596v121.463H10.895z" style="fill:#fff;stroke:#fff;stroke-width:.264583;stroke-linejoin:round;stroke-dasharray:none" transform="translate(-10.763 -209.906)"/><path d="M18.764 265.323h103.91" style="fill:none;stroke:#d4aa00;stroke-width:.264583;stroke-linejoin:round" transform="translate(-10.763 -209.906)"/><path d="m18.764 265.323 14.931-26.028" style="fill:none;stroke:#00f;stroke-width:.264583;stroke-linejoin:round;stroke-dasharray:none;marker-end:url(#a)" transform="translate(-10.763 -209.906)"/><path d="m122.674 265.323 12.308 14.527" style="fill:none;stroke:#00f;stroke-width:.264583;stroke-linejoin:round;stroke-dasharray:none;marker-end:url(#a)" transform="translate(-10.763 -209.906)"/><path d="M122.674 265.323h18.562" style="fill:none;stroke:#b3b3b3;stroke-width:.264583;stroke-linejoin:round;stroke-dasharray:none" transform="translate(-10.763 -209.906)"/><text xml:space="preserve" style="font-size:16px;line-height:normal;font-family:&quot;Liberation Mono&quot;;-inkscape-font-specification:&quot;Liberation Mono&quot;;text-decoration-color:#000;white-space:pre;shape-inside:url(#b);display:inline;fill:#000;stroke-width:1;-inkscape-stroke:none;stop-color:#000" transform="translate(-11.167 -48.09)scale(.26458)"><tspan x="67.107" y="406.965">A</tspan></text><text xml:space="preserve" style="font-size:16px;line-height:normal;font-family:&quot;Liberation Mono&quot;;-inkscape-font-specification:&quot;Liberation Mono&quot;;text-decoration-color:#000;white-space:pre;shape-inside:url(#c);display:inline;fill:#000;stroke-width:1;-inkscape-stroke:none;stop-color:#000" transform="translate(43.31 -63.222)scale(.26458)"><tspan x="256.99" y="443.57">B</tspan></text><path d="m53.728 231.967 58.396 13.243" style="fill:none;stroke:red;stroke-width:.264583;stroke-linejoin:round;stroke-dasharray:none;marker-start:url(#a);marker-end:url(#a)" transform="translate(-10.763 -209.906)"/><path d="M82.926 238.589h31.792" style="fill:none;stroke:#b3b3b3;stroke-width:.264583;stroke-linejoin:round;stroke-dasharray:none" transform="translate(-10.763 -209.906)"/><path d="M28.247 265.12s.595-3.312-.201-4.64c-.884-1.474-4.44-2.623-4.44-2.623" style="fill:none;stroke:#4a0;stroke-width:.264583;stroke-linejoin:round;stroke-dasharray:none;marker-end:url(#a)" transform="translate(-10.763 -209.906)"/><text xml:space="preserve" style="font-size:16px;line-height:normal;font-family:&quot;Liberation Mono&quot;;-inkscape-font-specification:&quot;Liberation Mono&quot;;text-decoration-color:#000;white-space:pre;shape-inside:url(#d);display:inline;fill:#4a0;stroke-width:1;-inkscape-stroke:none;stop-color:#000" transform="translate(-30.308 -37.446)scale(.26458)"><tspan x="179.969" y="328.42">a</tspan></text><path d="M133.968 265.513s.542 3.447-.213 4.895c-.701 1.347-3.615 2.767-3.615 2.767" style="fill:none;stroke:#4a0;stroke-width:.264583;stroke-linejoin:round;stroke-dasharray:none;marker-end:url(#a)" transform="translate(-10.763 -209.906)"/><path d="M104.858 238.819s.236 1.832-.093 2.602c-.307.716-1.58 1.47-1.58 1.47" style="fill:none;stroke:#4a0;stroke-width:.264583;stroke-linejoin:round;stroke-dasharray:none;marker-end:url(#e)" transform="translate(-10.763 -209.906)"/><text xml:space="preserve" style="font-size:16px;line-height:normal;font-family:&quot;Liberation Mono&quot;;-inkscape-font-specification:&quot;Liberation Mono&quot;;text-decoration-color:#000;white-space:pre;shape-inside:url(#f);display:inline;fill:#4a0;stroke-width:1;-inkscape-stroke:none;stop-color:#000" transform="translate(40.082 -58.783)scale(.26458)"><tspan x="317.996" y="456.533">b</tspan></text><text xml:space="preserve" style="font-size:16px;line-height:normal;font-family:&quot;Liberation Mono&quot;;-inkscape-font-specification:&quot;Liberation Mono&quot;;text-decoration-color:#000;white-space:pre;shape-inside:url(#g);display:inline;fill:#4a0;stroke-width:1;-inkscape-stroke:none;stop-color:#000" transform="translate(-25.694 -28.115)scale(.26458)"><tspan x="455.262" y="230.809">c</tspan></text><text xml:space="preserve" style="font-size:16px;line-height:normal;font-family:&quot;Liberation Mono&quot;;-inkscape-font-specification:&quot;Liberation Mono&quot;;text-decoration-color:#000;white-space:pre;shape-inside:url(#h);display:inline;fill:#000;stroke-width:1;-inkscape-stroke:none;stop-color:#000" transform="translate(-20.246 -15.202)scale(.26458)"><tspan x="349.262" y="157.602">C</tspan></text><path d="m62.774 327.069 20.117-88.497" style="fill:#ffd5d5;stroke:#ffd5d5;stroke-width:.264583;stroke-linejoin:round;stroke-dasharray:none" transform="translate(-10.763 -209.906)"/><path d="m18.715 265.388 86.34 49.697" style="fill:none;stroke:#acf;stroke-width:.264583;stroke-linejoin:round;stroke-dasharray:none" transform="translate(-10.763 -209.906)"/><path d="m47.992 328.71 74.682-63.387" style="fill:none;stroke:#80b3ff;stroke-width:.264583;stroke-linejoin:round;stroke-dasharray:none" transform="translate(-10.763 -209.906)"/><path d="m18.745 265.293 108.175-45.176" style="fill:#ffd5d5;stroke:#eaf;stroke-width:.264583;stroke-linejoin:round;stroke-dasharray:none" transform="translate(-10.763 -209.906)"/><path d="m122.686 265.308-74.71-50.172" style="fill:#ffd5d5;stroke:#eaf;stroke-width:.264584;stroke-linejoin:round;stroke-dasharray:none" transform="translate(-10.763 -209.906)"/><path d="M39.546 265.323s.972-2.81.807-4.237c-.152-1.316-1.614-3.632-1.614-3.632" style="fill:none;stroke:#c0f;stroke-width:.264583;stroke-linejoin:round;stroke-dasharray:none;marker-end:url(#a)" transform="translate(-10.763 -209.906)"/><text xml:space="preserve" style="font-size:16px;line-height:normal;font-family:&quot;Liberation Mono&quot;;-inkscape-font-specification:&quot;Liberation Mono&quot;;text-decoration-color:#000;white-space:pre;shape-inside:url(#i);display:inline;fill:#c0f;stroke-width:1;-inkscape-stroke:none;stop-color:#000" transform="translate(-23.273 -44.458)scale(.26458)"><tspan x="203.609" y="365.024">u</tspan></text><path d="M111.375 265.12s-.993-2.54-.807-3.833c.142-.982 1.412-2.623 1.412-2.623" style="fill:none;stroke:#c0f;stroke-width:.264583;stroke-linejoin:round;stroke-dasharray:none;marker-end:url(#a)" transform="translate(-10.763 -209.906)"/><text xml:space="preserve" style="font-size:16px;line-height:normal;font-family:&quot;Liberation Mono&quot;;-inkscape-font-specification:&quot;Liberation Mono&quot;;text-decoration-color:#000;white-space:pre;shape-inside:url(#j);display:inline;fill:#c0f;stroke-width:1;-inkscape-stroke:none;stop-color:#000" transform="translate(42.324 -44.219)scale(.26458)"><tspan x="203.609" y="365.024">v</tspan></text><text xml:space="preserve" style="font-size:16px;line-height:normal;font-family:&quot;Liberation Mono&quot;;-inkscape-font-specification:&quot;Liberation Mono&quot;;text-decoration-color:#000;white-space:pre;shape-inside:url(#k);display:inline;fill:#000;stroke-width:1;-inkscape-stroke:none;stop-color:#000" transform="translate(10.019 -73.916)scale(.26458)"><tspan x="212.76" y="504.576">D</tspan></text><text xml:space="preserve" style="font-size:16px;line-height:normal;font-family:&quot;Liberation Mono&quot;;-inkscape-font-specification:&quot;Liberation Mono&quot;;text-decoration-color:#000;white-space:pre;shape-inside:url(#l);display:inline;fill:#000;stroke-width:1;-inkscape-stroke:none;stop-color:#000" transform="translate(-88.443 -52.327)scale(.26458)"><tspan x="539.145" y="528.217">E</tspan></text><text xml:space="preserve" style="font-size:16px;line-height:normal;font-family:&quot;Liberation Mono&quot;;-inkscape-font-specification:&quot;Liberation Mono&quot;;text-decoration-color:#000;white-space:pre;shape-inside:url(#m);display:inline;fill:#000;stroke-width:1;-inkscape-stroke:none;stop-color:#000" transform="translate(-72.907 -53.134)scale(.26458)"><tspan x="485.002" y="605.236">F</tspan></text></svg>