<svg xmlns="http://www.w3.org/2000/svg" width="396.005" height="451.486" viewBox="0 0 104.776 119.456"><defs><path id="n" d="M230.608 3184.681h66.174v20.964h-66.174z"/><path id="l" d="M354.435 2702.939h117.194v27.759H354.435z"/><path id="k" d="M196.4 2720.562h96.209v30.105H196.4z"/><path id="j" d="M108.668 3113.773h73.384v44.861h-73.384z"/><path id="g" d="M217.671 2710.04h68.388v42.876h-68.388z"/><path id="b" d="M289.177 336.056h36.086v32.925h-36.086z"/><path id="d" d="M289.177 336.056h36.086v32.925h-36.086z"/><path id="f" d="M289.177 336.056h36.086v32.925h-36.086z"/><path id="h" d="M217.671 2710.04h68.388v42.876h-68.388z"/><path id="i" d="M217.671 2710.04h68.388v42.876h-68.388z"/><path id="p" d="M230.608 3184.681h66.174v20.964h-66.174z"/><marker id="m" markerHeight="1" markerWidth="1" orient="auto-start-reverse" preserveAspectRatio="xMidYMid" refX="0" refY="0" style="overflow:visible" viewBox="0 0 1 1"><path d="M3-3 0 0l3 3" style="fill:none;stroke:context-stroke;stroke-width:1;stroke-linecap:butt" transform="rotate(180 .125 0)"/></marker><marker id="a" markerHeight="1" markerWidth="1" orient="auto-start-reverse" preserveAspectRatio="xMidYMid" refX="0" refY="0" style="overflow:visible" viewBox="0 0 1 1"><path d="M3-3 0 0l3 3" style="fill:none;stroke:context-stroke;stroke-width:1;stroke-linecap:butt" transform="rotate(180 .125 0)"/></marker><marker id="c" markerHeight="1" markerWidth="1" orient="auto-start-reverse" preserveAspectRatio="xMidYMid" refX="0" refY="0" style="overflow:visible" viewBox="0 0 1 1"><path d="M3-3 0 0l3 3" style="fill:none;stroke:context-stroke;stroke-width:1;stroke-linecap:butt" transform="rotate(180 .125 0)"/></marker><marker id="e" markerHeight="1" markerWidth="1" orient="auto-start-reverse" preserveAspectRatio="xMidYMid" refX="0" refY="0" style="overflow:visible" viewBox="0 0 1 1"><path d="M3-3 0 0l3 3" style="fill:none;stroke:context-stroke;stroke-width:1;stroke-linecap:butt" transform="rotate(180 .125 0)"/></marker><marker id="o" markerHeight="1" markerWidth="1" orient="auto-start-reverse" preserveAspectRatio="xMidYMid" refX="0" refY="0" style="overflow:visible" viewBox="0 0 1 1"><path d="M3-3 0 0l3 3" style="fill:none;stroke:context-stroke;stroke-width:1;stroke-linecap:butt" transform="rotate(180 .125 0)"/></marker></defs><g transform="translate(-24.33 -718.07)"><path d="M24.463 718.202h104.512v119.191H24.463z" style="fill:#fff;stroke:#fff;stroke-width:.264583"/><path fill="none" stroke="green" stroke-width=".265" d="M45.155 769.189a96.819 97.16 0 0 0-4.459-29.148v-9.716h-4.492v9.716a67.773 68.012 0 0 0-6.54 29.148 67.773 68.012 0 0 0 6.54 29.148v9.716h4.492v-9.716a96.819 97.16 0 0 0 4.46-29.148zM80.01 769.189a96.819 81.465 0 0 0-4.46-24.44v-8.146H64.52v65.172h11.03v-8.147a96.819 81.465 0 0 0 4.46-24.44zM122.61 769.189a96.819 105.9 0 0 0-4.46-31.77v-10.59h-17.57v10.59a67.773 74.13 0 0 1 6.54 31.77 67.773 74.13 0 0 1-6.54 31.77v10.59h17.57v-10.59a96.819 105.9 0 0 0 4.46-31.77z" style="fill:none;stroke:#00f"/><path d="M29.766 768.048h14.808" style="fill:#fff;stroke:green;stroke-width:.264583;marker-start:url(#a);marker-end:url(#a)"/><text xml:space="preserve" style="font-size:14.6667px;line-height:normal;font-family:&quot;Liberation Mono&quot;;-inkscape-font-specification:&quot;Liberation Mono&quot;;text-align:center;text-decoration-color:#000;white-space:pre;shape-inside:url(#b);display:inline;fill:green;stroke-width:1;-inkscape-stroke:none;stop-color:#000" transform="translate(-43.758 674.406)scale(.26458)"><tspan x="289.618" y="349.107">l1E1</tspan></text><path d="m34.452 766.848-1.313 2.274M42.207 766.92l-1.313 2.274" style="fill:none;stroke:#999;stroke-width:.264583"/><path d="M37.17 768.048v63.124" style="fill:none;stroke:#999;stroke-width:.264584"/><path d="M64.674 769.189H79.48" style="fill:#fff;stroke:green;stroke-width:.264583;marker-start:url(#c);marker-end:url(#c)"/><text xml:space="preserve" style="font-size:14.6667px;line-height:normal;font-family:&quot;Liberation Mono&quot;;-inkscape-font-specification:&quot;Liberation Mono&quot;;text-align:center;text-decoration-color:#000;white-space:pre;shape-inside:url(#d);display:inline;fill:green;stroke-width:1;-inkscape-stroke:none;stop-color:#000" transform="translate(-8.851 675.547)scale(.26458)"><tspan x="289.618" y="349.107">l2E1</tspan></text><path d="m69.36 767.989-1.314 2.275M77.114 768.06l-1.313 2.275M72.077 769.189v51.953" style="fill:none;stroke:#999;stroke-width:.264583"/><path d="M107.649 769.189h14.807" style="fill:#fff;stroke:green;stroke-width:.264583;marker-start:url(#e);marker-end:url(#e)"/><text xml:space="preserve" style="font-size:14.6667px;line-height:normal;font-family:&quot;Liberation Mono&quot;;-inkscape-font-specification:&quot;Liberation Mono&quot;;text-align:center;text-decoration-color:#000;white-space:pre;shape-inside:url(#f);display:inline;fill:green;stroke-width:1;-inkscape-stroke:none;stop-color:#000" transform="translate(34.124 675.547)scale(.26458)"><tspan x="289.618" y="349.107">l3E1</tspan></text><path d="m112.334 767.989-1.313 2.275M120.089 768.06l-1.313 2.275M115.052 769.189v58.039" style="fill:none;stroke:#999;stroke-width:.264583"/><text xml:space="preserve" style="font-size:14.6667px;line-height:normal;font-family:&quot;Liberation Mono&quot;;-inkscape-font-specification:&quot;Liberation Mono&quot;;text-align:center;text-decoration-color:#000;white-space:pre;shape-inside:url(#g);fill:teal;stroke-width:1;-inkscape-stroke:none;stop-color:#000" transform="translate(-29.103 37.458)scale(.26458)"><tspan x="234.261" y="2723.091">l1ni</tspan></text><ellipse cx="37.691" cy="756.536" rx="5.907" ry="3.42" style="fill:none;stroke:teal;stroke-width:.264583"/><text xml:space="preserve" style="font-size:14.6667px;line-height:normal;font-family:&quot;Liberation Mono&quot;;-inkscape-font-specification:&quot;Liberation Mono&quot;;text-align:center;text-decoration-color:#000;white-space:pre;shape-inside:url(#h);display:inline;fill:teal;stroke-width:1;-inkscape-stroke:none;stop-color:#000" transform="translate(4.587 35.311)scale(.26458)"><tspan x="234.261" y="2723.091">l2ni</tspan></text><ellipse cx="71.381" cy="754.39" rx="5.907" ry="3.42" style="fill:none;stroke:teal;stroke-width:.264583"/><text xml:space="preserve" style="font-size:14.6667px;line-height:normal;font-family:&quot;Liberation Mono&quot;;-inkscape-font-specification:&quot;Liberation Mono&quot;;text-align:center;text-decoration-color:#000;white-space:pre;shape-inside:url(#i);display:inline;fill:teal;stroke-width:1;-inkscape-stroke:none;stop-color:#000" transform="translate(42.143 15.19)scale(.26458)"><tspan x="234.261" y="2723.091">l3ni</tspan></text><ellipse cx="108.937" cy="734.269" rx="5.907" ry="3.42" style="fill:none;stroke:teal;stroke-width:.264583"/><text xml:space="preserve" style="font-size:14.6667px;line-height:normal;font-family:&quot;Liberation Mono&quot;;-inkscape-font-specification:&quot;Liberation Mono&quot;;text-align:center;text-decoration-color:#000;white-space:pre;shape-inside:url(#j);fill:#666;stroke-width:1;-inkscape-stroke:none;stop-color:#000" transform="translate(-1.127 7.737)scale(.26458)"><tspan x="132.158" y="3126.823">x=0</tspan></text><text xml:space="preserve" style="font-size:14.6667px;line-height:normal;font-family:&quot;Liberation Mono&quot;;-inkscape-font-specification:&quot;Liberation Mono&quot;;text-align:center;text-decoration-color:#000;white-space:pre;shape-inside:url(#k);fill:#000;stroke-width:1;-inkscape-stroke:none;stop-color:#000" transform="translate(5.763 9.556)scale(.26458)"><tspan x="209.299" y="2733.613">l2Active</tspan></text><text xml:space="preserve" style="font-size:14.6667px;line-height:normal;font-family:&quot;Liberation Mono&quot;;-inkscape-font-specification:&quot;Liberation Mono&quot;;text-align:center;text-decoration-color:#000;white-space:pre;shape-inside:url(#l);fill:#000;stroke-width:1;-inkscape-stroke:none;stop-color:#000" transform="translate(-.175 5.058)scale(.26458)"><tspan x="377.826" y="2715.988">l3Active</tspan></text><path d="M72.077 821.142h-34.32" style="fill:none;stroke:#000;stroke-width:.264583;marker-start:url(#m);marker-end:url(#m)"/><text xml:space="preserve" style="font-size:14.6667px;line-height:normal;font-family:&quot;Liberation Mono&quot;;-inkscape-font-specification:&quot;Liberation Mono&quot;;text-align:center;text-decoration-color:#000;white-space:pre;shape-inside:url(#n);fill:#000;stroke-width:1;-inkscape-stroke:none;stop-color:#000" transform="translate(-15.546 -25.833)scale(.26458)"><tspan x="246.091" y="3197.732">l2Px</tspan></text><path d="M114.736 827.228h-77.11" style="fill:none;stroke:#000;stroke-width:.264582;marker-start:url(#o);marker-end:url(#o)"/><text xml:space="preserve" style="font-size:14.6667px;line-height:normal;font-family:&quot;Liberation Mono&quot;;-inkscape-font-specification:&quot;Liberation Mono&quot;;text-align:center;text-decoration-color:#000;white-space:pre;shape-inside:url(#p);display:inline;fill:#000;stroke-width:1;-inkscape-stroke:none;stop-color:#000" transform="translate(3.572 -15.14)scale(.26458)"><tspan x="246.091" y="3197.732">l3Px</tspan></text></g></svg>