<svg xmlns="http://www.w3.org/2000/svg" width="483.384" height="329.099" viewBox="0 0 127.895 87.074"><defs><path id="c" d="M289.177 336.056h36.086v32.925h-36.086z"/><path id="e" d="M295.219 259.715h43.996v41.381h-43.996z"/><path id="h" d="M112.228 1360.005h77.201v26.538h-77.201z"/><path id="i" d="M108.113 1399.388h90.97v40.879h-90.97z"/><path id="k" d="M210.669 1386.734h67.115v28.977h-67.115z"/><path id="l" d="M267.704 1389.442h85.326v21.852h-85.326z"/><path id="n" d="M389.439 255.92h48.281v49.962h-48.281z"/><path id="o" d="M78.021 1409.071h117.931v31.803H78.021z"/><path id="p" d="M102.119 1448.952h250.875v55.628H102.119z"/><path id="a" d="M78.021 1409.071h117.931v31.803H78.021z"/><marker id="b" markerHeight="1" markerWidth="1" orient="auto-start-reverse" preserveAspectRatio="xMidYMid" refX="0" refY="0" style="overflow:visible" viewBox="0 0 1 1"><path d="M3-3 0 0l3 3" style="fill:none;stroke:context-stroke;stroke-width:1;stroke-linecap:butt" transform="rotate(180 .125 0)"/></marker><marker id="d" markerHeight="1" markerWidth="1" orient="auto-start-reverse" preserveAspectRatio="xMidYMid" refX="0" refY="0" style="overflow:visible" viewBox="0 0 1 1"><path d="M3-3 0 0l3 3" style="fill:none;stroke:context-stroke;stroke-width:1;stroke-linecap:butt" transform="rotate(180 .125 0)"/></marker><marker id="f" markerHeight="1" markerWidth="1" orient="auto-start-reverse" preserveAspectRatio="xMidYMid" refX="0" refY="0" style="overflow:visible" viewBox="0 0 1 1"><path d="M3-3 0 0l3 3" style="fill:none;stroke:context-stroke;stroke-width:1;stroke-linecap:butt" transform="rotate(180 .125 0)"/></marker><marker id="g" markerHeight="1" markerWidth="1" orient="auto-start-reverse" preserveAspectRatio="xMidYMid" refX="0" refY="0" style="overflow:visible" viewBox="0 0 1 1"><path d="M3-3 0 0l3 3" style="fill:none;stroke:context-stroke;stroke-width:1;stroke-linecap:butt" transform="rotate(180 .125 0)"/></marker><marker id="j" markerHeight="1" markerWidth="1" orient="auto-start-reverse" preserveAspectRatio="xMidYMid" refX="0" refY="0" style="overflow:visible" viewBox="0 0 1 1"><path d="M3-3 0 0l3 3" style="fill:none;stroke:context-stroke;stroke-width:1;stroke-linecap:butt" transform="rotate(180 .125 0)"/></marker><marker id="m" markerHeight="1" markerWidth="1" orient="auto-start-reverse" preserveAspectRatio="xMidYMid" refX="0" refY="0" style="overflow:visible" viewBox="0 0 1 1"><path d="M3-3 0 0l3 3" style="fill:none;stroke:context-stroke;stroke-width:1;stroke-linecap:butt" transform="rotate(180 .125 0)"/></marker></defs><path d="M10.187 390.838h127.631v86.809H10.187z" style="fill:#fff;stroke:#fff;stroke-width:.264583" transform="translate(-10.055 -390.706)"/><text xml:space="preserve" style="font-size:14.6667px;line-height:normal;font-family:&quot;Liberation Mono&quot;;-inkscape-font-specification:&quot;Liberation Mono&quot;;text-align:center;text-decoration-color:#000;white-space:pre;shape-inside:url(#a);display:inline;fill:#000;stroke-width:1;-inkscape-stroke:none;stop-color:#000" transform="translate(.11 -322.652)scale(.26458)"><tspan x="97.381" y="1422.12">ray2Angle</tspan></text><path d="M80.517 425.155h49.856" style="fill:none;stroke:#e6e6e6;stroke-width:.264582" transform="translate(-10.055 -390.706)"/><path d="M88.002 402.396c-7.406 12.653-11.425 26.646 0 46.745" style="fill:none;stroke:#000;stroke-width:.264583" transform="translate(-10.055 -390.706)"/><path d="M70.14 407.247v-10.655h17.862v5.804M70.14 444.289v10.655h17.862v-5.803M70.14 407.247c-6.33 11.345-6.63 24.261 0 37.042" style="fill:#fff;stroke:#000;stroke-width:.264583" transform="translate(-10.055 -390.706)"/><path d="M65.71 425.155h14.807" style="fill:#fff;stroke:green;stroke-width:.264583;marker-start:url(#b);marker-end:url(#b)" transform="translate(-10.055 -390.706)"/><text xml:space="preserve" style="font-size:14.6667px;line-height:normal;font-family:&quot;Liberation Mono&quot;;-inkscape-font-specification:&quot;Liberation Mono&quot;;text-align:center;text-decoration-color:#000;white-space:pre;shape-inside:url(#c);display:inline;fill:green;stroke-width:1;-inkscape-stroke:none;stop-color:#000" transform="translate(-17.87 -58.663)scale(.26458)"><tspan x="298.419" y="349.107">E1</tspan></text><path d="M62.102 407.05h8.156M62.102 444.482h8.156" style="fill:#fff;stroke:#ccc;stroke-width:.264583" transform="translate(-10.055 -390.706)"/><path d="M62.102 407.17v36.98" style="fill:green;stroke:purple;stroke-width:.264583;marker-start:url(#d);marker-end:url(#d)" transform="translate(-10.055 -390.706)"/><text xml:space="preserve" style="font-size:14.6667px;line-height:normal;font-family:&quot;Liberation Mono&quot;;-inkscape-font-specification:&quot;Liberation Mono&quot;;text-align:center;text-decoration-color:#000;white-space:pre;shape-inside:url(#e);display:inline;fill:purple;stroke-width:1;-inkscape-stroke:none;stop-color:#000" transform="translate(-34.662 -40.675)scale(.26458)"><tspan x="308.415" y="272.765">Dl</tspan></text><path d="M73.113 425.155v44.36M70.395 423.956l-1.313 2.274M78.15 424.027l-1.313 2.274" style="fill:none;stroke:#999;stroke-width:.264583" transform="translate(-10.055 -390.706)"/><path d="M34.223 425.225h30.926M34.355 466.362v-41.27" style="fill:none;stroke:#e6e6e6;stroke-width:.264583" transform="translate(-10.055 -390.706)"/><path d="m34.745 466.362 37.978.063" style="fill:none;stroke:#f60;stroke-width:.264583;marker-start:url(#f);marker-end:url(#f)" transform="translate(-10.055 -390.706)"/><path d="M34.355 425.093v13.382" style="fill:none;stroke:green;stroke-width:.264583" transform="translate(-10.055 -390.706)"/><path d="m32.573 438.227.062-13.006" style="fill:none;stroke:#f60;stroke-width:.264583;marker-start:url(#g);marker-end:url(#g)" transform="translate(-10.055 -390.706)"/><path d="M34.487 438.343H58.1" style="fill:none;stroke:#e6e6e6;stroke-width:.264583" transform="translate(-10.055 -390.706)"/><text xml:space="preserve" style="font-size:14.6667px;line-height:normal;font-family:&quot;Liberation Mono&quot;;-inkscape-font-specification:&quot;Liberation Mono&quot;;text-align:center;text-decoration-color:#000;white-space:pre;shape-inside:url(#h);display:inline;fill:#000;stroke-width:1;-inkscape-stroke:none;stop-color:#000" transform="translate(3.163 -283.087)scale(.26458)"><tspan x="115.622" y="1373.056">objectPx</tspan></text><text xml:space="preserve" style="font-size:14.6667px;line-height:normal;font-family:&quot;Liberation Mono&quot;;-inkscape-font-specification:&quot;Liberation Mono&quot;;text-align:center;text-decoration-color:#000;white-space:pre;shape-inside:url(#i);display:inline;fill:#000;stroke-width:1;-inkscape-stroke:none;stop-color:#000" transform="translate(-27.987 -331.439)scale(.26458)"><tspan x="118.392" y="1412.439">objectPy</tspan></text><path d="m73.37 466.362 56.956.063" style="fill:none;stroke:#f60;stroke-width:.264584;marker-start:url(#j);marker-end:url(#j)" transform="translate(-10.055 -390.706)"/><path d="M130.493 466.393v-16.59" style="fill:none;stroke:#e6e6e6;stroke-width:.264583" transform="translate(-10.055 -390.706)"/><text xml:space="preserve" style="font-size:14.6667px;line-height:normal;font-family:&quot;Liberation Mono&quot;;-inkscape-font-specification:&quot;Liberation Mono&quot;;text-align:center;text-decoration-color:#000;white-space:pre;shape-inside:url(#k);display:inline;fill:#666;stroke-width:1;-inkscape-stroke:none;stop-color:#000" transform="translate(-1.609 -288.843)scale(.26458)"><tspan x="231.025" y="1399.784">x=0</tspan></text><text xml:space="preserve" style="font-size:14.6667px;line-height:normal;font-family:&quot;Liberation Mono&quot;;-inkscape-font-specification:&quot;Liberation Mono&quot;;text-align:center;text-decoration-color:#000;white-space:pre;shape-inside:url(#l);display:inline;fill:#000;stroke-width:1;-inkscape-stroke:none;stop-color:#000" transform="translate(13.54 -291.151)scale(.26458)"><tspan x="279.563" y="1402.492">imagePx</tspan></text><path d="M88.002 396.592h42.47M88.002 454.944h42.595" style="fill:#fff;stroke:#ccc;stroke-width:.264583" transform="translate(-10.055 -390.706)"/><path d="M92.727 396.592v58.352" style="fill:purple;stroke:purple;stroke-width:.264583;marker-start:url(#m);marker-end:url(#m)" transform="translate(-10.055 -390.706)"/><text xml:space="preserve" style="font-size:14.6667px;line-height:normal;font-family:&quot;Liberation Mono&quot;;-inkscape-font-specification:&quot;Liberation Mono&quot;;text-align:center;text-decoration-color:#000;white-space:pre;shape-inside:url(#n);display:inline;fill:purple;stroke-width:1;-inkscape-stroke:none;stop-color:#000" transform="translate(-23.845 -37.768)scale(.26458)"><tspan x="404.779" y="268.97">D1</tspan></text><path d="M130.603 396.46v58.617" style="fill:none;stroke:green;stroke-width:.264583" transform="translate(-10.055 -390.706)"/><path d="m34.355 438.475 31.273-17.687 16.348-4.112 52.602-6.77" style="fill:none;stroke:#fc0;stroke-width:.264583" transform="translate(-10.055 -390.706)"/><path d="M42.992 433.62s1.236 1.574 1.449 2.52c.16.707-.171 2.17-.171 2.17" style="fill:none;stroke:#000;stroke-width:.264583" transform="translate(-10.055 -390.706)"/><text xml:space="preserve" style="font-size:14.6667px;line-height:normal;font-family:&quot;Liberation Mono&quot;;-inkscape-font-specification:&quot;Liberation Mono&quot;;text-align:center;text-decoration-color:#000;white-space:pre;shape-inside:url(#o);display:inline;fill:#000;stroke-width:1;-inkscape-stroke:none;stop-color:#000" transform="translate(.364 -334.21)scale(.26458)"><tspan x="97.381" y="1422.12">ray1Angle</tspan></text><text xml:space="preserve" style="font-size:14.6667px;line-height:normal;font-family:&quot;Liberation Mono&quot;;-inkscape-font-specification:&quot;Liberation Mono&quot;;text-align:center;text-decoration-color:#000;white-space:pre;shape-inside:url(#p);display:inline;fill:#000;stroke-width:1;-inkscape-stroke:none;stop-color:#000" transform="translate(-35.878 -377.743)scale(.26458)"><tspan x="161.546" y="1462.001">simType=twoRays</tspan></text><path d="m34.355 438.475 34.882 3.865 15.428.063 48.977-10.827" style="fill:none;stroke:#fc0;stroke-width:.264583" transform="translate(-10.055 -390.706)"/><path d="M53.527 438.296s.25.853.251 1.29c0 .366-.207 1.075-.207 1.075" style="fill:none;stroke:#000;stroke-width:.264583" transform="translate(-10.055 -390.706)"/></svg>