<svg xmlns="http://www.w3.org/2000/svg" width="440.914" height="323.331" viewBox="0 0 116.659 85.548"><defs><path id="n" d="M80.283 2007.575h97.971v26.566H80.283z"/><path id="b" d="M289.177 336.056h36.086v32.925h-36.086z"/><path id="d" d="M295.219 259.715h43.996v41.381h-43.996z"/><path id="f" d="M112.228 1360.005h77.201v26.538h-77.201z"/><path id="h" d="M210.669 1386.734h67.115v28.977h-67.115z"/><path id="i" d="M267.704 1389.442h85.326v21.852h-85.326z"/><path id="k" d="M389.439 255.92h48.281v49.962h-48.281z"/><path id="l" d="M78.021 1409.071h117.931v31.803H78.021z"/><path id="m" d="M102.119 1448.952h250.875v55.628H102.119z"/><marker id="o" markerHeight="1" markerWidth="1" orient="auto-start-reverse" preserveAspectRatio="xMidYMid" refX="0" refY="0" style="overflow:visible" viewBox="0 0 1 1"><path d="M3-3 0 0l3 3" style="fill:none;stroke:context-stroke;stroke-width:1;stroke-linecap:butt" transform="rotate(180 .125 0)"/></marker><marker id="a" markerHeight="1" markerWidth="1" orient="auto-start-reverse" preserveAspectRatio="xMidYMid" refX="0" refY="0" style="overflow:visible" viewBox="0 0 1 1"><path d="M3-3 0 0l3 3" style="fill:none;stroke:context-stroke;stroke-width:1;stroke-linecap:butt" transform="rotate(180 .125 0)"/></marker><marker id="c" markerHeight="1" markerWidth="1" orient="auto-start-reverse" preserveAspectRatio="xMidYMid" refX="0" refY="0" style="overflow:visible" viewBox="0 0 1 1"><path d="M3-3 0 0l3 3" style="fill:none;stroke:context-stroke;stroke-width:1;stroke-linecap:butt" transform="rotate(180 .125 0)"/></marker><marker id="e" markerHeight="1" markerWidth="1" orient="auto-start-reverse" preserveAspectRatio="xMidYMid" refX="0" refY="0" style="overflow:visible" viewBox="0 0 1 1"><path d="M3-3 0 0l3 3" style="fill:none;stroke:context-stroke;stroke-width:1;stroke-linecap:butt" transform="rotate(180 .125 0)"/></marker><marker id="g" markerHeight="1" markerWidth="1" orient="auto-start-reverse" preserveAspectRatio="xMidYMid" refX="0" refY="0" style="overflow:visible" viewBox="0 0 1 1"><path d="M3-3 0 0l3 3" style="fill:none;stroke:context-stroke;stroke-width:1;stroke-linecap:butt" transform="rotate(180 .125 0)"/></marker><marker id="j" markerHeight="1" markerWidth="1" orient="auto-start-reverse" preserveAspectRatio="xMidYMid" refX="0" refY="0" style="overflow:visible" viewBox="0 0 1 1"><path d="M3-3 0 0l3 3" style="fill:none;stroke:context-stroke;stroke-width:1;stroke-linecap:butt" transform="rotate(180 .125 0)"/></marker></defs><path d="M27.138 510.517h116.394V595.8H27.138z" style="fill:#fff;stroke:#fff;stroke-width:.264583" transform="translate(-27.006 -510.384)"/><path d="M86.231 544.834h49.856" style="fill:none;stroke:#e6e6e6;stroke-width:.264582" transform="translate(-27.006 -510.384)"/><path d="M93.716 522.074c-7.406 12.654-11.425 26.647 0 46.746" style="fill:none;stroke:#000;stroke-width:.264583" transform="translate(-27.006 -510.384)"/><path d="M75.854 526.926v-10.655h17.862v5.803M75.854 563.968v10.655h17.862v-5.803M75.854 526.926c-6.33 11.345-6.63 24.261 0 37.042" style="fill:#fff;stroke:#000;stroke-width:.264583" transform="translate(-27.006 -510.384)"/><path d="M71.424 544.834H86.23" style="fill:#fff;stroke:green;stroke-width:.264583;marker-start:url(#a);marker-end:url(#a)" transform="translate(-27.006 -510.384)"/><text xml:space="preserve" style="font-size:14.6667px;line-height:normal;font-family:&quot;Liberation Mono&quot;;-inkscape-font-specification:&quot;Liberation Mono&quot;;text-align:center;text-decoration-color:#000;white-space:pre;shape-inside:url(#b);display:inline;fill:green;stroke-width:1;-inkscape-stroke:none;stop-color:#000" transform="translate(-29.107 -58.663)scale(.26458)"><tspan x="298.419" y="349.107">E1</tspan></text><path d="M67.816 526.73h8.156M67.816 564.161h8.156" style="fill:#fff;stroke:#ccc;stroke-width:.264583" transform="translate(-27.006 -510.384)"/><path d="M67.816 526.85v36.979" style="fill:green;stroke:purple;stroke-width:.264583;marker-start:url(#c);marker-end:url(#c)" transform="translate(-27.006 -510.384)"/><text xml:space="preserve" style="font-size:14.6667px;line-height:normal;font-family:&quot;Liberation Mono&quot;;-inkscape-font-specification:&quot;Liberation Mono&quot;;text-align:center;text-decoration-color:#000;white-space:pre;shape-inside:url(#d);display:inline;fill:purple;stroke-width:1;-inkscape-stroke:none;stop-color:#000" transform="translate(-45.899 -40.675)scale(.26458)"><tspan x="308.415" y="272.765">Dl</tspan></text><path d="M78.827 544.834v44.359M76.11 543.635l-1.314 2.274M83.864 543.706l-1.313 2.274" style="fill:none;stroke:#999;stroke-width:.264583" transform="translate(-27.006 -510.384)"/><path d="M39.937 544.904h30.926M40.069 586.041v-41.27" style="fill:none;stroke:#e6e6e6;stroke-width:.264583" transform="translate(-27.006 -510.384)"/><path d="m40.459 586.041 37.978.063" style="fill:none;stroke:#f60;stroke-width:.264583;marker-start:url(#e);marker-end:url(#e)" transform="translate(-27.006 -510.384)"/><path d="M40.069 547.418v36.512" style="fill:none;stroke:green;stroke-width:.264583" transform="translate(-27.006 -510.384)"/><path d="M40.201 558.022h13.983" style="fill:none;stroke:#e6e6e6;stroke-width:.264583" transform="translate(-27.006 -510.384)"/><text xml:space="preserve" style="font-size:14.6667px;line-height:normal;font-family:&quot;Liberation Mono&quot;;-inkscape-font-specification:&quot;Liberation Mono&quot;;text-align:center;text-decoration-color:#000;white-space:pre;shape-inside:url(#f);display:inline;fill:#000;stroke-width:1;-inkscape-stroke:none;stop-color:#000" transform="translate(-8.074 -283.087)scale(.26458)"><tspan x="115.622" y="1373.056">objectPx</tspan></text><path d="m79.084 586.041 56.956.063" style="fill:none;stroke:#f60;stroke-width:.264584;marker-start:url(#g);marker-end:url(#g)" transform="translate(-27.006 -510.384)"/><path d="M136.208 586.072v-16.59" style="fill:none;stroke:#e6e6e6;stroke-width:.264583" transform="translate(-27.006 -510.384)"/><text xml:space="preserve" style="font-size:14.6667px;line-height:normal;font-family:&quot;Liberation Mono&quot;;-inkscape-font-specification:&quot;Liberation Mono&quot;;text-align:center;text-decoration-color:#000;white-space:pre;shape-inside:url(#h);display:inline;fill:#666;stroke-width:1;-inkscape-stroke:none;stop-color:#000" transform="translate(-12.845 -288.843)scale(.26458)"><tspan x="231.025" y="1399.784">x=0</tspan></text><text xml:space="preserve" style="font-size:14.6667px;line-height:normal;font-family:&quot;Liberation Mono&quot;;-inkscape-font-specification:&quot;Liberation Mono&quot;;text-align:center;text-decoration-color:#000;white-space:pre;shape-inside:url(#i);display:inline;fill:#000;stroke-width:1;-inkscape-stroke:none;stop-color:#000" transform="translate(2.302 -291.151)scale(.26458)"><tspan x="279.563" y="1402.492">imagePx</tspan></text><path d="M93.716 516.27h42.47M93.716 574.623h42.595" style="fill:#fff;stroke:#ccc;stroke-width:.264583" transform="translate(-27.006 -510.384)"/><path d="M98.441 516.27v58.353" style="fill:purple;stroke:purple;stroke-width:.264583;marker-start:url(#j);marker-end:url(#j)" transform="translate(-27.006 -510.384)"/><text xml:space="preserve" style="font-size:14.6667px;line-height:normal;font-family:&quot;Liberation Mono&quot;;-inkscape-font-specification:&quot;Liberation Mono&quot;;text-align:center;text-decoration-color:#000;white-space:pre;shape-inside:url(#k);display:inline;fill:purple;stroke-width:1;-inkscape-stroke:none;stop-color:#000" transform="translate(-35.082 -37.768)scale(.26458)"><tspan x="404.779" y="268.97">D1</tspan></text><path d="M136.317 516.139v58.617" style="fill:none;stroke:green;stroke-width:.264583" transform="translate(-27.006 -510.384)"/><path d="m40.069 558.154 31.273-17.687 16.348-4.112 52.602-6.77" style="fill:none;stroke:#fc0;stroke-width:.264583" transform="translate(-27.006 -510.384)"/><path d="M48.706 553.299s1.236 1.574 1.449 2.52c.16.707-.171 2.17-.171 2.17" style="fill:none;stroke:#000;stroke-width:.264583" transform="translate(-27.006 -510.384)"/><text xml:space="preserve" style="font-size:14.6667px;line-height:normal;font-family:&quot;Liberation Mono&quot;;-inkscape-font-specification:&quot;Liberation Mono&quot;;text-align:center;text-decoration-color:#000;white-space:pre;shape-inside:url(#l);display:inline;fill:#000;stroke-width:1;-inkscape-stroke:none;stop-color:#000" transform="translate(-11.316 -325.447)scale(.26458)"><tspan x="97.381" y="1422.12">ray1Angle</tspan></text><text xml:space="preserve" style="font-size:14.6667px;line-height:normal;font-family:&quot;Liberation Mono&quot;;-inkscape-font-specification:&quot;Liberation Mono&quot;;text-align:center;text-decoration-color:#000;white-space:pre;shape-inside:url(#m);display:inline;fill:#000;stroke-width:1;-inkscape-stroke:none;stop-color:#000" transform="translate(-39.707 -377.743)scale(.26458)"><tspan x="157.145" y="1462.001">simType=parallel</tspan></text><path d="m40.069 583.93 35.725-20.15 13.634-3.658 51.515-24.734M40.068 547.417l35.587-20.073 15.989-1.653 48.464.64" style="fill:none;stroke:#fc0;stroke-width:.264583" transform="translate(-27.006 -510.384)"/><text xml:space="preserve" style="font-size:14.6667px;line-height:normal;font-family:&quot;Liberation Mono&quot;;-inkscape-font-specification:&quot;Liberation Mono&quot;;text-align:center;text-decoration-color:#000;white-space:pre;shape-inside:url(#n);fill:#000;stroke-width:1;-inkscape-stroke:none;stop-color:#000" transform="translate(-18.621 -508.786)scale(.26458)"><tspan x="107.265" y="2020.624">rayNb</tspan></text><path d="m47.786 536.477 6.098 13.252" style="fill:none;stroke:#000;stroke-width:.264583;marker-end:url(#o)" transform="translate(-27.006 -510.384)"/><path d="m48.436 536.025 4.7 3.426" style="fill:none;stroke:#000;stroke-width:.264583;marker-end:url(#o)" transform="translate(-27.006 -510.384)"/></svg>