<svg xmlns="http://www.w3.org/2000/svg" width="483.384" height="317.367" viewBox="0 0 127.895 83.97"><defs><path id="c" d="M78.021 1409.071h117.931v31.803H78.021z"/><path id="e" d="M289.177 336.056h36.086v32.925h-36.086z"/><path id="g" d="M295.219 259.715h43.996v41.381h-43.996z"/><path id="j" d="M112.228 1360.005h77.201v26.538h-77.201z"/><path id="k" d="M108.113 1399.388h90.97v40.879h-90.97z"/><path id="m" d="M210.669 1386.734h67.115v28.977h-67.115z"/><path id="n" d="M267.704 1389.442h85.326v21.852h-85.326z"/><path id="p" d="M389.439 255.92h48.281v49.962h-48.281z"/><path id="q" d="M102.119 1448.952h250.875v55.628H102.119z"/><path id="a" d="M80.283 2007.575h97.971v26.566H80.283z"/><marker id="d" markerHeight="1" markerWidth="1" orient="auto-start-reverse" preserveAspectRatio="xMidYMid" refX="0" refY="0" style="overflow:visible" viewBox="0 0 1 1"><path d="M3-3 0 0l3 3" style="fill:none;stroke:context-stroke;stroke-width:1;stroke-linecap:butt" transform="rotate(180 .125 0)"/></marker><marker id="f" markerHeight="1" markerWidth="1" orient="auto-start-reverse" preserveAspectRatio="xMidYMid" refX="0" refY="0" style="overflow:visible" viewBox="0 0 1 1"><path d="M3-3 0 0l3 3" style="fill:none;stroke:context-stroke;stroke-width:1;stroke-linecap:butt" transform="rotate(180 .125 0)"/></marker><marker id="h" markerHeight="1" markerWidth="1" orient="auto-start-reverse" preserveAspectRatio="xMidYMid" refX="0" refY="0" style="overflow:visible" viewBox="0 0 1 1"><path d="M3-3 0 0l3 3" style="fill:none;stroke:context-stroke;stroke-width:1;stroke-linecap:butt" transform="rotate(180 .125 0)"/></marker><marker id="i" markerHeight="1" markerWidth="1" orient="auto-start-reverse" preserveAspectRatio="xMidYMid" refX="0" refY="0" style="overflow:visible" viewBox="0 0 1 1"><path d="M3-3 0 0l3 3" style="fill:none;stroke:context-stroke;stroke-width:1;stroke-linecap:butt" transform="rotate(180 .125 0)"/></marker><marker id="l" markerHeight="1" markerWidth="1" orient="auto-start-reverse" preserveAspectRatio="xMidYMid" refX="0" refY="0" style="overflow:visible" viewBox="0 0 1 1"><path d="M3-3 0 0l3 3" style="fill:none;stroke:context-stroke;stroke-width:1;stroke-linecap:butt" transform="rotate(180 .125 0)"/></marker><marker id="o" markerHeight="1" markerWidth="1" orient="auto-start-reverse" preserveAspectRatio="xMidYMid" refX="0" refY="0" style="overflow:visible" viewBox="0 0 1 1"><path d="M3-3 0 0l3 3" style="fill:none;stroke:context-stroke;stroke-width:1;stroke-linecap:butt" transform="rotate(180 .125 0)"/></marker><marker id="b" markerHeight="1" markerWidth="1" orient="auto-start-reverse" preserveAspectRatio="xMidYMid" refX="0" refY="0" style="overflow:visible" viewBox="0 0 1 1"><path d="M3-3 0 0l3 3" style="fill:none;stroke:context-stroke;stroke-width:1;stroke-linecap:butt" transform="rotate(180 .125 0)"/></marker></defs><path d="M21.291 616.691h127.631v83.705H21.291z" style="fill:#fff;stroke:#fff;stroke-width:.264583" transform="translate(-21.159 -616.558)"/><text xml:space="preserve" style="font-size:14.6667px;line-height:normal;font-family:&quot;Liberation Mono&quot;;-inkscape-font-specification:&quot;Liberation Mono&quot;;text-align:center;text-decoration-color:#000;white-space:pre;shape-inside:url(#a);display:inline;fill:#000;stroke-width:1;-inkscape-stroke:none;stop-color:#000" transform="translate(-5.973 -509.698)scale(.26458)"><tspan x="107.265" y="2020.624">rayNb</tspan></text><path d="m54.588 641.74 6.098 13.252" style="fill:none;stroke:#000;stroke-width:.264583;marker-end:url(#b)" transform="translate(-21.159 -616.558)"/><path d="m55.237 641.288 7.651 6.217" style="fill:none;stroke:#000;stroke-width:.264583;marker-end:url(#b)" transform="translate(-21.159 -616.558)"/><text xml:space="preserve" style="font-size:14.6667px;line-height:normal;font-family:&quot;Liberation Mono&quot;;-inkscape-font-specification:&quot;Liberation Mono&quot;;text-align:center;text-decoration-color:#000;white-space:pre;shape-inside:url(#c);display:inline;fill:#000;stroke-width:1;-inkscape-stroke:none;stop-color:#000" transform="translate(.11 -322.652)scale(.26458)"><tspan x="97.381" y="1422.12">ray2Angle</tspan></text><path d="M91.621 651.008h49.856" style="fill:none;stroke:#e6e6e6;stroke-width:.264582" transform="translate(-21.159 -616.558)"/><path d="M99.106 628.248c-7.406 12.654-11.425 26.647 0 46.746" style="fill:none;stroke:#000;stroke-width:.264583" transform="translate(-21.159 -616.558)"/><path d="M81.244 633.1v-10.655h17.862v5.803M81.244 670.142v10.655h17.862v-5.803M81.244 633.1c-6.33 11.345-6.629 24.261 0 37.042" style="fill:#fff;stroke:#000;stroke-width:.264583" transform="translate(-21.159 -616.558)"/><path d="M76.814 651.008H91.62" style="fill:#fff;stroke:green;stroke-width:.264583;marker-start:url(#d);marker-end:url(#d)" transform="translate(-21.159 -616.558)"/><text xml:space="preserve" style="font-size:14.6667px;line-height:normal;font-family:&quot;Liberation Mono&quot;;-inkscape-font-specification:&quot;Liberation Mono&quot;;text-align:center;text-decoration-color:#000;white-space:pre;shape-inside:url(#e);display:inline;fill:green;stroke-width:1;-inkscape-stroke:none;stop-color:#000" transform="translate(-17.87 -58.663)scale(.26458)"><tspan x="298.419" y="349.107">E1</tspan></text><path d="M73.206 632.903h8.156M73.206 670.335h8.156" style="fill:#fff;stroke:#ccc;stroke-width:.264583" transform="translate(-21.159 -616.558)"/><path d="M73.206 633.023v36.98" style="fill:green;stroke:purple;stroke-width:.264583;marker-start:url(#f);marker-end:url(#f)" transform="translate(-21.159 -616.558)"/><text xml:space="preserve" style="font-size:14.6667px;line-height:normal;font-family:&quot;Liberation Mono&quot;;-inkscape-font-specification:&quot;Liberation Mono&quot;;text-align:center;text-decoration-color:#000;white-space:pre;shape-inside:url(#g);display:inline;fill:purple;stroke-width:1;-inkscape-stroke:none;stop-color:#000" transform="translate(-34.662 -40.675)scale(.26458)"><tspan x="308.415" y="272.765">Dl</tspan></text><path d="M84.218 651.008v44.36M81.5 649.809l-1.314 2.274M89.254 649.88l-1.313 2.274" style="fill:none;stroke:#999;stroke-width:.264583" transform="translate(-21.159 -616.558)"/><path d="M45.327 651.078h30.926M45.46 692.215v-41.27" style="fill:none;stroke:#e6e6e6;stroke-width:.264583" transform="translate(-21.159 -616.558)"/><path d="m45.85 692.215 37.978.063" style="fill:none;stroke:#f60;stroke-width:.264583;marker-start:url(#h);marker-end:url(#h)" transform="translate(-21.159 -616.558)"/><path d="M45.46 650.946v13.382" style="fill:none;stroke:green;stroke-width:.264583" transform="translate(-21.159 -616.558)"/><path d="m43.677 664.08.062-13.006" style="fill:none;stroke:#f60;stroke-width:.264583;marker-start:url(#i);marker-end:url(#i)" transform="translate(-21.159 -616.558)"/><path d="M45.591 664.196h23.613" style="fill:none;stroke:#e6e6e6;stroke-width:.264583" transform="translate(-21.159 -616.558)"/><text xml:space="preserve" style="font-size:14.6667px;line-height:normal;font-family:&quot;Liberation Mono&quot;;-inkscape-font-specification:&quot;Liberation Mono&quot;;text-align:center;text-decoration-color:#000;white-space:pre;shape-inside:url(#j);display:inline;fill:#000;stroke-width:1;-inkscape-stroke:none;stop-color:#000" transform="translate(3.163 -283.087)scale(.26458)"><tspan x="115.622" y="1373.056">objectPx</tspan></text><text xml:space="preserve" style="font-size:14.6667px;line-height:normal;font-family:&quot;Liberation Mono&quot;;-inkscape-font-specification:&quot;Liberation Mono&quot;;text-align:center;text-decoration-color:#000;white-space:pre;shape-inside:url(#k);display:inline;fill:#000;stroke-width:1;-inkscape-stroke:none;stop-color:#000" transform="translate(-27.987 -331.439)scale(.26458)"><tspan x="118.392" y="1412.439">objectPy</tspan></text><path d="m84.474 692.215 56.956.063" style="fill:none;stroke:#f60;stroke-width:.264584;marker-start:url(#l);marker-end:url(#l)" transform="translate(-21.159 -616.558)"/><path d="M141.598 692.246v-16.59" style="fill:none;stroke:#e6e6e6;stroke-width:.264583" transform="translate(-21.159 -616.558)"/><text xml:space="preserve" style="font-size:14.6667px;line-height:normal;font-family:&quot;Liberation Mono&quot;;-inkscape-font-specification:&quot;Liberation Mono&quot;;text-align:center;text-decoration-color:#000;white-space:pre;shape-inside:url(#m);display:inline;fill:#666;stroke-width:1;-inkscape-stroke:none;stop-color:#000" transform="translate(-1.609 -288.843)scale(.26458)"><tspan x="231.025" y="1399.784">x=0</tspan></text><text xml:space="preserve" style="font-size:14.6667px;line-height:normal;font-family:&quot;Liberation Mono&quot;;-inkscape-font-specification:&quot;Liberation Mono&quot;;text-align:center;text-decoration-color:#000;white-space:pre;shape-inside:url(#n);display:inline;fill:#000;stroke-width:1;-inkscape-stroke:none;stop-color:#000" transform="translate(13.54 -291.151)scale(.26458)"><tspan x="279.563" y="1402.492">imagePx</tspan></text><path d="M99.106 622.445h42.47M99.106 680.797h42.595" style="fill:#fff;stroke:#ccc;stroke-width:.264583" transform="translate(-21.159 -616.558)"/><path d="M103.831 622.445v58.352" style="fill:purple;stroke:purple;stroke-width:.264583;marker-start:url(#o);marker-end:url(#o)" transform="translate(-21.159 -616.558)"/><text xml:space="preserve" style="font-size:14.6667px;line-height:normal;font-family:&quot;Liberation Mono&quot;;-inkscape-font-specification:&quot;Liberation Mono&quot;;text-align:center;text-decoration-color:#000;white-space:pre;shape-inside:url(#p);display:inline;fill:purple;stroke-width:1;-inkscape-stroke:none;stop-color:#000" transform="translate(-23.845 -37.768)scale(.26458)"><tspan x="404.779" y="268.97">D1</tspan></text><path d="M141.708 622.313v58.617" style="fill:none;stroke:green;stroke-width:.264583" transform="translate(-21.159 -616.558)"/><path d="m45.46 664.328 31.272-17.687 16.349-4.112 52.601-6.77" style="fill:none;stroke:#fc0;stroke-width:.264583" transform="translate(-21.159 -616.558)"/><text xml:space="preserve" style="font-size:14.6667px;line-height:normal;font-family:&quot;Liberation Mono&quot;;-inkscape-font-specification:&quot;Liberation Mono&quot;;text-align:center;text-decoration-color:#000;white-space:pre;shape-inside:url(#q);display:inline;fill:#000;stroke-width:1;-inkscape-stroke:none;stop-color:#000" transform="translate(-35.878 -377.743)scale(.26458)"><tspan x="165.946" y="1462.001">simType=object</tspan></text><path d="m45.46 664.328 35.489 5.248 15.022-.781 48.775-11.366M45.591 664.196l35.269-30.469 16.185-1.941 48.693 1.14" style="fill:none;stroke:#fc0;stroke-width:.264583" transform="translate(-21.159 -616.558)"/></svg>