<svg xmlns="http://www.w3.org/2000/svg" width="483.384" height="329.099" viewBox="0 0 127.895 87.074"><defs><path id="o" d="M102.119 1448.952h250.875v55.628H102.119z"/><path id="n" d="M78.021 1409.071h117.931v31.803H78.021z"/><path id="k" d="M267.704 1389.442h85.326v21.852h-85.326z"/><path id="j" d="M210.669 1386.734h67.115v28.977h-67.115z"/><path id="h" d="M108.113 1399.388h90.97v40.879h-90.97z"/><path id="g" d="M112.228 1360.005h77.201v26.538h-77.201z"/><path id="b" d="M289.177 336.056h36.086v32.925h-36.086z"/><path id="d" d="M295.219 259.715h43.996v41.381h-43.996z"/><path id="m" d="M389.439 255.92h48.281v49.962h-48.281z"/><marker id="e" markerHeight="1" markerWidth="1" orient="auto-start-reverse" preserveAspectRatio="xMidYMid" refX="0" refY="0" style="overflow:visible" viewBox="0 0 1 1"><path d="M3-3 0 0l3 3" style="fill:none;stroke:context-stroke;stroke-width:1;stroke-linecap:butt" transform="rotate(180 .125 0)"/></marker><marker id="a" markerHeight="1" markerWidth="1" orient="auto-start-reverse" preserveAspectRatio="xMidYMid" refX="0" refY="0" style="overflow:visible" viewBox="0 0 1 1"><path d="M3-3 0 0l3 3" style="fill:none;stroke:context-stroke;stroke-width:1;stroke-linecap:butt" transform="rotate(180 .125 0)"/></marker><marker id="c" markerHeight="1" markerWidth="1" orient="auto-start-reverse" preserveAspectRatio="xMidYMid" refX="0" refY="0" style="overflow:visible" viewBox="0 0 1 1"><path d="M3-3 0 0l3 3" style="fill:none;stroke:context-stroke;stroke-width:1;stroke-linecap:butt" transform="rotate(180 .125 0)"/></marker><marker id="f" markerHeight="1" markerWidth="1" orient="auto-start-reverse" preserveAspectRatio="xMidYMid" refX="0" refY="0" style="overflow:visible" viewBox="0 0 1 1"><path d="M3-3 0 0l3 3" style="fill:none;stroke:context-stroke;stroke-width:1;stroke-linecap:butt" transform="rotate(180 .125 0)"/></marker><marker id="i" markerHeight="1" markerWidth="1" orient="auto-start-reverse" preserveAspectRatio="xMidYMid" refX="0" refY="0" style="overflow:visible" viewBox="0 0 1 1"><path d="M3-3 0 0l3 3" style="fill:none;stroke:context-stroke;stroke-width:1;stroke-linecap:butt" transform="rotate(180 .125 0)"/></marker><marker id="l" markerHeight="1" markerWidth="1" orient="auto-start-reverse" preserveAspectRatio="xMidYMid" refX="0" refY="0" style="overflow:visible" viewBox="0 0 1 1"><path d="M3-3 0 0l3 3" style="fill:none;stroke:context-stroke;stroke-width:1;stroke-linecap:butt" transform="rotate(180 .125 0)"/></marker></defs><path d="M3.035 278.496h127.631v86.809H3.035z" style="fill:#fff;stroke:#fff;stroke-width:.264583" transform="translate(-2.903 -278.364)"/><path d="M73.365 312.814h49.856" style="fill:none;stroke:#e6e6e6;stroke-width:.264582" transform="translate(-2.903 -278.364)"/><path d="M80.85 290.054c-7.406 12.654-11.425 26.647 0 46.745" style="fill:none;stroke:#000;stroke-width:.264583" transform="translate(-2.903 -278.364)"/><path d="M62.988 294.906V284.25H80.85v5.804M62.988 331.948v10.655H80.85v-5.804M62.988 294.906c-6.33 11.344-6.63 24.26 0 37.042" style="fill:#fff;stroke:#000;stroke-width:.264583" transform="translate(-2.903 -278.364)"/><path d="M58.558 312.814h14.807" style="fill:#fff;stroke:green;stroke-width:.264583;marker-start:url(#a);marker-end:url(#a)" transform="translate(-2.903 -278.364)"/><text xml:space="preserve" style="font-size:14.6667px;line-height:normal;font-family:&quot;Liberation Mono&quot;;-inkscape-font-specification:&quot;Liberation Mono&quot;;text-align:center;text-decoration-color:#000;white-space:pre;shape-inside:url(#b);display:inline;fill:green;stroke-width:1;-inkscape-stroke:none;stop-color:#000" transform="translate(-17.87 -58.663)scale(.26458)"><tspan x="298.419" y="349.107">E1</tspan></text><path d="M54.95 294.71h8.156M54.95 332.14h8.156" style="fill:#fff;stroke:#ccc;stroke-width:.264583" transform="translate(-2.903 -278.364)"/><path d="M54.95 294.829v36.98" style="fill:green;stroke:purple;stroke-width:.264583;marker-start:url(#c);marker-end:url(#c)" transform="translate(-2.903 -278.364)"/><text xml:space="preserve" style="font-size:14.6667px;line-height:normal;font-family:&quot;Liberation Mono&quot;;-inkscape-font-specification:&quot;Liberation Mono&quot;;text-align:center;text-decoration-color:#000;white-space:pre;shape-inside:url(#d);display:inline;fill:purple;stroke-width:1;-inkscape-stroke:none;stop-color:#000" transform="translate(-34.662 -40.675)scale(.26458)"><tspan x="308.415" y="272.765">Dl</tspan></text><path d="M65.961 312.814v44.359M63.243 311.614l-1.313 2.275M70.998 311.685l-1.313 2.275" style="fill:none;stroke:#999;stroke-width:.264583" transform="translate(-2.903 -278.364)"/><path d="M27.07 312.884h30.927M27.203 354.02v-41.269" style="fill:none;stroke:#e6e6e6;stroke-width:.264583" transform="translate(-2.903 -278.364)"/><path d="m27.593 354.02 37.978.063" style="fill:none;stroke:#f60;stroke-width:.264583;marker-start:url(#e);marker-end:url(#e)" transform="translate(-2.903 -278.364)"/><path d="M27.203 312.751v13.383" style="fill:none;stroke:green;stroke-width:.264583" transform="translate(-2.903 -278.364)"/><path d="m25.42 325.885.063-13.006" style="fill:none;stroke:#f60;stroke-width:.264583;marker-start:url(#f);marker-end:url(#f)" transform="translate(-2.903 -278.364)"/><path d="M27.335 326.002h13.983" style="fill:none;stroke:#e6e6e6;stroke-width:.264583" transform="translate(-2.903 -278.364)"/><text xml:space="preserve" style="font-size:14.6667px;line-height:normal;font-family:&quot;Liberation Mono&quot;;-inkscape-font-specification:&quot;Liberation Mono&quot;;text-align:center;text-decoration-color:#000;white-space:pre;shape-inside:url(#g);fill:#000;stroke-width:1;-inkscape-stroke:none;stop-color:#000" transform="translate(3.163 -283.087)scale(.26458)"><tspan x="115.622" y="1373.056">objectPx</tspan></text><text xml:space="preserve" style="font-size:14.6667px;line-height:normal;font-family:&quot;Liberation Mono&quot;;-inkscape-font-specification:&quot;Liberation Mono&quot;;text-align:center;text-decoration-color:#000;white-space:pre;shape-inside:url(#h);fill:#000;stroke-width:1;-inkscape-stroke:none;stop-color:#000" transform="translate(-27.987 -331.439)scale(.26458)"><tspan x="118.392" y="1412.439">objectPy</tspan></text><path d="m66.218 354.02 56.956.063" style="fill:none;stroke:#f60;stroke-width:.264584;marker-start:url(#i);marker-end:url(#i)" transform="translate(-2.903 -278.364)"/><path d="M123.341 354.052v-16.59" style="fill:none;stroke:#e6e6e6;stroke-width:.264583" transform="translate(-2.903 -278.364)"/><text xml:space="preserve" style="font-size:14.6667px;line-height:normal;font-family:&quot;Liberation Mono&quot;;-inkscape-font-specification:&quot;Liberation Mono&quot;;text-align:center;text-decoration-color:#000;white-space:pre;shape-inside:url(#j);fill:#666;stroke-width:1;-inkscape-stroke:none;stop-color:#000" transform="translate(-1.609 -288.843)scale(.26458)"><tspan x="231.025" y="1399.784">x=0</tspan></text><text xml:space="preserve" style="font-size:14.6667px;line-height:normal;font-family:&quot;Liberation Mono&quot;;-inkscape-font-specification:&quot;Liberation Mono&quot;;text-align:center;text-decoration-color:#000;white-space:pre;shape-inside:url(#k);fill:#000;stroke-width:1;-inkscape-stroke:none;stop-color:#000" transform="translate(13.54 -291.151)scale(.26458)"><tspan x="279.563" y="1402.492">imagePx</tspan></text><path d="M80.85 284.25h42.47M80.85 342.603h42.595" style="fill:#fff;stroke:#ccc;stroke-width:.264583" transform="translate(-2.903 -278.364)"/><path d="M85.575 284.25v58.353" style="fill:purple;stroke:purple;stroke-width:.264583;marker-start:url(#l);marker-end:url(#l)" transform="translate(-2.903 -278.364)"/><text xml:space="preserve" style="font-size:14.6667px;line-height:normal;font-family:&quot;Liberation Mono&quot;;-inkscape-font-specification:&quot;Liberation Mono&quot;;text-align:center;text-decoration-color:#000;white-space:pre;shape-inside:url(#m);display:inline;fill:purple;stroke-width:1;-inkscape-stroke:none;stop-color:#000" transform="translate(-23.845 -37.768)scale(.26458)"><tspan x="404.779" y="268.97">D1</tspan></text><path d="M123.451 284.118v58.617" style="fill:none;stroke:green;stroke-width:.264583" transform="translate(-2.903 -278.364)"/><path d="m27.203 326.134 31.273-17.688 16.348-4.111 52.602-6.77" style="fill:none;stroke:#fc0;stroke-width:.264583" transform="translate(-2.903 -278.364)"/><path d="M35.84 321.278s1.236 1.575 1.449 2.52c.16.708-.171 2.171-.171 2.171" style="fill:none;stroke:#000;stroke-width:.264583" transform="translate(-2.903 -278.364)"/><text xml:space="preserve" style="font-size:14.6667px;line-height:normal;font-family:&quot;Liberation Mono&quot;;-inkscape-font-specification:&quot;Liberation Mono&quot;;text-align:center;text-decoration-color:#000;white-space:pre;shape-inside:url(#n);fill:#000;stroke-width:1;-inkscape-stroke:none;stop-color:#000" transform="translate(-.079 -325.447)scale(.26458)"><tspan x="97.381" y="1422.12">ray1Angle</tspan></text><text xml:space="preserve" style="font-size:14.6667px;line-height:normal;font-family:&quot;Liberation Mono&quot;;-inkscape-font-specification:&quot;Liberation Mono&quot;;text-align:center;text-decoration-color:#000;white-space:pre;shape-inside:url(#o);fill:#000;stroke-width:1;-inkscape-stroke:none;stop-color:#000" transform="translate(-35.878 -377.743)scale(.26458)"><tspan x="165.946" y="1462.001">simType=oneRay</tspan></text></svg>