<svg xmlns="http://www.w3.org/2000/svg" width="426.548" height="366.261" viewBox="0 0 112.857 96.907"><defs><path id="r" d="M364.045 319.406h100.474v68.497H364.045z"/><path id="q" d="M357.844 315.856h63.971v45.199h-63.971z"/><path id="o" d="M359.769 318.136h71.761v60.896h-71.761z"/><path id="m" d="M378.796 346.133h60.027v46.431h-60.027z"/><path id="l" d="M27.111 379.068h217.595v44.297H27.111z"/><path id="k" d="M369.088 406.039h50.858v31.902h-50.858z"/><path id="j" d="M77.685 350.263h38.456v28.805H77.685z"/><path id="g" d="M389.439 255.92h48.281v49.962h-48.281z"/><path id="f" d="M295.219 259.715h43.996v41.381h-43.996z"/><path id="e" d="M177.882 426.658h106.8v26.344h-106.8z"/><path id="c" d="M289.177 336.056h36.086v32.925h-36.086z"/><path id="d" d="M289.177 336.056h36.086v32.925h-36.086z"/><path id="i" d="M295.219 259.715h43.996v41.381h-43.996z"/><path id="s" d="M357.844 315.856h63.971v45.199h-63.971z"/><path id="t" d="M364.045 319.406h100.474v68.497H364.045z"/><marker id="a" markerHeight="1" markerWidth="1" orient="auto-start-reverse" preserveAspectRatio="xMidYMid" refX="0" refY="0" style="overflow:visible" viewBox="0 0 1 1"><path d="M3-3 0 0l3 3" style="fill:none;stroke:context-stroke;stroke-width:1;stroke-linecap:butt" transform="rotate(180 .125 0)"/></marker><marker id="b" markerHeight="1" markerWidth="1" orient="auto-start-reverse" preserveAspectRatio="xMidYMid" refX="0" refY="0" style="overflow:visible" viewBox="0 0 1 1"><path d="M3-3 0 0l3 3" style="fill:none;stroke:context-stroke;stroke-width:1;stroke-linecap:butt" transform="rotate(180 .125 0)"/></marker><marker id="h" markerHeight="1" markerWidth="1" orient="auto-start-reverse" preserveAspectRatio="xMidYMid" refX="0" refY="0" style="overflow:visible" viewBox="0 0 1 1"><path d="M3-3 0 0l3 3" style="fill:none;stroke:context-stroke;stroke-width:1;stroke-linecap:butt" transform="rotate(180 .125 0)"/></marker><marker id="n" markerHeight="1" markerWidth="1" orient="auto-start-reverse" preserveAspectRatio="xMidYMid" refX="0" refY="0" style="overflow:visible" viewBox="0 0 1 1"><path d="M3-3 0 0l3 3" style="fill:none;stroke:context-stroke;stroke-width:1;stroke-linecap:butt" transform="rotate(180 .125 0)"/></marker><marker id="p" markerHeight="1" markerWidth="1" orient="auto-start-reverse" preserveAspectRatio="xMidYMid" refX="0" refY="0" style="overflow:visible" viewBox="0 0 1 1"><path d="M3-3 0 0l3 3" style="fill:none;stroke:context-stroke;stroke-width:1;stroke-linecap:butt" transform="rotate(180 .125 0)"/></marker><marker id="u" markerHeight="1" markerWidth="1" orient="auto-start-reverse" preserveAspectRatio="xMidYMid" refX="0" refY="0" style="overflow:visible" viewBox="0 0 1 1"><path d="M3-3 0 0l3 3" style="fill:none;stroke:context-stroke;stroke-width:1;stroke-linecap:butt" transform="rotate(180 .125 0)"/></marker></defs><g transform="translate(-2.526 -26.23)"><path d="M2.658 26.361h112.593v96.642H2.658z" style="opacity:1;fill:#fff;stroke:#fff;stroke-width:.264583"/><path d="M47.217 52.466V41.81h17.861v5.804M47.217 89.507v10.656h17.861v-5.804M47.217 52.466c-6.33 11.344-6.63 24.26 0 37.041" style="fill:#fff;stroke:#000;stroke-width:.264583"/><path d="M65.078 47.614c-7.406 12.654-11.425 26.646 0 46.745" style="fill:#fff;stroke:#000;stroke-width:.264583"/><path d="M42.786 70.374h14.807" style="fill:#fff;stroke:green;stroke-width:.264583;marker-start:url(#a);marker-end:url(#a)"/><path d="M47.217 100.163v8.156M65.078 100.163v8.156" style="fill:#fff;stroke:#ccc;stroke-width:.264583"/><path d="M47.217 108.319h17.861" style="fill:#fff;stroke:green;stroke-width:.264583;marker-start:url(#b);marker-end:url(#b)"/><text xml:space="preserve" style="font-size:14.6667px;line-height:normal;font-family:&quot;Liberation Mono&quot;;-inkscape-font-specification:&quot;Liberation Mono&quot;;text-align:center;text-decoration-color:#000;white-space:pre;shape-inside:url(#c);fill:green;stroke-width:1;-inkscape-stroke:none;stop-color:#000" transform="translate(-30.739 -22.739)scale(.26458)"><tspan x="298.419" y="349.107">E1</tspan></text><text xml:space="preserve" style="font-size:14.6667px;line-height:normal;font-family:&quot;Liberation Mono&quot;;-inkscape-font-specification:&quot;Liberation Mono&quot;;text-align:center;text-decoration-color:#000;white-space:pre;shape-inside:url(#d);display:inline;fill:green;stroke-width:1;-inkscape-stroke:none;stop-color:#000" transform="translate(-24.992 19.085)scale(.26458)"><tspan x="298.419" y="349.107">E2</tspan></text><text xml:space="preserve" style="font-size:14.6667px;line-height:normal;font-family:&quot;Liberation Mono&quot;;-inkscape-font-specification:&quot;Liberation Mono&quot;;text-align:center;text-decoration-color:#000;white-space:pre;shape-inside:url(#e);fill:green;stroke-width:1;-inkscape-stroke:none;stop-color:#000" transform="translate(-4.419 -1.273)scale(.26458)"><tspan x="182.874" y="439.708">(read only)</tspan></text><path d="M65.078 94.36h8.156M65.078 47.614h8.156" style="fill:#fff;stroke:#ccc;stroke-width:.264583"/><path d="M73.234 47.614v46.745" style="fill:green;stroke:purple;stroke-width:.264583;marker-start:url(#a);marker-end:url(#a)"/><text xml:space="preserve" style="font-size:14.6667px;line-height:normal;font-family:&quot;Liberation Mono&quot;;-inkscape-font-specification:&quot;Liberation Mono&quot;;text-align:center;text-decoration-color:#000;white-space:pre;shape-inside:url(#f);fill:purple;stroke-width:1;-inkscape-stroke:none;stop-color:#000" transform="translate(-7.519 1.385)scale(.26458)"><tspan x="308.415" y="272.765">Dr</tspan></text><path d="M65.21 41.81h21.13M65.21 100.163h21.13" style="fill:#fff;stroke:#ccc;stroke-width:.264583"/><path d="M86.34 41.81v58.353" style="fill:purple;stroke:purple;stroke-width:.264583;marker-start:url(#a);marker-end:url(#a)"/><text xml:space="preserve" style="font-size:14.6667px;line-height:normal;font-family:&quot;Liberation Mono&quot;;-inkscape-font-specification:&quot;Liberation Mono&quot;;text-align:center;text-decoration-color:#000;white-space:pre;shape-inside:url(#g);fill:purple;stroke-width:1;-inkscape-stroke:none;stop-color:#000" transform="translate(-20.177 2.389)scale(.26458)"><tspan x="404.779" y="268.97">D1</tspan></text><path d="M39.178 52.269h8.156M39.178 89.7h8.156" style="fill:#fff;stroke:#ccc;stroke-width:.264583"/><path d="M39.178 52.389v36.98" style="fill:green;stroke:purple;stroke-width:.264583;marker-start:url(#h);marker-end:url(#h)"/><text xml:space="preserve" style="font-size:14.6667px;line-height:normal;font-family:&quot;Liberation Mono&quot;;-inkscape-font-specification:&quot;Liberation Mono&quot;;text-align:center;text-decoration-color:#000;white-space:pre;shape-inside:url(#i);display:inline;fill:purple;stroke-width:1;-inkscape-stroke:none;stop-color:#000" transform="translate(-47.53 -.517)scale(.26458)"><tspan x="308.415" y="272.765">Dl</tspan></text><text xml:space="preserve" style="font-size:14.6667px;line-height:normal;font-family:&quot;Liberation Mono&quot;;-inkscape-font-specification:&quot;Liberation Mono&quot;;text-align:center;text-decoration-color:#000;white-space:pre;shape-inside:url(#j);fill:#00f;stroke-width:1;-inkscape-stroke:none;stop-color:#000" transform="translate(-1.707 -.2)scale(.26458)"><tspan x="88.112" y="363.312">ne</tspan></text><text xml:space="preserve" style="font-size:14.6667px;line-height:normal;font-family:&quot;Liberation Mono&quot;;-inkscape-font-specification:&quot;Liberation Mono&quot;;text-align:center;text-decoration-color:#000;white-space:pre;shape-inside:url(#k);fill:#00f;stroke-width:1;-inkscape-stroke:none;stop-color:#000" transform="translate(-49.705 -15.983)scale(.26458)"><tspan x="385.716" y="419.089">ni</tspan></text><text xml:space="preserve" style="font-size:14.6667px;line-height:normal;font-family:&quot;Liberation Mono&quot;;-inkscape-font-specification:&quot;Liberation Mono&quot;;text-align:center;text-decoration-color:#000;white-space:pre;shape-inside:url(#l);fill:#00f;stroke-width:1;-inkscape-stroke:none;stop-color:#000" transform="translate(-12.121 -3.418)scale(.26458)"><tspan x="61.096" y="392.118">(refractive index
</tspan><tspan x="96.302" y="410.452">external)</tspan></text><path d="M40.697 105.348h31.19v13.52h-31.19z" style="opacity:.5;fill:#b3b3b3;stroke:#b3b3b3;stroke-width:.264583"/><path d="m60.636 58.214 4.431 3.529" style="opacity:1;fill:#b3b3b3;stroke:purple;stroke-width:.264583;marker-start:url(#a)"/><text xml:space="preserve" style="font-size:14.6667px;line-height:normal;font-family:&quot;Liberation Mono&quot;;-inkscape-font-specification:&quot;Liberation Mono&quot;;text-align:center;text-decoration-color:#000;white-space:pre;shape-inside:url(#m);fill:purple;stroke-width:1;-inkscape-stroke:none;stop-color:#000" transform="translate(-41.036 -30.392)scale(.26458)"><tspan x="400.007" y="359.183">Rr</tspan></text><path d="M44.976 54.65 35.5 47.798" style="fill:#b3b3b3;stroke:purple;stroke-width:.264584;marker-start:url(#n)"/><text xml:space="preserve" style="font-size:14.6667px;line-height:normal;font-family:&quot;Liberation Mono&quot;;-inkscape-font-specification:&quot;Liberation Mono&quot;;text-align:center;text-decoration-color:#000;white-space:pre;shape-inside:url(#o);fill:purple;stroke-width:1;-inkscape-stroke:none;stop-color:#000" transform="translate(-71.287 -38.395)scale(.26458)"><tspan x="386.848" y="331.185">Rl</tspan></text><path d="M45.631 53.506 23.767 31.83" style="fill:#b3b3b3;stroke:teal;stroke-width:.264584;marker-start:url(#p)"/><text xml:space="preserve" style="font-size:14.6667px;line-height:normal;font-family:&quot;Liberation Mono&quot;;-inkscape-font-specification:&quot;Liberation Mono&quot;;text-align:center;text-decoration-color:#000;white-space:pre;shape-inside:url(#q);fill:teal;stroke-width:1;-inkscape-stroke:none;stop-color:#000" transform="translate(-85.907 -55.197)scale(.26458)"><tspan x="367.825" y="328.906">TypeL</tspan></text><text xml:space="preserve" x="-2.005" style="font-size:14.6667px;line-height:normal;font-family:&quot;Liberation Mono&quot;;-inkscape-font-specification:&quot;Liberation Mono&quot;;text-align:start;text-decoration-color:#000;white-space:pre;shape-inside:url(#r);fill:teal;stroke-width:1;-inkscape-stroke:none;stop-color:#000" transform="translate(-87.879 -51.439)scale(.26458)"><tspan x="364.045" y="332.456">-convex
</tspan><tspan x="364.045" y="350.79">-planar
</tspan><tspan x="364.045" y="369.123">-concave</tspan></text><text xml:space="preserve" style="font-size:14.6667px;line-height:normal;font-family:&quot;Liberation Mono&quot;;-inkscape-font-specification:&quot;Liberation Mono&quot;;text-align:center;text-decoration-color:#000;white-space:pre;shape-inside:url(#s);display:inline;fill:teal;stroke-width:1;-inkscape-stroke:none;stop-color:#000" transform="translate(-3.709 -51.83)scale(.26458)"><tspan x="367.825" y="328.906">TypeR</tspan></text><text xml:space="preserve" x="-2.005" style="font-size:14.6667px;line-height:normal;font-family:&quot;Liberation Mono&quot;;-inkscape-font-specification:&quot;Liberation Mono&quot;;text-align:start;text-decoration-color:#000;white-space:pre;shape-inside:url(#t);display:inline;fill:teal;stroke-width:1;-inkscape-stroke:none;stop-color:#000" transform="translate(-1.878 -48.313)scale(.26458)"><tspan x="364.045" y="332.456">-convex
</tspan><tspan x="364.045" y="350.79">-planar
</tspan><tspan x="364.045" y="369.123">-concave</tspan></text><path d="M63.719 51.161 92.62 34.594" style="fill:#b3b3b3;stroke:teal;stroke-width:.264584;marker-start:url(#u)"/><ellipse cx="54.84" cy="93.88" rx="3.134" ry="3.024" style="fill:none;stroke:#00f;stroke-width:.264582"/><ellipse cx="23.848" cy="94.615" rx="3.134" ry="3.024" style="fill:none;stroke:#00f;stroke-width:.264582"/></g></svg>