<svg xmlns="http://www.w3.org/2000/svg" width="350.115" height="374.961" viewBox="0 0 92.635 99.208"><defs><path id="t" d="M50.329 1894.332H122v29.624H50.329z"/><path id="s" d="M36.95 1867.893h62.433v37.587H36.95z"/><path id="r" d="M26.757 1855.47h62.114v39.18H26.757z"/><path id="q" d="M20.705 1887.642h63.707v24.846H20.705z"/><path id="p" d="M28.987 1875.538h60.522v35.676H28.987z"/><path id="o" d="M45.869 1866.3h67.848v31.854H45.869z"/><path id="b" d="M419.845 242.064h47.3v20.114h-47.3z"/><path id="c" d="M419.845 242.064h47.3v20.114h-47.3z"/><path id="d" d="M419.845 242.064h47.3v20.114h-47.3z"/><path id="e" d="M427.954 297.766H471.2v19.371h-43.246z"/><path id="f" d="M432.909 340.561h39.192v19.821h-39.192z"/><path id="g" d="M437.864 202.264h68.923v24.326h-68.923z"/><marker id="a" markerHeight="1" markerWidth="1" orient="auto-start-reverse" preserveAspectRatio="xMidYMid" refX="0" refY="0" style="overflow:visible" viewBox="0 0 1 1"><path d="M3-3 0 0l3 3" style="fill:none;stroke:context-stroke;stroke-width:1;stroke-linecap:butt" transform="rotate(180 .125 0)"/></marker><marker id="h" markerHeight="1" markerWidth="1" orient="auto-start-reverse" preserveAspectRatio="xMidYMid" refX="0" refY="0" style="overflow:visible" viewBox="0 0 1 1"><path d="M3-3 0 0l3 3" style="fill:none;stroke:context-stroke;stroke-width:1;stroke-linecap:butt" transform="rotate(180 .125 0)"/></marker><marker id="i" markerHeight="1" markerWidth="1" orient="auto-start-reverse" preserveAspectRatio="xMidYMid" refX="0" refY="0" style="overflow:visible" viewBox="0 0 1 1"><path d="M3-3 0 0l3 3" style="fill:none;stroke:context-stroke;stroke-width:1;stroke-linecap:butt" transform="rotate(180 .125 0)"/></marker><marker id="j" markerHeight="1" markerWidth="1" orient="auto-start-reverse" preserveAspectRatio="xMidYMid" refX="0" refY="0" style="overflow:visible" viewBox="0 0 1 1"><path d="M3-3 0 0l3 3" style="fill:none;stroke:context-stroke;stroke-width:1;stroke-linecap:butt" transform="rotate(180 .125 0)"/></marker><marker id="k" markerHeight="1" markerWidth="1" orient="auto-start-reverse" preserveAspectRatio="xMidYMid" refX="0" refY="0" style="overflow:visible" viewBox="0 0 1 1"><path d="M3-3 0 0l3 3" style="fill:none;stroke:context-stroke;stroke-width:1;stroke-linecap:butt" transform="rotate(180 .125 0)"/></marker><marker id="l" markerHeight="1" markerWidth="1" orient="auto-start-reverse" preserveAspectRatio="xMidYMid" refX="0" refY="0" style="overflow:visible" viewBox="0 0 1 1"><path d="M3-3 0 0l3 3" style="fill:none;stroke:context-stroke;stroke-width:1;stroke-linecap:butt" transform="rotate(180 .125 0)"/></marker><marker id="m" markerHeight="1" markerWidth="1" orient="auto-start-reverse" preserveAspectRatio="xMidYMid" refX="0" refY="0" style="overflow:visible" viewBox="0 0 1 1"><path d="M3-3 0 0l3 3" style="fill:none;stroke:context-stroke;stroke-width:1;stroke-linecap:butt" transform="rotate(180 .125 0)"/></marker><marker id="n" markerHeight="1" markerWidth="1" orient="auto-start-reverse" preserveAspectRatio="xMidYMid" refX="0" refY="0" style="overflow:visible" viewBox="0 0 1 1"><path d="M3-3 0 0l3 3" style="fill:none;stroke:context-stroke;stroke-width:1;stroke-linecap:butt" transform="rotate(180 .125 0)"/></marker></defs><path d="M22.25 473.144h92.37v98.944H22.25z" style="fill:#fff;stroke:#fff;stroke-width:.264583;stroke-linejoin:round;stroke-dasharray:none" transform="translate(-22.117 -473.011)"/><path d="M79.375 510.288h13.99M60.665 492.746h45.511" style="fill:#fff;stroke:#ccc;stroke-width:.264583;stroke-linejoin:round" transform="translate(-22.117 -473.011)"/><path d="M79.507 548.045h26.67" style="fill:#fff;stroke:#ccc;stroke-width:.264582;stroke-linejoin:round" transform="translate(-22.117 -473.011)"/><path d="M30.866 519.222H44.99M30.866 548.045h13.99M44.99 562.168v-13.99M79.375 561.903v-13.99M44.857 519.354v-40.466M60.938 492.878v-13.99" style="fill:#fff;stroke:#ccc;stroke-width:.264583;stroke-linejoin:round" transform="translate(-22.117 -473.011)"/><path d="M106.176 492.746v55.3" style="fill:#fff;stroke:#f0f;stroke-width:.264583;stroke-linejoin:round;marker-start:url(#a);marker-end:url(#a)" transform="translate(-22.117 -473.011)"/><path d="m44.99 562.168 34.385-.265" style="fill:#fff;stroke:#f0f;stroke-width:.264583;stroke-linejoin:round;marker-start:url(#a);marker-end:url(#a)" transform="translate(-22.117 -473.011)"/><path d="M30.866 519.222v28.823" style="fill:#fff;stroke:#f0f;stroke-width:.264583;stroke-linejoin:round;marker-start:url(#a);marker-end:url(#a)" transform="translate(-22.117 -473.011)"/><path d="M44.857 478.888h16.08" style="fill:#fff;stroke:#f0f;stroke-width:.264583;stroke-linejoin:round;marker-start:url(#a);marker-end:url(#a)" transform="translate(-22.117 -473.011)"/><path d="M93.365 510.288v37.757" style="fill:#fff;stroke:#f0f;stroke-width:.264583;stroke-linejoin:round;marker-start:url(#a);marker-end:url(#a)" transform="translate(-22.117 -473.011)"/><text xml:space="preserve" style="font-size:14.6667px;line-height:normal;font-family:&quot;Liberation Mono&quot;;-inkscape-font-specification:&quot;Liberation Mono&quot;;text-align:center;text-decoration-color:#000;white-space:pre;shape-inside:url(#b);display:inline;fill:#000;stroke-width:1;-inkscape-stroke:none;stop-color:#000" transform="translate(-29.125 -18.837)scale(.26458)"><tspan x="434.694" y="255.115">H1</tspan></text><text xml:space="preserve" style="font-size:14.6667px;line-height:normal;font-family:&quot;Liberation Mono&quot;;-inkscape-font-specification:&quot;Liberation Mono&quot;;text-align:center;text-decoration-color:#000;white-space:pre;shape-inside:url(#c);display:inline;fill:#000;stroke-width:1;-inkscape-stroke:none;stop-color:#000" transform="translate(-42.827 -10.058)scale(.26458)"><tspan x="434.694" y="255.115">H2</tspan></text><text xml:space="preserve" style="font-size:14.6667px;line-height:normal;font-family:&quot;Liberation Mono&quot;;-inkscape-font-specification:&quot;Liberation Mono&quot;;text-align:center;text-decoration-color:#000;white-space:pre;shape-inside:url(#d);display:inline;fill:#000;stroke-width:1;-inkscape-stroke:none;stop-color:#000" transform="translate(-111.793 -6.192)scale(.26458)"><tspan x="434.694" y="255.115">H3</tspan></text><text xml:space="preserve" style="font-size:14.6667px;line-height:normal;font-family:&quot;Liberation Mono&quot;;-inkscape-font-specification:&quot;Liberation Mono&quot;;text-align:center;text-decoration-color:#000;white-space:pre;shape-inside:url(#e);display:inline;fill:#000;stroke-width:1;-inkscape-stroke:none;stop-color:#000" transform="translate(-79.423 11.11)scale(.26458)"><tspan x="440.775" y="310.816">W1</tspan></text><text xml:space="preserve" style="font-size:14.6667px;line-height:normal;font-family:&quot;Liberation Mono&quot;;-inkscape-font-specification:&quot;Liberation Mono&quot;;text-align:center;text-decoration-color:#000;white-space:pre;shape-inside:url(#f);display:inline;fill:#000;stroke-width:1;-inkscape-stroke:none;stop-color:#000" transform="translate(-79.423 3.362)scale(.26458)"><tspan x="443.702" y="353.611">W2</tspan></text><text xml:space="preserve" style="font-size:14.6667px;line-height:normal;font-family:&quot;Liberation Mono&quot;;-inkscape-font-specification:&quot;Liberation Mono&quot;;text-align:center;text-decoration-color:#000;white-space:pre;shape-inside:url(#g);display:inline;fill:#000;stroke-width:1;-inkscape-stroke:none;stop-color:#000" transform="translate(-93.964 -52.419)scale(.26458)"><tspan x="459.123" y="215.314">RS%</tspan></text><path d="M44.99 548.045h34.385v-37.757h5.984q1.601-1.18.02-2.95L73.9 503.231l-10.856-10.353H58.83l-8.368 19.287-11.478 4.107q-1.588 1.657.02 2.95h5.984z" style="fill:#fff6d5;stroke:olive;stroke-width:.264583;stroke-linejoin:round" transform="translate(-22.117 -473.011)"/><path d="M58.83 492.878v-5.056M63.045 492.878v-5.056" style="fill:#fff;stroke:#ccc;stroke-width:.264583;stroke-linejoin:round" transform="translate(-22.117 -473.011)"/><path d="M59.083 487.822h3.598" style="fill:#fff;stroke:#f0f;stroke-width:.264583;stroke-linejoin:round;marker-start:url(#h);marker-end:url(#h)" transform="translate(-22.117 -473.011)"/><path d="M85.379 507.338h5.056" style="fill:#fff;stroke:#ccc;stroke-width:.264583;stroke-linejoin:round" transform="translate(-22.117 -473.011)"/><path d="M90.435 507.338v2.95" style="fill:#fff;stroke:#f0f;stroke-width:.264583;stroke-linejoin:round;marker-start:url(#i);marker-end:url(#i)" transform="translate(-22.117 -473.011)"/><path d="M85.359 515.345v-5.057" style="fill:#fff;stroke:#ccc;stroke-width:.264583;stroke-linejoin:round" transform="translate(-22.117 -473.011)"/><path d="M79.76 515.345h5.467" style="fill:#fff;stroke:#f0f;stroke-width:.264582;stroke-linejoin:round;marker-start:url(#j);marker-end:url(#j)" transform="translate(-22.117 -473.011)"/><path d="M73.9 503.231v-5.056" style="fill:#fff;stroke:#ccc;stroke-width:.264583;stroke-linejoin:round" transform="translate(-22.117 -473.011)"/><path d="M85.51 507.206v-9.031" style="fill:#fff;stroke:#ccc;stroke-width:.264582;stroke-linejoin:round" transform="translate(-22.117 -473.011)"/><path d="M74.136 498.175h10.998" style="fill:#fff;stroke:#f0f;stroke-width:.264583;stroke-linejoin:round;marker-start:url(#k);marker-end:url(#k)" transform="translate(-22.117 -473.011)"/><path d="M73.768 503.099h7.796" style="fill:#fff;stroke:#ccc;stroke-width:.264584;stroke-linejoin:round" transform="translate(-22.117 -473.011)"/><path d="M80.522 503.352c.722.905-.022 1.607-.882 1.933" style="fill:#fff;stroke:#f0f;stroke-width:.264583;stroke-linejoin:round;marker-start:url(#l);marker-end:url(#l)" transform="translate(-22.117 -473.011)"/><path d="M38.985 516.272v-5.057M38.196 517.9v-6.685" style="fill:#fff;stroke:#ccc;stroke-width:.264583;stroke-linejoin:round" transform="translate(-22.117 -473.011)"/><path d="M35.482 511.384h2.419" style="fill:#fff;stroke:#f0f;stroke-width:.264583;stroke-linejoin:round;stroke-dasharray:none;marker-end:url(#m)" transform="translate(-22.117 -473.011)"/><path d="M41.7 511.384h-2.42" style="fill:#fff;stroke:#f0f;stroke-width:.264583;stroke-linejoin:round;stroke-dasharray:none;marker-end:url(#n)" transform="translate(-22.117 -473.011)"/><text xml:space="preserve" style="font-size:14.6667px;line-height:normal;font-family:&quot;Liberation Mono&quot;;-inkscape-font-specification:&quot;Liberation Mono&quot;;text-decoration-color:#000;white-space:pre;shape-inside:url(#o);fill:#000;stroke-width:1;-inkscape-stroke:none;stop-color:#000" transform="translate(24.658 -483.883)scale(.26458)"><tspan x="45.869" y="1879.351">WF</tspan></text><text xml:space="preserve" style="font-size:14.6667px;line-height:normal;font-family:&quot;Liberation Mono&quot;;-inkscape-font-specification:&quot;Liberation Mono&quot;;text-decoration-color:#000;white-space:pre;shape-inside:url(#p);fill:#000;stroke-width:1;-inkscape-stroke:none;stop-color:#000" transform="translate(46.233 -474.95)scale(.26458)"><tspan x="28.986" y="1888.587">WBH%</tspan></text><text xml:space="preserve" style="font-size:14.6667px;line-height:normal;font-family:&quot;Liberation Mono&quot;;-inkscape-font-specification:&quot;Liberation Mono&quot;;text-decoration-color:#000;white-space:pre;shape-inside:url(#q);fill:#000;stroke-width:1;-inkscape-stroke:none;stop-color:#000" transform="translate(53.06 -456.745)scale(.26458)"><tspan x="20.705" y="1900.693">WBL%</tspan></text><text xml:space="preserve" style="font-size:14.6667px;line-height:normal;font-family:&quot;Liberation Mono&quot;;-inkscape-font-specification:&quot;Liberation Mono&quot;;text-decoration-color:#000;white-space:pre;shape-inside:url(#r);fill:#000;stroke-width:1;-inkscape-stroke:none;stop-color:#000" transform="translate(62.078 -457.757)scale(.26458)"><tspan x="26.758" y="1868.521">WBE</tspan></text><text xml:space="preserve" style="font-size:14.6667px;line-height:normal;font-family:&quot;Liberation Mono&quot;;-inkscape-font-specification:&quot;Liberation Mono&quot;;text-decoration-color:#000;white-space:pre;shape-inside:url(#s);fill:#000;stroke-width:1;-inkscape-stroke:none;stop-color:#000" transform="translate(49.183 -464.92)scale(.26458)"><tspan x="36.949" y="1880.943">AB</tspan></text><text xml:space="preserve" style="font-size:14.6667px;line-height:normal;font-family:&quot;Liberation Mono&quot;;-inkscape-font-specification:&quot;Liberation Mono&quot;;text-decoration-color:#000;white-space:pre;shape-inside:url(#t);fill:#000;stroke-width:1;-inkscape-stroke:none;stop-color:#000" transform="translate(-1.216 -467.702)scale(.26458)"><tspan x="50.328" y="1907.382">WBR</tspan></text></svg>