<svg xmlns="http://www.w3.org/2000/svg" width="184.23" height="195.604" viewBox="0 0 48.744 51.753"><defs><path id="i" d="M522.717 2381.941h129.325v52.272H522.717z"/><path id="f" d="M494.399 2258.919h21.848v25.001h-21.848z"/><path id="e" d="M479.758 2278.74h28.155v28.605h-28.155z"/><path id="d" d="M470.298 2298.786h24.101v23.875h-24.101z"/><path id="c" d="M463.316 2319.734h28.605v23.425h-28.605z"/><path id="b" d="M450.928 2337.978h32.209v24.326h-32.209z"/><path id="a" d="M400.081 2295.368h71.989v34.402h-71.989z"/><marker id="g" markerHeight="1" markerWidth="1" orient="auto-start-reverse" preserveAspectRatio="xMidYMid" refX="0" refY="0" style="overflow:visible" viewBox="0 0 1 1"><path d="M3-3 0 0l3 3" style="fill:none;stroke:context-stroke;stroke-width:1;stroke-linecap:butt" transform="rotate(180 .125 0)"/></marker><marker id="h" markerHeight="1" markerWidth="1" orient="auto-start-reverse" preserveAspectRatio="xMidYMid" refX="0" refY="0" style="overflow:visible" viewBox="0 0 1 1"><path d="M3-3 0 0l3 3" style="fill:none;stroke:context-stroke;stroke-width:1;stroke-linecap:butt" transform="rotate(180 .125 0)"/></marker><marker id="j" markerHeight="1" markerWidth="1" orient="auto-start-reverse" preserveAspectRatio="xMidYMid" refX="0" refY="0" style="overflow:visible" viewBox="0 0 1 1"><path d="M3-3 0 0l3 3" style="fill:none;stroke:context-stroke;stroke-width:1;stroke-linecap:butt" transform="rotate(180 .125 0)"/></marker><marker id="k" markerHeight="1" markerWidth="1" orient="auto-start-reverse" preserveAspectRatio="xMidYMid" refX="0" refY="0" style="overflow:visible" viewBox="0 0 1 1"><path d="M3-3 0 0l3 3" style="fill:none;stroke:context-stroke;stroke-width:1;stroke-linecap:butt" transform="rotate(180 .125 0)"/></marker></defs><path d="M102.054 595.572h48.48v51.489h-48.48z" style="fill:#fff;stroke:#fff;stroke-width:.264583;stroke-linejoin:round;stroke-dasharray:none" transform="translate(-101.922 -595.44)"/><path d="m104.71 641.528 16.419.057v-19.621l12.74-12.705-11.612-11.58-17.417 17.37z" style="fill:#fff6d5;stroke:olive;stroke-width:.264582;stroke-linejoin:round" transform="translate(-101.922 -595.44)"/><text xml:space="preserve" style="font-size:14.6667px;line-height:normal;font-family:&quot;Liberation Mono&quot;;-inkscape-font-specification:&quot;Liberation Mono&quot;;text-decoration-color:#000;white-space:pre;shape-inside:url(#a);display:inline;fill:#000;stroke-width:1;-inkscape-stroke:none;stop-color:#000" transform="translate(-100.791 -605.1)scale(.26458)"><tspan x="400.08" y="2308.417">ChiNb</tspan></text><path d="M110.812 633.999h4.214v4.383h-4.214z" style="fill:none;stroke:#f0f;stroke-width:.264583;stroke-linejoin:round" transform="translate(-101.922 -595.44)"/><text xml:space="preserve" style="font-size:14.6667px;line-height:normal;font-family:&quot;Liberation Mono&quot;;-inkscape-font-specification:&quot;Liberation Mono&quot;;text-decoration-color:#000;white-space:pre;shape-inside:url(#b);fill:#000;stroke-width:1;-inkscape-stroke:none;stop-color:#000" transform="translate(-109.55 -580.379)scale(.26458)"><tspan x="450.928" y="2351.029">1</tspan></text><text xml:space="preserve" style="font-size:14.6667px;line-height:normal;font-family:&quot;Liberation Mono&quot;;-inkscape-font-specification:&quot;Liberation Mono&quot;;text-decoration-color:#000;white-space:pre;shape-inside:url(#c);fill:#000;stroke-width:1;-inkscape-stroke:none;stop-color:#000" transform="translate(-101.827 -603.759)scale(.26458)"><tspan x="463.316" y="2332.785">2</tspan></text><text xml:space="preserve" style="font-size:14.6667px;line-height:normal;font-family:&quot;Liberation Mono&quot;;-inkscape-font-specification:&quot;Liberation Mono&quot;;text-decoration-color:#000;white-space:pre;shape-inside:url(#d);fill:#000;stroke-width:1;-inkscape-stroke:none;stop-color:#000" transform="translate(-113.84 -586.858)scale(.26458)"><tspan x="470.299" y="2311.837">3</tspan></text><text xml:space="preserve" style="font-size:14.6667px;line-height:normal;font-family:&quot;Liberation Mono&quot;;-inkscape-font-specification:&quot;Liberation Mono&quot;;text-decoration-color:#000;white-space:pre;shape-inside:url(#e);fill:#000;stroke-width:1;-inkscape-stroke:none;stop-color:#000" transform="translate(-117.297 -572.794)scale(.26458)"><tspan x="479.758" y="2291.79">4</tspan></text><text xml:space="preserve" style="font-size:14.6667px;line-height:normal;font-family:&quot;Liberation Mono&quot;;-inkscape-font-specification:&quot;Liberation Mono&quot;;text-decoration-color:#000;white-space:pre;shape-inside:url(#f);fill:#000;stroke-width:1;-inkscape-stroke:none;stop-color:#000" transform="translate(-115.428 -582.529)scale(.26458)"><tspan x="494.398" y="2271.97">5</tspan></text><path d="M110.812 625.707h4.214v4.383h-4.214z" style="fill:none;stroke:#f0f;stroke-width:.264583;stroke-linejoin:round" transform="translate(-101.922 -595.44)"/><path d="M402.533 479.832h4.214v4.383h-4.214z" style="fill:none;stroke:#f0f;stroke-width:.264583;stroke-linejoin:round" transform="rotate(29.616 1075.226 -490.49)"/><path d="M518.413 334.908h4.214v4.383h-4.214zM518.279 342.581h4.214v4.383h-4.214z" style="fill:none;stroke:#f0f;stroke-width:.264583;stroke-linejoin:round" transform="rotate(45.552 658.123 -419.094)"/><path d="M127.181 638.382h-12.155M127.181 641.585h-6.077" style="fill:#fff;stroke:#ccc;stroke-width:.264583;stroke-linejoin:round" transform="translate(-101.922 -595.44)"/><path d="M127.181 633.194v5.188" style="fill:#fff;stroke:#f0f;stroke-width:.264583;stroke-linejoin:round;stroke-dasharray:none;marker-end:url(#g)" transform="translate(-101.922 -595.44)"/><path d="M127.181 646.773v-5.188" style="fill:#fff;stroke:#f0f;stroke-width:.264583;stroke-linejoin:round;stroke-dasharray:none;marker-end:url(#h)" transform="translate(-101.922 -595.44)"/><text xml:space="preserve" style="font-size:14.6667px;line-height:normal;font-family:&quot;Liberation Mono&quot;;-inkscape-font-specification:&quot;Liberation Mono&quot;;text-decoration-color:#000;white-space:pre;shape-inside:url(#i);fill:#000;stroke-width:1;-inkscape-stroke:none;stop-color:#000" transform="translate(-112.37 -587.667)scale(.26458)"><tspan x="522.717" y="2394.992">ChiOffset</tspan></text><path d="m138.147 618.842-11.254-11.223M140.633 616.004l-6.764-6.745" style="fill:#fff;stroke:#ccc;stroke-width:.264583;stroke-linejoin:round" transform="translate(-101.922 -595.44)"/><path d="m144.078 612.122-3.312 3.993" style="fill:#fff;stroke:#f0f;stroke-width:.264583;stroke-linejoin:round;stroke-dasharray:none;marker-end:url(#j)" transform="translate(-101.922 -595.44)"/><path d="m134.735 622.91 3.312-3.993" style="fill:#fff;stroke:#f0f;stroke-width:.264583;stroke-linejoin:round;stroke-dasharray:none;marker-end:url(#k)" transform="translate(-101.922 -595.44)"/></svg>