<svg xmlns="http://www.w3.org/2000/svg" width="355.976" height="377.599" viewBox="0 0 94.185 99.906"><defs><path id="g" d="M437.864 202.264h68.923v24.326h-68.923z"/><path id="f" d="M432.909 340.561h39.192v19.821h-39.192z"/><path id="e" d="M427.954 297.766H471.2v19.371h-43.246z"/><path id="b" d="M419.845 242.064h47.3v20.114h-47.3z"/><path id="c" d="M419.845 242.064h47.3v20.114h-47.3z"/><path id="d" d="M419.845 242.064h47.3v20.114h-47.3z"/><marker id="a" markerHeight="1" markerWidth="1" orient="auto-start-reverse" preserveAspectRatio="xMidYMid" refX="0" refY="0" style="overflow:visible" viewBox="0 0 1 1"><path d="M3-3 0 0l3 3" style="fill:none;stroke:context-stroke;stroke-width:1;stroke-linecap:butt" transform="rotate(180 .125 0)"/></marker></defs><path d="M10.727 15.733h93.921v99.642H10.727z" style="fill:#fff;stroke:#fff;stroke-width:.264583;stroke-linejoin:round" transform="translate(-10.595 -15.6)"/><path d="M33.88 62.872v28.824h34.386V53.939L49.83 36.529Z" style="fill:#d7f4e3;stroke:#000;stroke-width:.264583;stroke-linejoin:round" transform="translate(-10.595 -15.6)"/><path d="M68.266 53.939h13.99M49.557 36.397h45.51" style="fill:#fff;stroke:#ccc;stroke-width:.264583;stroke-linejoin:round" transform="translate(-10.595 -15.6)"/><path d="M68.398 91.696h26.67" style="fill:#fff;stroke:#ccc;stroke-width:.264582;stroke-linejoin:round" transform="translate(-10.595 -15.6)"/><path d="M19.758 62.872H33.88M19.758 91.696h13.99M33.88 105.818v-13.99M68.266 105.554v-13.99M33.748 63.005V22.538M49.829 36.529v-13.99" style="fill:#fff;stroke:#ccc;stroke-width:.264583;stroke-linejoin:round" transform="translate(-10.595 -15.6)"/><path d="M95.067 36.397v55.299" style="fill:#fff;stroke:#f0f;stroke-width:.264583;stroke-linejoin:round;marker-start:url(#a);marker-end:url(#a)" transform="translate(-10.595 -15.6)"/><path d="m33.88 105.818 34.386-.264" style="fill:#fff;stroke:#f0f;stroke-width:.264583;stroke-linejoin:round;marker-start:url(#a);marker-end:url(#a)" transform="translate(-10.595 -15.6)"/><path d="M19.758 62.872v28.824" style="fill:#fff;stroke:#f0f;stroke-width:.264583;stroke-linejoin:round;marker-start:url(#a);marker-end:url(#a)" transform="translate(-10.595 -15.6)"/><path d="M33.748 22.538h16.081" style="fill:#fff;stroke:#f0f;stroke-width:.264583;stroke-linejoin:round;marker-start:url(#a);marker-end:url(#a)" transform="translate(-10.595 -15.6)"/><path d="M82.257 53.939v37.757" style="fill:#fff;stroke:#f0f;stroke-width:.264583;stroke-linejoin:round;marker-start:url(#a);marker-end:url(#a)" transform="translate(-10.595 -15.6)"/><text xml:space="preserve" style="font-size:14.6667px;line-height:normal;font-family:&quot;Liberation Mono&quot;;-inkscape-font-specification:&quot;Liberation Mono&quot;;text-align:center;text-decoration-color:#000;white-space:pre;shape-inside:url(#b);fill:#000;stroke-width:1;-inkscape-stroke:none;stop-color:#000" transform="translate(-28.711 -17.775)scale(.26458)"><tspan x="434.694" y="255.115">H1</tspan></text><text xml:space="preserve" style="font-size:14.6667px;line-height:normal;font-family:&quot;Liberation Mono&quot;;-inkscape-font-specification:&quot;Liberation Mono&quot;;text-align:center;text-decoration-color:#000;white-space:pre;shape-inside:url(#c);display:inline;fill:#000;stroke-width:1;-inkscape-stroke:none;stop-color:#000" transform="translate(-42.413 -8.997)scale(.26458)"><tspan x="434.694" y="255.115">H2</tspan></text><text xml:space="preserve" style="font-size:14.6667px;line-height:normal;font-family:&quot;Liberation Mono&quot;;-inkscape-font-specification:&quot;Liberation Mono&quot;;text-align:center;text-decoration-color:#000;white-space:pre;shape-inside:url(#d);display:inline;fill:#000;stroke-width:1;-inkscape-stroke:none;stop-color:#000" transform="translate(-111.379 -5.13)scale(.26458)"><tspan x="434.694" y="255.115">H3</tspan></text><text xml:space="preserve" style="font-size:14.6667px;line-height:normal;font-family:&quot;Liberation Mono&quot;;-inkscape-font-specification:&quot;Liberation Mono&quot;;text-align:center;text-decoration-color:#000;white-space:pre;shape-inside:url(#e);fill:#000;stroke-width:1;-inkscape-stroke:none;stop-color:#000" transform="translate(-79.01 12.17)scale(.26458)"><tspan x="440.775" y="310.816">W1</tspan></text><text xml:space="preserve" style="font-size:14.6667px;line-height:normal;font-family:&quot;Liberation Mono&quot;;-inkscape-font-specification:&quot;Liberation Mono&quot;;text-align:center;text-decoration-color:#000;white-space:pre;shape-inside:url(#f);fill:#000;stroke-width:1;-inkscape-stroke:none;stop-color:#000" transform="translate(-79.01 4.423)scale(.26458)"><tspan x="443.702" y="353.611">W2</tspan></text><text xml:space="preserve" style="font-size:14.6667px;line-height:normal;font-family:&quot;Liberation Mono&quot;;-inkscape-font-specification:&quot;Liberation Mono&quot;;text-align:center;text-decoration-color:#000;white-space:pre;shape-inside:url(#g);fill:#000;stroke-width:1;-inkscape-stroke:none;stop-color:#000" transform="translate(-93.55 -51.357)scale(.26458)"><tspan x="463.524" y="215.314">RS</tspan></text></svg>