<svg xmlns="http://www.w3.org/2000/svg" width="237.353" height="324.632" viewBox="0 0 62.8 85.892"><defs><marker id="a" markerHeight="1" markerWidth="1" orient="auto-start-reverse" preserveAspectRatio="xMidYMid" refX="0" refY="0" style="overflow:visible" viewBox="0 0 1 1"><path d="M3-3 0 0l3 3" style="fill:none;stroke:context-stroke;stroke-width:1;stroke-linecap:butt" transform="rotate(180 .125 0)"/></marker><marker id="b" markerHeight="1" markerWidth="1" orient="auto-start-reverse" preserveAspectRatio="xMidYMid" refX="0" refY="0" style="overflow:visible" viewBox="0 0 1 1"><path d="M3-3 0 0l3 3" style="fill:none;stroke:context-stroke;stroke-width:1;stroke-linecap:butt" transform="rotate(180 .125 0)"/></marker><marker id="c" markerHeight="1" markerWidth="1" orient="auto-start-reverse" preserveAspectRatio="xMidYMid" refX="0" refY="0" style="overflow:visible" viewBox="0 0 1 1"><path d="M3-3 0 0l3 3" style="fill:none;stroke:context-stroke;stroke-width:1;stroke-linecap:butt" transform="rotate(180 .125 0)"/></marker><path id="f" d="M409.809 2436.798H519.85v45.869H409.809z"/><path id="e" d="M397.942 2267.277h97.699v40.832h-97.699z"/><path id="d" d="M409 2353.979h88.553v40.135H409z"/></defs><path d="M27.981 584.392h62.535v85.628H27.981z" style="fill:#fff;stroke:#fff;stroke-width:.264583;stroke-linejoin:round;stroke-dasharray:none" transform="translate(-27.848 -584.26)"/><path d="M48.328 606.879h16.013v22.081H48.328z" style="fill:#faa;stroke:olive;stroke-width:.264583;stroke-linejoin:round;stroke-dasharray:none" transform="translate(-27.848 -584.26)"/><path d="M40.386 667.723h34.386v-37.757h5.984q1.6-1.18.02-2.95l-11.479-4.107-10.855-10.353h-4.214l-8.368 19.286-11.478 4.107q-1.589 1.659.02 2.95h5.984z" style="fill:#fff6d5;stroke:olive;stroke-width:.264583;stroke-linejoin:round" transform="translate(-27.848 -584.26)"/><path d="M48.328 606.879v-13.99M64.341 606.879v-13.99M78.464 606.879h-13.99" style="fill:#fff;stroke:#ccc;stroke-width:.264583;stroke-linejoin:round" transform="translate(-27.848 -584.26)"/><path d="M78.464 612.556H58.442" style="fill:#fff;stroke:#ccc;stroke-width:.264582;stroke-linejoin:round" transform="translate(-27.848 -584.26)"/><path d="M48.7 592.889H63.97" style="fill:#fff;stroke:#f0f;stroke-width:.264583;stroke-linejoin:round;marker-start:url(#a);marker-end:url(#a)" transform="translate(-27.848 -584.26)"/><path d="M78.464 607.071v5.188" style="fill:#fff;stroke:#f0f;stroke-width:.264584;stroke-linejoin:round;marker-start:url(#b);marker-end:url(#b)" transform="translate(-27.848 -584.26)"/><path d="m42.32 606.957-2.568-5.73" style="fill:#fff;stroke:#f0f;stroke-width:.264583;stroke-linejoin:round;stroke-dasharray:none;marker-end:url(#c)" transform="translate(-27.848 -584.26)"/><text xml:space="preserve" style="font-size:14.6667px;line-height:normal;font-family:&quot;Liberation Mono&quot;;-inkscape-font-specification:&quot;Liberation Mono&quot;;text-decoration-color:#000;white-space:pre;shape-inside:url(#d);display:inline;fill:#000;stroke-width:1;-inkscape-stroke:none;stop-color:#000" transform="translate(-56.166 -599.484)scale(.26458)"><tspan x="409" y="2367.029">ChiH</tspan></text><text xml:space="preserve" style="font-size:14.6667px;line-height:normal;font-family:&quot;Liberation Mono&quot;;-inkscape-font-specification:&quot;Liberation Mono&quot;;text-decoration-color:#000;white-space:pre;shape-inside:url(#e);display:inline;fill:#000;stroke-width:1;-inkscape-stroke:none;stop-color:#000" transform="translate(-81.567 -597.576)scale(.26458)"><tspan x="397.943" y="2280.327">ChiW</tspan></text><text xml:space="preserve" style="font-size:14.6667px;line-height:normal;font-family:&quot;Liberation Mono&quot;;-inkscape-font-specification:&quot;Liberation Mono&quot;;text-decoration-color:#000;white-space:pre;shape-inside:url(#f);display:inline;fill:#000;stroke-width:1;-inkscape-stroke:none;stop-color:#000" transform="translate(-106.244 -625.475)scale(.26458)"><tspan x="409.809" y="2449.847">ChiT</tspan></text></svg>