<svg xmlns="http://www.w3.org/2000/svg" width="291.107" height="421.746" viewBox="0 0 77.022 111.587"><defs><path id="f" d="M454.982 842.393h50.453v35.137h-50.453z"/><path id="e" d="M415.34 899.153h54.057v41.444H415.34z"/><path id="d" d="M388.312 891.044h71.175v44.147h-71.175z"/><path id="b" d="M432.909 340.561h39.192v19.821h-39.192z"/><path id="c" d="M427.954 297.766H471.2v19.371h-43.246z"/><marker id="a" markerHeight="1" markerWidth="1" orient="auto-start-reverse" preserveAspectRatio="xMidYMid" refX="0" refY="0" style="overflow:visible" viewBox="0 0 1 1"><path d="M3-3 0 0l3 3" style="fill:none;stroke:context-stroke;stroke-width:1;stroke-linecap:butt" transform="rotate(180 .125 0)"/></marker></defs><path d="M36.472 132.776h76.758v111.322H36.472z" style="fill:#fff;stroke:#fff;stroke-width:.264583;stroke-linejoin:round" transform="translate(-36.34 -132.644)"/><path d="M40.533 221.718h27.499l.132-32.18 21.891-27.208-18.88-15.32-30.642 37.76z" style="fill:#d5d5ff;stroke:teal;stroke-width:.264583;stroke-linejoin:round" transform="translate(-36.34 -132.644)"/><path d="m51.306 221.718.158-35.302 27.107-33.405M40.533 184.77l27.631 4.768" style="fill:none;stroke:#00f;stroke-width:.264583;stroke-linejoin:round" transform="translate(-36.34 -132.644)"/><path d="M68.116 221.724h35.014M68.415 189.8h34.631" style="fill:#fff;stroke:#ccc;stroke-width:.264583;stroke-linejoin:round" transform="translate(-36.34 -132.644)"/><path d="m90.055 162.33 11.484 9.32M68.164 189.538l11.484 9.319" style="fill:none;stroke:#999;stroke-width:.264583;stroke-linejoin:round" transform="translate(-36.34 -132.644)"/><path d="m79.648 198.857 21.891-27.208" style="fill:none;stroke:#f0f;stroke-width:.264583;stroke-linejoin:round;marker-start:url(#a);marker-end:url(#a)" transform="translate(-36.34 -132.644)"/><path d="M103.046 189.794v31.684" style="fill:none;stroke:#f0f;stroke-width:.264583;stroke-linejoin:round;marker-start:url(#a);marker-end:url(#a)" transform="translate(-36.34 -132.644)"/><path d="M68.603 193.42s2.676-1.133 3.119-2.359c.46-1.275-.927-3.961-.927-3.961" style="fill:none;stroke:#f0f;stroke-width:.264583;stroke-linejoin:round;marker-start:url(#a);marker-end:url(#a)" transform="translate(-36.34 -132.644)"/><path d="M40.533 221.85v15.761M67.984 221.857v15.76" style="fill:#d5d5ff;stroke:#ccc;stroke-width:.264583;stroke-linejoin:round" transform="translate(-36.34 -132.644)"/><path d="m40.533 237.611 27.45.006" style="fill:#d5d5ff;stroke:#f0f;stroke-width:.264583;stroke-linejoin:round;marker-start:url(#a);marker-end:url(#a)" transform="translate(-36.34 -132.644)"/><path d="m71.175 147.01 9.319-11.485M90.075 162.144l9.319-11.484" style="fill:none;stroke:#999;stroke-width:.264583;stroke-linejoin:round" transform="translate(-36.34 -132.644)"/><path d="m80.494 135.525 18.9 15.135" style="fill:#d5d5ff;stroke:#f0f;stroke-width:.264583;stroke-linejoin:round;marker-start:url(#a);marker-end:url(#a)" transform="translate(-36.34 -132.644)"/><text xml:space="preserve" style="font-size:14.6667px;line-height:normal;font-family:&quot;Liberation Mono&quot;;-inkscape-font-specification:&quot;Liberation Mono&quot;;text-align:center;text-decoration-color:#000;white-space:pre;shape-inside:url(#b);display:inline;fill:#000;stroke-width:1;-inkscape-stroke:none;stop-color:#000" transform="translate(-63.295 -85.518)scale(.26458)"><tspan x="443.702" y="353.611">W2</tspan></text><text xml:space="preserve" style="font-size:14.6667px;line-height:normal;font-family:&quot;Liberation Mono&quot;;-inkscape-font-specification:&quot;Liberation Mono&quot;;text-align:center;text-decoration-color:#000;white-space:pre;shape-inside:url(#c);display:inline;fill:#000;stroke-width:1;-inkscape-stroke:none;stop-color:#000" transform="translate(-101.544 26.565)scale(.26458)"><tspan x="440.775" y="310.816">W1</tspan></text><text xml:space="preserve" style="font-size:14.6667px;line-height:normal;font-family:&quot;Liberation Mono&quot;;-inkscape-font-specification:&quot;Liberation Mono&quot;;text-decoration-color:#000;white-space:pre;shape-inside:url(#d);fill:#000;stroke-width:1;-inkscape-stroke:none;stop-color:#000" transform="translate(-67.09 -178.89)scale(.26458)"><tspan x="388.313" y="904.095">A1</tspan></text><text xml:space="preserve" style="font-size:14.6667px;line-height:normal;font-family:&quot;Liberation Mono&quot;;-inkscape-font-specification:&quot;Liberation Mono&quot;;text-decoration-color:#000;white-space:pre;shape-inside:url(#e);fill:#000;stroke-width:1;-inkscape-stroke:none;stop-color:#000" transform="translate(-42.06 -165.779)scale(.26458)"><tspan x="415.34" y="912.202">L1</tspan></text><text xml:space="preserve" style="font-size:14.6667px;line-height:normal;font-family:&quot;Liberation Mono&quot;;-inkscape-font-specification:&quot;Liberation Mono&quot;;text-decoration-color:#000;white-space:pre;shape-inside:url(#f);fill:#000;stroke-width:1;-inkscape-stroke:none;stop-color:#000" transform="translate(-65.66 -171.023)scale(.26458)"><tspan x="454.982" y="855.443">L2</tspan></text></svg>