<svg xmlns="http://www.w3.org/2000/svg" width="299.216" height="516.346" viewBox="0 0 79.168 136.617"><defs><path id="j" d="M345.93 1565.921h49.054v37.269H345.93z"/><path id="h" d="M104.511 1892.005h64.869v56.76h-64.869z"/><path id="e" d="M127.936 1849.66h70.274v51.354h-70.274z"/><path id="b" d="M345.687 1908.222h86.772v62.166h-86.772z"/><path id="c" d="M345.687 1908.222h86.772v62.166h-86.772z"/><path id="d" d="M345.687 1908.222h86.772v62.166h-86.772z"/><path id="f" d="M127.936 1849.66h70.274v51.354h-70.274z"/><path id="g" d="M127.936 1849.66h70.274v51.354h-70.274z"/><path id="i" d="M104.511 1892.005h64.869v56.76h-64.869z"/><marker id="a" markerHeight="1" markerWidth="1" orient="auto-start-reverse" preserveAspectRatio="xMidYMid" refX="0" refY="0" style="overflow:visible" viewBox="0 0 1 1"><path d="M3-3 0 0l3 3" style="fill:none;stroke:context-stroke;stroke-width:1;stroke-linecap:butt" transform="rotate(180 .125 0)"/></marker></defs><g transform="translate(-38.008 -364.586)"><path d="M38.14 364.718h78.903V501.07H38.14z" style="fill:#fff;stroke:#fff;stroke-width:.264583;stroke-linejoin:round;stroke-dasharray:none"/><path d="M91.716 469.166h13.121v17.081H91.716z" style="fill:#d7e3f4;stroke:#2c5aa0;stroke-width:.264585;stroke-linejoin:round"/><path d="M91.716 486.247h13.121v3.43H91.716zM91.716 465.736h13.121v3.43H91.716zM70.476 440.802h13.121v3.43H70.476z" style="fill:#ffe6d5;stroke:#f95;stroke-width:.264585;stroke-linejoin:round"/><path d="m70.476 444.232 21.24 21.504h13.121l-21.24-21.504Z" style="fill:#d5d5ff;stroke:#00a;stroke-width:.264583;stroke-linejoin:round"/><path d="M70.476 395.687h13.121v45.115H70.476z" style="fill:#d7e3f4;stroke:#2c5aa0;stroke-width:.264583;stroke-linejoin:round"/><path d="M70.476 392.258h13.121v3.43H70.476z" style="fill:#ffe6d5;stroke:#f95;stroke-width:.264585;stroke-linejoin:round"/><path d="M70.476-392.258h13.121v17.081H70.476z" style="fill:#f6d5ff;stroke:#d42aff;stroke-width:.264585;stroke-linejoin:round" transform="scale(1 -1)"/><path d="M73.016 402.644h8.04v31.201h-8.04z" style="fill:#fff;stroke:#2c5aa0;stroke-width:.264583;stroke-linejoin:round"/><path d="M411.697 67.039h13.095v3.437h-13.095z" style="fill:#ffe6d5;stroke:#f95;stroke-width:.264585;stroke-linejoin:round" transform="matrix(0 1 1 0 0 0)"/><path d="M411.697 49.924h13.095v17.115h-13.095z" style="fill:#f6d5ff;stroke:#d42aff;stroke-width:.264585;stroke-linejoin:round" transform="matrix(0 1 1 0 0 0)"/><path d="M-79.223-406.074h4.374v3.43h-4.374z" style="fill:#ffe6d5;stroke:#ff7f2a;stroke-width:.264583;stroke-linejoin:round" transform="scale(-1)"/><path d="M-79.223-414.092h4.374v8.018h-4.374z" style="fill:#f6ffd5;stroke:#668000;stroke-width:.264583;stroke-linejoin:round" transform="scale(-1)"/><ellipse cx="77.036" cy="410.083" rx="1.328" ry="1.325" style="fill:#fff;stroke:#668000;stroke-width:.264583;stroke-linejoin:round"/><path d="M-79.223 430.416h4.374v3.43h-4.374z" style="fill:#ffe6d5;stroke:#ff7f2a;stroke-width:.264583;stroke-linejoin:round" transform="scale(-1 1)"/><path d="M-79.223 422.398h4.374v8.018h-4.374z" style="fill:#f6ffd5;stroke:#668000;stroke-width:.264583;stroke-linejoin:round" transform="scale(-1 1)"/><ellipse cx="77.036" cy="-426.407" rx="1.328" ry="1.325" style="fill:#fff;stroke:#668000;stroke-width:.264583;stroke-linejoin:round" transform="scale(1 -1)"/><path d="M73.63-388.186h6.813v8.938H73.63z" style="fill:#fff;stroke:#d42aff;stroke-width:.264585;stroke-linejoin:round" transform="scale(1 -1)"/><path d="M91.716 491.794h13.121" style="fill:#fff;stroke:#000;stroke-width:.264583;stroke-linejoin:round;stroke-dasharray:none;marker-start:url(#a);marker-end:url(#a)"/><path d="M106.954 469.166v17.081" style="fill:#fff;stroke:#000;stroke-width:.264583;stroke-linejoin:round;stroke-dasharray:none;marker-start:url(#a);marker-end:url(#a)"/><path d="M48.336 411.697v13.095" style="fill:#fff;stroke:#000;stroke-width:.264583;stroke-linejoin:round;stroke-dasharray:none;marker-start:url(#a);marker-end:url(#a)"/><path d="M67.039 426.909H49.924" style="fill:#fff;stroke:#000;stroke-width:.264583;stroke-linejoin:round;stroke-dasharray:none;marker-start:url(#a);marker-end:url(#a)"/><path d="M85.713 395.687v45.115" style="fill:#fff;stroke:#000;stroke-width:.264583;stroke-linejoin:round;stroke-dasharray:none;marker-start:url(#a);marker-end:url(#a)"/><path d="M70.476 373.06h13.12" style="fill:#fff;stroke:#000;stroke-width:.264583;stroke-linejoin:round;stroke-dasharray:none;marker-start:url(#a);marker-end:url(#a)"/><path d="M85.713 375.176v17.082" style="fill:#fff;stroke:#000;stroke-width:.264583;stroke-linejoin:round;stroke-dasharray:none;marker-start:url(#a);marker-end:url(#a)"/><path d="M70.886 465.736h20.335" style="fill:#fff;stroke:#000;stroke-width:.264583;stroke-linejoin:round;stroke-dasharray:none;marker-start:url(#a);marker-end:url(#a)"/><path d="M70.476 444.976v20.27" style="fill:#fff;stroke:#000;stroke-width:.264583;stroke-linejoin:round;stroke-dasharray:none;marker-start:url(#a);marker-end:url(#a)"/><text xml:space="preserve" style="font-size:16px;line-height:normal;font-family:&quot;Liberation Mono&quot;;-inkscape-font-specification:&quot;Liberation Mono&quot;;text-decoration-color:#000;white-space:pre;shape-inside:url(#b);fill:#000;stroke-width:1;-inkscape-stroke:none;stop-color:#000" transform="translate(4.604 -10.8)scale(.26458)"><tspan x="345.688" y="1922.459">V1</tspan></text><text xml:space="preserve" style="font-size:16px;line-height:normal;font-family:&quot;Liberation Mono&quot;;-inkscape-font-specification:&quot;Liberation Mono&quot;;text-decoration-color:#000;white-space:pre;shape-inside:url(#c);display:inline;fill:#000;stroke-width:1;-inkscape-stroke:none;stop-color:#000" transform="translate(-50.233 -88.744)scale(.26458)"><tspan x="345.688" y="1922.459">V1</tspan></text><text xml:space="preserve" style="font-size:16px;line-height:normal;font-family:&quot;Liberation Mono&quot;;-inkscape-font-specification:&quot;Liberation Mono&quot;;text-decoration-color:#000;white-space:pre;shape-inside:url(#d);display:inline;fill:#000;stroke-width:1;-inkscape-stroke:none;stop-color:#000" transform="translate(-16.724 -136.658)scale(.26458)"><tspan x="345.688" y="1922.459">V1</tspan></text><text xml:space="preserve" style="font-size:16px;line-height:normal;font-family:&quot;Liberation Mono&quot;;-inkscape-font-specification:&quot;Liberation Mono&quot;;text-decoration-color:#000;white-space:pre;shape-inside:url(#e);fill:#000;stroke-width:1;-inkscape-stroke:none;stop-color:#000" transform="translate(73.978 -14.355)scale(.26458)"><tspan x="127.936" y="1863.897">V2</tspan></text><text xml:space="preserve" style="font-size:16px;line-height:normal;font-family:&quot;Liberation Mono&quot;;-inkscape-font-specification:&quot;Liberation Mono&quot;;text-decoration-color:#000;white-space:pre;shape-inside:url(#f);display:inline;fill:#000;stroke-width:1;-inkscape-stroke:none;stop-color:#000" transform="translate(53.29 -107.968)scale(.26458)"><tspan x="127.936" y="1863.897">V2</tspan></text><text xml:space="preserve" style="font-size:16px;line-height:normal;font-family:&quot;Liberation Mono&quot;;-inkscape-font-specification:&quot;Liberation Mono&quot;;text-decoration-color:#000;white-space:pre;shape-inside:url(#g);display:inline;fill:#000;stroke-width:1;-inkscape-stroke:none;stop-color:#000" transform="translate(20.913 -62.306)scale(.26458)"><tspan x="127.936" y="1863.897">V2</tspan></text><text xml:space="preserve" style="font-size:16px;line-height:normal;font-family:&quot;Liberation Mono&quot;;-inkscape-font-specification:&quot;Liberation Mono&quot;;text-decoration-color:#000;white-space:pre;shape-inside:url(#h);fill:#000;stroke-width:1;-inkscape-stroke:none;stop-color:#000" transform="translate(52.205 -34.326)scale(.26458)"><tspan x="104.512" y="1906.242">V3</tspan></text><text xml:space="preserve" style="font-size:16px;line-height:normal;font-family:&quot;Liberation Mono&quot;;-inkscape-font-specification:&quot;Liberation Mono&quot;;text-decoration-color:#000;white-space:pre;shape-inside:url(#i);display:inline;fill:#000;stroke-width:1;-inkscape-stroke:none;stop-color:#000" transform="translate(36.857 -47.337)scale(.26458)"><tspan x="104.512" y="1906.242">V3</tspan></text><text xml:space="preserve" style="font-size:16px;line-height:normal;font-family:&quot;Liberation Mono&quot;;-inkscape-font-specification:&quot;Liberation Mono&quot;;text-decoration-color:#000;white-space:pre;shape-inside:url(#j);fill:#000;stroke-width:1;-inkscape-stroke:none;stop-color:#000" transform="translate(-4.804 1.517)scale(.26458)"><tspan x="345.93" y="1580.158">V4</tspan></text></g></svg>