<svg xmlns="http://www.w3.org/2000/svg" width="518.148" height="201.012" viewBox="0 0 137.093 53.184"><defs><path id="i" d="M308.127 1188.36h54.958v48.652h-54.958z"/><path id="g" d="M98.204 1127.995H198.21v73.878H98.204z"/><path id="e" d="M392.549 1219.893h54.984v45.048h-54.984z"/><path id="d" d="M392.548 1120.788h72.494v63.968h-72.494z"/><path id="c" d="M265.864 1165.836h104.428v67.572H265.864z"/><path id="b" d="M457.685 1054.117h58.29v61.265h-58.29z"/><path id="f" d="M392.549 1219.893h54.984v45.048h-54.984z"/><marker id="a" markerHeight="1" markerWidth="1" orient="auto-start-reverse" preserveAspectRatio="xMidYMid" refX="0" refY="0" style="overflow:visible" viewBox="0 0 1 1"><path d="M3-3 0 0l3 3" style="fill:none;stroke:context-stroke;stroke-width:1;stroke-linecap:butt" transform="rotate(180 .125 0)"/></marker><marker id="h" markerHeight="1" markerWidth="1" orient="auto-start-reverse" preserveAspectRatio="xMidYMid" refX="0" refY="0" style="overflow:visible" viewBox="0 0 1 1"><path d="M3-3 0 0l3 3" style="fill:none;stroke:context-stroke;stroke-width:1;stroke-linecap:butt" transform="rotate(180 .125 0)"/></marker></defs><g transform="translate(-10.356 -234.67)"><path d="M10.489 234.802h136.829v52.92H10.489z" style="fill:#fff;stroke:#fff;stroke-width:.264583;stroke-linejoin:round;stroke-dasharray:none"/><path d="M-257.478 89.913h11.824v5.474h-11.824z" style="fill:#ffe6d5;stroke:#f95;stroke-width:.264583;stroke-linejoin:round" transform="rotate(-90)"/><path d="M69.011 273.219h20.902v5.535H69.011z" style="fill:#ffe6d5;stroke:#f95;stroke-width:.264584;stroke-linejoin:round"/><path d="M-257.478 63.537h11.824v5.474h-11.824z" style="fill:#ffe6d5;stroke:#f95;stroke-width:.264583;stroke-linejoin:round" transform="rotate(-90)"/><path d="M69.011 245.654h20.902v27.565H69.011z" style="fill:#d7e3f4;stroke:#2c5aa0;stroke-width:.264584;stroke-linejoin:round"/><path d="M73.016 249.688h12.892v19.497H73.016z" style="fill:#fff;stroke:#2c5aa0;stroke-width:.264583;stroke-linejoin:round"/><path d="M-257.478 41.113h11.824v5.474h-11.824z" style="fill:#ffe6d5;stroke:#f95;stroke-width:.264583;stroke-linejoin:round" transform="rotate(-90)"/><path d="M-257.478 46.587h11.824v16.949h-11.824z" style="fill:#d7f4d7;stroke:#2ca02c;stroke-width:.264583;stroke-linejoin:round" transform="rotate(-90)"/><path d="M-257.478 24.164h11.824v16.949h-11.824z" style="fill:#d5f6ff;stroke:#0cf;stroke-width:.264583;stroke-linejoin:round" transform="rotate(-90)"/><path d="M-257.478 112.336h11.824v5.474h-11.824z" style="fill:#ffe6d5;stroke:#f95;stroke-width:.264583;stroke-linejoin:round" transform="rotate(-90)"/><path d="M-257.478 95.387h11.824v16.949h-11.824z" style="fill:#d7f4d7;stroke:#2ca02c;stroke-width:.264583;stroke-linejoin:round" transform="rotate(-90)"/><path d="M-257.478 117.811h11.824v16.949h-11.824z" style="fill:#d5f6ff;stroke:#0cf;stroke-width:.264583;stroke-linejoin:round" transform="rotate(-90)"/><ellipse cx="126.285" cy="251.566" rx="3.11" ry="3.145" style="fill:#fff;stroke:#0cf;stroke-width:.264583;stroke-linejoin:round"/><ellipse cx="32.639" cy="251.566" rx="3.11" ry="3.145" style="fill:#fff;stroke:#0cf;stroke-width:.264583;stroke-linejoin:round"/><path d="M-82.946-253.316h6.967v3.628h-6.967z" style="fill:#ffe6d5;stroke:#ff7f2a;stroke-width:.264583;stroke-linejoin:round" transform="scale(-1)"/><path d="M-82.946-266.045h6.967v12.939h-6.967z" style="fill:#f6ffd5;stroke:#668000;stroke-width:.264582;stroke-linejoin:round" transform="scale(-1)"/><ellipse cx="79.462" cy="259.576" rx="2.115" ry="2.138" style="fill:#fff;stroke:#668000;stroke-width:.264583;stroke-linejoin:round"/><path d="M69.011 280.87h20.902" style="fill:#fff;stroke:#000;stroke-width:.264583;stroke-linejoin:round;stroke-dasharray:none;marker-start:url(#a);marker-end:url(#a)"/><path d="M137.406 245.654v11.824" style="fill:#fff;stroke:#000;stroke-width:.264583;stroke-linejoin:round;stroke-dasharray:none;marker-start:url(#a);marker-end:url(#a)"/><path d="M117.81 243.537h16.95" style="fill:#fff;stroke:#000;stroke-width:.264583;stroke-linejoin:round;stroke-dasharray:none;marker-start:url(#a);marker-end:url(#a)"/><path d="M65.947 258.397v13.999" style="fill:#fff;stroke:#000;stroke-width:.264583;stroke-linejoin:round;stroke-dasharray:none;marker-start:url(#a);marker-end:url(#a)"/><path d="M95.387 243.537h16.95" style="fill:#fff;stroke:#000;stroke-width:.264583;stroke-linejoin:round;stroke-dasharray:none;marker-start:url(#a);marker-end:url(#a)"/><path d="m134.23 258.537-12.233 10.696" style="fill:#fff;stroke:#000;stroke-width:.264583;stroke-linejoin:round;stroke-dasharray:none;marker-start:url(#a)"/><text xml:space="preserve" style="font-size:16px;line-height:normal;font-family:&quot;Liberation Mono&quot;;-inkscape-font-specification:&quot;Liberation Mono&quot;;text-decoration-color:#000;white-space:pre;shape-inside:url(#b);fill:#000;stroke-width:1;-inkscape-stroke:none;stop-color:#000" transform="translate(-5.292 -10.054)scale(.26458)"><tspan x="457.686" y="1068.354">R1</tspan></text><text xml:space="preserve" style="font-size:16px;line-height:normal;font-family:&quot;Liberation Mono&quot;;-inkscape-font-specification:&quot;Liberation Mono&quot;;text-decoration-color:#000;white-space:pre;shape-inside:url(#c);fill:#000;stroke-width:1;-inkscape-stroke:none;stop-color:#000" transform="translate(6.436 -27.413)scale(.26458)"><tspan x="265.863" y="1180.072">W1</tspan></text><text xml:space="preserve" style="font-size:16px;line-height:normal;font-family:&quot;Liberation Mono&quot;;-inkscape-font-specification:&quot;Liberation Mono&quot;;text-decoration-color:#000;white-space:pre;shape-inside:url(#d);fill:#000;stroke-width:1;-inkscape-stroke:none;stop-color:#000" transform="translate(35.28 -46.96)scale(.26458)"><tspan x="392.549" y="1135.024">W2</tspan></text><text xml:space="preserve" style="font-size:16px;line-height:normal;font-family:&quot;Liberation Mono&quot;;-inkscape-font-specification:&quot;Liberation Mono&quot;;text-decoration-color:#000;white-space:pre;shape-inside:url(#e);fill:#000;stroke-width:1;-inkscape-stroke:none;stop-color:#000" transform="translate(-1.669 -83.909)scale(.26458)"><tspan x="392.549" y="1234.129">W3</tspan></text><text xml:space="preserve" style="font-size:16px;line-height:normal;font-family:&quot;Liberation Mono&quot;;-inkscape-font-specification:&quot;Liberation Mono&quot;;text-decoration-color:#000;white-space:pre;shape-inside:url(#f);display:inline;fill:#000;stroke-width:1;-inkscape-stroke:none;stop-color:#000" transform="translate(20.201 -84.463)scale(.26458)"><tspan x="392.549" y="1234.129">W3</tspan></text><text xml:space="preserve" style="font-size:16px;line-height:normal;font-family:&quot;Liberation Mono&quot;;-inkscape-font-specification:&quot;Liberation Mono&quot;;text-decoration-color:#000;white-space:pre;shape-inside:url(#g);fill:#000;stroke-width:1;-inkscape-stroke:none;stop-color:#000" transform="translate(33.85 -35.757)scale(.26458)"><tspan x="98.203" y="1142.233">W4</tspan></text><path d="M98.927 264.308H86.054" style="fill:#fff;stroke:#000;stroke-width:.264583;stroke-linejoin:round;marker-end:url(#a)"/><path d="M79.208 264.32h3.755" style="fill:#fff;stroke:#000;stroke-width:.264583;stroke-linejoin:round;marker-end:url(#h)"/><text xml:space="preserve" style="font-size:16px;line-height:normal;font-family:&quot;Liberation Mono&quot;;-inkscape-font-specification:&quot;Liberation Mono&quot;;text-decoration-color:#000;white-space:pre;shape-inside:url(#i);fill:#000;stroke-width:1;-inkscape-stroke:none;stop-color:#000" transform="translate(18.832 -52.443)scale(.26458)"><tspan x="308.127" y="1202.596">E1</tspan></text></g></svg>