<svg xmlns="http://www.w3.org/2000/svg" width="560.493" height="515.445" viewBox="0 0 148.297 136.378"><defs><path id="h" d="M319.839 489.219h111.718v48.652H319.839z"/><path id="f" d="M156.316 653.643h63.067v42.795h-63.067z"/><path id="e" d="M499.579 583.368h87.393v100.907h-87.393z"/><path id="d" d="M492.822 226.14h39.192v49.553h-39.192z"/><path id="c" d="M44.597 258.124h41.444v41.894H44.597z"/><path id="a" d="M72.185 220.608h46.268v45.051H72.185z"/><marker id="b" markerHeight="1" markerWidth="1" orient="auto-start-reverse" preserveAspectRatio="xMidYMid" refX="0" refY="0" style="overflow:visible" viewBox="0 0 1 1"><path d="M3-3 0 0l3 3" style="fill:none;stroke:context-stroke;stroke-width:1;stroke-linecap:butt" transform="rotate(180 .125 0)"/></marker><marker id="g" markerHeight="1" markerWidth="1" orient="auto-start-reverse" preserveAspectRatio="xMidYMid" refX="0" refY="0" style="overflow:visible" viewBox="0 0 1 1"><path d="M3-3 0 0l3 3" style="fill:none;stroke:context-stroke;stroke-width:1;stroke-linecap:butt" transform="rotate(180 .125 0)"/></marker></defs><g transform="translate(-6.304 -43.73)"><path d="M6.436 43.861h148.033v136.114H6.436z" style="fill:#fff;stroke:#fff;stroke-width:.264583;stroke-linejoin:round;stroke-dasharray:none"/><circle cx="77.031" cy="111.923" r="53.77" style="fill:#d7f4d7;stroke:#37c837;stroke-width:.264583;stroke-linejoin:round"/><circle cx="77.031" cy="111.923" r="46.3" style="fill:#fff;stroke:#37c837;stroke-width:.264583;stroke-linejoin:round"/><path d="M-80.571-76.711h7.079v9.234h-7.079z" style="fill:#d7e3f4;stroke:#2c5aa0;stroke-width:.264584;stroke-linejoin:round" transform="scale(-1)"/><path d="M-80.571-67.477h7.079v1.854h-7.079zM-80.571-78.565h7.079v1.854h-7.079zM-92.641-90.598h7.079v1.854h-7.079z" style="fill:#ffe6d5;stroke:#f95;stroke-width:.264584;stroke-linejoin:round" transform="scale(-1)"/><path d="M92.64 88.743 80.572 78.565h-7.08l12.07 10.178z" style="fill:#d5d5ff;stroke:#00a;stroke-width:.264583;stroke-linejoin:round"/><path d="M-92.641-114.988h7.079v24.39h-7.079z" style="fill:#d7e3f4;stroke:#2c5aa0;stroke-width:.264583;stroke-linejoin:round" transform="scale(-1)"/><path d="M-92.641-116.842h7.079v1.854h-7.079z" style="fill:#ffe6d5;stroke:#f95;stroke-width:.264584;stroke-linejoin:round" transform="scale(-1)"/><path d="M-92.641 116.842h7.079v9.234h-7.079z" style="fill:#f6d5ff;stroke:#d42aff;stroke-width:.264584;stroke-linejoin:round" transform="scale(-1 1)"/><path d="M-91.27-111.227h4.338v16.868h-4.338z" style="fill:#fff;stroke:#2c5aa0;stroke-width:.264583;stroke-linejoin:round" transform="scale(-1)"/><path d="M-106.332-94.495h7.079v1.854h-7.079z" style="fill:#ffe6d5;stroke:#f95;stroke-width:.264584;stroke-linejoin:round" transform="rotate(90)scale(-1 1)"/><path d="M-106.332-103.729h7.079v9.234h-7.079z" style="fill:#f6d5ff;stroke:#d42aff;stroke-width:.264584;stroke-linejoin:round" transform="rotate(90)scale(-1 1)"/><path d="M87.921 109.373h2.36v1.854h-2.36z" style="fill:#ffe6d5;stroke:#ff7f2a;stroke-width:.264583;stroke-linejoin:round"/><path d="M87.921 105.038h2.36v4.335h-2.36z" style="fill:#f6ffd5;stroke:#668000;stroke-width:.264582;stroke-linejoin:round"/><circle cx="-89.101" cy="-107.205" r=".716" style="fill:#fff;stroke:#668000;stroke-width:.264583;stroke-linejoin:round" transform="scale(-1)"/><path d="M87.921-96.213h2.36v1.854h-2.36z" style="fill:#ffe6d5;stroke:#ff7f2a;stroke-width:.264583;stroke-linejoin:round" transform="scale(1 -1)"/><path d="M87.921-100.547h2.36v4.335h-2.36z" style="fill:#f6ffd5;stroke:#668000;stroke-width:.264582;stroke-linejoin:round" transform="scale(1 -1)"/><circle cx="-89.101" cy="98.38" r=".716" style="fill:#fff;stroke:#668000;stroke-width:.264583;stroke-linejoin:round" transform="scale(-1 1)"/><path d="M-90.939 119.043h3.676v4.832h-3.676z" style="fill:#fff;stroke:#d42aff;stroke-width:.264584;stroke-linejoin:round" transform="scale(-1 1)"/><path d="M-51.109 80.571h3.961v1.854h-3.961z" style="fill:#ffe6d5;stroke:#f95;stroke-width:.264583;stroke-linejoin:round" transform="rotate(-90)"/><path d="M73.491 56.383h7.079v1.854h-7.079z" style="fill:#ffe6d5;stroke:#f95;stroke-width:.264584;stroke-linejoin:round"/><path d="M-51.109 71.637h3.961v1.854h-3.961z" style="fill:#ffe6d5;stroke:#f95;stroke-width:.264583;stroke-linejoin:round" transform="rotate(-90)"/><path d="M73.491 47.148h7.079v9.234h-7.079zM73.895 147.128h7.079v9.234h-7.079z" style="fill:#d7e3f4;stroke:#2c5aa0;stroke-width:.264584;stroke-linejoin:round"/><path d="M74.848 48.5h4.366v6.532h-4.366z" style="fill:#fff;stroke:#2c5aa0;stroke-width:.264583;stroke-linejoin:round"/><path d="M-51.109 64.043h3.961v1.854h-3.961z" style="fill:#ffe6d5;stroke:#f95;stroke-width:.264583;stroke-linejoin:round" transform="rotate(-90)"/><path d="M-51.109 65.897h3.961v5.741h-3.961z" style="fill:#d7f4d7;stroke:#2ca02c;stroke-width:.264583;stroke-linejoin:round" transform="rotate(-90)"/><path d="M-51.109 58.302h3.961v5.741h-3.961z" style="fill:#d5f6ff;stroke:#0cf;stroke-width:.264583;stroke-linejoin:round" transform="rotate(-90)"/><path d="M-51.109 88.166h3.961v1.854h-3.961z" style="fill:#ffe6d5;stroke:#f95;stroke-width:.264583;stroke-linejoin:round" transform="rotate(-90)"/><path d="M-51.109 82.425h3.961v5.741h-3.961z" style="fill:#d7f4d7;stroke:#2ca02c;stroke-width:.264583;stroke-linejoin:round" transform="rotate(-90)"/><path d="M-51.109 90.02h3.961v5.741h-3.961z" style="fill:#d5f6ff;stroke:#0cf;stroke-width:.264583;stroke-linejoin:round" transform="rotate(-90)"/><circle cx="92.89" cy="49.129" r="1.053" style="fill:#fff;stroke:#0cf;stroke-width:.264583;stroke-linejoin:round"/><circle cx="61.172" cy="49.129" r="1.053" style="fill:#fff;stroke:#0cf;stroke-width:.264583;stroke-linejoin:round"/><path d="M-78.211-50.354h2.36v1.854h-2.36z" style="fill:#ffe6d5;stroke:#ff7f2a;stroke-width:.264583;stroke-linejoin:round" transform="scale(-1)"/><path d="M-78.211-54.688h2.36v4.335h-2.36z" style="fill:#f6ffd5;stroke:#668000;stroke-width:.264582;stroke-linejoin:round" transform="scale(-1)"/><circle cx="77.031" cy="52.521" r=".716" style="fill:#fff;stroke:#668000;stroke-width:.264583;stroke-linejoin:round"/><path d="M185.451 56.886h3.961v1.854h-3.961z" style="fill:#ffe6d5;stroke:#f95;stroke-width:.264583;stroke-linejoin:round" transform="rotate(31.91)"/><path d="M49.806-180.178h7.079v1.854h-7.079z" style="fill:#ffe6d5;stroke:#f95;stroke-width:.264584;stroke-linejoin:round" transform="rotate(121.91)"/><path d="M185.451 47.952h3.961v1.854h-3.961z" style="fill:#ffe6d5;stroke:#f95;stroke-width:.264583;stroke-linejoin:round" transform="rotate(31.91)"/><path d="M49.806-189.412h7.079v9.234h-7.079z" style="fill:#d7e3f4;stroke:#2c5aa0;stroke-width:.264584;stroke-linejoin:round" transform="rotate(121.91)"/><path d="M51.163-188.061h4.366v6.532h-4.366z" style="fill:#fff;stroke:#2c5aa0;stroke-width:.264583;stroke-linejoin:round" transform="rotate(121.91)"/><path d="M185.451 40.357h3.961v1.854h-3.961z" style="fill:#ffe6d5;stroke:#f95;stroke-width:.264583;stroke-linejoin:round" transform="rotate(31.91)"/><path d="M185.451 42.211h3.961v5.741h-3.961z" style="fill:#d7f4d7;stroke:#2ca02c;stroke-width:.264583;stroke-linejoin:round" transform="rotate(31.91)"/><path d="M185.451 34.617h3.961v5.741h-3.961z" style="fill:#d5f6ff;stroke:#0cf;stroke-width:.264583;stroke-linejoin:round" transform="rotate(31.91)"/><path d="M185.451 64.481h3.961v1.854h-3.961z" style="fill:#ffe6d5;stroke:#f95;stroke-width:.264583;stroke-linejoin:round" transform="rotate(31.91)"/><path d="M185.451 58.74h3.961v5.741h-3.961z" style="fill:#d7f4d7;stroke:#2ca02c;stroke-width:.264583;stroke-linejoin:round" transform="rotate(31.91)"/><path d="M185.451 66.335h3.961v5.741h-3.961z" style="fill:#d5f6ff;stroke:#0cf;stroke-width:.264583;stroke-linejoin:round" transform="rotate(31.91)"/><circle cx="69.205" cy="-187.432" r="1.053" style="fill:#fff;stroke:#0cf;stroke-width:.264583;stroke-linejoin:round" transform="rotate(121.91)"/><circle cx="37.487" cy="-187.432" r="1.053" style="fill:#fff;stroke:#0cf;stroke-width:.264583;stroke-linejoin:round" transform="rotate(121.91)"/><path d="M-54.526 186.207h2.36v1.854h-2.36z" style="fill:#ffe6d5;stroke:#ff7f2a;stroke-width:.264583;stroke-linejoin:round" transform="rotate(-58.09)"/><path d="M-54.526 181.872h2.36v4.335h-2.36z" style="fill:#f6ffd5;stroke:#668000;stroke-width:.264582;stroke-linejoin:round" transform="rotate(-58.09)"/><circle cx="53.346" cy="-184.039" r=".716" style="fill:#fff;stroke:#668000;stroke-width:.264583;stroke-linejoin:round" transform="rotate(121.91)"/><path d="M59.099 139.031h3.961v1.854h-3.961z" style="fill:#ffe6d5;stroke:#f95;stroke-width:.264583;stroke-linejoin:round" transform="rotate(146.23)scale(1 -1)"/><path d="M131.952-53.825h7.079v1.854h-7.079z" style="fill:#ffe6d5;stroke:#f95;stroke-width:.264584;stroke-linejoin:round" transform="rotate(56.23)scale(1 -1)"/><path d="M59.099 130.098h3.961v1.854h-3.961z" style="fill:#ffe6d5;stroke:#f95;stroke-width:.264583;stroke-linejoin:round" transform="rotate(146.23)scale(1 -1)"/><path d="M131.952-63.06h7.079v9.234h-7.079z" style="fill:#d7e3f4;stroke:#2c5aa0;stroke-width:.264584;stroke-linejoin:round" transform="rotate(56.23)scale(1 -1)"/><path d="M133.308-61.709h4.366v6.532h-4.366z" style="fill:#fff;stroke:#2c5aa0;stroke-width:.264583;stroke-linejoin:round" transform="rotate(56.23)scale(1 -1)"/><path d="M59.099 122.503h3.961v1.854h-3.961z" style="fill:#ffe6d5;stroke:#f95;stroke-width:.264583;stroke-linejoin:round" transform="rotate(146.23)scale(1 -1)"/><path d="M59.099 124.357h3.961v5.741h-3.961z" style="fill:#d7f4d7;stroke:#2ca02c;stroke-width:.264583;stroke-linejoin:round" transform="rotate(146.23)scale(1 -1)"/><path d="M59.099 116.762h3.961v5.741h-3.961z" style="fill:#d5f6ff;stroke:#0cf;stroke-width:.264583;stroke-linejoin:round" transform="rotate(146.23)scale(1 -1)"/><path d="M59.099 146.626h3.961v1.854h-3.961z" style="fill:#ffe6d5;stroke:#f95;stroke-width:.264583;stroke-linejoin:round" transform="rotate(146.23)scale(1 -1)"/><path d="M59.099 140.885h3.961v5.741h-3.961z" style="fill:#d7f4d7;stroke:#2ca02c;stroke-width:.264583;stroke-linejoin:round" transform="rotate(146.23)scale(1 -1)"/><path d="M59.099 148.48h3.961v5.741h-3.961z" style="fill:#d5f6ff;stroke:#0cf;stroke-width:.264583;stroke-linejoin:round" transform="rotate(146.23)scale(1 -1)"/><circle cx="151.35" cy="-61.079" r="1.053" style="fill:#fff;stroke:#0cf;stroke-width:.264583;stroke-linejoin:round" transform="rotate(56.23)scale(1 -1)"/><circle cx="119.632" cy="-61.079" r="1.053" style="fill:#fff;stroke:#0cf;stroke-width:.264583;stroke-linejoin:round" transform="rotate(56.23)scale(1 -1)"/><path d="M-136.671 59.854h2.36v1.854h-2.36z" style="fill:#ffe6d5;stroke:#ff7f2a;stroke-width:.264583;stroke-linejoin:round" transform="rotate(56.23)scale(-1 1)"/><path d="M-136.671 55.52h2.36v4.335h-2.36z" style="fill:#f6ffd5;stroke:#668000;stroke-width:.264582;stroke-linejoin:round" transform="rotate(56.23)scale(-1 1)"/><circle cx="135.491" cy="-57.687" r=".716" style="fill:#fff;stroke:#668000;stroke-width:.264583;stroke-linejoin:round" transform="rotate(56.23)scale(1 -1)"/><path d="M73.895 156.363h7.079v1.854h-7.079zM73.895 145.274h7.079v1.854h-7.079zM61.825 133.242h7.079v1.854h-7.079z" style="fill:#ffe6d5;stroke:#f95;stroke-width:.264584;stroke-linejoin:round"/><path d="m61.825 135.096 12.07 10.178h7.079l-12.07-10.178Z" style="fill:#d5d5ff;stroke:#00a;stroke-width:.264583;stroke-linejoin:round"/><path d="M61.825 108.852h7.079v24.39h-7.079z" style="fill:#d7e3f4;stroke:#2c5aa0;stroke-width:.264583;stroke-linejoin:round"/><path d="M61.825 106.997h7.079v1.854h-7.079z" style="fill:#ffe6d5;stroke:#f95;stroke-width:.264584;stroke-linejoin:round"/><path d="M61.825-106.997h7.079v9.234h-7.079z" style="fill:#f6d5ff;stroke:#d42aff;stroke-width:.264584;stroke-linejoin:round" transform="scale(1 -1)"/><path d="M63.195 112.613h4.338v16.868h-4.338z" style="fill:#fff;stroke:#2c5aa0;stroke-width:.264583;stroke-linejoin:round"/><path d="M117.507 59.97h7.079v1.854h-7.079z" style="fill:#ffe6d5;stroke:#f95;stroke-width:.264584;stroke-linejoin:round" transform="matrix(0 1 1 0 0 0)"/><path d="M117.507 50.736h7.079v9.234h-7.079z" style="fill:#f6d5ff;stroke:#d42aff;stroke-width:.264584;stroke-linejoin:round" transform="matrix(0 1 1 0 0 0)"/><path d="M-66.544-114.467h2.36v1.854h-2.36z" style="fill:#ffe6d5;stroke:#ff7f2a;stroke-width:.264583;stroke-linejoin:round" transform="scale(-1)"/><path d="M-66.544-118.801h2.36v4.335h-2.36z" style="fill:#f6ffd5;stroke:#668000;stroke-width:.264582;stroke-linejoin:round" transform="scale(-1)"/><circle cx="65.364" cy="116.634" r=".716" style="fill:#fff;stroke:#668000;stroke-width:.264583;stroke-linejoin:round"/><path d="M-66.544 127.626h2.36v1.854h-2.36z" style="fill:#ffe6d5;stroke:#ff7f2a;stroke-width:.264583;stroke-linejoin:round" transform="scale(-1 1)"/><path d="M-66.544 123.292h2.36v4.335h-2.36z" style="fill:#f6ffd5;stroke:#668000;stroke-width:.264582;stroke-linejoin:round" transform="scale(-1 1)"/><circle cx="65.364" cy="-125.459" r=".716" style="fill:#fff;stroke:#668000;stroke-width:.264583;stroke-linejoin:round" transform="scale(1 -1)"/><path d="M63.526-104.796h3.676v4.832h-3.676z" style="fill:#fff;stroke:#d42aff;stroke-width:.264584;stroke-linejoin:round" transform="scale(1 -1)"/><text xml:space="preserve" style="font-size:16px;line-height:normal;font-family:&quot;Liberation Mono&quot;;-inkscape-font-specification:&quot;Liberation Mono&quot;;text-decoration-color:#000;white-space:pre;shape-inside:url(#a);display:inline;fill:#000;stroke-width:1;-inkscape-stroke:none;stop-color:#000" transform="translate(3.099 -.954)scale(.26458)"><tspan x="72.186" y="234.844">D1</tspan></text><path d="m25.149 61.62 18.474 17.045" style="fill:#000;stroke:#000;stroke-width:.264583;stroke-linejoin:round;stroke-dasharray:none;marker-end:url(#b)"/><text xml:space="preserve" style="font-size:16px;line-height:normal;font-family:&quot;Liberation Mono&quot;;-inkscape-font-specification:&quot;Liberation Mono&quot;;text-decoration-color:#000;white-space:pre;shape-inside:url(#c);display:inline;fill:#000;stroke-width:1;-inkscape-stroke:none;stop-color:#000" transform="translate(6.088 4.405)scale(.26458)"><tspan x="44.598" y="272.359">E2</tspan></text><path d="m23.024 75.835 8.808 5.652" style="fill:#000;stroke:#000;stroke-width:.264583;stroke-linejoin:round;stroke-dasharray:none;marker-end:url(#b)"/><text xml:space="preserve" style="font-size:16px;line-height:normal;font-family:&quot;Liberation Mono&quot;;-inkscape-font-specification:&quot;Liberation Mono&quot;;text-decoration-color:#000;white-space:pre;shape-inside:url(#d);display:inline;fill:#000;stroke-width:1;-inkscape-stroke:none;stop-color:#000" transform="scale(.26458)"><tspan x="492.822" y="240.377">N1</tspan></text><path d="M97.377 50.06 129.44 61.5" style="fill:#000;stroke:#000;stroke-width:.264583;stroke-linejoin:round;stroke-dasharray:none;marker-start:url(#b)"/><path d="m133.253 64.839 5.006 60.905" style="fill:#000;stroke:#000;stroke-width:.264583;stroke-linejoin:round;stroke-dasharray:none;marker-end:url(#b)"/><text xml:space="preserve" style="font-size:16px;line-height:normal;font-family:&quot;Liberation Mono&quot;;-inkscape-font-specification:&quot;Liberation Mono&quot;;text-decoration-color:#000;white-space:pre;shape-inside:url(#e);display:inline;fill:#000;stroke-width:1;-inkscape-stroke:none;stop-color:#000" transform="scale(.26458)"><tspan x="499.58" y="597.606">Jangle
</tspan><tspan x="499.58" y="617.606">JradiusF
</tspan><tspan x="499.58" y="637.606">Jneutral
</tspan><tspan x="499.58" y="657.606">Jmark</tspan></text><path d="m127.055 156.733 5.245-.357" style="fill:#000;stroke:#000;stroke-width:.264583;stroke-linejoin:round;stroke-dasharray:none;marker-start:url(#b)"/><path d="m131.108 150.059 5.244 4.648" style="fill:#000;stroke:#000;stroke-width:.264583;stroke-linejoin:round;stroke-dasharray:none;marker-start:url(#b)"/><path d="m135.16 142.55 1.788 12.276" style="fill:#000;stroke:#000;stroke-width:.264583;stroke-linejoin:round;stroke-dasharray:none;marker-start:url(#b)"/><path d="M139.213 136.233 137.9 155.17" style="fill:#000;stroke:#000;stroke-width:.264583;stroke-linejoin:round;stroke-dasharray:none;marker-start:url(#b)"/><text xml:space="preserve" style="font-size:16px;line-height:normal;font-family:&quot;Liberation Mono&quot;;-inkscape-font-specification:&quot;Liberation Mono&quot;;text-decoration-color:#000;white-space:pre;shape-inside:url(#f);display:inline;fill:#000;stroke-width:1;-inkscape-stroke:none;stop-color:#000" transform="translate(-26.698 -13.35)scale(.26458)"><tspan x="156.316" y="667.879">Th</tspan></text><path d="m20.381 165.792 2.146-6.794" style="fill:#000;stroke:#000;stroke-width:.264583;stroke-linejoin:round;stroke-dasharray:none;marker-end:url(#b)"/><path d="m48.206 92.032-8.808-5.652" style="fill:#000;stroke:#000;stroke-width:.264583;stroke-linejoin:round;stroke-dasharray:none;marker-end:url(#g)"/><text xml:space="preserve" style="font-size:16px;line-height:normal;font-family:&quot;Liberation Mono&quot;;-inkscape-font-specification:&quot;Liberation Mono&quot;;text-decoration-color:#000;white-space:pre;shape-inside:url(#h);display:inline;fill:#000;stroke-width:1;-inkscape-stroke:none;stop-color:#000" transform="translate(-43.861 37.664)scale(.26458)"><tspan x="319.84" y="503.455">JradiusI</tspan></text><path d="m60.786 166.864 11.68-9.058" style="fill:#fff;stroke:#000;stroke-width:.264583;stroke-linejoin:round;marker-end:url(#b)"/><path d="m59.833 166.626 12.872-19.785" style="fill:#fff;stroke:#000;stroke-width:.264583;stroke-linejoin:round;marker-end:url(#b)"/><path d="m58.88 166.626 2.383-30.512" style="fill:#fff;stroke:#000;stroke-width:.264583;stroke-linejoin:round;marker-end:url(#b)"/></g></svg>