<svg xmlns="http://www.w3.org/2000/svg" width="503.695" height="649.911" viewBox="0 0 133.269 171.956"><defs><path id="o" d="M403.321 2496.438h66.73v38.934h-66.73z"/><path id="b" d="M236.905 141.74h102.962v36.323H236.905z"/><path id="c" d="M216.194 301.719h27.439v26.021h-27.439z"/><path id="d" d="M139.788 124.196h48.439v28.363h-48.439z"/><path id="e" d="M199.635 729.329H389.63v67.213H199.635z"/><path id="g" d="M175.011 412.781h57v44.738h-57z"/><path id="h" d="M176.559 413.805h53.996v27.11h-53.996z"/><path id="i" d="M187.631 316.473h52.552v32.574h-52.552z"/><path id="j" d="M117.859 618.74h60.16v47.686h-60.16z"/><path id="k" d="M117.859 618.74h60.16v47.686h-60.16z"/><path id="l" d="M145.643 643.896h49.305v31.562h-49.305z"/><path id="m" d="M104.481 639.313h51.623v30.696h-51.623z"/><path id="n" d="M480.158 247.583h48.968v35.697h-48.968z"/><marker id="a" markerHeight="1" markerWidth="1" orient="auto-start-reverse" preserveAspectRatio="xMidYMid" refX="0" refY="0" style="overflow:visible" viewBox="0 0 1 1"><path d="M3-3 0 0l3 3" style="fill:none;stroke:context-stroke;stroke-width:1;stroke-linecap:butt" transform="rotate(180,0.125,0)"/></marker><marker id="f" markerHeight="1" markerWidth="1" orient="auto-start-reverse" preserveAspectRatio="xMidYMid" refX="0" refY="0" style="overflow:visible" viewBox="0 0 1 1"><path d="M3-3 0 0l3 3" style="fill:none;stroke:context-stroke;stroke-width:1;stroke-linecap:butt" transform="rotate(180,0.125,0)"/></marker></defs><g transform="translate(-13.536886,-664.87128)"><path d="M13.669 665.004h133.005v171.691H13.669z" style="fill:#fff;stroke:#fff;stroke-width:.264583"/><path d="M78.92 755.485 65.123 687.61" style="fill:#666;stroke:#b3b3b3;stroke-width:.264583"/><path d="m78.92 755.485-2.588-55.098" style="fill:none;stroke:#ccc;stroke-width:.264583"/><path d="m68.6 704.736 8.76 18.125" style="fill:none;stroke:#a80;stroke-width:.264583"/><circle cx="78.92" cy="755.485" r="59.662" style="fill:none;stroke:teal;stroke-width:.264583"/><circle cx="78.92" cy="755.485" r="51.867" style="fill:none;stroke:teal;stroke-width:.264583"/><path d="m52.689 689.657 26.231 65.828 17.9-66.646" style="fill:none;stroke:gray;stroke-width:.264583"/><path d="M57.367 699.873s2.922-1.114 4.425-1.538c2.887-.815 5.821-1.5 8.79-1.926a58.6 58.6 0 0 1 8.338-.586c2.793 0 5.585.248 8.357.588 2.212.272 4.103.26 6.584 1.16" style="fill:none;stroke:red;stroke-width:.529167;marker-start:url(#a);marker-end:url(#a)"/><text xml:space="preserve" style="font-size:14.6667px;line-height:normal;font-family:&quot;Liberation Mono&quot;;-inkscape-font-specification:&quot;Liberation Mono&quot;;text-align:center;text-decoration-color:#000;white-space:pre;shape-inside:url(#b);display:inline;fill:red;stroke-width:1;-inkscape-stroke:none;stop-color:#000" transform="matrix(0.26458333,0,0,0.26458333,-0.49990974,652.98411)"><tspan x="275.184" y="154.79">pim</tspan></text><circle cx="78.92" cy="755.485" r="40.245" style="fill:none;stroke:#999;stroke-width:.264583"/><ellipse cx="76.936" cy="710.145" rx="5.201" ry="5.034" style="fill:none;stroke:#999;stroke-width:.264583"/><path d="m72.056 711.863-3.456-7.127M81.854 711.606l2.98-7.642M68.6 704.736c-6.97 1.035-11.32 3.648-15.96 6.086M72.056 711.863s.79 1.453 1.383 2.009c.469.437 1.054.758 1.655.98.585.218 1.22.354 1.842.327a6.3 6.3 0 0 0 2.673-.716c.579-.308 1.084-.77 1.483-1.29.353-.462.762-1.567.762-1.567" style="fill:none;stroke:#f60;stroke-width:.529167"/><path d="M75.45 718.513s.468-.269.738-.31c.336-.05 1.017.094 1.017.094" style="fill:none;stroke:green;stroke-width:.264583"/><text xml:space="preserve" style="font-size:14.6667px;line-height:normal;font-family:&quot;Liberation Mono&quot;;-inkscape-font-specification:&quot;Liberation Mono&quot;;text-align:center;text-decoration-color:#000;white-space:pre;shape-inside:url(#c);display:inline;fill:green;stroke-width:1;-inkscape-stroke:none;stop-color:#000" transform="matrix(0.26458333,0,0,0.26458333,19.017329,636.88498)"><tspan x="221.112" y="314.769">ha</tspan></text><text xml:space="preserve" style="font-size:14.6667px;line-height:normal;font-family:&quot;Liberation Mono&quot;;-inkscape-font-specification:&quot;Liberation Mono&quot;;text-align:center;text-decoration-color:#000;white-space:pre;shape-inside:url(#d);display:inline;fill:#000;stroke-width:1;-inkscape-stroke:none;stop-color:#000" transform="matrix(0.26458333,0,0,0.26458333,58.162729,641.89912)"><tspan x="155.205" y="137.245">zn</tspan></text><path d="m101.78 680.015 1.058 12.622" style="fill:none;stroke:#000;stroke-width:.264583;marker-end:url(#a)"/><path d="m99.47 679.307-6.043 8.456" style="fill:none;stroke:#000;stroke-width:.264583;marker-end:url(#a)"/><path d="M19.258 755.485v73.276M138.582 755.485v73.276" style="fill:none;stroke:#b3b3b3;stroke-width:.264583"/><path d="M19.258 828.76h119.324" style="fill:none;stroke:#666;stroke-width:.264583;marker-start:url(#a);marker-end:url(#a)"/><text xml:space="preserve" style="font-size:14.6667px;line-height:normal;font-family:&quot;Liberation Mono&quot;;-inkscape-font-specification:&quot;Liberation Mono&quot;;text-align:center;text-decoration-color:#000;white-space:pre;shape-inside:url(#e);display:inline;fill:#666;stroke-width:1;-inkscape-stroke:none;stop-color:#000" transform="matrix(0.26458333,0,0,0.26458333,-1.8098087,637.0539)"><tspan x="255.025" y="742.378">zn*pim/Pi</tspan></text><path d="M19.48 755.485h7.17" style="fill:none;stroke:#000;stroke-width:.264583;marker-start:url(#a);marker-end:url(#a)"/><path d="M27.304 755.485h11.303" style="fill:none;stroke:#000;stroke-width:.264584;marker-start:url(#f);marker-end:url(#f)"/><text xml:space="preserve" style="font-size:14.6667px;line-height:normal;font-family:&quot;Liberation Mono&quot;;-inkscape-font-specification:&quot;Liberation Mono&quot;;text-align:center;text-decoration-color:#000;white-space:pre;shape-inside:url(#g);display:inline;fill:#000;stroke-width:1;-inkscape-stroke:none;stop-color:#000" transform="matrix(0.26458333,0,0,0.26458333,-30.930197,640.94403)"><tspan x="194.71" y="425.831">bw</tspan></text><text xml:space="preserve" style="font-size:14.6667px;line-height:normal;font-family:&quot;Liberation Mono&quot;;-inkscape-font-specification:&quot;Liberation Mono&quot;;text-align:center;text-decoration-color:#000;white-space:pre;shape-inside:url(#h);display:inline;fill:#000;stroke-width:1;-inkscape-stroke:none;stop-color:#000" transform="matrix(0.26458333,0,0,0.26458333,-21.254942,641.37432)"><tspan x="194.755" y="426.855">nw</tspan></text><path d="m78.92 755.485-33.613-57.11" style="fill:#666;stroke:#b3b3b3;stroke-width:.264583"/><circle cx="78.92" cy="755.672" r="27.784" style="fill:none;stroke:#f60;stroke-width:.264583"/><path d="m59.682 707.377 8.884 22.179" style="fill:green;stroke:purple;stroke-width:.264583;marker-start:url(#a);marker-end:url(#f)"/><text xml:space="preserve" style="font-size:14.6667px;line-height:normal;font-family:&quot;Liberation Mono&quot;;-inkscape-font-specification:&quot;Liberation Mono&quot;;text-align:center;text-decoration-color:#000;white-space:pre;shape-inside:url(#i);display:inline;fill:purple;stroke-width:1;-inkscape-stroke:none;stop-color:#000" transform="matrix(0.26458333,0,0,0.26458333,10.243416,632.52102)"><tspan x="205.105" y="329.523">rw</tspan></text><path d="M97.697 715.603 99 707.79M105.837 721.062l6.852-4.51M112.689 716.553c4.265 3.129 7.569 7.031 9.95 11.256M99 707.79c-4.246-1.902-8.518-3.762-14.02-3.635M97.697 715.603s-.198 1.643-.035 2.439c.13.628.421 1.228.783 1.758.351.515.79.993 1.313 1.331.775.501 1.68.845 2.595.963.65.083 1.33-.002 1.956-.196.555-.171 1.528-.836 1.528-.836" style="fill:none;stroke:#f60;stroke-width:.529167"/><path d="m80.474 705.85 6.012-31.296" style="fill:none;stroke:#000;stroke-width:.264583;marker-start:url(#a)"/><text xml:space="preserve" style="font-size:14.6667px;line-height:normal;font-family:&quot;Liberation Mono&quot;;-inkscape-font-specification:&quot;Liberation Mono&quot;;text-align:center;text-decoration-color:#000;white-space:pre;shape-inside:url(#j);display:inline;fill:#999;stroke-width:1;-inkscape-stroke:none;stop-color:#000" transform="matrix(0.26458333,0,0,0.26458333,0.12305226,638.08245)"><tspan x="139.138" y="631.79">R1</tspan></text><text xml:space="preserve" style="font-size:14.6667px;line-height:normal;font-family:&quot;Liberation Mono&quot;;-inkscape-font-specification:&quot;Liberation Mono&quot;;text-align:center;text-decoration-color:#000;white-space:pre;shape-inside:url(#k);display:inline;fill:#999;stroke-width:1;-inkscape-stroke:none;stop-color:#000" transform="matrix(0.26458333,0,0,0.26458333,14.397331,637.49817)"><tspan x="139.138" y="631.79">R2</tspan></text><text xml:space="preserve" style="font-size:14.6667px;line-height:normal;font-family:&quot;Liberation Mono&quot;;-inkscape-font-specification:&quot;Liberation Mono&quot;;text-align:center;text-decoration-color:#000;white-space:pre;shape-inside:url(#l);display:inline;fill:#999;stroke-width:1;-inkscape-stroke:none;stop-color:#000" transform="matrix(0.26458333,0,0,0.26458333,20.024446,623.90789)"><tspan x="161.493" y="656.947">R3</tspan></text><text xml:space="preserve" style="font-size:14.6667px;line-height:normal;font-family:&quot;Liberation Mono&quot;;-inkscape-font-specification:&quot;Liberation Mono&quot;;text-align:center;text-decoration-color:#000;white-space:pre;shape-inside:url(#m);display:inline;fill:#999;stroke-width:1;-inkscape-stroke:none;stop-color:#000" transform="matrix(0.26458333,0,0,0.26458333,37.078481,613.60001)"><tspan x="121.492" y="652.363">R4</tspan></text><text xml:space="preserve" style="font-size:14.6667px;line-height:normal;font-family:&quot;Liberation Mono&quot;;-inkscape-font-specification:&quot;Liberation Mono&quot;;text-align:center;text-decoration-color:#000;white-space:pre;shape-inside:url(#n);display:inline;fill:#000;stroke-width:1;-inkscape-stroke:none;stop-color:#000" transform="matrix(0.26458333,0,0,0.26458333,-27.255849,665.4535)"><tspan x="495.84" y="260.632">ra</tspan></text><path d="m112.558 718.237-4.939 13.393" style="fill:#fff;stroke:#000;stroke-width:.264583;marker-start:url(#a)"/><text xml:space="preserve" style="font-size:14.6667px;line-height:normal;font-family:&quot;Liberation Mono&quot;;-inkscape-font-specification:&quot;Liberation Mono&quot;;text-align:center;text-decoration-color:#000;white-space:pre;shape-inside:url(#o);display:inline;fill:#000;stroke-width:1;-inkscape-stroke:none;stop-color:#000" transform="matrix(0.26458333,0,0,0.26458333,-27.693165,9.5902756)"><tspan x="419.084" y="2509.488">pegR</tspan></text></g></svg>