<svg xmlns="http://www.w3.org/2000/svg" width="503.695" height="649.911" viewBox="0 0 133.269 171.956"><defs><path id="o" d="M403.321 2496.438h66.73v38.934h-66.73z"/><path id="b" d="M236.905 141.74h102.962v36.323H236.905z"/><path id="c" d="M216.194 301.719h27.439v26.021h-27.439z"/><path id="d" d="M139.788 124.196h48.439v28.363h-48.439z"/><path id="e" d="M199.635 729.329H389.63v67.213H199.635z"/><path id="g" d="M175.011 412.781h57v44.738h-57z"/><path id="h" d="M176.559 413.805h53.996v27.11h-53.996z"/><path id="i" d="M187.631 316.473h52.552v32.574h-52.552z"/><path id="j" d="M117.859 618.74h60.16v47.686h-60.16z"/><path id="k" d="M117.859 618.74h60.16v47.686h-60.16z"/><path id="l" d="M145.643 643.896h49.305v31.562h-49.305z"/><path id="m" d="M104.481 639.313h51.623v30.696h-51.623z"/><path id="n" d="M480.158 247.583h48.968v35.697h-48.968z"/><marker id="a" markerHeight="1" markerWidth="1" orient="auto-start-reverse" preserveAspectRatio="xMidYMid" refX="0" refY="0" style="overflow:visible" viewBox="0 0 1 1"><path d="M3-3 0 0l3 3" style="fill:none;stroke:context-stroke;stroke-width:1;stroke-linecap:butt" transform="rotate(180 .125 0)"/></marker><marker id="f" markerHeight="1" markerWidth="1" orient="auto-start-reverse" preserveAspectRatio="xMidYMid" refX="0" refY="0" style="overflow:visible" viewBox="0 0 1 1"><path d="M3-3 0 0l3 3" style="fill:none;stroke:context-stroke;stroke-width:1;stroke-linecap:butt" transform="rotate(180 .125 0)"/></marker></defs><g transform="translate(-13.65 -27.097)"><path d="M13.782 27.229h133.005V198.92H13.782z" style="fill:#fff;stroke:#fff;stroke-width:.264583"/><path d="M79.033 117.711 65.235 49.836" style="fill:#666;stroke:#b3b3b3;stroke-width:.264583"/><path d="m79.033 117.711-2.588-55.098" style="fill:none;stroke:#ccc;stroke-width:.264583"/><path d="m68.712 66.961 8.76 18.126" style="fill:none;stroke:#a80;stroke-width:.264583"/><circle cx="79.033" cy="117.711" r="59.662" style="fill:none;stroke:teal;stroke-width:.264583"/><circle cx="79.033" cy="117.711" r="51.867" style="fill:none;stroke:teal;stroke-width:.264583"/><path d="m52.801 51.883 26.232 65.828 17.9-66.647" style="fill:none;stroke:gray;stroke-width:.264583"/><path d="M57.48 62.1s2.922-1.115 4.425-1.54c2.887-.815 5.821-1.498 8.79-1.926a58.6 58.6 0 0 1 8.338-.585c2.792 0 5.585.247 8.356.588 2.212.272 4.104.26 6.585 1.16" style="fill:none;stroke:red;stroke-width:.529167;marker-start:url(#a);marker-end:url(#a)"/><text xml:space="preserve" style="font-size:14.6667px;line-height:normal;font-family:&quot;Liberation Mono&quot;;-inkscape-font-specification:&quot;Liberation Mono&quot;;text-align:center;text-decoration-color:#000;white-space:pre;shape-inside:url(#b);display:inline;fill:red;stroke-width:1;-inkscape-stroke:none;stop-color:#000" transform="translate(-.387 15.21)scale(.26458)"><tspan x="275.184" y="154.79">pim</tspan></text><circle cx="79.033" cy="117.711" r="40.245" style="fill:none;stroke:#999;stroke-width:.264583"/><ellipse cx="77.049" cy="72.371" rx="5.201" ry="5.034" style="fill:none;stroke:#999;stroke-width:.264583"/><path d="m72.169 74.089-3.457-7.128M81.966 73.832l2.98-7.642M68.712 66.961c-6.97 1.036-11.318 3.649-15.959 6.086M72.169 74.089s.789 1.453 1.383 2.008c.468.438 1.053.758 1.655.982.584.216 1.219.353 1.842.326a6.3 6.3 0 0 0 2.673-.716c.578-.308 1.084-.77 1.482-1.291.353-.461.762-1.566.762-1.566" style="fill:none;stroke:#f60;stroke-width:.529167"/><path d="M75.564 80.74s.466-.27.736-.31c.336-.051 1.018.092 1.018.092" style="fill:none;stroke:green;stroke-width:.264583"/><text xml:space="preserve" style="font-size:14.6667px;line-height:normal;font-family:&quot;Liberation Mono&quot;;-inkscape-font-specification:&quot;Liberation Mono&quot;;text-align:center;text-decoration-color:#000;white-space:pre;shape-inside:url(#c);display:inline;fill:green;stroke-width:1;-inkscape-stroke:none;stop-color:#000" transform="translate(19.13 -.89)scale(.26458)"><tspan x="221.112" y="314.769">ha</tspan></text><text xml:space="preserve" style="font-size:14.6667px;line-height:normal;font-family:&quot;Liberation Mono&quot;;-inkscape-font-specification:&quot;Liberation Mono&quot;;text-align:center;text-decoration-color:#000;white-space:pre;shape-inside:url(#d);display:inline;fill:#000;stroke-width:1;-inkscape-stroke:none;stop-color:#000" transform="translate(58.275 4.125)scale(.26458)"><tspan x="155.205" y="137.245">zn</tspan></text><path d="m101.892 42.24 1.058 12.623" style="fill:none;stroke:#000;stroke-width:.264583;marker-end:url(#a)"/><path d="m99.583 41.533-6.044 8.456" style="fill:none;stroke:#000;stroke-width:.264583;marker-end:url(#a)"/><path d="M19.37 117.711v73.275M138.695 117.711v73.275" style="fill:none;stroke:#b3b3b3;stroke-width:.264583"/><path d="M19.37 190.986h119.325" style="fill:none;stroke:#666;stroke-width:.264583;marker-start:url(#a);marker-end:url(#a)"/><text xml:space="preserve" style="font-size:14.6667px;line-height:normal;font-family:&quot;Liberation Mono&quot;;-inkscape-font-specification:&quot;Liberation Mono&quot;;text-align:center;text-decoration-color:#000;white-space:pre;shape-inside:url(#e);display:inline;fill:#666;stroke-width:1;-inkscape-stroke:none;stop-color:#000" transform="translate(-1.697 -.72)scale(.26458)"><tspan x="255.025" y="742.378">zn*pim/Pi</tspan></text><path d="M19.593 117.711h7.17" style="fill:none;stroke:#000;stroke-width:.264583;marker-start:url(#a);marker-end:url(#a)"/><path d="M27.417 117.711H38.72" style="fill:none;stroke:#000;stroke-width:.264584;marker-start:url(#f);marker-end:url(#f)"/><text xml:space="preserve" style="font-size:14.6667px;line-height:normal;font-family:&quot;Liberation Mono&quot;;-inkscape-font-specification:&quot;Liberation Mono&quot;;text-align:center;text-decoration-color:#000;white-space:pre;shape-inside:url(#g);display:inline;fill:#000;stroke-width:1;-inkscape-stroke:none;stop-color:#000" transform="translate(-30.818 3.17)scale(.26458)"><tspan x="194.71" y="425.831">bw</tspan></text><text xml:space="preserve" style="font-size:14.6667px;line-height:normal;font-family:&quot;Liberation Mono&quot;;-inkscape-font-specification:&quot;Liberation Mono&quot;;text-align:center;text-decoration-color:#000;white-space:pre;shape-inside:url(#h);display:inline;fill:#000;stroke-width:1;-inkscape-stroke:none;stop-color:#000" transform="translate(-21.142 3.6)scale(.26458)"><tspan x="194.755" y="426.855">nw</tspan></text><path d="M79.033 117.711 45.42 60.601" style="fill:#666;stroke:#b3b3b3;stroke-width:.264583"/><circle cx="79.033" cy="117.898" r="27.784" style="fill:none;stroke:#f60;stroke-width:.264583"/><path d="m59.794 69.603 8.885 22.179" style="fill:green;stroke:purple;stroke-width:.264583;marker-start:url(#a);marker-end:url(#f)"/><text xml:space="preserve" style="font-size:14.6667px;line-height:normal;font-family:&quot;Liberation Mono&quot;;-inkscape-font-specification:&quot;Liberation Mono&quot;;text-align:center;text-decoration-color:#000;white-space:pre;shape-inside:url(#i);display:inline;fill:purple;stroke-width:1;-inkscape-stroke:none;stop-color:#000" transform="translate(10.356 -5.253)scale(.26458)"><tspan x="205.105" y="329.523">rw</tspan></text><path d="m97.81 77.83 1.303-7.814M105.95 83.287l6.851-4.508M112.801 78.779c4.266 3.128 7.57 7.03 9.951 11.255M99.113 70.016c-4.246-1.902-8.518-3.762-14.02-3.635M97.81 77.83s-.198 1.641-.035 2.438c.129.628.42 1.228.782 1.757.352.515.79.994 1.314 1.332.775.5 1.68.845 2.594.963.65.083 1.33-.002 1.957-.196.554-.172 1.527-.837 1.527-.837" style="fill:none;stroke:#f60;stroke-width:.529167"/><path d="m80.587 68.076 6.011-31.296" style="fill:none;stroke:#000;stroke-width:.264583;marker-start:url(#a)"/><text xml:space="preserve" style="font-size:14.6667px;line-height:normal;font-family:&quot;Liberation Mono&quot;;-inkscape-font-specification:&quot;Liberation Mono&quot;;text-align:center;text-decoration-color:#000;white-space:pre;shape-inside:url(#j);display:inline;fill:#999;stroke-width:1;-inkscape-stroke:none;stop-color:#000" transform="translate(.236 .308)scale(.26458)"><tspan x="139.138" y="631.79">R1</tspan></text><text xml:space="preserve" style="font-size:14.6667px;line-height:normal;font-family:&quot;Liberation Mono&quot;;-inkscape-font-specification:&quot;Liberation Mono&quot;;text-align:center;text-decoration-color:#000;white-space:pre;shape-inside:url(#k);display:inline;fill:#999;stroke-width:1;-inkscape-stroke:none;stop-color:#000" transform="translate(14.51 -.276)scale(.26458)"><tspan x="139.138" y="631.79">R2</tspan></text><text xml:space="preserve" style="font-size:14.6667px;line-height:normal;font-family:&quot;Liberation Mono&quot;;-inkscape-font-specification:&quot;Liberation Mono&quot;;text-align:center;text-decoration-color:#000;white-space:pre;shape-inside:url(#l);display:inline;fill:#999;stroke-width:1;-inkscape-stroke:none;stop-color:#000" transform="translate(20.137 -13.866)scale(.26458)"><tspan x="161.493" y="656.947">R3</tspan></text><text xml:space="preserve" style="font-size:14.6667px;line-height:normal;font-family:&quot;Liberation Mono&quot;;-inkscape-font-specification:&quot;Liberation Mono&quot;;text-align:center;text-decoration-color:#000;white-space:pre;shape-inside:url(#m);display:inline;fill:#999;stroke-width:1;-inkscape-stroke:none;stop-color:#000" transform="translate(37.191 -24.174)scale(.26458)"><tspan x="121.492" y="652.363">R4</tspan></text><text xml:space="preserve" style="font-size:14.6667px;line-height:normal;font-family:&quot;Liberation Mono&quot;;-inkscape-font-specification:&quot;Liberation Mono&quot;;text-align:center;text-decoration-color:#000;white-space:pre;shape-inside:url(#n);display:inline;fill:#000;stroke-width:1;-inkscape-stroke:none;stop-color:#000" transform="translate(-27.143 27.68)scale(.26458)"><tspan x="495.84" y="260.632">ra</tspan></text><path d="m112.67 80.463-4.938 13.393" style="fill:#fff;stroke:#000;stroke-width:.264583;marker-start:url(#a)"/><text xml:space="preserve" style="font-size:14.6667px;line-height:normal;font-family:&quot;Liberation Mono&quot;;-inkscape-font-specification:&quot;Liberation Mono&quot;;text-align:center;text-decoration-color:#000;white-space:pre;shape-inside:url(#o);display:inline;fill:#000;stroke-width:1;-inkscape-stroke:none;stop-color:#000" transform="translate(-27.58 -628.184)scale(.26458)"><tspan x="419.084" y="2509.488">pegR</tspan></text></g></svg>