<svg xmlns="http://www.w3.org/2000/svg" width="324.373" height="424.873" viewBox="0 0 85.824 112.414"><defs><path id="i" d="M451.315 1126.266h103.41v47.347h-103.41z"/><path id="h" d="M451.211 1047.544h81.538v62.581h-81.538z"/><path id="g" d="M374.528 808.724h90.75v34.45h-90.75z"/><path id="e" d="M346.116 809.531h96.303v39.707h-96.303z"/><path id="d" d="M338.078 884.338h105.254v44.103H338.078z"/><path id="f" d="M346.116 809.531h96.303v39.707h-96.303z"/><marker id="a" markerHeight="1" markerWidth="1" orient="auto-start-reverse" preserveAspectRatio="xMidYMid" refX="0" refY="0" style="overflow:visible" viewBox="0 0 1 1"><path d="M3-3 0 0l3 3" style="fill:none;stroke:context-stroke;stroke-width:1;stroke-linecap:butt" transform="rotate(180 .125 0)"/></marker><marker id="b" markerHeight="1" markerWidth="1" orient="auto-start-reverse" preserveAspectRatio="xMidYMid" refX="0" refY="0" style="overflow:visible" viewBox="0 0 1 1"><path d="M3-3 0 0l3 3" style="fill:none;stroke:context-stroke;stroke-width:1;stroke-linecap:butt" transform="rotate(180 .125 0)"/></marker><marker id="c" markerHeight="1" markerWidth="1" orient="auto-start-reverse" preserveAspectRatio="xMidYMid" refX="0" refY="0" style="overflow:visible" viewBox="0 0 1 1"><path d="M3-3 0 0l3 3" style="fill:none;stroke:context-stroke;stroke-width:1;stroke-linecap:butt" transform="rotate(180 .125 0)"/></marker></defs><path d="M12.443 208.805h85.559v112.15H12.443z" style="fill:#fff;stroke:#fff;stroke-width:.264583" transform="translate(-12.31 -208.673)"/><path d="M45.427 245.529h12.829v55.879H45.427z" style="fill:#ffe6d5;stroke:#000;stroke-width:.264583" transform="translate(-12.31 -208.673)"/><path d="M58.256 230.84h6.046v85.256h-6.046zM39.381 230.84h6.046v85.256h-6.046z" style="fill:#ffb380;stroke:#000;stroke-width:.264583" transform="translate(-12.31 -208.673)"/><path d="M58.279 245.529H76.33v-.132M64.457 230.84h11.896v-.132" style="fill:#b3b3b3;stroke:#ccc;stroke-width:.264583" transform="translate(-12.31 -208.673)"/><path d="m76.353 230.84-.023 14.557" style="fill:#b3b3b3;stroke:#000;stroke-width:.264583;marker-start:url(#a);marker-end:url(#a)" transform="translate(-12.31 -208.673)"/><path d="M39.381 230.84v-11.895h-.132M45.427 230.84v-11.895h-.132M58.256 230.84v-11.895h-.132M64.302 230.708v-11.895h-.132" style="fill:#b3b3b3;stroke:#ccc;stroke-width:.264583" transform="translate(-12.31 -208.673)"/><path d="M39.381 218.945h6.046" style="fill:#b3b3b3;stroke:#000;stroke-width:.264583;marker-start:url(#a);marker-end:url(#a)" transform="translate(-12.31 -208.673)"/><path d="M58.256 218.945h6.046" style="fill:#b3b3b3;stroke:#000;stroke-width:.264583;marker-start:url(#b);marker-end:url(#b)" transform="translate(-12.31 -208.673)"/><path d="M45.69 226.48h12.304" style="fill:#b3b3b3;stroke:#000;stroke-width:.264582;marker-start:url(#c);marker-end:url(#c)" transform="translate(-12.31 -208.673)"/><text xml:space="preserve" style="font-size:14.6667px;line-height:normal;font-family:&quot;Liberation Mono&quot;;-inkscape-font-specification:&quot;Liberation Mono&quot;;text-align:center;text-decoration-color:#000;white-space:pre;shape-inside:url(#d);display:inline;fill:#000;stroke-width:1;-inkscape-stroke:none;stop-color:#000" transform="translate(-28.818 -207.168)scale(.26458)"><tspan x="359.9" y="897.388">rimPlus</tspan></text><text xml:space="preserve" style="font-size:14.6667px;line-height:normal;font-family:&quot;Liberation Mono&quot;;-inkscape-font-specification:&quot;Liberation Mono&quot;;text-align:center;text-decoration-color:#000;white-space:pre;shape-inside:url(#e);display:inline;fill:#000;stroke-width:1;-inkscape-stroke:none;stop-color:#000" transform="translate(-75.688 -209.687)scale(.26458)"><tspan x="376.664" y="822.581">rimW</tspan></text><text xml:space="preserve" style="font-size:14.6667px;line-height:normal;font-family:&quot;Liberation Mono&quot;;-inkscape-font-specification:&quot;Liberation Mono&quot;;text-align:center;text-decoration-color:#000;white-space:pre;shape-inside:url(#f);display:inline;fill:#000;stroke-width:1;-inkscape-stroke:none;stop-color:#000" transform="translate(-53.847 -209.493)scale(.26458)"><tspan x="376.664" y="822.581">rimW</tspan></text><text xml:space="preserve" style="font-size:14.6667px;line-height:normal;font-family:&quot;Liberation Mono&quot;;-inkscape-font-specification:&quot;Liberation Mono&quot;;text-align:center;text-decoration-color:#000;white-space:pre;shape-inside:url(#g);display:inline;fill:#000;stroke-width:1;-inkscape-stroke:none;stop-color:#000" transform="translate(-71.439 -200.809)scale(.26458)"><tspan x="393.499" y="821.775">wheelW</tspan></text><text xml:space="preserve" style="font-size:14.6667px;line-height:normal;font-family:&quot;Liberation Mono&quot;;-inkscape-font-specification:&quot;Liberation Mono&quot;;text-align:center;text-decoration-color:#000;white-space:pre;shape-inside:url(#h);fill:#000;stroke-width:1;-inkscape-stroke:none;stop-color:#000" transform="translate(-119.971 -217.854)scale(.26458)"><tspan x="461.174" y="1060.595">rimLeft
</tspan><tspan x="456.774" y="1078.928">(on/off)</tspan></text><text xml:space="preserve" style="font-size:14.6667px;line-height:normal;font-family:&quot;Liberation Mono&quot;;-inkscape-font-specification:&quot;Liberation Mono&quot;;text-align:center;text-decoration-color:#000;white-space:pre;shape-inside:url(#i);fill:#000;stroke-width:1;-inkscape-stroke:none;stop-color:#000" transform="translate(-57.925 -239.577)scale(.26458)"><tspan x="467.814" y="1139.316">rimRight
</tspan><tspan x="467.814" y="1157.649">(on/off)</tspan></text><path d="m31.333 270.49 6.591.13" style="fill:none;stroke:#000;stroke-width:.264583;stroke-dasharray:none;marker-end:url(#a)" transform="translate(-12.31 -208.673)"/><path d="m77.783 269.714-11.62.912" style="fill:none;stroke:#000;stroke-width:.264583;stroke-dasharray:none;marker-end:url(#a)" transform="translate(-12.31 -208.673)"/></svg>