<svg xmlns="http://www.w3.org/2000/svg" width="351.348" height="324.035" viewBox="0 0 92.961 85.734"><defs><path id="B" d="M403.516 492.043h28.367v23.394h-28.367z"/><path id="v" d="M381.532 480.365h41.794v38.442h-41.794z"/><path id="t" d="M217.882 543.601h45.707v30.712h-45.707z"/><path id="n" d="M30.573 186.882h48.82v42.965h-48.82z"/><path id="o" d="M30.573 186.882h48.82v42.965h-48.82z"/><path id="p" d="M30.573 186.882h48.82v42.965h-48.82z"/><path id="q" d="M30.573 186.882h48.82v42.965h-48.82z"/><path id="r" d="M30.573 186.882h48.82v42.965h-48.82z"/><path id="s" d="M30.573 186.882h48.82v42.965h-48.82z"/><path id="u" d="M217.882 543.601h45.707v30.712h-45.707z"/><path id="a" d="M217.882 543.601h45.707v30.712h-45.707z"/><path id="w" d="M381.532 480.365h41.794v38.442h-41.794z"/><path id="x" d="M381.532 480.365h41.794v38.442h-41.794z"/><path id="y" d="M381.532 480.365h41.794v38.442h-41.794z"/><path id="z" d="M381.532 480.365h41.794v38.442h-41.794z"/><path id="A" d="M381.532 480.365h41.794v38.442h-41.794z"/><marker id="b" markerHeight="1" markerWidth="1" orient="auto-start-reverse" preserveAspectRatio="xMidYMid" refX="0" refY="0" style="overflow:visible" viewBox="0 0 1 1"><path d="M3-3 0 0l3 3" style="fill:none;stroke:context-stroke;stroke-width:1;stroke-linecap:butt" transform="rotate(180,0.125,0)"/></marker><marker id="c" markerHeight="1" markerWidth="1" orient="auto-start-reverse" preserveAspectRatio="xMidYMid" refX="0" refY="0" style="overflow:visible" viewBox="0 0 1 1"><path d="M3-3 0 0l3 3" style="fill:none;stroke:context-stroke;stroke-width:1;stroke-linecap:butt" transform="rotate(180,0.125,0)"/></marker><marker id="d" markerHeight="1" markerWidth="1" orient="auto-start-reverse" preserveAspectRatio="xMidYMid" refX="0" refY="0" style="overflow:visible" viewBox="0 0 1 1"><path d="M3-3 0 0l3 3" style="fill:none;stroke:context-stroke;stroke-width:1;stroke-linecap:butt" transform="rotate(180,0.125,0)"/></marker><marker id="e" markerHeight="1" markerWidth="1" orient="auto-start-reverse" preserveAspectRatio="xMidYMid" refX="0" refY="0" style="overflow:visible" viewBox="0 0 1 1"><path d="M3-3 0 0l3 3" style="fill:none;stroke:context-stroke;stroke-width:1;stroke-linecap:butt" transform="rotate(180,0.125,0)"/></marker><marker id="f" markerHeight="1" markerWidth="1" orient="auto-start-reverse" preserveAspectRatio="xMidYMid" refX="0" refY="0" style="overflow:visible" viewBox="0 0 1 1"><path d="M3-3 0 0l3 3" style="fill:none;stroke:context-stroke;stroke-width:1;stroke-linecap:butt" transform="rotate(180,0.125,0)"/></marker><marker id="g" markerHeight="1" markerWidth="1" orient="auto-start-reverse" preserveAspectRatio="xMidYMid" refX="0" refY="0" style="overflow:visible" viewBox="0 0 1 1"><path d="M3-3 0 0l3 3" style="fill:none;stroke:context-stroke;stroke-width:1;stroke-linecap:butt" transform="rotate(180,0.125,0)"/></marker><marker id="h" markerHeight="1" markerWidth="1" orient="auto-start-reverse" preserveAspectRatio="xMidYMid" refX="0" refY="0" style="overflow:visible" viewBox="0 0 1 1"><path d="M3-3 0 0l3 3" style="fill:none;stroke:context-stroke;stroke-width:1;stroke-linecap:butt" transform="rotate(180,0.125,0)"/></marker><marker id="i" markerHeight="1" markerWidth="1" orient="auto-start-reverse" preserveAspectRatio="xMidYMid" refX="0" refY="0" style="overflow:visible" viewBox="0 0 1 1"><path d="M3-3 0 0l3 3" style="fill:none;stroke:context-stroke;stroke-width:1;stroke-linecap:butt" transform="rotate(180,0.125,0)"/></marker><marker id="j" markerHeight="1" markerWidth="1" orient="auto-start-reverse" preserveAspectRatio="xMidYMid" refX="0" refY="0" style="overflow:visible" viewBox="0 0 1 1"><path d="M3-3 0 0l3 3" style="fill:none;stroke:context-stroke;stroke-width:1;stroke-linecap:butt" transform="rotate(180,0.125,0)"/></marker><marker id="k" markerHeight="1" markerWidth="1" orient="auto-start-reverse" preserveAspectRatio="xMidYMid" refX="0" refY="0" style="overflow:visible" viewBox="0 0 1 1"><path d="M3-3 0 0l3 3" style="fill:none;stroke:context-stroke;stroke-width:1;stroke-linecap:butt" transform="rotate(180,0.125,0)"/></marker><marker id="l" markerHeight="1" markerWidth="1" orient="auto-start-reverse" preserveAspectRatio="xMidYMid" refX="0" refY="0" style="overflow:visible" viewBox="0 0 1 1"><path d="M3-3 0 0l3 3" style="fill:none;stroke:context-stroke;stroke-width:1;stroke-linecap:butt" transform="rotate(180,0.125,0)"/></marker><marker id="m" markerHeight="1" markerWidth="1" orient="auto-start-reverse" preserveAspectRatio="xMidYMid" refX="0" refY="0" style="overflow:visible" viewBox="0 0 1 1"><path d="M3-3 0 0l3 3" style="fill:none;stroke:context-stroke;stroke-width:1;stroke-linecap:butt" transform="rotate(180,0.125,0)"/></marker></defs><path d="M19.43 53.475h92.696v85.47H19.43z" style="fill:#fff;stroke:#fff;stroke-width:.264583" transform="translate(-19.297882,-53.342594)"/><path d="M58.06 123.319h27.064l-.014-5.184-20.856-9.14v-28.86l13.292-3.562V65.009c-3.93-4.448-10.007-7.103-18.72-7.553" style="fill:#fff;stroke:#000;stroke-width:.264583" transform="translate(-19.297882,-53.342594)"/><path d="M59.592 123.319H32.527l.014-5.184 20.856-9.14v-28.86l-13.292-3.562V65.009c3.931-4.448 10.007-7.103 18.72-7.553" style="fill:#fff;stroke:#000;stroke-width:.264583" transform="translate(-19.297882,-53.342594)"/><text xml:space="preserve" style="font-size:14.6667px;line-height:normal;font-family:&quot;Liberation Mono&quot;;-inkscape-font-specification:&quot;Liberation Mono&quot;;text-align:center;text-decoration-color:#000;white-space:pre;shape-inside:url(#a);display:inline;fill:#00f;stroke-width:1;-inkscape-stroke:none;stop-color:#000" transform="translate(-19.297882,-53.342594) matrix(0.26458333,0,0,0.26458333,-4.4617245,-77.510794)"><tspan x="231.935" y="556.652">W3</tspan></text><path d="M32.527 123.319v10.225M85.125 123.451v10.225" style="fill:#fff;stroke:#ccc;stroke-width:.264583" transform="translate(-19.297882,-53.342594)"/><path d="m32.527 133.544 52.598.132" style="fill:#fff;stroke:#00f;stroke-width:.264583;marker-start:url(#b);marker-end:url(#b)" transform="translate(-19.297882,-53.342594)"/><path d="M85.257 123.319h10.225M85.11 118.135h10.226" style="fill:#fff;stroke:#ccc;stroke-width:.264583" transform="translate(-19.297882,-53.342594)"/><path d="m95.336 118.531.146 4.384" style="fill:#fff;stroke:#00f;stroke-width:.264583;marker-start:url(#b);marker-end:url(#b)" transform="translate(-19.297882,-53.342594)"/><path d="m53.573 94.564 10.505.133" style="fill:#fff;stroke:#00f;stroke-width:.264583;marker-start:url(#c);marker-end:url(#c)" transform="translate(-19.297882,-53.342594)"/><path d="m40.17 70.79 37.313.133" style="fill:#fff;stroke:#00f;stroke-width:.264583;marker-start:url(#d);marker-end:url(#d)" transform="translate(-19.297882,-53.342594)"/><path d="M64.254 108.994h31.008M64.254 80.135h31.008" style="fill:#fff;stroke:#ccc;stroke-width:.264583" transform="translate(-19.297882,-53.342594)"/><path d="m95.19 109.227.146 8.51" style="fill:#fff;stroke:#00f;stroke-width:.264583;marker-start:url(#e);marker-end:url(#e)" transform="translate(-19.297882,-53.342594)"/><path d="m95.269 80.524.146 28.091" style="fill:#fff;stroke:#00f;stroke-width:.264584;marker-start:url(#f);marker-end:url(#f)" transform="translate(-19.297882,-53.342594)"/><path d="M77.736 76.616h17.526M77.546 65.009h17.527" style="fill:#fff;stroke:#ccc;stroke-width:.264583" transform="translate(-19.297882,-53.342594)"/><path d="M58.826 57.456h36.247" style="fill:#fff;stroke:#ccc;stroke-width:.264582" transform="translate(-19.297882,-53.342594)"/><path d="M95.073 57.593v7.018" style="fill:#fff;stroke:#00f;stroke-width:.264583;marker-start:url(#b);marker-end:url(#b)" transform="translate(-19.297882,-53.342594)"/><path d="M95.073 65.4V76.36" style="fill:#fff;stroke:#00f;stroke-width:.264583;marker-start:url(#g);marker-end:url(#g)" transform="translate(-19.297882,-53.342594)"/><path d="M95.262 77.034v2.717" style="fill:#fff;stroke:#00f;stroke-width:.264583;marker-start:url(#h);marker-end:url(#h)" transform="translate(-19.297882,-53.342594)"/><path d="m33.288 62.305 5.46 2.603" style="fill:#fff;stroke:teal;stroke-width:.264583;marker-end:url(#b)" transform="translate(-19.297882,-53.342594)"/><path d="m34.053 79.744 5.46-2.603" style="fill:#fff;stroke:teal;stroke-width:.264583;marker-end:url(#i)" transform="translate(-19.297882,-53.342594)"/><path d="m46.819 83.955 5.46-2.603" style="fill:#fff;stroke:teal;stroke-width:.264583;marker-end:url(#j)" transform="translate(-19.297882,-53.342594)"/><path d="m46.697 105.714 5.46 2.603" style="fill:#fff;stroke:teal;stroke-width:.264583;marker-end:url(#k)" transform="translate(-19.297882,-53.342594)"/><path d="m25.94 115.226 5.46 2.603" style="fill:#fff;stroke:teal;stroke-width:.264583;marker-end:url(#l)" transform="translate(-19.297882,-53.342594)"/><path d="m25.947 125.754 5.46-2.603" style="fill:#fff;stroke:teal;stroke-width:.264583;marker-end:url(#m)" transform="translate(-19.297882,-53.342594)"/><text xml:space="preserve" style="font-size:14.6667px;line-height:normal;font-family:&quot;Liberation Mono&quot;;-inkscape-font-specification:&quot;Liberation Mono&quot;;text-align:center;text-decoration-color:#000;white-space:pre;shape-inside:url(#n);display:inline;fill:teal;stroke-width:1;-inkscape-stroke:none;stop-color:#000" transform="translate(-19.297882,-53.342594) matrix(0.26458333,0,0,0.26458333,16.278386,10.370631)"><tspan x="46.182" y="199.931">R1</tspan></text><text xml:space="preserve" style="font-size:14.6667px;line-height:normal;font-family:&quot;Liberation Mono&quot;;-inkscape-font-specification:&quot;Liberation Mono&quot;;text-align:center;text-decoration-color:#000;white-space:pre;shape-inside:url(#o);display:inline;fill:teal;stroke-width:1;-inkscape-stroke:none;stop-color:#000" transform="translate(-19.297882,-53.342594) matrix(0.26458333,0,0,0.26458333,17.114655,27.691835)"><tspan x="46.182" y="199.931">R1</tspan></text><text xml:space="preserve" style="font-size:14.6667px;line-height:normal;font-family:&quot;Liberation Mono&quot;;-inkscape-font-specification:&quot;Liberation Mono&quot;;text-align:center;text-decoration-color:#000;white-space:pre;shape-inside:url(#p);display:inline;fill:teal;stroke-width:1;-inkscape-stroke:none;stop-color:#000" transform="translate(-19.297882,-53.342594) matrix(0.26458333,0,0,0.26458333,30.118085,33.141997)"><tspan x="46.182" y="199.931">R1</tspan></text><text xml:space="preserve" style="font-size:14.6667px;line-height:normal;font-family:&quot;Liberation Mono&quot;;-inkscape-font-specification:&quot;Liberation Mono&quot;;text-align:center;text-decoration-color:#000;white-space:pre;shape-inside:url(#q);display:inline;fill:teal;stroke-width:1;-inkscape-stroke:none;stop-color:#000" transform="translate(-19.297882,-53.342594) matrix(0.26458333,0,0,0.26458333,29.296846,53.919277)"><tspan x="46.182" y="199.931">R1</tspan></text><text xml:space="preserve" style="font-size:14.6667px;line-height:normal;font-family:&quot;Liberation Mono&quot;;-inkscape-font-specification:&quot;Liberation Mono&quot;;text-align:center;text-decoration-color:#000;white-space:pre;shape-inside:url(#r);display:inline;fill:teal;stroke-width:1;-inkscape-stroke:none;stop-color:#000" transform="translate(-19.297882,-53.342594) matrix(0.26458333,0,0,0.26458333,9.06221,63.64913)"><tspan x="46.182" y="199.931">R1</tspan></text><text xml:space="preserve" style="font-size:14.6667px;line-height:normal;font-family:&quot;Liberation Mono&quot;;-inkscape-font-specification:&quot;Liberation Mono&quot;;text-align:center;text-decoration-color:#000;white-space:pre;shape-inside:url(#s);display:inline;fill:teal;stroke-width:1;-inkscape-stroke:none;stop-color:#000" transform="translate(-19.297882,-53.342594) matrix(0.26458333,0,0,0.26458333,9.0034238,74.344785)"><tspan x="46.182" y="199.931">R1</tspan></text><text xml:space="preserve" style="font-size:14.6667px;line-height:normal;font-family:&quot;Liberation Mono&quot;;-inkscape-font-specification:&quot;Liberation Mono&quot;;text-align:center;text-decoration-color:#000;white-space:pre;shape-inside:url(#t);display:inline;fill:#00f;stroke-width:1;-inkscape-stroke:none;stop-color:#000" transform="translate(-19.297882,-53.342594) matrix(0.26458333,0,0,0.26458333,-5.1378626,-14.566382)"><tspan x="231.935" y="556.652">W1</tspan></text><text xml:space="preserve" style="font-size:14.6667px;line-height:normal;font-family:&quot;Liberation Mono&quot;;-inkscape-font-specification:&quot;Liberation Mono&quot;;text-align:center;text-decoration-color:#000;white-space:pre;shape-inside:url(#u);display:inline;fill:#00f;stroke-width:1;-inkscape-stroke:none;stop-color:#000" transform="translate(-19.297882,-53.342594) matrix(0.26458333,0,0,0.26458333,-5.092216,-53.641885)"><tspan x="231.935" y="556.652">W2</tspan></text><text xml:space="preserve" style="font-size:14.6667px;line-height:normal;font-family:&quot;Liberation Mono&quot;;-inkscape-font-specification:&quot;Liberation Mono&quot;;text-align:center;text-decoration-color:#000;white-space:pre;shape-inside:url(#v);display:inline;fill:#00f;stroke-width:1;-inkscape-stroke:none;stop-color:#000" transform="translate(-19.297882,-53.342594) matrix(0.26458333,0,0,0.26458333,-7.8919755,-8.4405759)"><tspan x="393.628" y="493.415">H1</tspan></text><text xml:space="preserve" style="font-size:14.6667px;line-height:normal;font-family:&quot;Liberation Mono&quot;;-inkscape-font-specification:&quot;Liberation Mono&quot;;text-align:center;text-decoration-color:#000;white-space:pre;shape-inside:url(#w);display:inline;fill:#00f;stroke-width:1;-inkscape-stroke:none;stop-color:#000" transform="translate(-19.297882,-53.342594) matrix(0.26458333,0,0,0.26458333,-8.234785,-15.653049)"><tspan x="393.628" y="493.415">H2</tspan></text><text xml:space="preserve" style="font-size:14.6667px;line-height:normal;font-family:&quot;Liberation Mono&quot;;-inkscape-font-specification:&quot;Liberation Mono&quot;;text-align:center;text-decoration-color:#000;white-space:pre;shape-inside:url(#x);display:inline;fill:#00f;stroke-width:1;-inkscape-stroke:none;stop-color:#000" transform="translate(-19.297882,-53.342594) matrix(0.26458333,0,0,0.26458333,-7.8182505,-34.438981)"><tspan x="393.628" y="493.415">H3</tspan></text><text xml:space="preserve" style="font-size:14.6667px;line-height:normal;font-family:&quot;Liberation Mono&quot;;-inkscape-font-specification:&quot;Liberation Mono&quot;;text-align:center;text-decoration-color:#000;white-space:pre;shape-inside:url(#y);display:inline;fill:#00f;stroke-width:1;-inkscape-stroke:none;stop-color:#000" transform="translate(-19.297882,-53.342594) matrix(0.26458333,0,0,0.26458333,-7.6464429,-50.582432)"><tspan x="393.628" y="493.415">H4</tspan></text><text xml:space="preserve" style="font-size:14.6667px;line-height:normal;font-family:&quot;Liberation Mono&quot;;-inkscape-font-specification:&quot;Liberation Mono&quot;;text-align:center;text-decoration-color:#000;white-space:pre;shape-inside:url(#z);display:inline;fill:#00f;stroke-width:1;-inkscape-stroke:none;stop-color:#000" transform="translate(-19.297882,-53.342594) matrix(0.26458333,0,0,0.26458333,-8.7747339,-58.298229)"><tspan x="393.628" y="493.415">H5</tspan></text><text xml:space="preserve" style="font-size:14.6667px;line-height:normal;font-family:&quot;Liberation Mono&quot;;-inkscape-font-specification:&quot;Liberation Mono&quot;;text-align:center;text-decoration-color:#000;white-space:pre;shape-inside:url(#A);display:inline;fill:#00f;stroke-width:1;-inkscape-stroke:none;stop-color:#000" transform="translate(-19.297882,-53.342594) matrix(0.26458333,0,0,0.26458333,-7.6455583,-68.038503)"><tspan x="393.628" y="493.415">H6</tspan></text><path d="m101.046 133.663 6.792-8.63" style="fill:#00f;stroke:#d45500;stroke-width:.264583;marker-end:url(#b)" transform="translate(-19.297882,-53.342594)"/><text xml:space="preserve" style="font-size:14.6667px;line-height:normal;font-family:&quot;Liberation Mono&quot;;-inkscape-font-specification:&quot;Liberation Mono&quot;;text-align:center;text-decoration-color:#000;white-space:pre;shape-inside:url(#B);display:inline;fill:#d45500;stroke-width:1;-inkscape-stroke:none;stop-color:#000" transform="translate(-19.297882,-53.342594) matrix(0.26458333,0,0,0.26458333,-2.5814311,-1.426824)"><tspan x="408.898" y="505.093">L1</tspan></text></svg>