<svg xmlns="http://www.w3.org/2000/svg" width="421.322" height="329.082" viewBox="0 0 111.475 87.07"><defs><path id="v" d="M107.253 487.182H283.45v25.043H107.253z"/><path id="u" d="M256.427 257.691h30.949v25.466h-30.949z"/><path id="r" d="M149.976 445.672h84.067v30.382h-84.067z"/><path id="q" d="M490.517 338.143h30.968v28.619h-30.968z"/><path id="p" d="M458.114 260.67h31.357v31.437h-31.357z"/><path id="n" d="M403.825 359.526h34.795v21.734h-34.795z"/><path id="m" d="M472.889 300.163h37.054v25.395h-37.054z"/><path id="l" d="M392.49 325.121h122.264v33.641H392.49z"/><path id="k" d="M297.914 336.09h39.079v23.148h-39.079z"/><path id="j" d="M394.104 407.355h58.084v37.806h-58.084z"/><path id="i" d="M417.027 321.507h48.807v35.61h-48.807z"/><path id="h" d="M360.114 390.914h36.62v22.439h-36.62z"/><path id="g" d="M233.118 294.314h45.487v32.737h-45.487z"/><path id="f" d="M215.983 291.502h29.199v28.749h-29.199z"/><path id="e" d="M288.416 294.456h24.56v24.632h-24.56z"/><path id="d" d="M321.228 422.953h35.688v26.739h-35.688z"/><path id="b" d="M64.208 268.28h46.622v31.866H64.208z"/><marker id="a" markerHeight="1" markerWidth="1" orient="auto-start-reverse" preserveAspectRatio="xMidYMid" refX="0" refY="0" style="overflow:visible" viewBox="0 0 1 1"><path d="M3-3 0 0l3 3" style="fill:none;stroke:context-stroke;stroke-width:1;stroke-linecap:butt" transform="rotate(180 .125 0)"/></marker><marker id="c" markerHeight="1" markerWidth="1" orient="auto-start-reverse" preserveAspectRatio="xMidYMid" refX="0" refY="0" style="overflow:visible" viewBox="0 0 1 1"><path d="M3-3 0 0l3 3" style="fill:none;stroke:context-stroke;stroke-width:1;stroke-linecap:butt" transform="rotate(180 .125 0)"/></marker><marker id="o" markerHeight="1" markerWidth="1" orient="auto-start-reverse" preserveAspectRatio="xMidYMid" refX="0" refY="0" style="overflow:visible" viewBox="0 0 1 1"><path d="M3-3 0 0l3 3" style="fill:none;stroke:context-stroke;stroke-width:1;stroke-linecap:butt" transform="rotate(180 .125 0)"/></marker><marker id="s" markerHeight="1" markerWidth="1" orient="auto-start-reverse" preserveAspectRatio="xMidYMid" refX="0" refY="0" style="overflow:visible" viewBox="0 0 1 1"><path d="M3-3 0 0l3 3" style="fill:none;stroke:context-stroke;stroke-width:1;stroke-linecap:butt" transform="rotate(180 .125 0)"/></marker><marker id="t" markerHeight="1" markerWidth="1" orient="auto-start-reverse" preserveAspectRatio="xMidYMid" refX="0" refY="0" style="overflow:visible" viewBox="0 0 1 1"><path d="M3-3 0 0l3 3" style="fill:none;stroke:context-stroke;stroke-width:1;stroke-linecap:butt" transform="rotate(180 .125 0)"/></marker></defs><g transform="translate(-24.631 -38.162)"><path d="M24.763 38.294h111.21v86.805H24.763z" style="fill:#fff;stroke:#fff;stroke-width:.264583;stroke-linejoin:bevel"/><path d="m93.84 106.71 13.533-13.155" style="fill:none;stroke:#b3b3b3;stroke-width:.264583;marker-start:url(#a);marker-end:url(#a)"/><circle cx="74.037" cy="72.616" r="31.444" style="fill:#d7eef4;stroke:navy;stroke-width:.264583;stroke-linejoin:bevel"/><circle cx="74.037" cy="72.616" r="28.638" style="fill:#fff;stroke:navy;stroke-width:.264583;stroke-linejoin:bevel"/><path d="M274.96 318.873c-17.249-1.946-31.835-13.672-37.451-30.11-5.98-17.498-.271-37.214 14.184-48.989 4.892-3.984 10.622-6.902 16.653-8.478 4.5-1.176 5.864-1.335 11.457-1.335 5.417 0 6.807.151 11.035 1.204 16.29 4.055 29.182 17.473 32.686 34.02 1.647 7.772 1.191 15.715-1.339 23.358-4.18 12.632-13.94 22.824-26.498 27.674-6.159 2.379-14.129 3.4-20.726 2.656m12.116-6.346c7.954-1.696 14.604-5.25 20.098-10.745 11.813-11.813 14.82-29.84 7.485-44.892-5.278-10.833-15.125-18.47-27.322-21.187-2.033-.453-3.044-.521-7.77-.526-5.955-.005-7.832.259-12.345 1.734-8.424 2.752-16.44 9.09-21.088 16.672-5.3 8.644-7.034 19.175-4.803 29.164.783 3.505 1.46 5.394 3.18 8.867 5.779 11.67 16.87 19.516 30.213 21.373 2.63.366 9.716.102 12.352-.46" style="fill:#d7eef4;fill-opacity:1;stroke:none;stroke-width:.999999" transform="scale(.26458)"/><path d="m74.037 72.616 24.94 25.62" style="fill:none;stroke:#fca;stroke-width:.264583px;stroke-linecap:butt;stroke-linejoin:miter;stroke-opacity:1"/><circle cx="95.37" cy="62.346" r="5.002" style="fill:none;stroke:navy;stroke-width:.264583;stroke-linejoin:bevel"/><circle cx="95.37" cy="62.346" r="3.369" style="fill:none;stroke:navy;stroke-width:.264583;stroke-linejoin:bevel"/><circle cx="89.759" cy="72.606" r="3.761" style="fill:none;stroke:navy;stroke-width:.264583;stroke-linejoin:bevel"/><circle cx="89.759" cy="72.606" r="2.112" style="fill:none;stroke:navy;stroke-width:.264583;stroke-linejoin:bevel"/><path d="m74.024 72.598 53.64-24.841" style="fill:none;stroke:#ccc;stroke-width:.264583px;stroke-linecap:butt;stroke-linejoin:miter;stroke-opacity:1"/><path d="m74.037 72.616 28.582-29.053" style="fill:#fca;stroke:#fca;stroke-width:.264583px;stroke-linecap:butt;stroke-linejoin:miter;stroke-opacity:1"/><path d="m126.193 97.164-52.16-24.51h39.905" style="fill:none;stroke:#ccc;stroke-width:.264584px;stroke-linecap:butt;stroke-linejoin:miter;stroke-opacity:1"/><path d="M74.037 41.172H36.4M74.037 104.06H36.4" style="fill:none;stroke:#ccc;stroke-width:.264583px;stroke-linecap:butt;stroke-linejoin:miter;stroke-opacity:1"/><path d="M36.4 41.172v62.888" style="fill:none;stroke:#000;stroke-width:.264583px;stroke-linecap:butt;stroke-linejoin:miter;stroke-opacity:1;marker-start:url(#a);marker-end:url(#a)"/><text xml:space="preserve" style="font-style:normal;font-variant:normal;font-weight:400;font-stretch:normal;font-size:14.6667px;line-height:1.25;font-family:&quot;Liberation Sans&quot;;-inkscape-font-specification:&quot;Liberation Sans&quot;;font-variant-ligatures:normal;font-variant-position:normal;font-variant-caps:normal;font-variant-numeric:normal;font-variant-alternates:normal;font-variant-east-asian:normal;font-feature-settings:normal;font-variation-settings:normal;text-indent:0;text-align:start;text-decoration-line:none;text-decoration-style:solid;text-decoration-color:#000;letter-spacing:normal;word-spacing:normal;text-transform:none;writing-mode:lr-tb;direction:ltr;text-orientation:mixed;dominant-baseline:auto;baseline-shift:baseline;white-space:pre;shape-inside:url(#b);shape-padding:0;shape-margin:0;inline-size:0;display:inline;opacity:1;vector-effect:none;fill:#000;fill-opacity:1;stroke-width:1;stroke-linecap:butt;stroke-linejoin:miter;stroke-miterlimit:4;stroke-dasharray:none;stroke-dashoffset:0;stroke-opacity:1;-inkscape-stroke:none;stop-color:#000;stop-opacity:1" transform="translate(11.07 .533)scale(.26458)"><tspan x="64.207" y="281.49">D1L</tspan></text><path d="M74.037 104.06v6.744" style="fill:none;stroke:#000;stroke-width:.264583px;stroke-linecap:butt;stroke-linejoin:miter;stroke-opacity:1;marker-start:url(#a)"/><path d="M74.037 101.254V94.51" style="fill:none;stroke:#000;stroke-width:.264583px;stroke-linecap:butt;stroke-linejoin:miter;stroke-opacity:1;marker-start:url(#c)"/><text xml:space="preserve" style="font-style:normal;font-variant:normal;font-weight:400;font-stretch:normal;font-size:14.6667px;line-height:1.25;font-family:&quot;Liberation Sans&quot;;-inkscape-font-specification:&quot;Liberation Sans&quot;;font-variant-ligatures:normal;font-variant-position:normal;font-variant-caps:normal;font-variant-numeric:normal;font-variant-alternates:normal;font-variant-east-asian:normal;font-feature-settings:normal;font-variation-settings:normal;text-indent:0;text-align:start;text-decoration-line:none;text-decoration-style:solid;text-decoration-color:#000;letter-spacing:normal;word-spacing:normal;text-transform:none;writing-mode:lr-tb;direction:ltr;text-orientation:mixed;dominant-baseline:auto;baseline-shift:baseline;white-space:pre;shape-inside:url(#d);shape-padding:0;shape-margin:0;inline-size:0;display:inline;opacity:1;vector-effect:none;fill:#000;fill-opacity:1;stroke-width:1;stroke-linecap:butt;stroke-linejoin:miter;stroke-miterlimit:4;stroke-dasharray:none;stroke-dashoffset:0;stroke-opacity:1;-inkscape-stroke:none;stop-color:#000;stop-opacity:1" transform="translate(-10.314 -3.704)scale(.26458)"><tspan x="321.229" y="436.164">E1</tspan></text><text xml:space="preserve" style="font-style:normal;font-variant:normal;font-weight:400;font-stretch:normal;font-size:14.6667px;line-height:1.25;font-family:&quot;Liberation Sans&quot;;-inkscape-font-specification:&quot;Liberation Sans&quot;;font-variant-ligatures:normal;font-variant-position:normal;font-variant-caps:normal;font-variant-numeric:normal;font-variant-alternates:normal;font-variant-east-asian:normal;font-feature-settings:normal;font-variation-settings:normal;text-indent:0;text-align:start;text-decoration-line:none;text-decoration-style:solid;text-decoration-color:#000;letter-spacing:normal;word-spacing:normal;text-transform:none;writing-mode:lr-tb;direction:ltr;text-orientation:mixed;dominant-baseline:auto;baseline-shift:baseline;white-space:pre;shape-inside:url(#e);shape-padding:0;shape-margin:0;inline-size:0;display:inline;opacity:1;vector-effect:none;fill:teal;fill-opacity:1;stroke-width:1;stroke-linecap:butt;stroke-linejoin:miter;stroke-miterlimit:4;stroke-dasharray:none;stroke-dashoffset:0;stroke-opacity:1;-inkscape-stroke:none;stop-color:#000;stop-opacity:1" transform="translate(5.578 -23.21)scale(.26458)"><tspan x="288.416" y="307.668">D2</tspan></text><text xml:space="preserve" style="font-style:normal;font-variant:normal;font-weight:400;font-stretch:normal;font-size:14.6667px;line-height:1.25;font-family:&quot;Liberation Sans&quot;;-inkscape-font-specification:&quot;Liberation Sans&quot;;font-variant-ligatures:normal;font-variant-position:normal;font-variant-caps:normal;font-variant-numeric:normal;font-variant-alternates:normal;font-variant-east-asian:normal;font-feature-settings:normal;font-variation-settings:normal;text-indent:0;text-align:start;text-decoration-line:none;text-decoration-style:solid;text-decoration-color:#000;letter-spacing:normal;word-spacing:normal;text-transform:none;writing-mode:lr-tb;direction:ltr;text-orientation:mixed;dominant-baseline:auto;baseline-shift:baseline;white-space:pre;shape-inside:url(#f);shape-padding:0;shape-margin:0;inline-size:0;display:inline;opacity:1;vector-effect:none;fill:teal;fill-opacity:1;stroke-width:1;stroke-linecap:butt;stroke-linejoin:miter;stroke-miterlimit:4;stroke-dasharray:none;stroke-dashoffset:0;stroke-opacity:1;-inkscape-stroke:none;stop-color:#000;stop-opacity:1" transform="translate(51.518 -12.23)scale(.26458)"><tspan x="215.982" y="304.713">D3</tspan></text><text xml:space="preserve" style="font-style:normal;font-variant:normal;font-weight:400;font-stretch:normal;font-size:14.6667px;line-height:1.25;font-family:&quot;Liberation Sans&quot;;-inkscape-font-specification:&quot;Liberation Sans&quot;;font-variant-ligatures:normal;font-variant-position:normal;font-variant-caps:normal;font-variant-numeric:normal;font-variant-alternates:normal;font-variant-east-asian:normal;font-feature-settings:normal;font-variation-settings:normal;text-indent:0;text-align:start;text-decoration-line:none;text-decoration-style:solid;text-decoration-color:#000;letter-spacing:normal;word-spacing:normal;text-transform:none;writing-mode:lr-tb;direction:ltr;text-orientation:mixed;dominant-baseline:auto;baseline-shift:baseline;white-space:pre;shape-inside:url(#g);shape-padding:0;shape-margin:0;inline-size:0;display:inline;opacity:1;vector-effect:none;fill:#000;fill-opacity:1;stroke-width:1;stroke-linecap:butt;stroke-linejoin:miter;stroke-miterlimit:4;stroke-dasharray:none;stroke-dashoffset:0;stroke-opacity:1;-inkscape-stroke:none;stop-color:#000;stop-opacity:1" transform="translate(26.261 -38.994)scale(.26458)"><tspan x="233.119" y="307.526">E2</tspan></text><circle cx="74.037" cy="72.616" r="24.026" style="fill:none;stroke:#ccc;stroke-width:.264584;stroke-linejoin:bevel"/><circle cx="74.037" cy="72.616" r="15.832" style="fill:none;stroke:#ccc;stroke-width:.264584;stroke-linejoin:bevel"/><text xml:space="preserve" style="font-style:normal;font-variant:normal;font-weight:400;font-stretch:normal;font-size:14.6667px;line-height:1.25;font-family:&quot;Liberation Sans&quot;;-inkscape-font-specification:&quot;Liberation Sans&quot;;font-variant-ligatures:normal;font-variant-position:normal;font-variant-caps:normal;font-variant-numeric:normal;font-variant-alternates:normal;font-variant-east-asian:normal;font-feature-settings:normal;font-variation-settings:normal;text-indent:0;text-align:start;text-decoration-line:none;text-decoration-style:solid;text-decoration-color:#000;letter-spacing:normal;word-spacing:normal;text-transform:none;writing-mode:lr-tb;direction:ltr;text-orientation:mixed;dominant-baseline:auto;baseline-shift:baseline;white-space:pre;shape-inside:url(#h);shape-padding:0;shape-margin:0;inline-size:0;display:inline;opacity:1;vector-effect:none;fill:teal;fill-opacity:1;stroke-width:1;stroke-linecap:butt;stroke-linejoin:miter;stroke-miterlimit:4;stroke-dasharray:none;stroke-dashoffset:0;stroke-opacity:1;-inkscape-stroke:none;stop-color:#000;stop-opacity:1" transform="translate(-24.61 -51.764)scale(.26458)"><tspan x="360.115" y="404.125">D4</tspan></text><path d="m86.515 57.366 11.351 5.706" style="fill:none;stroke:#000;stroke-width:.264583px;stroke-linecap:butt;stroke-linejoin:miter;stroke-opacity:1;marker-end:url(#a)"/><path d="m108.598 67.201-20.284 4.716" style="fill:none;stroke:#000;stroke-width:.264583px;stroke-linecap:butt;stroke-linejoin:miter;stroke-opacity:1;marker-end:url(#a)"/><path d="m90.176 42.73 3.06 9.594" style="fill:none;stroke:#000;stroke-width:.264583px;stroke-linecap:butt;stroke-linejoin:miter;stroke-opacity:1;marker-end:url(#a)"/><text xml:space="preserve" style="font-style:normal;font-variant:normal;font-weight:400;font-stretch:normal;font-size:14.6667px;line-height:1.25;font-family:&quot;Liberation Sans&quot;;-inkscape-font-specification:&quot;Liberation Sans&quot;;font-variant-ligatures:normal;font-variant-position:normal;font-variant-caps:normal;font-variant-numeric:normal;font-variant-alternates:normal;font-variant-east-asian:normal;font-feature-settings:normal;font-variation-settings:normal;text-indent:0;text-align:start;text-decoration-line:none;text-decoration-style:solid;text-decoration-color:#000;letter-spacing:normal;word-spacing:normal;text-transform:none;writing-mode:lr-tb;direction:ltr;text-orientation:mixed;dominant-baseline:auto;baseline-shift:baseline;white-space:pre;shape-inside:url(#i);shape-padding:0;shape-margin:0;inline-size:0;display:inline;opacity:1;vector-effect:none;fill:#000;fill-opacity:1;stroke-width:1;stroke-linecap:butt;stroke-linejoin:miter;stroke-miterlimit:4;stroke-dasharray:none;stroke-dashoffset:0;stroke-opacity:1;-inkscape-stroke:none;stop-color:#000;stop-opacity:1" transform="translate(-5.657 -43.279)scale(.26458)"><tspan x="417.027" y="334.719">N2</tspan></text><path d="m122.78 118.655 9.435-4.723" style="fill:none;stroke:#000;stroke-width:.264583px;stroke-linecap:butt;stroke-linejoin:miter;stroke-opacity:1;marker-end:url(#a)"/><text xml:space="preserve" style="font-style:normal;font-variant:normal;font-weight:400;font-stretch:normal;font-size:14.6667px;line-height:1.25;font-family:&quot;Liberation Sans&quot;;-inkscape-font-specification:&quot;Liberation Sans&quot;;font-variant-ligatures:normal;font-variant-position:normal;font-variant-caps:normal;font-variant-numeric:normal;font-variant-alternates:normal;font-variant-east-asian:normal;font-feature-settings:normal;font-variation-settings:normal;text-indent:0;text-align:start;text-decoration-line:none;text-decoration-style:solid;text-decoration-color:#000;letter-spacing:normal;word-spacing:normal;text-transform:none;writing-mode:lr-tb;direction:ltr;text-orientation:mixed;dominant-baseline:auto;baseline-shift:baseline;white-space:pre;shape-inside:url(#j);shape-padding:0;shape-margin:0;inline-size:0;display:inline;opacity:1;vector-effect:none;fill:#000;fill-opacity:1;stroke-width:1;stroke-linecap:butt;stroke-linejoin:miter;stroke-miterlimit:4;stroke-dasharray:none;stroke-dashoffset:0;stroke-opacity:1;-inkscape-stroke:none;stop-color:#000;stop-opacity:1" transform="translate(22.316 8.61)scale(.26458)"><tspan x="394.104" y="420.567">H1</tspan></text><text xml:space="preserve" style="font-style:normal;font-variant:normal;font-weight:400;font-stretch:normal;font-size:14.6667px;line-height:1.25;font-family:&quot;Liberation Sans&quot;;-inkscape-font-specification:&quot;Liberation Sans&quot;;font-variant-ligatures:normal;font-variant-position:normal;font-variant-caps:normal;font-variant-numeric:normal;font-variant-alternates:normal;font-variant-east-asian:normal;font-feature-settings:normal;font-variation-settings:normal;text-indent:0;text-align:start;text-decoration-line:none;text-decoration-style:solid;text-decoration-color:#000;letter-spacing:normal;word-spacing:normal;text-transform:none;writing-mode:lr-tb;direction:ltr;text-orientation:mixed;dominant-baseline:auto;baseline-shift:baseline;white-space:pre;shape-inside:url(#k);shape-padding:0;shape-margin:0;inline-size:0;display:inline;opacity:1;vector-effect:none;fill:teal;fill-opacity:1;stroke-width:1;stroke-linecap:butt;stroke-linejoin:miter;stroke-miterlimit:4;stroke-dasharray:none;stroke-dashoffset:0;stroke-opacity:1;-inkscape-stroke:none;stop-color:#000;stop-opacity:1" transform="translate(-29.296 -20.667)scale(.26458)"><tspan x="297.914" y="349.301">S23L</tspan></text><text xml:space="preserve" style="font-style:normal;font-variant:normal;font-weight:400;font-stretch:normal;font-size:14.6667px;line-height:1.25;font-family:&quot;Liberation Sans&quot;;-inkscape-font-specification:&quot;Liberation Sans&quot;;font-variant-ligatures:normal;font-variant-position:normal;font-variant-caps:normal;font-variant-numeric:normal;font-variant-alternates:normal;font-variant-east-asian:normal;font-feature-settings:normal;font-variation-settings:normal;text-indent:0;text-align:start;text-decoration-line:none;text-decoration-style:solid;text-decoration-color:#000;letter-spacing:normal;word-spacing:normal;text-transform:none;writing-mode:lr-tb;direction:ltr;text-orientation:mixed;dominant-baseline:auto;baseline-shift:baseline;white-space:pre;shape-inside:url(#l);shape-padding:0;shape-margin:0;inline-size:0;display:inline;opacity:1;vector-effect:none;fill:#000;fill-opacity:1;stroke-width:1;stroke-linecap:butt;stroke-linejoin:miter;stroke-miterlimit:4;stroke-dasharray:none;stroke-dashoffset:0;stroke-opacity:1;-inkscape-stroke:none;stop-color:#000;stop-opacity:1" transform="translate(-77.378 24.876)scale(.26458)"><tspan x="392.49" y="338.332">R32=D3/(D2+D3)</tspan></text><circle cx="74.037" cy="72.616" r="27.072" style="fill:none;stroke:#ccc;stroke-width:.264584;stroke-linejoin:bevel"/><path d="M52.527 98.857H62.76v1.62H52.527z" style="fill:none;fill-opacity:1;stroke:navy;stroke-width:.264583" transform="rotate(-23.752)"/><path d="M111.02-34.003h10.233v1.62H111.02z" style="fill:none;fill-opacity:1;stroke:navy;stroke-width:.264583" transform="rotate(23.752)scale(1 -1)"/><circle cx="95.428" cy="82.836" r="5.002" style="fill:none;stroke:navy;stroke-width:.264583;stroke-linejoin:bevel"/><circle cx="95.428" cy="82.836" r="3.369" style="fill:none;stroke:navy;stroke-width:.264583;stroke-linejoin:bevel"/><path d="M98.525 84.083s-.97 2.04-1.572 2.994a26.4 26.4 0 0 1-2.378 3.171c-.529.611-1.714 1.715-1.714 1.715l1.057 1.07s1.411-1.125 1.999-1.803c.66-.761 1.115-1.677 1.685-2.507.545-.794 1.159-1.542 1.658-2.365.291-.48.776-1.492.776-1.492zM92.894 53.364s1.64 1.554 2.36 2.422a26.4 26.4 0 0 1 2.28 3.242c.417.693 1.1 2.161 1.1 2.161l1.344-.673s-.65-1.538-1.065-2.26c-.541-.941-1.199-1.811-1.848-2.681a33 33 0 0 0-1.78-2.206 32 32 0 0 0-1.179-1.198zM92.835 91.947s-1.602 1.593-2.49 2.287a26.4 26.4 0 0 1-3.31 2.182c-.704.397-2.192 1.036-2.192 1.036l.633 1.363s1.708-.582 2.49-1.022c.878-.493 1.616-1.202 2.433-1.79.781-.563 1.611-1.06 2.36-1.666.435-.353 1.233-1.143 1.233-1.143z" style="fill:none;stroke:navy;stroke-width:.264583"/><circle cx="83.835" cy="94.214" r="5.002" style="fill:none;stroke:navy;stroke-width:.264583;stroke-linejoin:bevel"/><circle cx="83.835" cy="94.214" r="3.369" style="fill:none;stroke:navy;stroke-width:.264583;stroke-linejoin:bevel"/><path d="M84.921 47.82s2.06.93 3.025 1.512a26.4 26.4 0 0 1 3.218 2.314c.621.517 1.75 1.68 1.75 1.68l1.047-1.078s-1.12-1.24-1.748-1.785c-.82-.71-1.727-1.317-2.626-1.925a33 33 0 0 0-2.406-1.498 32 32 0 0 0-1.507-.746z" style="fill:none;stroke:navy;stroke-width:.264583"/><path d="m353.49 349.308-1.447-1.462 2.433-2.589c3.615-3.847 6.457-7.288 9.931-12.026.827-1.128 1-1.274 1.737-1.47 1.983-.53 4.433-1.728 5.972-2.922.348-.27.677-.449.73-.396.113.113-.914 1.659-3.14 4.728a91 91 0 0 0-2.98 4.427c-2.412 3.878-6.85 9.133-9.818 11.626-1.011.85-1.868 1.546-1.904 1.546s-.717-.658-1.513-1.462M366.49 330.183c.069-.115.304-.499.524-.852.74-1.188 3.745-6.685 4.739-8.669l.984-1.964 2.045 1.022c1.125.562 2.069 1.043 2.098 1.07.03.026-.291.757-.713 1.623-1.524 3.133-4.71 5.995-8.397 7.542-1.152.484-1.463.54-1.28.228M373.91 312.185c-.047-3.409-2.183-7.474-5.07-9.649l-.468-.353.935-2.139c.515-1.176 1.005-2.207 1.088-2.29.172-.172 1.398.705 2.883 2.062 1.082.989 2.83 3.233 3.346 4.292l.34.703-.865 2.494a129 129 0 0 1-1.521 4.146l-.654 1.653zM375.397 318.643c-2.373-1.16-2.224-.999-1.765-1.915.603-1.205 2.059-4.837 3.118-7.78l.954-2.652.355 1.068c.855 2.567 1.12 6.435.618 9.024-.265 1.367-1.018 3.154-1.32 3.132-.108-.008-.99-.403-1.96-.877M360.416 298.36c-3.055-1.344-5.554-2.494-5.554-2.555 0-.137 1.563-.574 2.912-.815 1.224-.218 4.36-.228 5.643-.018 1.132.185 3.466.8 3.785.998.182.113.11.562-.384 2.37-.334 1.226-.662 2.282-.728 2.346s-2.62-.982-5.674-2.326M367.263 301.035c.675-2.462 1.201-4.315 1.243-4.37.028-.037.233.015.456.116l.405.185-.947 2.175c-.521 1.197-1.012 2.179-1.092 2.181s-.109-.126-.065-.287M346.284 292.164c-5.355-2.37-6.548-2.954-6.097-2.985a15.2 15.2 0 0 0 5.753-1.567c.86-.424 1.155-.498 1.451-.366.205.091 3.522 1.55 7.373 3.24l7 3.075-2.073.105c-2.124.107-4.248.523-5.802 1.136-.482.19-.893.337-.912.327s-3.032-1.344-6.693-2.965M338.907 288.026c-.109-.04-.023-.816.235-2.135.353-1.802.443-2.057.693-1.961 1.159.445 5.665 2.467 5.669 2.544.008.188-2.107.955-3.337 1.21-1.321.274-2.973.447-3.26.342M336.822 287.844c-.348-.06-3.445-1.323-3.658-1.491-.067-.053 1.627-4.046 1.813-4.272.09-.108 1.199.27 2.864.98l.602.256-.3 1.614c-.595 3.215-.521 3.053-1.32 2.913M330.81 285.069a13.73 13.73 0 0 1-4.914-7.996c-.443-2.156-.656-1.97 2.246-1.97 1.869 0 2.524.054 2.564.21.03.114.18.734.334 1.377.336 1.395 1.063 2.66 2.162 3.762l.805.809-.972 2.21c-.535 1.217-1.048 2.237-1.14 2.267s-.58-.27-1.086-.67M325.7 272.938c.315-2.78 1.638-5.655 3.525-7.66.665-.705 1.548-1.525 1.963-1.823l.755-.54 1.035 2.355 1.035 2.355-.587.484c-1.213 1-2.362 3.217-2.694 5.199l-.105.626h-5.04zM333.983 264.63c-.506-1.162-.94-2.163-.966-2.225-.135-.32 4.228-1.663 4.479-1.378.12.137.83 3.617.83 4.072 0 .179-.527.5-1.572.96-.865.381-1.635.691-1.712.689s-.554-.955-1.06-2.117M339.42 264.372c-.044-.207-.203-1.01-.354-1.786s-.317-1.52-.368-1.654c-.189-.492 3.482.047 5.524.81.523.197.952.416.952.488 0 .122-5.283 2.518-5.55 2.518-.068 0-.16-.17-.203-.376M345.365 260.962c-1.165-.552-3.31-1.108-5.092-1.321-.445-.053-.783-.121-.752-.151s3.041-1.37 6.689-2.977l6.63-2.921 1.088.394c1.823.662 3.257.935 5.508 1.048l2.153.11-7.33 3.217c-4.032 1.77-7.406 3.21-7.498 3.2-.092-.008-.72-.278-1.396-.599M357.868 253.78c-1.225-.193-3.345-.786-3.227-.905.249-.247 11.266-5.032 11.364-4.935.052.053.38 1.093.727 2.313.55 1.932.6 2.242.383 2.411-.298.232-2.534.85-3.865 1.068-.92.15-4.52.182-5.382.047M367.78 249.707c-.368-1.29-.622-2.375-.566-2.41.056-.034.534.928 1.06 2.138.882 2.023.937 2.217.674 2.409-.158.115-.335.209-.394.209s-.408-1.056-.775-2.346M369.676 249.676c-.327-.76-.781-1.801-1.009-2.314l-.414-.934.828-.653c2.484-1.96 4.353-5.632 4.613-9.064l.093-1.228.401.977c.867 2.112 2.555 6.936 2.555 7.299 0 .454-1.419 2.657-2.563 3.981-.802.927-2.528 2.442-3.438 3.018l-.47.299zM376.676 239.724a133 133 0 0 0-1.985-5.09c-.64-1.542-1.137-2.832-1.102-2.867.275-.271 4.105-1.872 4.218-1.763.08.077.29.729.468 1.448.425 1.724.577 4.95.316 6.733-.196 1.343-.763 3.476-.987 3.71-.06.064-.478-.913-.928-2.17M371.837 227.9c-1.423-2.912-2.835-5.423-4.384-7.798-.586-.899-1.066-1.666-1.066-1.705 0-.15 1.47.46 2.669 1.106 3.162 1.705 5.644 4.158 7.113 7.028.515 1.007.911 1.85.88 1.875-.03.024-.934.497-2.008 1.05l-1.953 1.006zM371.822 219.818c-1.152-.901-3.406-2.06-5.143-2.643l-1.462-.49-1.197-1.65c-2.47-3.405-6.852-8.607-9.77-11.597l-1.883-1.93 1.664-1.657 1.665-1.659 1.188 1.166c2.648 2.598 7.051 7.78 9.865 11.611 1.26 1.715 3.74 5.43 4.855 7.269 1.569 2.589 1.576 2.643.218 1.58" style="fill:#ffb380;stroke:none;stroke-width:1" transform="scale(.26458)"/><path d="M45.682 72.616h16.041" style="fill:#ffb380;stroke:#000;stroke-width:.264583;marker-start:url(#a);marker-end:url(#a)"/><path d="m74.037 72.616 40.122.015M80.505 72.686l29.558 12.683" style="fill:teal;stroke:#fc0;stroke-width:.264583"/><path d="M111.287 72.972s.788 4.307.379 6.347c-.41 2.045-2.675 5.084-2.675 5.084" style="fill:none;stroke:#fc0;stroke-width:.264582;marker-start:url(#a);marker-end:url(#a)"/><text xml:space="preserve" style="font-size:14.6667px;white-space:pre;shape-inside:url(#m);display:inline;fill:teal;stroke:none" transform="translate(-12.612 -2.82)scale(.26458)"><tspan x="472.889" y="313.509">af</tspan></text><path d="m84.843 97.452 9 9.262" style="fill:none;stroke:#4d4d4d;stroke-width:.264583"/><text xml:space="preserve" style="font-size:14.6667px;white-space:pre;shape-inside:url(#n);display:inline;fill:teal;stroke:none" transform="translate(-5.914 4.797)scale(.26458)"><tspan x="403.824" y="372.87">W2</tspan></text><path d="M121.579 83.683 74.035 72.65l47.286-11.306" style="fill:none;stroke:#acf;stroke-width:.264583"/><path d="M118.753 62.488s2.369 6.07 2.452 9.264c.096 3.69-2.273 10.838-2.273 10.838" style="fill:none;stroke:#0055d4;stroke-width:.264583;marker-start:url(#a);marker-end:url(#a)"/><path d="M123.594 49.94s4.819 13.83 4.988 21.106c.195 8.407-4.624 24.692-4.624 24.692" style="fill:none;stroke:#0055d4;stroke-width:.264584;marker-start:url(#o);marker-end:url(#o)"/><text xml:space="preserve" style="font-size:14.6667px;white-space:pre;shape-inside:url(#p);display:inline;fill:#0055d4;stroke:none" transform="scale(.26458)"><tspan x="458.115" y="274.015">av</tspan></text><text xml:space="preserve" style="font-size:14.6667px;white-space:pre;shape-inside:url(#q);display:inline;fill:#0055d4;stroke:none" transform="translate(-.827 -20.088)scale(.26458)"><tspan x="490.518" y="351.487">aw</tspan></text><text xml:space="preserve" style="font-style:normal;font-variant:normal;font-weight:400;font-stretch:normal;font-size:14.6667px;font-family:&quot;DejaVu Sans Mono&quot;;-inkscape-font-specification:&quot;DejaVu Sans Mono&quot;;white-space:pre;shape-inside:url(#r);display:inline;fill:#0055d4;stroke:none" transform="translate(-13.371 -2.938)scale(.26458)"><tspan x="149.977" y="458.648">Rvw=av/aw</tspan></text><path d="m73.375 55.313.14 4.734" style="fill:none;stroke:#000;stroke-width:.264583px;stroke-linecap:butt;stroke-linejoin:miter;stroke-opacity:1;marker-end:url(#a)"/><path d="m65.802 60.761 1.438 1.78" style="fill:none;stroke:#000;stroke-width:.264583px;stroke-linecap:butt;stroke-linejoin:miter;stroke-opacity:1;marker-end:url(#s)"/><path d="m69.78 66.095-1.438-1.78" style="fill:none;stroke:#000;stroke-width:.264583px;stroke-linecap:butt;stroke-linejoin:miter;stroke-opacity:1;marker-end:url(#t)"/><text xml:space="preserve" style="font-size:14.6667px;white-space:pre;shape-inside:url(#u);display:inline;fill:#000;stroke:none" transform="translate(-5.445 -11.33)scale(.26458)"><tspan x="256.428" y="271.036">E4</tspan></text><circle cx="74.037" cy="72.616" r="11.987" style="fill:none;stroke:#faa;stroke-width:.264584;stroke-linejoin:bevel"/><circle cx="73.95" cy="72.523" r="10.201" style="fill:none;stroke:#faa;stroke-width:.264584;stroke-linejoin:bevel"/><path d="m98.62 84.322 9 9.262" style="fill:none;stroke:#4d4d4d;stroke-width:.264583"/><text xml:space="preserve" style="font-style:normal;font-variant:normal;font-weight:400;font-stretch:normal;font-size:14.6667px;font-family:&quot;Liberation Mono&quot;;-inkscape-font-specification:&quot;Liberation Mono&quot;;white-space:pre;shape-inside:url(#v);display:inline;fill:#000;stroke:none" transform="translate(-2.067 -9.219)scale(.26458)"><tspan x="107.252" y="500.232">RW2=aW2/aPeriod</tspan></text></g></svg>