<svg xmlns="http://www.w3.org/2000/svg" width="459.586" height="420.845" viewBox="0 0 121.599 111.349"><defs><path id="i" d="M399.574 131.539h40.993v47.3h-40.993z"/><path id="h" d="M272.539 54.958h122.53v94.15h-122.53z"/><path id="g" d="M54.508 434.26h38.291v26.128H54.508z"/><path id="f" d="M260.376 431.107h37.84v34.687h-37.84z"/><path id="d" d="M32.922 187.399h28.794v33.705H32.922z"/><path id="c" d="M26.42 387.145h40.701v37.656H26.42z"/><path id="b" d="M21.623 330.2h33.335v33.786H21.623z"/><path id="a" d="M27.93 261.434h36.489v45.792H27.93z"/><marker id="e" markerHeight="1" markerWidth="1" orient="auto-start-reverse" preserveAspectRatio="xMidYMid" refX="0" refY="0" style="overflow:visible" viewBox="0 0 1 1"><path d="M3-3 0 0l3 3" style="fill:none;stroke:context-stroke;stroke-width:1;stroke-linecap:butt" transform="rotate(180 .125 0)"/></marker></defs><g transform="translate(-13.455 -26.328)"><path d="M13.588 26.46h121.334v111.084H13.588z" style="fill:#fff;stroke:#fff;stroke-width:.264583;stroke-linejoin:round"/><path d="M24.272 55.458h104.675v72.286H24.272z" style="fill:#caf;stroke:#000;stroke-width:.264583;stroke-linejoin:round"/><path d="M32.21 63.395h88.8v56.411h-88.8z" style="fill:#fff;stroke:#000;stroke-width:.264583;stroke-linejoin:round"/><path d="M68.506 71.333h47.212v40.536H68.506z" style="fill:#80b3ff;stroke:#000;stroke-width:.264583;stroke-linejoin:round"/><path d="M76.444 79.27h31.337v24.661H76.444z" style="fill:#fff;stroke:#000;stroke-width:.264583;stroke-linejoin:round"/><path d="M37.502 71.333h21.182v40.536H37.502z" style="fill:#afe9af;stroke:#000;stroke-width:.264583;stroke-linejoin:round"/><rect width="5.292" height="40.536" x="115.718" y="71.333" ry="0" style="fill:#ffb380;stroke:#000;stroke-width:.264583;stroke-linejoin:round"/><rect width="5.292" height="40.536" x="32.21" y="71.333" ry="0" style="fill:#ffb380;stroke:#000;stroke-width:.264583;stroke-linejoin:round"/><rect width="5.292" height="14.228" x="102.489" y="84.487" ry="0" style="fill:#ffb380;stroke:#000;stroke-width:.264583;stroke-linejoin:round"/><rect width="18.848" height="14.228" x="83.64" y="84.487" ry="0" style="fill:#5fd35f;stroke:#000;stroke-width:.264583;stroke-linejoin:round"/><circle cx="48.093" cy="91.601" r="6.138" style="fill:#fff;stroke:#000;stroke-width:.264583;stroke-linejoin:round"/><circle cx="92.112" cy="91.601" r="5.088" style="fill:#fff;stroke:#000;stroke-width:.264583;stroke-linejoin:round"/><text xml:space="preserve" style="font-size:16px;line-height:normal;font-family:&quot;Liberation Mono&quot;;-inkscape-font-specification:&quot;Liberation Mono&quot;;text-decoration-color:#000;white-space:pre;shape-inside:url(#a);display:inline;fill:#000;stroke-width:1;-inkscape-stroke:none;stop-color:#000" transform="translate(63.647 19.66)scale(.26458)"><tspan x="27.93" y="275.67">1</tspan></text><text xml:space="preserve" style="font-size:16px;line-height:normal;font-family:&quot;Liberation Mono&quot;;-inkscape-font-specification:&quot;Liberation Mono&quot;;text-decoration-color:#000;white-space:pre;shape-inside:url(#b);display:inline;fill:#000;stroke-width:1;-inkscape-stroke:none;stop-color:#000" transform="translate(65.41 34.73)scale(.26458)"><tspan x="21.623" y="344.436">2</tspan></text><text xml:space="preserve" style="font-size:16px;line-height:normal;font-family:&quot;Liberation Mono&quot;;-inkscape-font-specification:&quot;Liberation Mono&quot;;text-decoration-color:#000;white-space:pre;shape-inside:url(#c);display:inline;fill:#000;stroke-width:1;-inkscape-stroke:none;stop-color:#000" transform="translate(39.834 .614)scale(.26458)"><tspan x="26.42" y="401.381">3</tspan></text><text xml:space="preserve" style="font-size:16px;line-height:normal;font-family:&quot;Liberation Mono&quot;;-inkscape-font-specification:&quot;Liberation Mono&quot;;text-decoration-color:#000;white-space:pre;shape-inside:url(#d);display:inline;fill:#000;stroke-width:1;-inkscape-stroke:none;stop-color:#000" transform="translate(75.335 34.77)scale(.26458)"><tspan x="32.922" y="201.635">4</tspan></text><path d="M22.156 127.744V55.458" style="fill:#80b3ff;stroke:#000;stroke-width:.264583;stroke-linejoin:round;marker-start:url(#e);marker-end:url(#e)"/><path d="M24.272 129.86h104.675" style="fill:#80b3ff;stroke:#000;stroke-width:.264583;stroke-linejoin:round;marker-start:url(#e);marker-end:url(#e)"/><text xml:space="preserve" style="font-size:16px;line-height:normal;font-family:&quot;Liberation Mono&quot;;-inkscape-font-specification:&quot;Liberation Mono&quot;;text-decoration-color:#000;white-space:pre;shape-inside:url(#f);fill:#000;stroke-width:1;-inkscape-stroke:none;stop-color:#000" transform="translate(2.622 16.466)scale(.26458)"><tspan x="260.375" y="445.344">L1</tspan></text><text xml:space="preserve" style="font-size:16px;line-height:normal;font-family:&quot;Liberation Mono&quot;;-inkscape-font-specification:&quot;Liberation Mono&quot;;text-decoration-color:#000;white-space:pre;shape-inside:url(#g);fill:#000;stroke-width:1;-inkscape-stroke:none;stop-color:#000" transform="translate(2.026 -25.727)scale(.26458)"><tspan x="54.508" y="448.496">W1</tspan></text><text xml:space="preserve" style="font-size:16px;line-height:normal;font-family:&quot;Liberation Mono&quot;;-inkscape-font-specification:&quot;Liberation Mono&quot;;text-decoration-color:#000;white-space:pre;shape-inside:url(#h);fill:#000;stroke-width:1;-inkscape-stroke:none;stop-color:#000" transform="translate(-.715 14.44)scale(.26458)"><tspan x="272.539" y="69.195">Jangle
</tspan><tspan x="272.539" y="89.195">Jradius
</tspan><tspan x="272.539" y="109.195">Jneutral
</tspan><tspan x="272.539" y="129.195">Jmark</tspan></text><path d="M75.804 50.536 35.637 70.083" style="fill:#80b3ff;stroke:#000;stroke-width:.264583;stroke-linejoin:round;marker-end:url(#e)"/><path d="m78.307 50.536 25.864 32.42" style="fill:#80b3ff;stroke:#000;stroke-width:.264583;stroke-linejoin:round;marker-end:url(#e)"/><path d="m80.214 50.178 35.995 20.024" style="fill:#80b3ff;stroke:#000;stroke-width:.264583;stroke-linejoin:round;marker-end:url(#e)"/><text xml:space="preserve" style="font-size:16px;line-height:normal;font-family:&quot;Liberation Mono&quot;;-inkscape-font-specification:&quot;Liberation Mono&quot;;text-decoration-color:#000;white-space:pre;shape-inside:url(#i);fill:#000;stroke-width:1;-inkscape-stroke:none;stop-color:#000" transform="scale(.26458)"><tspan x="399.574" y="145.775">Th</tspan></text><path d="m111.68 42.55 1.55-7.628" style="fill:#80b3ff;stroke:#000;stroke-width:.264583;stroke-linejoin:round;marker-end:url(#e)"/></g></svg>