<svg xmlns="http://www.w3.org/2000/svg" width="375.598" height="374.961" viewBox="0 0 99.377 99.208"><defs><path id="k" d="M242.724 499.464h68.167v48.417h-68.167z"/><path id="j" d="M42.047 469.522h42.047v33.128H42.047z"/><path id="i" d="M85.368 421.741h51.603v38.861H85.368z"/><path id="h" d="M52.877 379.695h64.981v40.773H52.877z"/><path id="g" d="M330.64 403.903h54.788v38.224H330.64z"/><path id="f" d="M57.973 80.271h145.252v111.487H57.973z"/><path id="e" d="M327.336 384.791h54.907v46.506h-54.907z"/><path id="d" d="M112.125 390.525h52.877v36.95h-52.877z"/><path id="c" d="M154.626 211.376h36.939v32.783h-36.939z"/><marker id="a" markerHeight="1" markerWidth="1" orient="auto-start-reverse" preserveAspectRatio="xMidYMid" refX="0" refY="0" style="overflow:visible" viewBox="0 0 1 1"><path d="M3-3 0 0l3 3" style="fill:none;stroke:context-stroke;stroke-width:1;stroke-linecap:butt" transform="rotate(180,0.125,0)"/></marker><marker id="b" markerHeight="1" markerWidth="1" orient="auto-start-reverse" preserveAspectRatio="xMidYMid" refX="0" refY="0" style="overflow:visible" viewBox="0 0 1 1"><path d="M3-3 0 0l3 3" style="fill:none;stroke:context-stroke;stroke-width:1;stroke-linecap:butt" transform="rotate(180,0.125,0)"/></marker></defs><path d="M30.509 23.598h99.112v98.944H30.509z" style="fill:#fff;stroke:#fff;stroke-width:.264583;stroke-linejoin:round;stroke-dasharray:none" transform="translate(-30.376789,-23.465891)"/><path d="M49.849 79.037H64.15v29.099H49.849z" style="fill:#ffe6d5;stroke:#ff7f2a;stroke-width:.264584;stroke-linejoin:round" transform="translate(-30.376789,-23.465891) matrix(0.98233506,-0.18713053,0.186161,0.98251925,0,0)"/><path d="M45.258 68.314h18.447l5.369 28.6H39.89ZM77.744 65.66l17.178-6.74 15.394 24.672-27.177 10.663Z" style="fill:#c6e9af;stroke:green;stroke-width:.264583;stroke-linejoin:round" transform="translate(-30.376789,-23.465891)"/><path d="M48.944 100.538h14.31v29.08h-14.31z" style="fill:#ffe6d5;stroke:#ff7f2a;stroke-width:.264584;stroke-linejoin:round" transform="translate(-30.376789,-23.465891) matrix(0.84526386,-0.53434914,0.53229524,0.84655879,0,0)"/><path d="m69.67 99.384 14.049-2.676" style="fill:#1a1a1a;stroke:#999;stroke-width:.264583;stroke-linejoin:round;stroke-dasharray:none;marker-start:url(#a);marker-end:url(#a)" transform="translate(-30.376789,-23.465891)"/><path d="m68.833 95.048 1.85-.586.34 2.001" style="fill:none;stroke:#666;stroke-width:.264583;stroke-linejoin:round;stroke-dasharray:none" transform="translate(-30.376789,-23.465891)"/><path d="M75.505 66.539 80.9 94.267" style="fill:none;stroke:#999;stroke-width:.264583;stroke-linejoin:round;stroke-dasharray:none;marker-start:url(#a);marker-end:url(#a)" transform="translate(-30.376789,-23.465891)"/><path d="M40.653 93.34s1.593.605 2.044 1.269c.409.601.39 2.147.39 2.147M68.334 93.43s-1.593.605-2.044 1.269c-.409.6-.39 2.147-.39 2.147" style="fill:none;stroke:maroon;stroke-width:.264583;stroke-linejoin:round;stroke-dasharray:none" transform="translate(-30.376789,-23.465891)"/><path d="m45.258 66.58 18.424.014" style="fill:none;stroke:#b3b3b3;stroke-width:.264583;stroke-linejoin:round;stroke-dasharray:none;marker-start:url(#a);marker-end:url(#a)" transform="translate(-30.376789,-23.465891)"/><path d="m40.092 99.513 28.596.014" style="fill:none;stroke:#999;stroke-width:.264583;stroke-linejoin:round;stroke-dasharray:none;marker-start:url(#b);marker-end:url(#b)" transform="translate(-30.376789,-23.465891)"/><text xml:space="preserve" style="font-size:16px;line-height:normal;font-family:&quot;Liberation Mono&quot;;-inkscape-font-specification:&quot;Liberation Mono&quot;;text-decoration-color:#000;white-space:pre;shape-inside:url(#c);display:inline;fill:#666;stroke-width:1;-inkscape-stroke:none;stop-color:#000" transform="translate(-30.376789,-23.465891) matrix(0.26458333,0,0,0.26458333,11.120557,5.2997265)"><tspan x="154.627" y="225.611">TW1</tspan></text><text xml:space="preserve" style="font-size:16px;line-height:normal;font-family:&quot;Liberation Mono&quot;;-inkscape-font-specification:&quot;Liberation Mono&quot;;text-decoration-color:#000;white-space:pre;shape-inside:url(#d);display:inline;fill:#666;stroke-width:1;-inkscape-stroke:none;stop-color:#000" transform="translate(-30.376789,-23.465891) matrix(0.26458333,0,0,0.26458333,21.274687,-3.8544446)"><tspan x="112.125" y="404.762">TW2</tspan></text><text xml:space="preserve" style="font-size:16px;line-height:normal;font-family:&quot;Liberation Mono&quot;;-inkscape-font-specification:&quot;Liberation Mono&quot;;text-decoration-color:#000;white-space:pre;shape-inside:url(#e);display:inline;fill:#666;stroke-width:1;-inkscape-stroke:none;stop-color:#000" transform="translate(-30.376789,-23.465891) matrix(0.26458333,0,0,0.26458333,-14.53533,-23.778777)"><tspan x="327.336" y="399.027">L1</tspan></text><path d="m70.732 64.64 2.36-18.205" style="fill:none;stroke:#00f;stroke-width:.264583;stroke-linejoin:round;stroke-dasharray:none;marker-start:url(#a)" transform="translate(-30.376789,-23.465891)"/><path d="m95.839 55.276-21.07-9.44" style="fill:none;stroke:#00f;stroke-width:.264583;stroke-linejoin:round;stroke-dasharray:none;marker-start:url(#a)" transform="translate(-30.376789,-23.465891)"/><text xml:space="preserve" style="font-size:16px;line-height:normal;font-family:&quot;Liberation Mono&quot;;-inkscape-font-specification:&quot;Liberation Mono&quot;;text-decoration-color:#000;white-space:pre;shape-inside:url(#f);display:inline;fill:#00f;stroke-width:1;-inkscape-stroke:none;stop-color:#000" transform="translate(-30.376789,-23.465891) matrix(0.26458333,0,0,0.26458333,45.785659,4.4641273)"><tspan x="57.973" y="94.508"><tspan style="fill:#999">Jangle</tspan>
</tspan><tspan x="57.973" y="114.508">Jradius
</tspan><tspan x="57.973" y="134.508">Jneutral
</tspan><tspan x="57.973" y="154.508">Jmark</tspan></text><path d="M39.886 104.25s15.61 5.732 23.598 4.889c7.631-.805 21.07-9.27 21.07-9.27M85.05 99.868s16.629.09 23.857-3.415c6.904-3.348 16.67-15.874 16.67-15.874" style="fill:none;stroke:teal;stroke-width:.264583;stroke-linejoin:round;stroke-dasharray:none" transform="translate(-30.376789,-23.465891)"/><path d="m73.598 108.633 11.967 6.574" style="fill:none;stroke:teal;stroke-width:.264583;stroke-linejoin:round;stroke-dasharray:none;marker-start:url(#a)" transform="translate(-30.376789,-23.465891)"/><path d="m99.387 101.722-10.956 12.98" style="fill:none;stroke:teal;stroke-width:.264583;stroke-linejoin:round;stroke-dasharray:none;marker-start:url(#a)" transform="translate(-30.376789,-23.465891)"/><text xml:space="preserve" style="font-size:16px;line-height:normal;font-family:&quot;Liberation Mono&quot;;-inkscape-font-specification:&quot;Liberation Mono&quot;;text-decoration-color:#000;white-space:pre;shape-inside:url(#g);display:inline;fill:teal;stroke-width:1;-inkscape-stroke:none;stop-color:#000" transform="translate(-30.376789,-23.465891) matrix(0.26458333,0,0,0.26458333,-1.2421447,9.1837643)"><tspan x="330.641" y="418.139">N1</tspan></text><text xml:space="preserve" style="font-size:16px;line-height:normal;font-family:&quot;Liberation Mono&quot;;-inkscape-font-specification:&quot;Liberation Mono&quot;;text-decoration-color:#000;white-space:pre;shape-inside:url(#h);display:inline;fill:#999;stroke-width:1;-inkscape-stroke:none;stop-color:#000" transform="translate(-30.376789,-23.465891) matrix(0.26458333,0,0,0.26458333,29.604048,-9.8633343)"><tspan x="52.877" y="393.932">a1</tspan></text><path d="M54.01 68.434v28.15" style="fill:#999;stroke:#666;stroke-width:.264583;stroke-linejoin:round;stroke-dasharray:none;marker-start:url(#a);marker-end:url(#a)" transform="translate(-30.376789,-23.465891)"/><text xml:space="preserve" style="font-size:16px;line-height:normal;font-family:&quot;Liberation Mono&quot;;-inkscape-font-specification:&quot;Liberation Mono&quot;;text-decoration-color:#000;white-space:pre;shape-inside:url(#i);display:inline;fill:#666;stroke-width:1;-inkscape-stroke:none;stop-color:#000" transform="translate(-30.376789,-23.465891) matrix(0.26458333,0,0,0.26458333,26.059063,-32.194942)"><tspan x="85.367" y="435.979">T1</tspan></text><path d="m43.32 115.125 4.72-3.708" style="fill:#fff;stroke:#f0f;stroke-width:.264583;stroke-linejoin:round;marker-end:url(#a)" transform="translate(-30.376789,-23.465891)"/><text xml:space="preserve" style="font-size:16px;line-height:normal;font-family:&quot;Liberation Mono&quot;;-inkscape-font-specification:&quot;Liberation Mono&quot;;text-decoration-color:#000;white-space:pre;shape-inside:url(#j);display:inline;fill:#f0f;stroke-width:1;-inkscape-stroke:none;stop-color:#000" transform="translate(-30.376789,-23.465891) matrix(0.26458333,0,0,0.26458333,35.565835,-11.461975)"><tspan x="42.047" y="483.758">Th</tspan></text><text xml:space="preserve" style="font-size:16px;line-height:normal;font-family:&quot;Liberation Mono&quot;;-inkscape-font-specification:&quot;Liberation Mono&quot;;text-decoration-color:#000;white-space:pre;shape-inside:url(#k);display:inline;fill:#666;stroke-width:1;-inkscape-stroke:none;stop-color:#000" transform="translate(-30.376789,-23.465891) matrix(0.26458333,0,0,0.26458333,10.113508,-34.072301)"><tspan x="242.725" y="513.701">JW</tspan></text></svg>