<svg xmlns="http://www.w3.org/2000/svg" width="280.965" height="241.106" viewBox="0 0 74.339 63.793"><defs><path id="n" d="M181.565 1094.807h37.109v19.112h-37.109z"/><path id="l" d="M278.082 866.417h83.456v27.713h-83.456z"/><path id="k" d="M427.053 1093.759h42.795v35.137h-42.795z"/><path id="j" d="M158.568 1105.472h54.508v64.418h-54.508z"/><path id="h" d="M387.636 1087.227h31.759v29.506h-31.759z"/><path id="g" d="M342.363 892.846h107.214v44.147H342.363z"/><path id="f" d="M404.529 980.915h34.236v38.065h-34.236z"/><path id="b" d="M412.637 1067.056h54.057v34.812h-54.057z"/><path id="a" d="M429.756 1047.36h50.453v32.885h-50.453z"/><path id="i" d="M387.636 1087.227h31.759v29.506h-31.759z"/><path id="o" d="M181.565 1094.807h37.109v19.112h-37.109z"/><marker id="c" markerHeight="1" markerWidth="1" orient="auto-start-reverse" preserveAspectRatio="xMidYMid" refX="0" refY="0" style="overflow:visible" viewBox="0 0 1 1"><path d="M3-3 0 0l3 3" style="fill:none;stroke:context-stroke;stroke-width:1;stroke-linecap:butt" transform="rotate(180 .125 0)"/></marker><marker id="d" markerHeight="1" markerWidth="1" orient="auto-start-reverse" preserveAspectRatio="xMidYMid" refX="0" refY="0" style="overflow:visible" viewBox="0 0 1 1"><path d="M3-3 0 0l3 3" style="fill:none;stroke:context-stroke;stroke-width:1;stroke-linecap:butt" transform="rotate(180 .125 0)"/></marker><marker id="e" markerHeight="1" markerWidth="1" orient="auto-start-reverse" preserveAspectRatio="xMidYMid" refX="0" refY="0" style="overflow:visible" viewBox="0 0 1 1"><path d="M3-3 0 0l3 3" style="fill:none;stroke:context-stroke;stroke-width:1;stroke-linecap:butt" transform="rotate(180 .125 0)"/></marker><marker id="m" markerHeight="1" markerWidth="1" orient="auto-start-reverse" preserveAspectRatio="xMidYMid" refX="0" refY="0" style="overflow:visible" viewBox="0 0 1 1"><path d="M3-3 0 0l3 3" style="fill:none;stroke:context-stroke;stroke-width:1;stroke-linecap:butt" transform="rotate(180 .125 0)"/></marker></defs><g transform="translate(-37.593 -228.59)"><path d="M37.725 228.723h74.074v63.528H37.725z" style="fill:#fff;stroke:#fff;stroke-width:.264583;stroke-linejoin:round"/><circle cx="73.337" cy="254.99" r="3.455" style="fill:none;stroke:#999;stroke-width:.264583;stroke-linejoin:round"/><circle cx="65.31" cy="262.093" r="3.455" style="fill:none;stroke:#999;stroke-width:.264583;stroke-linejoin:round"/><path d="m91.597 265.97 3.814.834 1.43-6.019s.965-3.968.114-6.053c-.819-2.01-4.226-4.376-4.226-4.376l-5.662-2.682-1.966 3.934 5.006 2.8s1.777 1.066 2.273 2.082c.533 1.093.29 3.46.29 3.46z" style="fill:#ccc;stroke:#666;stroke-width:.264583;stroke-linejoin:round"/><ellipse cx="74.54" cy="264.532" rx="23.464" ry="23.644" style="fill:none;stroke:#ffe680;stroke-width:.264583;stroke-linejoin:round"/><ellipse cx="74.284" cy="264.068" rx="13.631" ry="13.513" style="fill:none;stroke:#ffe680;stroke-width:.264583;stroke-linejoin:round"/><path d="m88.08 258.52-27.452 2.744-11.091-25.261 20.596-18.355 23.822 13.916z" style="fill:none;stroke:purple;stroke-width:.264583;stroke-linejoin:round" transform="translate(2.026 23.719)"/><path d="m88.08 258.52-27.452 2.744-11.091-25.261 20.596-18.355 23.822 13.916z" style="fill:none;stroke:purple;stroke-width:.454672;stroke-linejoin:round" transform="matrix(.58194 0 0 .5819 32.02 123.835)"/><path d="m83.278 274.268 6.829 7.971M86.696 258.582l9.285-3.299M72.834 250.484l-.674-9.118M60.847 261.165l-9.284-1.444M67.302 275.864l-4.647 9.118" style="fill:none;stroke:#4a0;stroke-width:.264583;stroke-linejoin:round"/><text xml:space="preserve" style="font-size:16px;line-height:normal;font-family:&quot;Liberation Mono&quot;;-inkscape-font-specification:&quot;Liberation Mono&quot;;text-decoration-color:#000;white-space:pre;shape-inside:url(#a);display:inline;fill:#666;stroke-width:1;-inkscape-stroke:none;stop-color:#000" transform="translate(-40.848 -7.747)scale(.26458)"><tspan x="429.756" y="1061.596">W1</tspan></text><text xml:space="preserve" style="font-size:16px;line-height:normal;font-family:&quot;Liberation Mono&quot;;-inkscape-font-specification:&quot;Liberation Mono&quot;;text-decoration-color:#000;white-space:pre;shape-inside:url(#b);display:inline;fill:#666;stroke-width:1;-inkscape-stroke:none;stop-color:#000" transform="translate(-35.226 2.503)scale(.26458)"><tspan x="412.637" y="1081.293">W2</tspan></text><path d="m67.677 274.758 15.239-1.5" style="fill:#00f;stroke:#999;stroke-width:.264583;stroke-linejoin:round;marker-start:url(#c);marker-end:url(#c)"/><path d="m62.893 286.174 27.452-2.743" style="fill:#00f;stroke:#999;stroke-width:.264583;stroke-linejoin:round;marker-start:url(#c);marker-end:url(#c)"/><path d="m91.895 263.884-7.807-1.192" style="fill:#00f;stroke:#00f;stroke-width:.264583;stroke-linejoin:round;marker-start:url(#c)"/><path d="m96.062 264.674 7.807 1.192" style="fill:#00f;stroke:#00f;stroke-width:.264583;stroke-linejoin:round;marker-start:url(#d)"/><path d="m85.995 252.323-3.04 5.661" style="fill:#00f;stroke:#00f;stroke-width:.264583;stroke-linejoin:round;marker-start:url(#c)"/><path d="m87.574 249.73 3.04-5.662" style="fill:#00f;stroke:#00f;stroke-width:.264583;stroke-linejoin:round;marker-start:url(#e)"/><text xml:space="preserve" style="font-size:16px;line-height:normal;font-family:&quot;Liberation Mono&quot;;-inkscape-font-specification:&quot;Liberation Mono&quot;;text-decoration-color:#000;white-space:pre;shape-inside:url(#f);display:inline;fill:#00f;stroke-width:1;-inkscape-stroke:none;stop-color:#000" transform="translate(-2.622 2.563)scale(.26458)"><tspan x="404.529" y="995.15">Th</tspan></text><text xml:space="preserve" style="font-size:16px;line-height:normal;font-family:&quot;Liberation Mono&quot;;-inkscape-font-specification:&quot;Liberation Mono&quot;;text-decoration-color:#000;white-space:pre;shape-inside:url(#g);display:inline;fill:#00f;stroke-width:1;-inkscape-stroke:none;stop-color:#000" transform="translate(-2.384 3.576)scale(.26458)"><tspan x="342.363" y="907.082">Jneutral</tspan></text><path d="m84.678 239.158-3.926 12.293" style="fill:#00f;stroke:#00f;stroke-width:.264583;stroke-linejoin:round;marker-end:url(#c)"/><text xml:space="preserve" style="font-size:16px;line-height:normal;font-family:&quot;Liberation Mono&quot;;-inkscape-font-specification:&quot;Liberation Mono&quot;;text-decoration-color:#000;white-space:pre;shape-inside:url(#h);display:inline;fill:#00f;stroke-width:1;-inkscape-stroke:none;stop-color:#000" transform="translate(-19.428 -52.622)scale(.26458)"><tspan x="387.637" y="1101.463">D1</tspan></text><path d="m53.51 251.851-6.55-3.104" style="fill:#666;stroke:#00f;stroke-width:.264583;stroke-linejoin:round;marker-start:url(#c)"/><text xml:space="preserve" style="font-size:16px;line-height:normal;font-family:&quot;Liberation Mono&quot;;-inkscape-font-specification:&quot;Liberation Mono&quot;;text-decoration-color:#000;white-space:pre;shape-inside:url(#i);display:inline;fill:#00f;stroke-width:1;-inkscape-stroke:none;stop-color:#000" transform="translate(-61.148 -42.371)scale(.26458)"><tspan x="387.637" y="1101.463">D2</tspan></text><text xml:space="preserve" style="font-size:16px;line-height:normal;font-family:&quot;Liberation Mono&quot;;-inkscape-font-specification:&quot;Liberation Mono&quot;;text-decoration-color:#000;white-space:pre;shape-inside:url(#j);display:inline;fill:#00f;stroke-width:1;-inkscape-stroke:none;stop-color:#000" transform="translate(-.715 -16.806)scale(.26458)"><tspan x="158.568" y="1119.709">N1</tspan></text><path d="M46.96 278.783c4.015 5.048 6.855 14.176 14.451 6.796" style="fill:none;stroke:#00f;stroke-width:.264583;stroke-linejoin:round;marker-end:url(#c)"/><path d="M46.484 276.995c-3.88-12.848-2.163-18.749 4.058-17.23" style="fill:none;stroke:#00f;stroke-width:.264583;stroke-linejoin:round;marker-end:url(#c)"/><path d="m101.787 282.478.835-7.271" style="fill:#fff;stroke:#00f;stroke-width:.264583;stroke-linejoin:round;marker-end:url(#c)"/><text xml:space="preserve" style="font-size:16px;line-height:normal;font-family:&quot;Liberation Mono&quot;;-inkscape-font-specification:&quot;Liberation Mono&quot;;text-decoration-color:#000;white-space:pre;shape-inside:url(#k);display:inline;fill:#00f;stroke-width:1;-inkscape-stroke:none;stop-color:#000" transform="translate(-10.489 -12.276)scale(.26458)"><tspan x="427.053" y="1107.996">H1</tspan></text><circle cx="55.961" cy="260.676" r="3.455" style="fill:none;stroke:#999;stroke-width:.264583;stroke-linejoin:round"/><circle cx="72.588" cy="245.799" r="3.455" style="fill:none;stroke:#999;stroke-width:.264583;stroke-linejoin:round"/><circle cx="91.886" cy="256.949" r="3.455" style="fill:none;stroke:#999;stroke-width:.264583;stroke-linejoin:round"/><circle cx="87.073" cy="279.001" r="3.455" style="fill:none;stroke:#999;stroke-width:.264583;stroke-linejoin:round"/><circle cx="64.911" cy="281.112" r="3.455" style="fill:none;stroke:#999;stroke-width:.264583;stroke-linejoin:round"/><text xml:space="preserve" style="font-size:16px;line-height:normal;font-family:&quot;Liberation Mono&quot;;-inkscape-font-specification:&quot;Liberation Mono&quot;;text-decoration-color:#000;white-space:pre;shape-inside:url(#l);fill:#00f;stroke-width:1;-inkscape-stroke:none;stop-color:#000" transform="scale(.26458)"><tspan x="278.082" y="880.654">Jradius</tspan></text><path d="m73.65 242.257 4.227-8.288" style="fill:#666;stroke:#00f;stroke-width:.264583;stroke-linejoin:round;marker-start:url(#m)"/><path d="m53.39 261.73-2.991 1.643M62.157 281.48l-2.992 1.643" style="fill:#00f;stroke:#999;stroke-width:.264583;stroke-linejoin:round"/><path d="m51.621 262.825 8.723 19.468" style="fill:#00f;stroke:#f95;stroke-width:.264583;stroke-linejoin:round;stroke-dasharray:none;marker-start:url(#c);marker-end:url(#c)"/><text xml:space="preserve" style="font-size:16px;line-height:normal;font-family:&quot;Liberation Mono&quot;;-inkscape-font-specification:&quot;Liberation Mono&quot;;text-decoration-color:#000;white-space:pre;shape-inside:url(#n);fill:#f95;stroke-width:1;-inkscape-stroke:none;stop-color:#000" transform="translate(.38 -17.825)scale(.26458)"><tspan x="181.564" y="1109.043">TW2</tspan></text><path d="m62.493 258.569.927 1.475M70.33 251.636l.927 1.475" style="fill:#999;stroke:#999;stroke-width:.264583;stroke-linejoin:round;stroke-dasharray:none"/><path d="m62.62 258.4 7.5-6.49" style="fill:#999;stroke:#f95;stroke-width:.264583;stroke-linejoin:round;stroke-dasharray:none;marker-start:url(#c);marker-end:url(#c)"/><text xml:space="preserve" style="font-size:16px;line-height:normal;font-family:&quot;Liberation Mono&quot;;-inkscape-font-specification:&quot;Liberation Mono&quot;;text-decoration-color:#000;white-space:pre;shape-inside:url(#o);display:inline;fill:#f95;stroke-width:1;-inkscape-stroke:none;stop-color:#000" transform="translate(10.722 -38.545)scale(.26458)"><tspan x="181.564" y="1109.043">TW1</tspan></text><path d="m78.486 234.027-5.066 17.521" style="fill:#999;stroke:#00f;stroke-width:.264583;stroke-linejoin:round;stroke-dasharray:none;marker-end:url(#m)"/></g></svg>