<svg xmlns="http://www.w3.org/2000/svg" width="600" height="3000" viewBox="0 0 158.75 793.75"><defs><path id="z" d="M319.839 489.219h111.718v48.652H319.839z"/><path id="x" d="M308.127 1188.36h54.958v48.652h-54.958z"/><path id="v" d="M345.93 1565.921h49.054v37.269H345.93z"/><path id="t" d="M104.511 1892.005h64.869v56.76h-64.869z"/><path id="q" d="M127.936 1849.66h70.274v51.354h-70.274z"/><path id="n" d="M345.687 1908.222h86.772v62.166h-86.772z"/><path id="m" d="M98.204 1127.995H198.21v73.878H98.204z"/><path id="k" d="M392.549 1219.893h54.984v45.048h-54.984z"/><path id="j" d="M392.548 1120.788h72.494v63.968h-72.494z"/><path id="i" d="M265.864 1165.836h104.428v67.572H265.864z"/><path id="h" d="M457.685 1054.117h58.29v61.265h-58.29z"/><path id="g" d="M156.316 653.643h63.067v42.795h-63.067z"/><path id="f" d="M499.579 583.368h87.393v100.907h-87.393z"/><path id="e" d="M492.822 226.14h39.192v49.553h-39.192z"/><path id="d" d="M44.597 258.124h41.444v41.894H44.597z"/><path id="b" d="M72.185 220.608h46.268v45.051H72.185z"/><path id="a" d="M15.29 17.838h305.794v72.626H15.29z"/><path id="l" d="M392.549 1219.893h54.984v45.048h-54.984z"/><path id="o" d="M345.687 1908.222h86.772v62.166h-86.772z"/><path id="p" d="M345.687 1908.222h86.772v62.166h-86.772z"/><path id="r" d="M127.936 1849.66h70.274v51.354h-70.274z"/><path id="s" d="M127.936 1849.66h70.274v51.354h-70.274z"/><path id="u" d="M104.511 1892.005h64.869v56.76h-64.869z"/><marker id="c" markerHeight="1" markerWidth="1" orient="auto-start-reverse" preserveAspectRatio="xMidYMid" refX="0" refY="0" style="overflow:visible" viewBox="0 0 1 1"><path d="M3-3 0 0l3 3" style="fill:none;stroke:context-stroke;stroke-width:1;stroke-linecap:butt" transform="rotate(180 .125 0)"/></marker><marker id="w" markerHeight="1" markerWidth="1" orient="auto-start-reverse" preserveAspectRatio="xMidYMid" refX="0" refY="0" style="overflow:visible" viewBox="0 0 1 1"><path d="M3-3 0 0l3 3" style="fill:none;stroke:context-stroke;stroke-width:1;stroke-linecap:butt" transform="rotate(180 .125 0)"/></marker><marker id="y" markerHeight="1" markerWidth="1" orient="auto-start-reverse" preserveAspectRatio="xMidYMid" refX="0" refY="0" style="overflow:visible" viewBox="0 0 1 1"><path d="M3-3 0 0l3 3" style="fill:none;stroke:context-stroke;stroke-width:1;stroke-linecap:butt" transform="rotate(180 .125 0)"/></marker></defs><path d="M10.489 234.802h136.829v52.92H10.489zM38.14 364.718h78.903V501.07H38.14zM6.436 43.861h148.033v136.114H6.436z" style="fill:#fff;stroke:#fff;stroke-width:.264583;stroke-linejoin:round;stroke-dasharray:none"/><circle cx="77.031" cy="111.923" r="53.77" style="fill:#d7f4d7;stroke:#37c837;stroke-width:.264583;stroke-linejoin:round"/><circle cx="77.031" cy="111.923" r="46.3" style="fill:#fff;stroke:#37c837;stroke-width:.264583;stroke-linejoin:round"/><path d="M-80.571-76.711h7.079v9.234h-7.079z" style="fill:#d7e3f4;stroke:#2c5aa0;stroke-width:.264584;stroke-linejoin:round" transform="scale(-1)"/><path d="M-80.571-67.477h7.079v1.854h-7.079zM-80.571-78.565h7.079v1.854h-7.079zM-92.641-90.598h7.079v1.854h-7.079z" style="fill:#ffe6d5;stroke:#f95;stroke-width:.264584;stroke-linejoin:round" transform="scale(-1)"/><path d="M92.64 88.743 80.572 78.565h-7.08l12.07 10.178z" style="fill:#d5d5ff;stroke:#00a;stroke-width:.264583;stroke-linejoin:round"/><path d="M-92.641-114.988h7.079v24.39h-7.079z" style="fill:#d7e3f4;stroke:#2c5aa0;stroke-width:.264583;stroke-linejoin:round" transform="scale(-1)"/><path d="M-92.641-116.842h7.079v1.854h-7.079z" style="fill:#ffe6d5;stroke:#f95;stroke-width:.264584;stroke-linejoin:round" transform="scale(-1)"/><path d="M-92.641 116.842h7.079v9.234h-7.079z" style="fill:#f6d5ff;stroke:#d42aff;stroke-width:.264584;stroke-linejoin:round" transform="scale(-1 1)"/><path d="M-91.27-111.227h4.338v16.868h-4.338z" style="fill:#fff;stroke:#2c5aa0;stroke-width:.264583;stroke-linejoin:round" transform="scale(-1)"/><path d="M-106.332-94.495h7.079v1.854h-7.079z" style="fill:#ffe6d5;stroke:#f95;stroke-width:.264584;stroke-linejoin:round" transform="rotate(90)scale(-1 1)"/><path d="M-106.332-103.729h7.079v9.234h-7.079z" style="fill:#f6d5ff;stroke:#d42aff;stroke-width:.264584;stroke-linejoin:round" transform="rotate(90)scale(-1 1)"/><path d="M87.921 109.373h2.36v1.854h-2.36z" style="fill:#ffe6d5;stroke:#ff7f2a;stroke-width:.264583;stroke-linejoin:round"/><path d="M87.921 105.038h2.36v4.335h-2.36z" style="fill:#f6ffd5;stroke:#668000;stroke-width:.264582;stroke-linejoin:round"/><circle cx="-89.101" cy="-107.205" r=".716" style="fill:#fff;stroke:#668000;stroke-width:.264583;stroke-linejoin:round" transform="scale(-1)"/><path d="M87.921-96.213h2.36v1.854h-2.36z" style="fill:#ffe6d5;stroke:#ff7f2a;stroke-width:.264583;stroke-linejoin:round" transform="scale(1 -1)"/><path d="M87.921-100.547h2.36v4.335h-2.36z" style="fill:#f6ffd5;stroke:#668000;stroke-width:.264582;stroke-linejoin:round" transform="scale(1 -1)"/><circle cx="-89.101" cy="98.38" r=".716" style="fill:#fff;stroke:#668000;stroke-width:.264583;stroke-linejoin:round" transform="scale(-1 1)"/><path d="M-90.939 119.043h3.676v4.832h-3.676z" style="fill:#fff;stroke:#d42aff;stroke-width:.264584;stroke-linejoin:round" transform="scale(-1 1)"/><path d="M-51.109 80.571h3.961v1.854h-3.961z" style="fill:#ffe6d5;stroke:#f95;stroke-width:.264583;stroke-linejoin:round" transform="rotate(-90)"/><path d="M73.491 56.383h7.079v1.854h-7.079z" style="fill:#ffe6d5;stroke:#f95;stroke-width:.264584;stroke-linejoin:round"/><path d="M-51.109 71.637h3.961v1.854h-3.961z" style="fill:#ffe6d5;stroke:#f95;stroke-width:.264583;stroke-linejoin:round" transform="rotate(-90)"/><path d="M73.491 47.148h7.079v9.234h-7.079zM73.895 147.128h7.079v9.234h-7.079z" style="fill:#d7e3f4;stroke:#2c5aa0;stroke-width:.264584;stroke-linejoin:round"/><path d="M74.848 48.5h4.366v6.532h-4.366z" style="fill:#fff;stroke:#2c5aa0;stroke-width:.264583;stroke-linejoin:round"/><text xml:space="preserve" style="font-size:16px;line-height:normal;font-family:&quot;Liberation Mono&quot;;-inkscape-font-specification:&quot;Liberation Mono&quot;;text-decoration-color:#000;white-space:pre;shape-inside:url(#a);display:inline;fill:#000;stroke-width:1;-inkscape-stroke:none;stop-color:#000" transform="scale(.26458)"><tspan x="15.289" y="32.074">src_multiFacets.svg</tspan></text><path d="M-51.109 64.043h3.961v1.854h-3.961z" style="fill:#ffe6d5;stroke:#f95;stroke-width:.264583;stroke-linejoin:round" transform="rotate(-90)"/><path d="M-51.109 65.897h3.961v5.741h-3.961z" style="fill:#d7f4d7;stroke:#2ca02c;stroke-width:.264583;stroke-linejoin:round" transform="rotate(-90)"/><path d="M-51.109 58.302h3.961v5.741h-3.961z" style="fill:#d5f6ff;stroke:#0cf;stroke-width:.264583;stroke-linejoin:round" transform="rotate(-90)"/><path d="M-51.109 88.166h3.961v1.854h-3.961z" style="fill:#ffe6d5;stroke:#f95;stroke-width:.264583;stroke-linejoin:round" transform="rotate(-90)"/><path d="M-51.109 82.425h3.961v5.741h-3.961z" style="fill:#d7f4d7;stroke:#2ca02c;stroke-width:.264583;stroke-linejoin:round" transform="rotate(-90)"/><path d="M-51.109 90.02h3.961v5.741h-3.961z" style="fill:#d5f6ff;stroke:#0cf;stroke-width:.264583;stroke-linejoin:round" transform="rotate(-90)"/><circle cx="92.89" cy="49.129" r="1.053" style="fill:#fff;stroke:#0cf;stroke-width:.264583;stroke-linejoin:round"/><circle cx="61.172" cy="49.129" r="1.053" style="fill:#fff;stroke:#0cf;stroke-width:.264583;stroke-linejoin:round"/><path d="M-78.211-50.354h2.36v1.854h-2.36z" style="fill:#ffe6d5;stroke:#ff7f2a;stroke-width:.264583;stroke-linejoin:round" transform="scale(-1)"/><path d="M-78.211-54.688h2.36v4.335h-2.36z" style="fill:#f6ffd5;stroke:#668000;stroke-width:.264582;stroke-linejoin:round" transform="scale(-1)"/><circle cx="77.031" cy="52.521" r=".716" style="fill:#fff;stroke:#668000;stroke-width:.264583;stroke-linejoin:round"/><path d="M185.451 56.886h3.961v1.854h-3.961z" style="fill:#ffe6d5;stroke:#f95;stroke-width:.264583;stroke-linejoin:round" transform="rotate(31.91)"/><path d="M49.806-180.178h7.079v1.854h-7.079z" style="fill:#ffe6d5;stroke:#f95;stroke-width:.264584;stroke-linejoin:round" transform="rotate(121.91)"/><path d="M185.451 47.952h3.961v1.854h-3.961z" style="fill:#ffe6d5;stroke:#f95;stroke-width:.264583;stroke-linejoin:round" transform="rotate(31.91)"/><path d="M49.806-189.412h7.079v9.234h-7.079z" style="fill:#d7e3f4;stroke:#2c5aa0;stroke-width:.264584;stroke-linejoin:round" transform="rotate(121.91)"/><path d="M51.163-188.061h4.366v6.532h-4.366z" style="fill:#fff;stroke:#2c5aa0;stroke-width:.264583;stroke-linejoin:round" transform="rotate(121.91)"/><path d="M185.451 40.357h3.961v1.854h-3.961z" style="fill:#ffe6d5;stroke:#f95;stroke-width:.264583;stroke-linejoin:round" transform="rotate(31.91)"/><path d="M185.451 42.211h3.961v5.741h-3.961z" style="fill:#d7f4d7;stroke:#2ca02c;stroke-width:.264583;stroke-linejoin:round" transform="rotate(31.91)"/><path d="M185.451 34.617h3.961v5.741h-3.961z" style="fill:#d5f6ff;stroke:#0cf;stroke-width:.264583;stroke-linejoin:round" transform="rotate(31.91)"/><path d="M185.451 64.481h3.961v1.854h-3.961z" style="fill:#ffe6d5;stroke:#f95;stroke-width:.264583;stroke-linejoin:round" transform="rotate(31.91)"/><path d="M185.451 58.74h3.961v5.741h-3.961z" style="fill:#d7f4d7;stroke:#2ca02c;stroke-width:.264583;stroke-linejoin:round" transform="rotate(31.91)"/><path d="M185.451 66.335h3.961v5.741h-3.961z" style="fill:#d5f6ff;stroke:#0cf;stroke-width:.264583;stroke-linejoin:round" transform="rotate(31.91)"/><circle cx="69.205" cy="-187.432" r="1.053" style="fill:#fff;stroke:#0cf;stroke-width:.264583;stroke-linejoin:round" transform="rotate(121.91)"/><circle cx="37.487" cy="-187.432" r="1.053" style="fill:#fff;stroke:#0cf;stroke-width:.264583;stroke-linejoin:round" transform="rotate(121.91)"/><path d="M-54.526 186.207h2.36v1.854h-2.36z" style="fill:#ffe6d5;stroke:#ff7f2a;stroke-width:.264583;stroke-linejoin:round" transform="rotate(-58.09)"/><path d="M-54.526 181.872h2.36v4.335h-2.36z" style="fill:#f6ffd5;stroke:#668000;stroke-width:.264582;stroke-linejoin:round" transform="rotate(-58.09)"/><circle cx="53.346" cy="-184.039" r=".716" style="fill:#fff;stroke:#668000;stroke-width:.264583;stroke-linejoin:round" transform="rotate(121.91)"/><path d="M59.099 139.031h3.961v1.854h-3.961z" style="fill:#ffe6d5;stroke:#f95;stroke-width:.264583;stroke-linejoin:round" transform="rotate(146.23)scale(1 -1)"/><path d="M131.952-53.825h7.079v1.854h-7.079z" style="fill:#ffe6d5;stroke:#f95;stroke-width:.264584;stroke-linejoin:round" transform="rotate(56.23)scale(1 -1)"/><path d="M59.099 130.098h3.961v1.854h-3.961z" style="fill:#ffe6d5;stroke:#f95;stroke-width:.264583;stroke-linejoin:round" transform="rotate(146.23)scale(1 -1)"/><path d="M131.952-63.06h7.079v9.234h-7.079z" style="fill:#d7e3f4;stroke:#2c5aa0;stroke-width:.264584;stroke-linejoin:round" transform="rotate(56.23)scale(1 -1)"/><path d="M133.308-61.709h4.366v6.532h-4.366z" style="fill:#fff;stroke:#2c5aa0;stroke-width:.264583;stroke-linejoin:round" transform="rotate(56.23)scale(1 -1)"/><path d="M59.099 122.503h3.961v1.854h-3.961z" style="fill:#ffe6d5;stroke:#f95;stroke-width:.264583;stroke-linejoin:round" transform="rotate(146.23)scale(1 -1)"/><path d="M59.099 124.357h3.961v5.741h-3.961z" style="fill:#d7f4d7;stroke:#2ca02c;stroke-width:.264583;stroke-linejoin:round" transform="rotate(146.23)scale(1 -1)"/><path d="M59.099 116.762h3.961v5.741h-3.961z" style="fill:#d5f6ff;stroke:#0cf;stroke-width:.264583;stroke-linejoin:round" transform="rotate(146.23)scale(1 -1)"/><path d="M59.099 146.626h3.961v1.854h-3.961z" style="fill:#ffe6d5;stroke:#f95;stroke-width:.264583;stroke-linejoin:round" transform="rotate(146.23)scale(1 -1)"/><path d="M59.099 140.885h3.961v5.741h-3.961z" style="fill:#d7f4d7;stroke:#2ca02c;stroke-width:.264583;stroke-linejoin:round" transform="rotate(146.23)scale(1 -1)"/><path d="M59.099 148.48h3.961v5.741h-3.961z" style="fill:#d5f6ff;stroke:#0cf;stroke-width:.264583;stroke-linejoin:round" transform="rotate(146.23)scale(1 -1)"/><circle cx="151.35" cy="-61.079" r="1.053" style="fill:#fff;stroke:#0cf;stroke-width:.264583;stroke-linejoin:round" transform="rotate(56.23)scale(1 -1)"/><circle cx="119.632" cy="-61.079" r="1.053" style="fill:#fff;stroke:#0cf;stroke-width:.264583;stroke-linejoin:round" transform="rotate(56.23)scale(1 -1)"/><path d="M-136.671 59.854h2.36v1.854h-2.36z" style="fill:#ffe6d5;stroke:#ff7f2a;stroke-width:.264583;stroke-linejoin:round" transform="rotate(56.23)scale(-1 1)"/><path d="M-136.671 55.52h2.36v4.335h-2.36z" style="fill:#f6ffd5;stroke:#668000;stroke-width:.264582;stroke-linejoin:round" transform="rotate(56.23)scale(-1 1)"/><circle cx="135.491" cy="-57.687" r=".716" style="fill:#fff;stroke:#668000;stroke-width:.264583;stroke-linejoin:round" transform="rotate(56.23)scale(1 -1)"/><path d="M73.895 156.363h7.079v1.854h-7.079zM73.895 145.274h7.079v1.854h-7.079zM61.825 133.242h7.079v1.854h-7.079z" style="fill:#ffe6d5;stroke:#f95;stroke-width:.264584;stroke-linejoin:round"/><path d="m61.825 135.096 12.07 10.178h7.079l-12.07-10.178Z" style="fill:#d5d5ff;stroke:#00a;stroke-width:.264583;stroke-linejoin:round"/><path d="M61.825 108.852h7.079v24.39h-7.079z" style="fill:#d7e3f4;stroke:#2c5aa0;stroke-width:.264583;stroke-linejoin:round"/><path d="M61.825 106.997h7.079v1.854h-7.079z" style="fill:#ffe6d5;stroke:#f95;stroke-width:.264584;stroke-linejoin:round"/><path d="M61.825-106.997h7.079v9.234h-7.079z" style="fill:#f6d5ff;stroke:#d42aff;stroke-width:.264584;stroke-linejoin:round" transform="scale(1 -1)"/><path d="M63.195 112.613h4.338v16.868h-4.338z" style="fill:#fff;stroke:#2c5aa0;stroke-width:.264583;stroke-linejoin:round"/><path d="M117.507 59.97h7.079v1.854h-7.079z" style="fill:#ffe6d5;stroke:#f95;stroke-width:.264584;stroke-linejoin:round" transform="matrix(0 1 1 0 0 0)"/><path d="M117.507 50.736h7.079v9.234h-7.079z" style="fill:#f6d5ff;stroke:#d42aff;stroke-width:.264584;stroke-linejoin:round" transform="matrix(0 1 1 0 0 0)"/><path d="M-66.544-114.467h2.36v1.854h-2.36z" style="fill:#ffe6d5;stroke:#ff7f2a;stroke-width:.264583;stroke-linejoin:round" transform="scale(-1)"/><path d="M-66.544-118.801h2.36v4.335h-2.36z" style="fill:#f6ffd5;stroke:#668000;stroke-width:.264582;stroke-linejoin:round" transform="scale(-1)"/><circle cx="65.364" cy="116.634" r=".716" style="fill:#fff;stroke:#668000;stroke-width:.264583;stroke-linejoin:round"/><path d="M-66.544 127.626h2.36v1.854h-2.36z" style="fill:#ffe6d5;stroke:#ff7f2a;stroke-width:.264583;stroke-linejoin:round" transform="scale(-1 1)"/><path d="M-66.544 123.292h2.36v4.335h-2.36z" style="fill:#f6ffd5;stroke:#668000;stroke-width:.264582;stroke-linejoin:round" transform="scale(-1 1)"/><circle cx="65.364" cy="-125.459" r=".716" style="fill:#fff;stroke:#668000;stroke-width:.264583;stroke-linejoin:round" transform="scale(1 -1)"/><path d="M63.526-104.796h3.676v4.832h-3.676z" style="fill:#fff;stroke:#d42aff;stroke-width:.264584;stroke-linejoin:round" transform="scale(1 -1)"/><path d="M-257.478 89.913h11.824v5.474h-11.824z" style="fill:#ffe6d5;stroke:#f95;stroke-width:.264583;stroke-linejoin:round" transform="rotate(-90)"/><path d="M69.011 273.219h20.902v5.535H69.011z" style="fill:#ffe6d5;stroke:#f95;stroke-width:.264584;stroke-linejoin:round"/><path d="M-257.478 63.537h11.824v5.474h-11.824z" style="fill:#ffe6d5;stroke:#f95;stroke-width:.264583;stroke-linejoin:round" transform="rotate(-90)"/><path d="M69.011 245.654h20.902v27.565H69.011z" style="fill:#d7e3f4;stroke:#2c5aa0;stroke-width:.264584;stroke-linejoin:round"/><path d="M73.016 249.688h12.892v19.497H73.016z" style="fill:#fff;stroke:#2c5aa0;stroke-width:.264583;stroke-linejoin:round"/><path d="M-257.478 41.113h11.824v5.474h-11.824z" style="fill:#ffe6d5;stroke:#f95;stroke-width:.264583;stroke-linejoin:round" transform="rotate(-90)"/><path d="M-257.478 46.587h11.824v16.949h-11.824z" style="fill:#d7f4d7;stroke:#2ca02c;stroke-width:.264583;stroke-linejoin:round" transform="rotate(-90)"/><path d="M-257.478 24.164h11.824v16.949h-11.824z" style="fill:#d5f6ff;stroke:#0cf;stroke-width:.264583;stroke-linejoin:round" transform="rotate(-90)"/><path d="M-257.478 112.336h11.824v5.474h-11.824z" style="fill:#ffe6d5;stroke:#f95;stroke-width:.264583;stroke-linejoin:round" transform="rotate(-90)"/><path d="M-257.478 95.387h11.824v16.949h-11.824z" style="fill:#d7f4d7;stroke:#2ca02c;stroke-width:.264583;stroke-linejoin:round" transform="rotate(-90)"/><path d="M-257.478 117.811h11.824v16.949h-11.824z" style="fill:#d5f6ff;stroke:#0cf;stroke-width:.264583;stroke-linejoin:round" transform="rotate(-90)"/><ellipse cx="126.285" cy="251.566" rx="3.11" ry="3.145" style="fill:#fff;stroke:#0cf;stroke-width:.264583;stroke-linejoin:round"/><ellipse cx="32.639" cy="251.566" rx="3.11" ry="3.145" style="fill:#fff;stroke:#0cf;stroke-width:.264583;stroke-linejoin:round"/><path d="M-82.946-253.316h6.967v3.628h-6.967z" style="fill:#ffe6d5;stroke:#ff7f2a;stroke-width:.264583;stroke-linejoin:round" transform="scale(-1)"/><path d="M-82.946-266.045h6.967v12.939h-6.967z" style="fill:#f6ffd5;stroke:#668000;stroke-width:.264582;stroke-linejoin:round" transform="scale(-1)"/><ellipse cx="79.462" cy="259.576" rx="2.115" ry="2.138" style="fill:#fff;stroke:#668000;stroke-width:.264583;stroke-linejoin:round"/><path d="M91.716 469.166h13.121v17.081H91.716z" style="fill:#d7e3f4;stroke:#2c5aa0;stroke-width:.264585;stroke-linejoin:round"/><path d="M91.716 486.247h13.121v3.43H91.716zM91.716 465.736h13.121v3.43H91.716zM70.476 440.802h13.121v3.43H70.476z" style="fill:#ffe6d5;stroke:#f95;stroke-width:.264585;stroke-linejoin:round"/><path d="m70.476 444.232 21.24 21.504h13.121l-21.24-21.504Z" style="fill:#d5d5ff;stroke:#00a;stroke-width:.264583;stroke-linejoin:round"/><path d="M70.476 395.687h13.121v45.115H70.476z" style="fill:#d7e3f4;stroke:#2c5aa0;stroke-width:.264583;stroke-linejoin:round"/><path d="M70.476 392.258h13.121v3.43H70.476z" style="fill:#ffe6d5;stroke:#f95;stroke-width:.264585;stroke-linejoin:round"/><path d="M70.476-392.258h13.121v17.081H70.476z" style="fill:#f6d5ff;stroke:#d42aff;stroke-width:.264585;stroke-linejoin:round" transform="scale(1 -1)"/><path d="M73.016 402.644h8.04v31.201h-8.04z" style="fill:#fff;stroke:#2c5aa0;stroke-width:.264583;stroke-linejoin:round"/><path d="M411.697 67.039h13.095v3.437h-13.095z" style="fill:#ffe6d5;stroke:#f95;stroke-width:.264585;stroke-linejoin:round" transform="matrix(0 1 1 0 0 0)"/><path d="M411.697 49.924h13.095v17.115h-13.095z" style="fill:#f6d5ff;stroke:#d42aff;stroke-width:.264585;stroke-linejoin:round" transform="matrix(0 1 1 0 0 0)"/><path d="M-79.223-406.074h4.374v3.43h-4.374z" style="fill:#ffe6d5;stroke:#ff7f2a;stroke-width:.264583;stroke-linejoin:round" transform="scale(-1)"/><path d="M-79.223-414.092h4.374v8.018h-4.374z" style="fill:#f6ffd5;stroke:#668000;stroke-width:.264583;stroke-linejoin:round" transform="scale(-1)"/><ellipse cx="77.036" cy="410.083" rx="1.328" ry="1.325" style="fill:#fff;stroke:#668000;stroke-width:.264583;stroke-linejoin:round"/><path d="M-79.223 430.416h4.374v3.43h-4.374z" style="fill:#ffe6d5;stroke:#ff7f2a;stroke-width:.264583;stroke-linejoin:round" transform="scale(-1 1)"/><path d="M-79.223 422.398h4.374v8.018h-4.374z" style="fill:#f6ffd5;stroke:#668000;stroke-width:.264583;stroke-linejoin:round" transform="scale(-1 1)"/><ellipse cx="77.036" cy="-426.407" rx="1.328" ry="1.325" style="fill:#fff;stroke:#668000;stroke-width:.264583;stroke-linejoin:round" transform="scale(1 -1)"/><path d="M73.63-388.186h6.813v8.938H73.63z" style="fill:#fff;stroke:#d42aff;stroke-width:.264585;stroke-linejoin:round" transform="scale(1 -1)"/><text xml:space="preserve" style="font-size:16px;line-height:normal;font-family:&quot;Liberation Mono&quot;;-inkscape-font-specification:&quot;Liberation Mono&quot;;text-decoration-color:#000;white-space:pre;shape-inside:url(#b);display:inline;fill:#000;stroke-width:1;-inkscape-stroke:none;stop-color:#000" transform="translate(3.099 -.954)scale(.26458)"><tspan x="72.186" y="234.844">D1</tspan></text><path d="m25.149 61.62 18.474 17.045" style="fill:#000;stroke:#000;stroke-width:.26458333;stroke-linejoin:round;stroke-dasharray:none;marker-end:url(#c)"/><text xml:space="preserve" style="font-size:16px;line-height:normal;font-family:&quot;Liberation Mono&quot;;-inkscape-font-specification:&quot;Liberation Mono&quot;;text-decoration-color:#000;white-space:pre;shape-inside:url(#d);display:inline;fill:#000;stroke-width:1;-inkscape-stroke:none;stop-color:#000" transform="translate(6.088 4.405)scale(.26458)"><tspan x="44.598" y="272.359">E2</tspan></text><path d="m23.024 75.835 8.808 5.652" style="fill:#000;stroke:#000;stroke-width:.264583;stroke-linejoin:round;stroke-dasharray:none;marker-end:url(#c)"/><text xml:space="preserve" style="font-size:16px;line-height:normal;font-family:&quot;Liberation Mono&quot;;-inkscape-font-specification:&quot;Liberation Mono&quot;;text-decoration-color:#000;white-space:pre;shape-inside:url(#e);display:inline;fill:#000;stroke-width:1;-inkscape-stroke:none;stop-color:#000" transform="scale(.26458)"><tspan x="492.822" y="240.377">N1</tspan></text><path d="M97.377 50.06 129.44 61.5" style="fill:#000;stroke:#000;stroke-width:.264583;stroke-linejoin:round;stroke-dasharray:none;marker-start:url(#c)"/><path d="m133.253 64.839 5.006 60.905" style="fill:#000;stroke:#000;stroke-width:.264583;stroke-linejoin:round;stroke-dasharray:none;marker-end:url(#c)"/><text xml:space="preserve" style="font-size:16px;line-height:normal;font-family:&quot;Liberation Mono&quot;;-inkscape-font-specification:&quot;Liberation Mono&quot;;text-decoration-color:#000;white-space:pre;shape-inside:url(#f);display:inline;fill:#000;stroke-width:1;-inkscape-stroke:none;stop-color:#000" transform="scale(.26458)"><tspan x="499.58" y="597.606">Jangle
</tspan><tspan x="499.58" y="617.606">JradiusF
</tspan><tspan x="499.58" y="637.606">Jneutral
</tspan><tspan x="499.58" y="657.606">Jmark</tspan></text><path d="m127.055 156.733 5.245-.357" style="fill:#000;stroke:#000;stroke-width:.264583;stroke-linejoin:round;stroke-dasharray:none;marker-start:url(#c)"/><path d="m131.108 150.059 5.244 4.648" style="fill:#000;stroke:#000;stroke-width:.264583;stroke-linejoin:round;stroke-dasharray:none;marker-start:url(#c)"/><path d="m135.16 142.55 1.788 12.276" style="fill:#000;stroke:#000;stroke-width:.264583;stroke-linejoin:round;stroke-dasharray:none;marker-start:url(#c)"/><path d="M139.213 136.233 137.9 155.17" style="fill:#000;stroke:#000;stroke-width:.264583;stroke-linejoin:round;stroke-dasharray:none;marker-start:url(#c)"/><text xml:space="preserve" style="font-size:16px;line-height:normal;font-family:&quot;Liberation Mono&quot;;-inkscape-font-specification:&quot;Liberation Mono&quot;;text-decoration-color:#000;white-space:pre;shape-inside:url(#g);display:inline;fill:#000;stroke-width:1;-inkscape-stroke:none;stop-color:#000" transform="translate(-26.698 -13.35)scale(.26458)"><tspan x="156.316" y="667.879">Th</tspan></text><path d="m20.381 165.792 2.146-6.794" style="fill:#000;stroke:#000;stroke-width:.264583;stroke-linejoin:round;stroke-dasharray:none;marker-end:url(#c)"/><path d="M69.011 280.87h20.902" style="fill:#fff;stroke:#000;stroke-width:.264583;stroke-linejoin:round;stroke-dasharray:none;marker-start:url(#c);marker-end:url(#c)"/><path d="M137.406 245.654v11.824" style="fill:#fff;stroke:#000;stroke-width:.264583;stroke-linejoin:round;stroke-dasharray:none;marker-start:url(#c);marker-end:url(#c)"/><path d="M117.81 243.537h16.95" style="fill:#fff;stroke:#000;stroke-width:.264583;stroke-linejoin:round;stroke-dasharray:none;marker-start:url(#c);marker-end:url(#c)"/><path d="M65.947 258.397v13.999" style="fill:#fff;stroke:#000;stroke-width:.264583;stroke-linejoin:round;stroke-dasharray:none;marker-start:url(#c);marker-end:url(#c)"/><path d="M95.387 243.537h16.95" style="fill:#fff;stroke:#000;stroke-width:.264583;stroke-linejoin:round;stroke-dasharray:none;marker-start:url(#c);marker-end:url(#c)"/><path d="m134.23 258.537-12.233 10.696" style="fill:#fff;stroke:#000;stroke-width:.264583;stroke-linejoin:round;stroke-dasharray:none;marker-start:url(#c)"/><text xml:space="preserve" style="font-size:16px;line-height:normal;font-family:&quot;Liberation Mono&quot;;-inkscape-font-specification:&quot;Liberation Mono&quot;;text-decoration-color:#000;white-space:pre;shape-inside:url(#h);display:inline;fill:#000;stroke-width:1;-inkscape-stroke:none;stop-color:#000" transform="translate(-5.292 -10.054)scale(.26458)"><tspan x="457.686" y="1068.354">R1</tspan></text><text xml:space="preserve" style="font-size:16px;line-height:normal;font-family:&quot;Liberation Mono&quot;;-inkscape-font-specification:&quot;Liberation Mono&quot;;text-decoration-color:#000;white-space:pre;shape-inside:url(#i);display:inline;fill:#000;stroke-width:1;-inkscape-stroke:none;stop-color:#000" transform="translate(6.436 -27.413)scale(.26458)"><tspan x="265.863" y="1180.072">W1</tspan></text><text xml:space="preserve" style="font-size:16px;line-height:normal;font-family:&quot;Liberation Mono&quot;;-inkscape-font-specification:&quot;Liberation Mono&quot;;text-decoration-color:#000;white-space:pre;shape-inside:url(#j);display:inline;fill:#000;stroke-width:1;-inkscape-stroke:none;stop-color:#000" transform="translate(35.28 -46.96)scale(.26458)"><tspan x="392.549" y="1135.024">W2</tspan></text><text xml:space="preserve" style="font-size:16px;line-height:normal;font-family:&quot;Liberation Mono&quot;;-inkscape-font-specification:&quot;Liberation Mono&quot;;text-decoration-color:#000;white-space:pre;shape-inside:url(#k);display:inline;fill:#000;stroke-width:1;-inkscape-stroke:none;stop-color:#000" transform="translate(-1.669 -83.909)scale(.26458)"><tspan x="392.549" y="1234.129">W3</tspan></text><text xml:space="preserve" style="font-size:16px;line-height:normal;font-family:&quot;Liberation Mono&quot;;-inkscape-font-specification:&quot;Liberation Mono&quot;;text-decoration-color:#000;white-space:pre;shape-inside:url(#l);display:inline;fill:#000;stroke-width:1;-inkscape-stroke:none;stop-color:#000" transform="translate(20.201 -84.463)scale(.26458)"><tspan x="392.549" y="1234.129">W3</tspan></text><text xml:space="preserve" style="font-size:16px;line-height:normal;font-family:&quot;Liberation Mono&quot;;-inkscape-font-specification:&quot;Liberation Mono&quot;;text-decoration-color:#000;white-space:pre;shape-inside:url(#m);display:inline;fill:#000;stroke-width:1;-inkscape-stroke:none;stop-color:#000" transform="translate(33.85 -35.757)scale(.26458)"><tspan x="98.203" y="1142.233">W4</tspan></text><path d="M91.716 491.794h13.121" style="fill:#fff;stroke:#000;stroke-width:.264583;stroke-linejoin:round;stroke-dasharray:none;marker-start:url(#c);marker-end:url(#c)"/><path d="M106.954 469.166v17.081" style="fill:#fff;stroke:#000;stroke-width:.264583;stroke-linejoin:round;stroke-dasharray:none;marker-start:url(#c);marker-end:url(#c)"/><path d="M-44.423 434.935h21.241v21.504h-21.241z" style="fill:#fff;stroke:#000;stroke-width:.264583;stroke-linejoin:round;stroke-dasharray:none"/><path d="M48.336 411.697v13.095" style="fill:#fff;stroke:#000;stroke-width:.264583;stroke-linejoin:round;stroke-dasharray:none;marker-start:url(#c);marker-end:url(#c)"/><path d="M67.039 426.909H49.924" style="fill:#fff;stroke:#000;stroke-width:.264583;stroke-linejoin:round;stroke-dasharray:none;marker-start:url(#c);marker-end:url(#c)"/><path d="M85.713 395.687v45.115" style="fill:#fff;stroke:#000;stroke-width:.264583;stroke-linejoin:round;stroke-dasharray:none;marker-start:url(#c);marker-end:url(#c)"/><path d="M70.476 373.06h13.12" style="fill:#fff;stroke:#000;stroke-width:.264583;stroke-linejoin:round;stroke-dasharray:none;marker-start:url(#c);marker-end:url(#c)"/><path d="M85.713 375.176v17.082" style="fill:#fff;stroke:#000;stroke-width:.264583;stroke-linejoin:round;stroke-dasharray:none;marker-start:url(#c);marker-end:url(#c)"/><path d="M70.886 465.736h20.335" style="fill:#fff;stroke:#000;stroke-width:.264583;stroke-linejoin:round;stroke-dasharray:none;marker-start:url(#c);marker-end:url(#c)"/><path d="M70.476 444.976v20.27" style="fill:#fff;stroke:#000;stroke-width:.264583;stroke-linejoin:round;stroke-dasharray:none;marker-start:url(#c);marker-end:url(#c)"/><text xml:space="preserve" style="font-size:16px;line-height:normal;font-family:&quot;Liberation Mono&quot;;-inkscape-font-specification:&quot;Liberation Mono&quot;;text-decoration-color:#000;white-space:pre;shape-inside:url(#n);display:inline;fill:#000;stroke-width:1;-inkscape-stroke:none;stop-color:#000" transform="translate(4.604 -10.8)scale(.26458)"><tspan x="345.688" y="1922.459">V1</tspan></text><text xml:space="preserve" style="font-size:16px;line-height:normal;font-family:&quot;Liberation Mono&quot;;-inkscape-font-specification:&quot;Liberation Mono&quot;;text-decoration-color:#000;white-space:pre;shape-inside:url(#o);display:inline;fill:#000;stroke-width:1;-inkscape-stroke:none;stop-color:#000" transform="translate(-50.233 -88.744)scale(.26458)"><tspan x="345.688" y="1922.459">V1</tspan></text><text xml:space="preserve" style="font-size:16px;line-height:normal;font-family:&quot;Liberation Mono&quot;;-inkscape-font-specification:&quot;Liberation Mono&quot;;text-decoration-color:#000;white-space:pre;shape-inside:url(#p);display:inline;fill:#000;stroke-width:1;-inkscape-stroke:none;stop-color:#000" transform="translate(-16.724 -136.658)scale(.26458)"><tspan x="345.688" y="1922.459">V1</tspan></text><text xml:space="preserve" style="font-size:16px;line-height:normal;font-family:&quot;Liberation Mono&quot;;-inkscape-font-specification:&quot;Liberation Mono&quot;;text-decoration-color:#000;white-space:pre;shape-inside:url(#q);display:inline;fill:#000;stroke-width:1;-inkscape-stroke:none;stop-color:#000" transform="translate(73.978 -14.355)scale(.26458)"><tspan x="127.936" y="1863.897">V2</tspan></text><text xml:space="preserve" style="font-size:16px;line-height:normal;font-family:&quot;Liberation Mono&quot;;-inkscape-font-specification:&quot;Liberation Mono&quot;;text-decoration-color:#000;white-space:pre;shape-inside:url(#r);display:inline;fill:#000;stroke-width:1;-inkscape-stroke:none;stop-color:#000" transform="translate(53.29 -107.968)scale(.26458)"><tspan x="127.936" y="1863.897">V2</tspan></text><text xml:space="preserve" style="font-size:16px;line-height:normal;font-family:&quot;Liberation Mono&quot;;-inkscape-font-specification:&quot;Liberation Mono&quot;;text-decoration-color:#000;white-space:pre;shape-inside:url(#s);display:inline;fill:#000;stroke-width:1;-inkscape-stroke:none;stop-color:#000" transform="translate(20.913 -62.306)scale(.26458)"><tspan x="127.936" y="1863.897">V2</tspan></text><text xml:space="preserve" style="font-size:16px;line-height:normal;font-family:&quot;Liberation Mono&quot;;-inkscape-font-specification:&quot;Liberation Mono&quot;;text-decoration-color:#000;white-space:pre;shape-inside:url(#t);display:inline;fill:#000;stroke-width:1;-inkscape-stroke:none;stop-color:#000" transform="translate(52.205 -34.326)scale(.26458)"><tspan x="104.512" y="1906.242">V3</tspan></text><text xml:space="preserve" style="font-size:16px;line-height:normal;font-family:&quot;Liberation Mono&quot;;-inkscape-font-specification:&quot;Liberation Mono&quot;;text-decoration-color:#000;white-space:pre;shape-inside:url(#u);display:inline;fill:#000;stroke-width:1;-inkscape-stroke:none;stop-color:#000" transform="translate(36.857 -47.337)scale(.26458)"><tspan x="104.512" y="1906.242">V3</tspan></text><text xml:space="preserve" style="font-size:16px;line-height:normal;font-family:&quot;Liberation Mono&quot;;-inkscape-font-specification:&quot;Liberation Mono&quot;;text-decoration-color:#000;white-space:pre;shape-inside:url(#v);display:inline;fill:#000;stroke-width:1;-inkscape-stroke:none;stop-color:#000" transform="translate(-4.804 1.517)scale(.26458)"><tspan x="345.93" y="1580.158">V4</tspan></text><path d="M98.927 264.308H86.054" style="fill:#fff;stroke:#000;stroke-width:.264583;stroke-linejoin:round;marker-end:url(#c)"/><path d="M79.208 264.32h3.755" style="fill:#fff;stroke:#000;stroke-width:.264583;stroke-linejoin:round;marker-end:url(#w)"/><text xml:space="preserve" style="font-size:16px;line-height:normal;font-family:&quot;Liberation Mono&quot;;-inkscape-font-specification:&quot;Liberation Mono&quot;;text-decoration-color:#000;white-space:pre;shape-inside:url(#x);display:inline;fill:#000;stroke-width:1;-inkscape-stroke:none;stop-color:#000" transform="translate(18.832 -52.443)scale(.26458)"><tspan x="308.127" y="1202.596">E1</tspan></text><path d="m48.206 92.032-8.808-5.652" style="fill:#000;stroke:#000;stroke-width:.264583;stroke-linejoin:round;stroke-dasharray:none;marker-end:url(#y)"/><text xml:space="preserve" style="font-size:16px;line-height:normal;font-family:&quot;Liberation Mono&quot;;-inkscape-font-specification:&quot;Liberation Mono&quot;;text-decoration-color:#000;white-space:pre;shape-inside:url(#z);display:inline;fill:#000;stroke-width:1;-inkscape-stroke:none;stop-color:#000" transform="translate(-43.861 37.664)scale(.26458)"><tspan x="319.84" y="503.455">JradiusI</tspan></text><path d="m60.786 166.864 11.68-9.058" style="fill:#fff;stroke:#000;stroke-width:.264583;stroke-linejoin:round;marker-end:url(#c)"/><path d="m59.833 166.626 12.872-19.785" style="fill:#fff;stroke:#000;stroke-width:.264583;stroke-linejoin:round;marker-end:url(#c)"/><path d="m58.88 166.626 2.383-30.512" style="fill:#fff;stroke:#000;stroke-width:.264583;stroke-linejoin:round;marker-end:url(#c)"/></svg>