<svg xmlns="http://www.w3.org/2000/svg" width="600" height="3000" viewBox="0 0 158.75 793.75"><defs><path id="as" d="M2.5 274H84v62H2.5z"/><path id="aq" d="M446 1013h109v82H446z"/><path id="X" d="M440.25 767h25.875v23.875H440.25z"/><path id="W" d="M435 764.125h30.875V790H435z"/><path id="S" d="M501.778 743.517h48.043v22.496h-48.043z"/><path id="R" d="M477.376 757.625h42.705v30.503h-42.705z"/><path id="Q" d="M467.462 784.315h54.906v34.697h-54.906z"/><path id="P" d="M456.405 858.285h46.136v37.748h-46.136z"/><path id="L" d="M51.093 808.717h41.561v32.028H51.093z"/><path id="K" d="M82.359 774.783h47.661v34.697H82.359z"/><path id="J" d="M121.25 813.674h35.079v26.69H121.25z"/><path id="I" d="M256.99 553.253h48.424v23.259H256.99z"/><path id="H" d="M172.343 958.946h69.395v31.266h-69.395z"/><path id="G" d="M98.754 873.537h53.381v30.122H98.754z"/><path id="E" d="M85.028 701.575h63.294v38.51H85.028z"/><path id="v" d="M464.412 128.876h49.568v37.087h-49.568z"/><path id="u" d="M459.576 198.271h48.303v49.09h-48.303z"/><path id="t" d="M458.311 304.264h59.481v38.135h-59.481z"/><path id="s" d="M452.973 366.039h66.345v45.805h-66.345z"/><path id="r" d="M411.794 431.621h74.733v44.992h-74.733z"/><path id="q" d="M432.384 430.096h50.33v35.841h-50.33z"/><path id="p" d="M431.621 392.729h134.214v76.258H431.621z"/><path id="o" d="M431.621 512.455h64.819v50.33h-64.819z"/><path id="n" d="M362.226 118.2h60.625v39.654h-60.625z"/><path id="m" d="M254.321 465.937h63.676v40.417h-63.676z"/><path id="l" d="M365.658 292.45h64.438v42.323h-64.438z"/><path id="k" d="M354.982 231.443h49.186v28.597h-49.186z"/><path id="j" d="M361.282 221.622h71.987v51.227h-71.987z"/><path id="i" d="M328.119 256.941h18.536v16.581h-18.536z"/><path id="a" d="M14.559 10.245H215.69v53.923H14.559z"/><path id="Y" d="M440.25 767h25.875v23.875H440.25z"/><path id="aa" d="M435 764.125h30.875V790H435z"/><path id="ac" d="M172.343 958.946h69.395v31.266h-69.395z"/><path id="ae" d="M254.321 465.937h63.676v40.417h-63.676z"/><path id="ag" d="M254.321 465.937h63.676v40.417h-63.676z"/><path id="ai" d="M256.99 553.253h48.424v23.259H256.99z"/><path id="ak" d="M121.25 813.674h35.079v26.69H121.25z"/><path id="am" d="M51.093 808.717h41.561v32.028H51.093z"/><path id="ap" d="M82.359 774.783h47.661v34.697H82.359z"/><path id="ar" d="M446 1013h109v82H446z"/><marker id="b" markerHeight="1" markerWidth="1" orient="auto-start-reverse" preserveAspectRatio="xMidYMid" refX="0" refY="0" style="overflow:visible" viewBox="0 0 1 1"><path d="M3-3 0 0l3 3" style="fill:none;stroke:context-stroke;stroke-width:1;stroke-linecap:butt" transform="rotate(180 .125 0)"/></marker><marker id="c" markerHeight="1" markerWidth="1" orient="auto-start-reverse" preserveAspectRatio="xMidYMid" refX="0" refY="0" style="overflow:visible" viewBox="0 0 1 1"><path d="M3-3 0 0l3 3" style="fill:none;stroke:context-stroke;stroke-width:1;stroke-linecap:butt" transform="rotate(180 .125 0)"/></marker><marker id="d" markerHeight="1" markerWidth="1" orient="auto-start-reverse" preserveAspectRatio="xMidYMid" refX="0" refY="0" style="overflow:visible" viewBox="0 0 1 1"><path d="M3-3 0 0l3 3" style="fill:none;stroke:context-stroke;stroke-width:1;stroke-linecap:butt" transform="rotate(180 .125 0)"/></marker><marker id="e" markerHeight="1" markerWidth="1" orient="auto-start-reverse" preserveAspectRatio="xMidYMid" refX="0" refY="0" style="overflow:visible" viewBox="0 0 1 1"><path d="M3-3 0 0l3 3" style="fill:none;stroke:context-stroke;stroke-width:1;stroke-linecap:butt" transform="rotate(180 .125 0)"/></marker><marker id="f" markerHeight="1" markerWidth="1" orient="auto-start-reverse" preserveAspectRatio="xMidYMid" refX="0" refY="0" style="overflow:visible" viewBox="0 0 1 1"><path d="M3-3 0 0l3 3" style="fill:none;stroke:context-stroke;stroke-width:1;stroke-linecap:butt" transform="rotate(180 .125 0)"/></marker><marker id="g" markerHeight="1" markerWidth="1" orient="auto-start-reverse" preserveAspectRatio="xMidYMid" refX="0" refY="0" style="overflow:visible" viewBox="0 0 1 1"><path d="M3-3 0 0l3 3" style="fill:none;stroke:context-stroke;stroke-width:1;stroke-linecap:butt" transform="rotate(180 .125 0)"/></marker><marker id="h" markerHeight="1" markerWidth="1" orient="auto-start-reverse" preserveAspectRatio="xMidYMid" refX="0" refY="0" style="overflow:visible" viewBox="0 0 1 1"><path d="M3-3 0 0l3 3" style="fill:none;stroke:context-stroke;stroke-width:1;stroke-linecap:butt" transform="rotate(180 .125 0)"/></marker><marker id="w" markerHeight="1" markerWidth="1" orient="auto-start-reverse" preserveAspectRatio="xMidYMid" refX="0" refY="0" style="overflow:visible" viewBox="0 0 1 1"><path d="M3-3 0 0l3 3" style="fill:none;stroke:context-stroke;stroke-width:1;stroke-linecap:butt" transform="rotate(180 .125 0)"/></marker><marker id="x" markerHeight="1" markerWidth="1" orient="auto-start-reverse" preserveAspectRatio="xMidYMid" refX="0" refY="0" style="overflow:visible" viewBox="0 0 1 1"><path d="M3-3 0 0l3 3" style="fill:none;stroke:context-stroke;stroke-width:1;stroke-linecap:butt" transform="rotate(180 .125 0)"/></marker><marker id="y" markerHeight="1" markerWidth="1" orient="auto-start-reverse" preserveAspectRatio="xMidYMid" refX="0" refY="0" style="overflow:visible" viewBox="0 0 1 1"><path d="M3-3 0 0l3 3" style="fill:none;stroke:context-stroke;stroke-width:1;stroke-linecap:butt" transform="rotate(180 .125 0)"/></marker><marker id="z" markerHeight="1" markerWidth="1" orient="auto-start-reverse" preserveAspectRatio="xMidYMid" refX="0" refY="0" style="overflow:visible" viewBox="0 0 1 1"><path d="M3-3 0 0l3 3" style="fill:none;stroke:context-stroke;stroke-width:1;stroke-linecap:butt" transform="rotate(180 .125 0)"/></marker><marker id="A" markerHeight="1" markerWidth="1" orient="auto-start-reverse" preserveAspectRatio="xMidYMid" refX="0" refY="0" style="overflow:visible" viewBox="0 0 1 1"><path d="M3-3 0 0l3 3" style="fill:none;stroke:context-stroke;stroke-width:1;stroke-linecap:butt" transform="rotate(180 .125 0)"/></marker><marker id="B" markerHeight="1" markerWidth="1" orient="auto-start-reverse" preserveAspectRatio="xMidYMid" refX="0" refY="0" style="overflow:visible" viewBox="0 0 1 1"><path d="M3-3 0 0l3 3" style="fill:none;stroke:context-stroke;stroke-width:1;stroke-linecap:butt" transform="rotate(180 .125 0)"/></marker><marker id="C" markerHeight="1" markerWidth="1" orient="auto-start-reverse" preserveAspectRatio="xMidYMid" refX="0" refY="0" style="overflow:visible" viewBox="0 0 1 1"><path d="M3-3 0 0l3 3" style="fill:none;stroke:context-stroke;stroke-width:1;stroke-linecap:butt" transform="rotate(180 .125 0)"/></marker><marker id="D" markerHeight="1" markerWidth="1" orient="auto-start-reverse" preserveAspectRatio="xMidYMid" refX="0" refY="0" style="overflow:visible" viewBox="0 0 1 1"><path d="M3-3 0 0l3 3" style="fill:none;stroke:context-stroke;stroke-width:1;stroke-linecap:butt" transform="rotate(180 .125 0)"/></marker><marker id="F" markerHeight="1" markerWidth="1" orient="auto-start-reverse" preserveAspectRatio="xMidYMid" refX="0" refY="0" style="overflow:visible" viewBox="0 0 1 1"><path d="M3-3 0 0l3 3" style="fill:none;stroke:context-stroke;stroke-width:1;stroke-linecap:butt" transform="rotate(180 .125 0)"/></marker><marker id="M" markerHeight="1" markerWidth="1" orient="auto-start-reverse" preserveAspectRatio="xMidYMid" refX="0" refY="0" style="overflow:visible" viewBox="0 0 1 1"><path d="M3-3 0 0l3 3" style="fill:none;stroke:context-stroke;stroke-width:1;stroke-linecap:butt" transform="rotate(180 .125 0)"/></marker><marker id="N" markerHeight="1" markerWidth="1" orient="auto-start-reverse" preserveAspectRatio="xMidYMid" refX="0" refY="0" style="overflow:visible" viewBox="0 0 1 1"><path d="M3-3 0 0l3 3" style="fill:none;stroke:context-stroke;stroke-width:1;stroke-linecap:butt" transform="rotate(180 .125 0)"/></marker><marker id="O" markerHeight="1" markerWidth="1" orient="auto-start-reverse" preserveAspectRatio="xMidYMid" refX="0" refY="0" style="overflow:visible" viewBox="0 0 1 1"><path d="M3-3 0 0l3 3" style="fill:none;stroke:context-stroke;stroke-width:1;stroke-linecap:butt" transform="rotate(180 .125 0)"/></marker><marker id="T" markerHeight="1" markerWidth="1" orient="auto-start-reverse" preserveAspectRatio="xMidYMid" refX="0" refY="0" style="overflow:visible" viewBox="0 0 1 1"><path d="M3-3 0 0l3 3" style="fill:none;stroke:context-stroke;stroke-width:1;stroke-linecap:butt" transform="rotate(180 .125 0)"/></marker><marker id="U" markerHeight="1" markerWidth="1" orient="auto-start-reverse" preserveAspectRatio="xMidYMid" refX="0" refY="0" style="overflow:visible" viewBox="0 0 1 1"><path d="M3-3 0 0l3 3" style="fill:none;stroke:context-stroke;stroke-width:1;stroke-linecap:butt" transform="rotate(180 .125 0)"/></marker><marker id="V" markerHeight="1" markerWidth="1" orient="auto-start-reverse" preserveAspectRatio="xMidYMid" refX="0" refY="0" style="overflow:visible" viewBox="0 0 1 1"><path d="M3-3 0 0l3 3" style="fill:none;stroke:context-stroke;stroke-width:1;stroke-linecap:butt" transform="rotate(180 .125 0)"/></marker><marker id="Z" markerHeight="1" markerWidth="1" orient="auto-start-reverse" preserveAspectRatio="xMidYMid" refX="0" refY="0" style="overflow:visible" viewBox="0 0 1 1"><path d="M3-3 0 0l3 3" style="fill:none;stroke:context-stroke;stroke-width:1;stroke-linecap:butt" transform="rotate(180 .125 0)"/></marker><marker id="ab" markerHeight="1" markerWidth="1" orient="auto-start-reverse" preserveAspectRatio="xMidYMid" refX="0" refY="0" style="overflow:visible" viewBox="0 0 1 1"><path d="M3-3 0 0l3 3" style="fill:none;stroke:context-stroke;stroke-width:1;stroke-linecap:butt" transform="rotate(180 .125 0)"/></marker><marker id="ad" markerHeight="1" markerWidth="1" orient="auto-start-reverse" preserveAspectRatio="xMidYMid" refX="0" refY="0" style="overflow:visible" viewBox="0 0 1 1"><path d="M3-3 0 0l3 3" style="fill:none;stroke:context-stroke;stroke-width:1;stroke-linecap:butt" transform="rotate(180 .125 0)"/></marker><marker id="af" markerHeight="1" markerWidth="1" orient="auto-start-reverse" preserveAspectRatio="xMidYMid" refX="0" refY="0" style="overflow:visible" viewBox="0 0 1 1"><path d="M3-3 0 0l3 3" style="fill:none;stroke:context-stroke;stroke-width:1;stroke-linecap:butt" transform="rotate(180 .125 0)"/></marker><marker id="ah" markerHeight="1" markerWidth="1" orient="auto-start-reverse" preserveAspectRatio="xMidYMid" refX="0" refY="0" style="overflow:visible" viewBox="0 0 1 1"><path d="M3-3 0 0l3 3" style="fill:none;stroke:context-stroke;stroke-width:1;stroke-linecap:butt" transform="rotate(180 .125 0)"/></marker><marker id="aj" markerHeight="1" markerWidth="1" orient="auto-start-reverse" preserveAspectRatio="xMidYMid" refX="0" refY="0" style="overflow:visible" viewBox="0 0 1 1"><path d="M3-3 0 0l3 3" style="fill:none;stroke:context-stroke;stroke-width:1;stroke-linecap:butt" transform="rotate(180 .125 0)"/></marker><marker id="al" markerHeight="1" markerWidth="1" orient="auto-start-reverse" preserveAspectRatio="xMidYMid" refX="0" refY="0" style="overflow:visible" viewBox="0 0 1 1"><path d="M3-3 0 0l3 3" style="fill:none;stroke:context-stroke;stroke-width:1;stroke-linecap:butt" transform="rotate(180 .125 0)"/></marker><marker id="an" markerHeight="1" markerWidth="1" orient="auto-start-reverse" preserveAspectRatio="xMidYMid" refX="0" refY="0" style="overflow:visible" viewBox="0 0 1 1"><path d="M3-3 0 0l3 3" style="fill:none;stroke:context-stroke;stroke-width:1;stroke-linecap:butt" transform="rotate(180 .125 0)"/></marker><marker id="ao" markerHeight="1" markerWidth="1" orient="auto-start-reverse" preserveAspectRatio="xMidYMid" refX="0" refY="0" style="overflow:visible" viewBox="0 0 1 1"><path d="M3-3 0 0l3 3" style="fill:none;stroke:context-stroke;stroke-width:1;stroke-linecap:butt" transform="rotate(180 .125 0)"/></marker></defs><path d="M37.835 275.431h91.943v88.371H37.835zM34.925 151.606h92.869v104.246H34.925z" style="opacity:1;fill:#fff;stroke:#fff;stroke-width:.264583;stroke-linejoin:round;stroke-dasharray:none"/><path d="M87.041 301.971h3.075v33.474h-3.075zM62.712 301.971h3.075v33.474h-3.075z" style="fill:#ffe680;stroke:#333;stroke-width:.264583;stroke-linejoin:round"/><path d="M91.274 288.307h3.075v60.801h-3.075zM58.479 288.307h3.075v60.801h-3.075z" style="fill:#faa;stroke:#333;stroke-width:.264583;stroke-linejoin:round"/><path d="M89.814 220.621h21.561M85.798 186.94h25.577" style="fill:#ffe680;stroke:#999;stroke-width:.264583;stroke-linejoin:round"/><path d="M61.035 166.781v50.687h3.075V187.04h21.688v30.427h3.075V166.78z" style="opacity:1;fill:#ffe680;stroke:#1a1a1a;stroke-width:.264583;stroke-linejoin:round"/><path d="M57.019 196.543v44.337h35.87v-44.337h-3.075v24.078h-29.72v-24.078z" style="opacity:1;fill:#faa;stroke:#1a1a1a;stroke-width:.264583;stroke-linejoin:round"/><path d="M30.668 19.975h79.998v103.506H30.668z" style="opacity:1;fill:#fff;fill-opacity:1;stroke:#fff;stroke-width:.264583;stroke-linejoin:round;stroke-dasharray:none"/><circle cx="74.607" cy="74.949" r="10.451" style="fill:none;stroke:#1a1a1a;stroke-width:.264582;stroke-linejoin:round"/><path d="m171.993 152.444-3.29 19.976s.35 2.845.867 4.167c.326.836.821 1.611 1.383 2.312.631.785 1.37 1.5 2.197 2.075.881.612 1.865 1.1 2.89 1.422 1.002.315 2.064.481 3.114.475 1.132-.007 2.282-.18 3.35-.552 1.186-.413 2.332-1.022 3.293-1.83 1.079-.91 1.973-2.062 2.655-3.297.483-.877.763-1.863.973-2.842.136-.632.18-1.93.18-1.93l-3.29-19.976v-20.26h-14.322z" style="fill:#fd5;stroke:#1a1a1a;stroke-width:.264583;stroke-linejoin:round"/><path d="M-41.23 88.575h34.824v20.259H-41.23z" style="fill:none;stroke:#1a1a1a;stroke-width:.264583;stroke-linejoin:round"/><path d="m57.195 88.575 7.427-16.71s.968-2.285 1.694-3.277a9.3 9.3 0 0 1 1.94-1.938c.846-.634 1.783-1.173 2.78-1.523 1.14-.4 2.363-.607 3.571-.629a9.5 9.5 0 0 1 2.867.401c1.107.333 2.184.827 3.13 1.49.95.667 1.784 1.516 2.479 2.446.557.745 1.316 2.461 1.316 2.461l7.62 17.28v20.259H57.196z" style="fill:#faa;stroke:#1a1a1a;stroke-width:.264583;stroke-linejoin:round;opacity:1;fill-opacity:.60200745"/><circle cx="74.607" cy="85.236" r="1.791" style="fill:#fff;stroke:#1a1a1a;stroke-width:.264583;stroke-linejoin:round"/><path d="m67.446 54.973-3.29 19.976s.351 2.846.867 4.167c.327.837.822 1.612 1.384 2.312.63.786 1.369 1.5 2.196 2.075.882.613 1.866 1.101 2.89 1.423 1.002.314 2.064.48 3.114.474 1.132-.006 2.282-.179 3.351-.551 1.186-.413 2.332-1.022 3.292-1.831 1.079-.91 1.974-2.06 2.655-3.296.484-.877.763-1.863.974-2.842.135-.632.18-1.93.18-1.93l-3.29-19.977V34.714H67.445Z" style="fill:#fd5;stroke:#1a1a1a;stroke-width:.264583;stroke-linejoin:round;opacity:.8"/><path d="m169.63 208.026 7.426-16.711s.968-2.285 1.694-3.277a9.3 9.3 0 0 1 1.94-1.938c.846-.634 1.784-1.172 2.78-1.523 1.141-.4 2.363-.607 3.572-.629a9.5 9.5 0 0 1 2.867.401c1.106.333 2.183.828 3.13 1.49.95.667 1.784 1.516 2.478 2.446.557.745 1.317 2.461 1.317 2.461l7.62 17.28v20.259H169.63z" style="fill:#faa;fill-opacity:.602007;stroke:#1a1a1a;stroke-width:.264583;stroke-linejoin:round"/><path d="M-34.154 34.714h14.322v20.259h-14.322z" style="fill:none;stroke:#1a1a1a;stroke-width:.264583;stroke-linejoin:round"/><text xml:space="preserve" style="font-size:16px;line-height:normal;font-family:&quot;Liberation Mono&quot;;-inkscape-font-specification:&quot;Liberation Mono&quot;;text-decoration-color:#000;white-space:pre;shape-inside:url(#a);display:inline;fill:#000;stroke-width:1;-inkscape-stroke:none;stop-color:#000" transform="scale(.26458)"><tspan x="14.559" y="24.483">src_armJoint.svg</tspan></text><circle cx="74.607" cy="74.949" r="7.562" style="fill:#f95;stroke:#00f;stroke-width:.264583;stroke-linejoin:round"/><circle cx="74.607" cy="74.949" r="5.421" style="fill:#fff;stroke:#1a1a1a;stroke-width:.264583;stroke-linejoin:round"/><path d="M74.607 74.95h-31.63M67.446 54.973h-24.47M67.446 34.714h-24.47M57.195 88.575H42.976M57.063 108.835h-14.22" style="opacity:.5;fill:#fd5;stroke:#1a1a1a;stroke-width:.264583;stroke-linejoin:round"/><path d="m42.844 108.835.132-20.26" style="opacity:1;fill:#00f;fill-opacity:.602007;stroke:#00f;stroke-width:.26458333;stroke-linejoin:round;stroke-dasharray:none;marker-start:url(#b);marker-end:url(#b)"/><path d="m42.976 88.243.133-13.031" style="fill:#00f;fill-opacity:.602007;stroke:#00f;stroke-width:.264583;stroke-linejoin:round;stroke-dasharray:none;marker-start:url(#c);marker-end:url(#c)"/><path d="m42.976 74.815.133-19.566" style="fill:#00f;fill-opacity:.602007;stroke:#00f;stroke-width:.264583;stroke-linejoin:round;stroke-dasharray:none;marker-start:url(#d);marker-end:url(#d)"/><path d="m42.978 54.858.133-19.873" style="fill:#00f;fill-opacity:.602007;stroke:#00f;stroke-width:.264583;stroke-linejoin:round;stroke-dasharray:none;marker-start:url(#e);marker-end:url(#e)"/><path d="M57.195 108.967v7.37M92.02 108.967v7.37" style="opacity:.5;fill:#fd5;stroke:#1a1a1a;stroke-width:.264583;stroke-linejoin:round"/><path d="m57.588 116.076 34.04.133" style="fill:#00f;fill-opacity:.602007;stroke:#00f;stroke-width:.264582;stroke-linejoin:round;stroke-dasharray:none;marker-start:url(#f);marker-end:url(#f)"/><path d="M67.449 27.343v7.371M81.768 27.343v7.371" style="opacity:.5;fill:#fd5;stroke:#1a1a1a;stroke-width:.264583;stroke-linejoin:round"/><path d="m67.83 27.648 13.557.133" style="fill:#00f;fill-opacity:.602007;stroke:#00f;stroke-width:.264582;stroke-linejoin:round;stroke-dasharray:none;marker-start:url(#g);marker-end:url(#g)"/><path d="M74.607 69.335v-1.86" style="opacity:1;fill:#00f;fill-opacity:.602007;stroke:#00f;stroke-width:.264583;stroke-linejoin:round;stroke-dasharray:none;marker-start:url(#b);marker-end:url(#b)"/><path d="M74.607 66.99v-2.237" style="fill:#00f;fill-opacity:.602007;stroke:#00f;stroke-width:.264583;stroke-linejoin:round;stroke-dasharray:none;marker-start:url(#h);marker-end:url(#h)"/><text xml:space="preserve" style="font-size:16px;line-height:normal;font-family:&quot;Liberation Mono&quot;;-inkscape-font-specification:&quot;Liberation Mono&quot;;text-decoration-color:#000;white-space:pre;shape-inside:url(#i);display:inline;fill:#000;stroke-width:1;-inkscape-stroke:none;stop-color:#000" transform="scale(.26458)"><tspan x="328.119" y="287.76">T</tspan></text><text xml:space="preserve" style="font-size:16px;line-height:normal;font-family:&quot;Liberation Mono&quot;;-inkscape-font-specification:&quot;Liberation Mono&quot;;text-decoration-color:#000;white-space:pre;shape-inside:url(#j);display:inline;fill:#00f;stroke-width:1;-inkscape-stroke:none;stop-color:#000" transform="translate(-2.62 8.351)scale(.26458)"><tspan x="361.281" y="235.858">Taxis</tspan></text><text xml:space="preserve" style="font-size:16px;line-height:normal;font-family:&quot;Liberation Mono&quot;;-inkscape-font-specification:&quot;Liberation Mono&quot;;text-decoration-color:#000;white-space:pre;shape-inside:url(#k);display:inline;fill:#00f;stroke-width:1;-inkscape-stroke:none;stop-color:#000" transform="translate(-.908 .404)scale(.26458)"><tspan x="354.982" y="245.68">S1</tspan></text><text xml:space="preserve" style="font-size:16px;line-height:normal;font-family:&quot;Liberation Mono&quot;;-inkscape-font-specification:&quot;Liberation Mono&quot;;text-decoration-color:#000;white-space:pre;shape-inside:url(#l);display:inline;fill:#00f;stroke-width:1;-inkscape-stroke:none;stop-color:#000" transform="translate(-3.934 -1.614)scale(.26458)"><tspan x="365.658" y="306.686">D1</tspan></text><path d="m82.422 75.763 9.886 2.018" style="opacity:1;fill:#00f;fill-opacity:.602007;stroke:#00f;stroke-width:.264583;stroke-linejoin:round;stroke-dasharray:none;marker-start:url(#b)"/><path d="m76.167 68.6 16.444.606" style="opacity:1;fill:#00f;fill-opacity:.602007;stroke:navy;stroke-width:.264583;stroke-linejoin:round;stroke-dasharray:none;marker-start:url(#b)"/><path d="m75.763 65.776 16.848-1.917" style="opacity:1;fill:#00f;fill-opacity:.602007;stroke:navy;stroke-width:.264583;stroke-linejoin:round;stroke-dasharray:none;marker-start:url(#b)"/><text xml:space="preserve" style="font-size:16px;line-height:normal;font-family:&quot;Liberation Mono&quot;;-inkscape-font-specification:&quot;Liberation Mono&quot;;text-decoration-color:#000;white-space:pre;shape-inside:url(#m);display:inline;fill:#00f;stroke-width:1;-inkscape-stroke:none;stop-color:#000" transform="translate(2.12 -6.96)scale(.26458)"><tspan x="254.32" y="480.174">W12A</tspan></text><text xml:space="preserve" style="font-size:16px;line-height:normal;font-family:&quot;Liberation Mono&quot;;-inkscape-font-specification:&quot;Liberation Mono&quot;;text-decoration-color:#000;white-space:pre;shape-inside:url(#n);display:inline;fill:#00f;stroke-width:1;-inkscape-stroke:none;stop-color:#000" transform="translate(-27.033 -8.272)scale(.26458)"><tspan x="362.227" y="132.436">W22A</tspan></text><text xml:space="preserve" style="font-size:16px;line-height:normal;font-family:&quot;Liberation Mono&quot;;-inkscape-font-specification:&quot;Liberation Mono&quot;;text-decoration-color:#000;white-space:pre;shape-inside:url(#o);display:inline;fill:#00f;stroke-width:1;-inkscape-stroke:none;stop-color:#000" transform="translate(-80.101 -38.336)scale(.26458)"><tspan x="431.621" y="526.692">L11</tspan></text><text xml:space="preserve" style="font-size:16px;line-height:normal;font-family:&quot;Liberation Mono&quot;;-inkscape-font-specification:&quot;Liberation Mono&quot;;text-decoration-color:#000;white-space:pre;shape-inside:url(#p);display:inline;fill:#00f;stroke-width:1;-inkscape-stroke:none;stop-color:#000" transform="translate(-80.303 -25.019)scale(.26458)"><tspan x="431.621" y="406.965">L12</tspan></text><text xml:space="preserve" style="font-size:16px;line-height:normal;font-family:&quot;Liberation Mono&quot;;-inkscape-font-specification:&quot;Liberation Mono&quot;;text-decoration-color:#000;white-space:pre;shape-inside:url(#q);display:inline;fill:#00f;stroke-width:1;-inkscape-stroke:none;stop-color:#000" transform="translate(-80.101 -51.249)scale(.26458)"><tspan x="432.383" y="444.332">L22</tspan></text><text xml:space="preserve" style="font-size:16px;line-height:normal;font-family:&quot;Liberation Mono&quot;;-inkscape-font-specification:&quot;Liberation Mono&quot;;text-decoration-color:#000;white-space:pre;shape-inside:url(#r);display:inline;fill:#00f;stroke-width:1;-inkscape-stroke:none;stop-color:#000" transform="translate(-74.452 -71.224)scale(.26458)"><tspan x="411.793" y="445.858">L21</tspan></text><path d="M-75.771 195.653h3.075v44.338h-3.075z" style="fill:#faa;stroke:#333;stroke-width:.264583;stroke-linejoin:round"/><path d="M-72.696 219.732h29.72v20.259h-29.72z" style="fill:#faa;stroke:#333;stroke-width:.264584;stroke-linejoin:round"/><path d="M-42.976 195.653h3.075v44.338h-3.075z" style="fill:#faa;stroke:#333;stroke-width:.264583;stroke-linejoin:round"/><path d="M57.019 199.432H92.89v15.146H57.019z" style="opacity:.6;fill:#f95;stroke:#333;stroke-width:.264583;stroke-linejoin:round"/><path d="M189.87 235.076h5.554v2.89h-5.554z" style="fill:#f95;stroke:#333;stroke-width:.264583;stroke-linejoin:round"/><path d="M-50.177 142.718h3.075v50.686h-3.075zM-25.414 142.718h3.075v50.686h-3.075z" style="fill:#ffe680;stroke:#333;stroke-width:.264583;stroke-linejoin:round"/><path d="M-47.102 142.718h21.688v20.259h-21.688z" style="fill:#ffe680;stroke:#333;stroke-width:.264584;stroke-linejoin:round"/><circle cx="74.954" cy="99.624" r="7.215" style="fill:#fff;stroke:#1a1a1a;stroke-width:.264583;stroke-linejoin:round"/><circle cx="74.607" cy="44.921" r="5.424" style="fill:#fff;stroke:#1a1a1a;stroke-width:.264583;stroke-linejoin:round"/><circle cx="74.607" cy="59.739" r="3.748" style="fill:#fff;stroke:#1a1a1a;stroke-width:.264583;stroke-linejoin:round"/><text xml:space="preserve" style="font-size:16px;line-height:normal;font-family:&quot;Liberation Mono&quot;;-inkscape-font-specification:&quot;Liberation Mono&quot;;text-decoration-color:#000;white-space:pre;shape-inside:url(#s);display:inline;fill:#00f;stroke-width:1;-inkscape-stroke:none;stop-color:#000" transform="translate(-22.166 -3.333)scale(.26458)"><tspan x="452.973" y="380.276">D13A</tspan></text><text xml:space="preserve" style="font-size:16px;line-height:normal;font-family:&quot;Liberation Mono&quot;;-inkscape-font-specification:&quot;Liberation Mono&quot;;text-decoration-color:#000;white-space:pre;shape-inside:url(#t);display:inline;fill:#00f;stroke-width:1;-inkscape-stroke:none;stop-color:#000" transform="translate(-23.607 5.59)scale(.26458)"><tspan x="458.311" y="318.5">D12</tspan></text><text xml:space="preserve" style="font-size:16px;line-height:normal;font-family:&quot;Liberation Mono&quot;;-inkscape-font-specification:&quot;Liberation Mono&quot;;text-decoration-color:#000;white-space:pre;shape-inside:url(#u);display:inline;fill:#00f;stroke-width:1;-inkscape-stroke:none;stop-color:#000" transform="translate(-30.893 1.018)scale(.26458)"><tspan x="459.576" y="212.508">D22</tspan></text><text xml:space="preserve" style="font-size:16px;line-height:normal;font-family:&quot;Liberation Mono&quot;;-inkscape-font-specification:&quot;Liberation Mono&quot;;text-decoration-color:#000;white-space:pre;shape-inside:url(#v);display:inline;fill:#00f;stroke-width:1;-inkscape-stroke:none;stop-color:#000" transform="translate(-29.617 11.379)scale(.26458)"><tspan x="464.412" y="143.113">D23A</tspan></text><path d="m76.402 86.295 20.611 2.017" style="fill:#00f;fill-opacity:.602007;stroke:#00f;stroke-width:.264583;stroke-linejoin:round;stroke-dasharray:none;marker-start:url(#w)"/><path d="m82.553 97.884 14.388-2.018" style="fill:#00f;fill-opacity:.602007;stroke:#00f;stroke-width:.264583;stroke-linejoin:round;stroke-dasharray:none;marker-start:url(#x)"/><path d="m80.548 46.079 11.965 2.018" style="fill:#00f;fill-opacity:.602007;stroke:#00f;stroke-width:.264583;stroke-linejoin:round;stroke-dasharray:none;marker-start:url(#y)"/><path d="m78.566 58.462 11.965-2.017" style="fill:#00f;fill-opacity:.602007;stroke:#00f;stroke-width:.264583;stroke-linejoin:round;stroke-dasharray:none;marker-start:url(#z)"/><circle cx="74.599" cy="176.297" r="7.215" style="fill:#fff;stroke:#1a1a1a;stroke-width:.264583;stroke-linejoin:round"/><circle cx="74.954" cy="230.751" r="7.215" style="fill:#fff;stroke:#1a1a1a;stroke-width:.264583;stroke-linejoin:round"/><path d="M88.873 166.781h22.502" style="opacity:1;fill:#ffe680;stroke:#999;stroke-width:.264583;stroke-linejoin:round"/><path d="M93.022 206.618h18.353M91.954 199.432h10.43M91.857 196.543h10.43M57.019 240.88v6.879M92.89 240.88h18.485M91.954 214.578h10.43M89.006 217.468h13.378M92.89 240.88v6.879" style="fill:#ffe680;stroke:#999;stroke-width:.264583;stroke-linejoin:round"/><path d="M57.019 247.148h35.87" style="opacity:1;fill:#ffe680;stroke:#00f;stroke-width:.264583;stroke-linejoin:round;stroke-dasharray:none;marker-start:url(#b);marker-end:url(#b)"/><path d="M57.134 218.504h2.96" style="fill:#ffe680;stroke:#00f;stroke-width:.264584;stroke-linejoin:round;stroke-dasharray:none;marker-start:url(#A);marker-end:url(#A)"/><path d="M61.156 190.838h2.96" style="fill:#ffe680;stroke:#00f;stroke-width:.264584;stroke-linejoin:round;stroke-dasharray:none;marker-start:url(#B);marker-end:url(#B)"/><path d="M61.035 159.903v6.878M88.873 159.903v6.878" style="fill:#ffe680;stroke:#999;stroke-width:.264583;stroke-linejoin:round"/><path d="M61.358 159.903h27.134" style="fill:#ffe680;stroke:#999;stroke-width:.264583;stroke-linejoin:round;stroke-dasharray:none;marker-start:url(#C);marker-end:url(#C)"/><path d="M61.206 198.026h6.134" style="opacity:1;fill:#ffe680;stroke:#00f;stroke-width:.264583;stroke-linejoin:round;stroke-dasharray:none;marker-start:url(#b)"/><path d="M59.94 198.026H52.5" style="fill:#ffe680;stroke:#00f;stroke-width:.264583;stroke-linejoin:round;stroke-dasharray:none;marker-start:url(#D)"/><path d="m51.854 170.392 15.334 3.43" style="opacity:1;fill:#ffe680;stroke:#00f;stroke-width:.264583;stroke-linejoin:round;stroke-dasharray:none;marker-end:url(#b)"/><text xml:space="preserve" style="font-size:16px;line-height:normal;font-family:&quot;Liberation Mono&quot;;-inkscape-font-specification:&quot;Liberation Mono&quot;;text-decoration-color:#000;white-space:pre;shape-inside:url(#E);display:inline;fill:#00f;stroke-width:1;-inkscape-stroke:none;stop-color:#000" transform="translate(18.26 -18.36)scale(.26458)"><tspan x="85.027" y="715.811">D23B</tspan></text><path d="m51.872 235.152 15.334-3.43" style="fill:#ffe680;stroke:#00f;stroke-width:.264583;stroke-linejoin:round;stroke-dasharray:none;marker-end:url(#F)"/><text xml:space="preserve" style="font-size:16px;line-height:normal;font-family:&quot;Liberation Mono&quot;;-inkscape-font-specification:&quot;Liberation Mono&quot;;text-decoration-color:#000;white-space:pre;shape-inside:url(#G);display:inline;fill:#00f;stroke-width:1;-inkscape-stroke:none;stop-color:#000" transform="translate(15.132 1.917)scale(.26458)"><tspan x="98.754" y="887.774">D13B</tspan></text><text xml:space="preserve" style="font-size:16px;line-height:normal;font-family:&quot;Liberation Mono&quot;;-inkscape-font-specification:&quot;Liberation Mono&quot;;text-decoration-color:#000;white-space:pre;shape-inside:url(#H);display:inline;fill:#00f;stroke-width:1;-inkscape-stroke:none;stop-color:#000" transform="translate(24.239 -6.658)scale(.26458)"><tspan x="172.344" y="973.182">W12B</tspan></text><text xml:space="preserve" style="font-size:16px;line-height:normal;font-family:&quot;Liberation Mono&quot;;-inkscape-font-specification:&quot;Liberation Mono&quot;;text-decoration-color:#000;white-space:pre;shape-inside:url(#I);display:inline;fill:#666;stroke-width:1;-inkscape-stroke:none;stop-color:#000" transform="translate(1.136 8.777)scale(.26458)"><tspan x="256.99" y="567.488">W22B</tspan></text><text xml:space="preserve" style="font-size:16px;line-height:normal;font-family:&quot;Liberation Mono&quot;;-inkscape-font-specification:&quot;Liberation Mono&quot;;text-decoration-color:#000;white-space:pre;shape-inside:url(#J);display:inline;fill:#00f;stroke-width:1;-inkscape-stroke:none;stop-color:#000" transform="translate(18.764 .908)scale(.26458)"><tspan x="121.25" y="827.91">T1</tspan></text><text xml:space="preserve" style="font-size:16px;line-height:normal;font-family:&quot;Liberation Mono&quot;;-inkscape-font-specification:&quot;Liberation Mono&quot;;text-decoration-color:#000;white-space:pre;shape-inside:url(#K);display:inline;fill:#00f;stroke-width:1;-inkscape-stroke:none;stop-color:#000" transform="translate(22.598 -8.878)scale(.26458)"><tspan x="82.359" y="789.02">E12</tspan></text><text xml:space="preserve" style="font-size:16px;line-height:normal;font-family:&quot;Liberation Mono&quot;;-inkscape-font-specification:&quot;Liberation Mono&quot;;text-decoration-color:#000;white-space:pre;shape-inside:url(#L);display:inline;fill:#00f;stroke-width:1;-inkscape-stroke:none;stop-color:#000" transform="translate(41.564 -25.322)scale(.26458)"><tspan x="51.094" y="822.953">T2</tspan></text><path d="M111.375 166.777v19.782" style="opacity:1;fill:#00f;stroke:#00f;stroke-width:.264583;stroke-linejoin:round;stroke-dasharray:none;marker-start:url(#b);marker-end:url(#b)"/><path d="M111.375 221.002v19.782" style="fill:#00f;stroke:#00f;stroke-width:.264583;stroke-linejoin:round;stroke-dasharray:none;marker-start:url(#M);marker-end:url(#M)"/><path d="M111.375 187.253v18.993" style="fill:#00f;stroke:#00f;stroke-width:.264583;stroke-linejoin:round;stroke-dasharray:none;marker-start:url(#N);marker-end:url(#N)"/><path d="M111.375 206.746v13.491" style="fill:#00f;stroke:#00f;stroke-width:.264583;stroke-linejoin:round;stroke-dasharray:none;marker-start:url(#O);marker-end:url(#O)"/><text xml:space="preserve" style="font-size:16px;line-height:normal;font-family:&quot;Liberation Mono&quot;;-inkscape-font-specification:&quot;Liberation Mono&quot;;text-decoration-color:#000;white-space:pre;shape-inside:url(#P);display:inline;fill:#00f;stroke-width:1;-inkscape-stroke:none;stop-color:#000" transform="translate(-8.878 1.614)scale(.26458)"><tspan x="456.404" y="872.522">L11</tspan></text><text xml:space="preserve" style="font-size:16px;line-height:normal;font-family:&quot;Liberation Mono&quot;;-inkscape-font-specification:&quot;Liberation Mono&quot;;text-decoration-color:#000;white-space:pre;shape-inside:url(#Q);display:inline;fill:#00f;stroke-width:1;-inkscape-stroke:none;stop-color:#000" transform="translate(-12.005 3.632)scale(.26458)"><tspan x="467.463" y="798.551">L12</tspan></text><text xml:space="preserve" style="font-size:16px;line-height:normal;font-family:&quot;Liberation Mono&quot;;-inkscape-font-specification:&quot;Liberation Mono&quot;;text-decoration-color:#000;white-space:pre;shape-inside:url(#R);display:inline;fill:#00f;stroke-width:1;-inkscape-stroke:none;stop-color:#000" transform="translate(-14.325 -6.457)scale(.26458)"><tspan x="477.375" y="771.861">L22</tspan></text><text xml:space="preserve" style="font-size:16px;line-height:normal;font-family:&quot;Liberation Mono&quot;;-inkscape-font-specification:&quot;Liberation Mono&quot;;text-decoration-color:#000;white-space:pre;shape-inside:url(#S);display:inline;fill:#00f;stroke-width:1;-inkscape-stroke:none;stop-color:#000" transform="translate(-20.782 -23.304)scale(.26458)"><tspan x="501.779" y="757.754">L21</tspan></text><path d="M102.384 199.758v14.496" style="fill:#00f;stroke:#00f;stroke-width:.264583;stroke-linejoin:round;stroke-dasharray:none;marker-start:url(#T);marker-end:url(#T)"/><path d="M102.384 196.948v2.158" style="fill:#00f;stroke:#00f;stroke-width:.264583;stroke-linejoin:round;stroke-dasharray:none;marker-start:url(#U);marker-end:url(#U)"/><path d="M102.384 214.965v2.158" style="fill:#00f;stroke:#00f;stroke-width:.264583;stroke-linejoin:round;stroke-dasharray:none;marker-start:url(#V);marker-end:url(#V)"/><text xml:space="preserve" style="font-size:16px;line-height:normal;font-family:&quot;Liberation Mono&quot;;-inkscape-font-specification:&quot;Liberation Mono&quot;;text-decoration-color:#000;white-space:pre;shape-inside:url(#W);display:inline;fill:#00f;stroke-width:1;-inkscape-stroke:none;stop-color:#000" transform="translate(-12.6 2.249)scale(.26458)"><tspan x="435" y="778.361">D1</tspan></text><text xml:space="preserve" style="font-size:16px;line-height:normal;font-family:&quot;Liberation Mono&quot;;-inkscape-font-specification:&quot;Liberation Mono&quot;;text-decoration-color:#000;white-space:pre;shape-inside:url(#X);display:inline;fill:#00f;stroke-width:1;-inkscape-stroke:none;stop-color:#000" transform="translate(-13.23 10.815)scale(.26458)"><tspan x="440.25" y="781.236">S1</tspan></text><text xml:space="preserve" style="font-size:16px;line-height:normal;font-family:&quot;Liberation Mono&quot;;-inkscape-font-specification:&quot;Liberation Mono&quot;;text-decoration-color:#000;white-space:pre;shape-inside:url(#Y);display:inline;fill:#00f;stroke-width:1;-inkscape-stroke:none;stop-color:#000" transform="translate(-13.194 -7.252)scale(.26458)"><tspan x="440.25" y="781.236">S1</tspan></text><path d="M58.479 311.135H94.35v15.146H58.479z" style="opacity:.6;fill:#f95;stroke:#333;stroke-width:.264583;stroke-linejoin:round"/><path d="M-291.383 58.479h3.075V94.35h-3.075zM-349.109 58.479h3.075V94.35h-3.075z" style="fill:#faa;stroke:#333;stroke-width:.264583;stroke-linejoin:round" transform="rotate(-90)"/><path d="M-305.046 62.712h3.075v27.404h-3.075zM-335.445 62.712h3.075v27.404h-3.075z" style="fill:#ffe680;stroke:#333;stroke-width:.264583;stroke-linejoin:round" transform="rotate(-90)"/><path d="M94.35 311.135h10.43M94.35 326.281h10.43" style="fill:#ffe680;stroke:#999;stroke-width:.264583;stroke-linejoin:round"/><path d="M104.78 311.461v14.496" style="fill:#00f;stroke:#00f;stroke-width:.264583;stroke-linejoin:round;stroke-dasharray:none;marker-start:url(#Z);marker-end:url(#Z)"/><text xml:space="preserve" style="font-size:16px;line-height:normal;font-family:&quot;Liberation Mono&quot;;-inkscape-font-specification:&quot;Liberation Mono&quot;;text-decoration-color:#000;white-space:pre;shape-inside:url(#aa);display:inline;fill:#00f;stroke-width:1;-inkscape-stroke:none;stop-color:#000" transform="translate(-10.205 113.952)scale(.26458)"><tspan x="435" y="778.361">D1</tspan></text><path d="M58.48 349.109v6.879M94.35 349.109v6.879" style="fill:#ffe680;stroke:#999;stroke-width:.264583;stroke-linejoin:round"/><path d="M58.48 355.376h35.87" style="fill:#ffe680;stroke:#00f;stroke-width:.264583;stroke-linejoin:round;stroke-dasharray:none;marker-start:url(#ab);marker-end:url(#ab)"/><text xml:space="preserve" style="font-size:16px;line-height:normal;font-family:&quot;Liberation Mono&quot;;-inkscape-font-specification:&quot;Liberation Mono&quot;;text-decoration-color:#000;white-space:pre;shape-inside:url(#ac);display:inline;fill:#00f;stroke-width:1;-inkscape-stroke:none;stop-color:#000" transform="translate(25.7 101.57)scale(.26458)"><tspan x="172.344" y="973.182">W12B</tspan></text><path d="M58.347 288.307h-7.371M58.347 349.241h-7.371" style="opacity:.5;fill:#fd5;stroke:#1a1a1a;stroke-width:.264583;stroke-linejoin:round"/><path d="m50.976 288.134-.132 60.895" style="fill:#00f;fill-opacity:.602007;stroke:#00f;stroke-width:.264583;stroke-linejoin:round;stroke-dasharray:none;marker-start:url(#ad);marker-end:url(#ad)"/><text xml:space="preserve" style="font-size:16px;line-height:normal;font-family:&quot;Liberation Mono&quot;;-inkscape-font-specification:&quot;Liberation Mono&quot;;text-decoration-color:#000;white-space:pre;shape-inside:url(#ae);display:inline;fill:#00f;stroke-width:1;-inkscape-stroke:none;stop-color:#000" transform="translate(-27.56 192.93)scale(.26458)"><tspan x="254.32" y="480.174">W12A</tspan></text><path d="M117.536 301.971H90.25M117.536 335.445H90.25" style="opacity:.5;fill:#fd5;stroke:#1a1a1a;stroke-width:.264583;stroke-linejoin:round"/><path d="m113.832 302.072-.132 33.152" style="fill:#00f;fill-opacity:.602007;stroke:#00f;stroke-width:.264583;stroke-linejoin:round;stroke-dasharray:none;marker-start:url(#af);marker-end:url(#af)"/><text xml:space="preserve" style="font-size:16px;line-height:normal;font-family:&quot;Liberation Mono&quot;;-inkscape-font-specification:&quot;Liberation Mono&quot;;text-decoration-color:#000;white-space:pre;shape-inside:url(#ag);display:inline;fill:#00f;stroke-width:1;-inkscape-stroke:none;stop-color:#000" transform="translate(47.006 192.13)scale(.26458)"><tspan x="254.32" y="480.174">W22A</tspan></text><path d="M62.712 296.644v5.195M90.116 296.776v5.195" style="fill:#ffe680;stroke:#999;stroke-width:.264583;stroke-linejoin:round"/><path d="M62.98 298.231h26.869" style="fill:#ffe680;stroke:#666;stroke-width:.264583;stroke-linejoin:round;stroke-dasharray:none;marker-start:url(#ah);marker-end:url(#ah)"/><text xml:space="preserve" style="font-size:16px;line-height:normal;font-family:&quot;Liberation Mono&quot;;-inkscape-font-specification:&quot;Liberation Mono&quot;;text-decoration-color:#000;white-space:pre;shape-inside:url(#ai);display:inline;fill:#666;stroke-width:1;-inkscape-stroke:none;stop-color:#000" transform="translate(3.55 147.105)scale(.26458)"><tspan x="256.99" y="567.488">W22B</tspan></text><path d="M91.332 341.946h2.96" style="fill:#ffe680;stroke:#00f;stroke-width:.264584;stroke-linejoin:round;stroke-dasharray:none;marker-start:url(#aj);marker-end:url(#aj)"/><text xml:space="preserve" style="font-size:16px;line-height:normal;font-family:&quot;Liberation Mono&quot;;-inkscape-font-specification:&quot;Liberation Mono&quot;;text-decoration-color:#000;white-space:pre;shape-inside:url(#ak);display:inline;fill:#00f;stroke-width:1;-inkscape-stroke:none;stop-color:#000" transform="translate(52.962 124.35)scale(.26458)"><tspan x="121.25" y="827.91">T1</tspan></text><path d="M87.132 329.733h2.96" style="fill:#ffe680;stroke:#00f;stroke-width:.264584;stroke-linejoin:round;stroke-dasharray:none;marker-start:url(#al);marker-end:url(#al)"/><text xml:space="preserve" style="font-size:16px;line-height:normal;font-family:&quot;Liberation Mono&quot;;-inkscape-font-specification:&quot;Liberation Mono&quot;;text-decoration-color:#000;white-space:pre;shape-inside:url(#am);display:inline;fill:#00f;stroke-width:1;-inkscape-stroke:none;stop-color:#000" transform="translate(67.54 113.574)scale(.26458)"><tspan x="51.094" y="822.953">T2</tspan></text><path d="M91.439 307.774h6.135" style="fill:#ffe680;stroke:#00f;stroke-width:.264583;stroke-linejoin:round;stroke-dasharray:none;marker-start:url(#an)"/><path d="M89.812 307.807h-4.456" style="fill:#ffe680;stroke:#00f;stroke-width:.264583;stroke-linejoin:round;stroke-dasharray:none;marker-start:url(#ao)"/><text xml:space="preserve" style="font-size:16px;line-height:normal;font-family:&quot;Liberation Mono&quot;;-inkscape-font-specification:&quot;Liberation Mono&quot;;text-decoration-color:#000;white-space:pre;shape-inside:url(#ap);display:inline;fill:#00f;stroke-width:1;-inkscape-stroke:none;stop-color:#000" transform="translate(76.498 100.402)scale(.26458)"><tspan x="82.359" y="789.02">E12</tspan></text><text xml:space="preserve" style="font-size:16px;line-height:normal;font-family:&quot;Liberation Mono&quot;;-inkscape-font-specification:&quot;Liberation Mono&quot;;text-decoration-color:#000;white-space:pre;shape-inside:url(#aq);display:inline;fill:#00f;stroke-width:1;-inkscape-stroke:none;stop-color:#000" transform="translate(-13.494 9.525)scale(.26458)"><tspan x="446" y="1027.236">J1radius
</tspan><tspan x="446" y="1047.236">J1Neutral
</tspan><tspan x="446" y="1067.236">J1Mark</tspan></text><text xml:space="preserve" style="font-size:16px;line-height:normal;font-family:&quot;Liberation Mono&quot;;-inkscape-font-specification:&quot;Liberation Mono&quot;;text-decoration-color:#000;white-space:pre;shape-inside:url(#ar);display:inline;fill:#00f;stroke-width:1;-inkscape-stroke:none;stop-color:#000" transform="translate(-12.535 72.326)scale(.26458)"><tspan x="446" y="1027.236">J2radius
</tspan><tspan x="446" y="1047.236">J2Neutral
</tspan><tspan x="446" y="1067.236">J2Mark</tspan></text><path d="m90.355 335.36 14.817 7.54" style="fill:#00f;stroke:#00f;stroke-width:.264583;stroke-linejoin:round;marker-start:url(#b)"/><path d="m95.382 287.602 9.393-2.646" style="fill:#00f;stroke:#00f;stroke-width:.264583;stroke-linejoin:round;marker-start:url(#b)"/><path d="M63.368 67.601s-1.735 2.519-2.117 3.969c-.45 1.706-.516 3.57-.132 5.291.3 1.348 1.852 3.705 1.852 3.705" style="fill:none;stroke:#00f;stroke-width:.264583;stroke-linejoin:round;marker-start:url(#b);marker-end:url(#b)"/><text xml:space="preserve" style="font-size:16px;line-height:normal;font-family:&quot;Liberation Mono&quot;;-inkscape-font-specification:&quot;Liberation Mono&quot;;text-decoration-color:#000;white-space:pre;shape-inside:url(#as);fill:#00f;stroke-width:1;-inkscape-stroke:none;stop-color:#000" transform="translate(45.905 -7.805)scale(.26458)"><tspan x="2.5" y="288.236">JointA</tspan></text></svg>