<svg xmlns="http://www.w3.org/2000/svg" width="600" height="3000" viewBox="0 0 158.75 793.75"><defs><path id="n" d="M348.521 448.907h44.528v34.68h-44.528z"/><path id="m" d="M508.656 271.871h48.171v41.15h-48.171z"/><path id="l" d="M508.291 190.338h60.343v53.382h-60.343z"/><path id="i" d="M433.686 325.933h49.713v32.665h-49.713z"/><path id="g" d="M184.735 512.761h56.534v38.172h-56.534z"/><path id="a" d="M16.351 14.594h151.912v40.128H16.351z"/><path id="h" d="M184.735 512.761h56.534v38.172h-56.534z"/><path id="j" d="M433.686 325.933h49.713v32.665h-49.713z"/><path id="k" d="M433.686 325.933h49.713v32.665h-49.713z"/><marker id="b" markerHeight="1" markerWidth="1" orient="auto-start-reverse" preserveAspectRatio="xMidYMid" refX="0" refY="0" style="overflow:visible" viewBox="0 0 1 1"><path d="M3-3 0 0l3 3" style="fill:none;stroke:context-stroke;stroke-width:1;stroke-linecap:butt" transform="rotate(180 .125 0)"/></marker><marker id="c" markerHeight="1" markerWidth="1" orient="auto-start-reverse" preserveAspectRatio="xMidYMid" refX="0" refY="0" style="overflow:visible" viewBox="0 0 1 1"><path d="M3-3 0 0l3 3" style="fill:none;stroke:context-stroke;stroke-width:1;stroke-linecap:butt" transform="rotate(180 .125 0)"/></marker><marker id="d" markerHeight="1" markerWidth="1" orient="auto-start-reverse" preserveAspectRatio="xMidYMid" refX="0" refY="0" style="overflow:visible" viewBox="0 0 1 1"><path d="M3-3 0 0l3 3" style="fill:none;stroke:context-stroke;stroke-width:1;stroke-linecap:butt" transform="rotate(180 .125 0)"/></marker><marker id="e" markerHeight="1" markerWidth="1" orient="auto-start-reverse" preserveAspectRatio="xMidYMid" refX="0" refY="0" style="overflow:visible" viewBox="0 0 1 1"><path d="M3-3 0 0l3 3" style="fill:none;stroke:context-stroke;stroke-width:1;stroke-linecap:butt" transform="rotate(180 .125 0)"/></marker><marker id="f" markerHeight="1" markerWidth="1" orient="auto-start-reverse" preserveAspectRatio="xMidYMid" refX="0" refY="0" style="overflow:visible" viewBox="0 0 1 1"><path d="M3-3 0 0l3 3" style="fill:none;stroke:context-stroke;stroke-width:1;stroke-linecap:butt" transform="rotate(180 .125 0)"/></marker></defs><path d="M9.057 35.991h113.297v98.466H9.057z" style="fill:#fff;stroke:#fff;stroke-width:.264584;stroke-linejoin:bevel"/><text xml:space="preserve" style="font-size:14.6667px;line-height:1.25;font-family:sans-serif;white-space:pre;shape-inside:url(#a);display:inline" transform="scale(.26458)"><tspan x="16.352" y="27.939">src_door.svg</tspan></text><path d="M-61.889 80.023h43.598v21.816h-43.598zM-18.291 80.023h9.307v21.816h-9.307z" style="fill:none;stroke:#000;stroke-width:.264583;stroke-linejoin:bevel"/><path d="M-71.196 80.023h9.307v21.816h-9.307z" style="fill:none;stroke:#000;stroke-width:.264583;stroke-linejoin:bevel"/><path d="M31.857 80.023s9.806-28.626 21.8-28.626c11.993 0 21.798 28.626 21.798 28.626v21.817h9.307V80.023s-14.808-37.72-31.106-37.72c-16.297 0-31.106 37.72-31.106 37.72v21.817h9.307z" style="fill:none;stroke:#000;stroke-width:.264583px;stroke-linecap:butt;stroke-linejoin:miter;stroke-opacity:1"/><path d="M84.762 101.84h23.669M84.762 80.023h23.669M22.55 125.509v-23.67" style="fill:none;stroke:#ccc;stroke-width:.264583px;stroke-linecap:butt;stroke-linejoin:miter;stroke-opacity:1"/><path d="M53.656 51.397h54.775M53.656 42.302h54.775" style="fill:none;stroke:#ccc;stroke-width:.264582px;stroke-linecap:butt;stroke-linejoin:miter;stroke-opacity:1"/><path d="M31.857 125.509v-23.67M75.455 125.509v-23.67" style="fill:none;stroke:#ccc;stroke-width:.264583px;stroke-linecap:butt;stroke-linejoin:miter;stroke-opacity:1"/><path d="M32.24 125.509h43.217" style="fill:none;stroke:#000;stroke-width:.264583px;stroke-linecap:butt;stroke-linejoin:miter;stroke-opacity:1;marker-start:url(#b);marker-end:url(#b)"/><path d="M22.678 125.509h9.173" style="fill:none;stroke:#000;stroke-width:.264584px;stroke-linecap:butt;stroke-linejoin:miter;stroke-opacity:1;marker-start:url(#c);marker-end:url(#c)"/><path d="M108.43 101.583V80.28" style="fill:none;stroke:#000;stroke-width:.264583px;stroke-linecap:butt;stroke-linejoin:miter;stroke-opacity:1;marker-start:url(#d);marker-end:url(#d)"/><path d="M108.43 79.637V51.522" style="fill:none;stroke:#000;stroke-width:.264584px;stroke-linecap:butt;stroke-linejoin:miter;stroke-opacity:1;marker-start:url(#e);marker-end:url(#e)"/><path d="M108.43 51.124v-8.455" style="fill:none;stroke:#000;stroke-width:.264583px;stroke-linecap:butt;stroke-linejoin:miter;stroke-opacity:1;marker-start:url(#f);marker-end:url(#f)"/><text xml:space="preserve" style="font-size:14.6667px;line-height:1.25;font-family:sans-serif;white-space:pre;shape-inside:url(#g);display:inline" transform="translate(2.186 -9.516)scale(.26458)"><tspan x="184.736" y="526.107">L1</tspan></text><text xml:space="preserve" style="font-size:14.6667px;line-height:1.25;font-family:sans-serif;white-space:pre;shape-inside:url(#h);display:inline" transform="translate(-23.14 -8.955)scale(.26458)"><tspan x="184.736" y="526.107">L2</tspan></text><text xml:space="preserve" style="font-size:14.6667px;line-height:1.25;font-family:sans-serif;white-space:pre;shape-inside:url(#i);display:inline" transform="translate(-4.956 2.825)scale(.26458)"><tspan x="433.686" y="339.277">H1</tspan></text><text xml:space="preserve" style="font-size:14.6667px;line-height:1.25;font-family:sans-serif;white-space:pre;shape-inside:url(#j);display:inline" transform="translate(-5.588 -22.823)scale(.26458)"><tspan x="433.686" y="339.277">H2</tspan></text><text xml:space="preserve" style="font-size:14.6667px;line-height:1.25;font-family:sans-serif;white-space:pre;shape-inside:url(#k);display:inline" transform="translate(-5.305 -41.463)scale(.26458)"><tspan x="433.686" y="339.277">H3</tspan></text><text xml:space="preserve" style="font-size:14.6667px;line-height:1.25;font-family:sans-serif;white-space:pre;shape-inside:url(#l);display:inline" transform="translate(-113.273 9.905)scale(.26458)"><tspan x="508.291" y="203.683">R1</tspan></text><text xml:space="preserve" style="font-size:14.6667px;line-height:1.25;font-family:sans-serif;white-space:pre;shape-inside:url(#m);display:inline" transform="translate(-123.145 13.402)scale(.26458)"><tspan x="508.656" y="285.216">R2</tspan></text><path d="m16.054 84.413 4.494-3.484" style="fill:none;stroke:#000;stroke-width:.264583px;stroke-linecap:butt;stroke-linejoin:miter;stroke-opacity:1;marker-end:url(#b)"/><path d="m23.257 64.747 7.548 13.617" style="fill:none;stroke:#000;stroke-width:.264583px;stroke-linecap:butt;stroke-linejoin:miter;stroke-opacity:1;marker-end:url(#b)"/><path d="m88.046 117.796 7.86-3.322" style="fill:none;stroke:#000;stroke-width:.264583px;stroke-linecap:butt;stroke-linejoin:miter;stroke-opacity:1;marker-end:url(#b)"/><text xml:space="preserve" style="font-size:14.6667px;line-height:1.25;font-family:sans-serif;white-space:pre;shape-inside:url(#n)" transform="translate(-1.918 -.901)scale(.26458)"><tspan x="348.521" y="462.253">W1</tspan></text></svg>