<svg xmlns="http://www.w3.org/2000/svg" width="600" height="3000" viewBox="0 0 158.75 793.75"><defs><path id="H" d="M132.511 607.129h39.498v26.757h-39.498z"/><path id="G" d="M32.491 585.469h45.232v35.676H32.491z"/><path id="F" d="M101.294 578.461h37.587v30.579h-37.587z"/><path id="E" d="M68.804 541.511h40.773v40.773H68.804z"/><path id="D" d="M35.676 545.97h47.143v33.765H35.676z"/><path id="q" d="M40.135 567.631H84.73v36.95H40.135z"/><path id="p" d="M25.483 484.174H67.53v38.861H25.483z"/><path id="j" d="M32.491 515.391h42.684v36.313H32.491z"/><path id="i" d="M500.738 511.568h40.135v34.402h-40.135z"/><path id="f" d="M329.366 208.959h49.692v44.595h-49.692z"/><path id="e" d="M386.702 465.699h122.955v94.287H386.702z"/><path id="d" d="M59.885 210.871h57.336v31.216H59.885z"/><path id="c" d="M14.653 203.863h70.616v47.143H14.653z"/><path id="a" d="M15.29 17.838h324.906v68.804H15.29z"/><path id="h" d="M329.366 208.959h49.692v44.595h-49.692z"/><path id="k" d="M32.491 515.391h42.684v36.313H32.491z"/><path id="l" d="M32.491 515.391h42.684v36.313H32.491z"/><path id="m" d="M32.491 515.391h42.684v36.313H32.491z"/><path id="n" d="M32.491 515.391h42.684v36.313H32.491z"/><path id="o" d="M32.491 515.391h42.684v36.313H32.491z"/><path id="v" d="M25.483 484.174H67.53v38.861H25.483z"/><path id="w" d="M25.483 484.174H67.53v38.861H25.483z"/><path id="x" d="M25.483 484.174H67.53v38.861H25.483z"/><path id="y" d="M25.483 484.174H67.53v38.861H25.483z"/><path id="z" d="M40.135 567.631H84.73v36.95H40.135z"/><path id="A" d="M40.135 567.631H84.73v36.95H40.135z"/><path id="B" d="M40.135 567.631H84.73v36.95H40.135z"/><path id="C" d="M40.135 567.631H84.73v36.95H40.135z"/><marker id="b" markerHeight="1" markerWidth="1" orient="auto-start-reverse" preserveAspectRatio="xMidYMid" refX="0" refY="0" style="overflow:visible" viewBox="0 0 1 1"><path d="M3-3 0 0l3 3" style="fill:none;stroke:context-stroke;stroke-width:1;stroke-linecap:round" transform="rotate(180 .125 0)"/></marker><marker id="g" markerHeight="1" markerWidth="1" orient="auto-start-reverse" preserveAspectRatio="xMidYMid" refX="0" refY="0" style="overflow:visible" viewBox="0 0 1 1"><path d="M3-3 0 0l3 3" style="fill:none;stroke:context-stroke;stroke-width:1;stroke-linecap:round" transform="rotate(180 .125 0)"/></marker><marker id="r" markerHeight="1" markerWidth="1" orient="auto-start-reverse" preserveAspectRatio="xMidYMid" refX="0" refY="0" style="overflow:visible" viewBox="0 0 1 1"><path d="M3-3 0 0l3 3" style="fill:none;stroke:context-stroke;stroke-width:1;stroke-linecap:round" transform="rotate(180 .125 0)"/></marker><marker id="s" markerHeight="1" markerWidth="1" orient="auto-start-reverse" preserveAspectRatio="xMidYMid" refX="0" refY="0" style="overflow:visible" viewBox="0 0 1 1"><path d="M3-3 0 0l3 3" style="fill:none;stroke:context-stroke;stroke-width:1;stroke-linecap:round" transform="rotate(180 .125 0)"/></marker><marker id="t" markerHeight="1" markerWidth="1" orient="auto-start-reverse" preserveAspectRatio="xMidYMid" refX="0" refY="0" style="overflow:visible" viewBox="0 0 1 1"><path d="M3-3 0 0l3 3" style="fill:none;stroke:context-stroke;stroke-width:1;stroke-linecap:round" transform="rotate(180 .125 0)"/></marker><marker id="u" markerHeight="1" markerWidth="1" orient="auto-start-reverse" preserveAspectRatio="xMidYMid" refX="0" refY="0" style="overflow:visible" viewBox="0 0 1 1"><path d="M3-3 0 0l3 3" style="fill:none;stroke:context-stroke;stroke-width:1;stroke-linecap:round" transform="rotate(180 .125 0)"/></marker></defs><path d="M.843 41.802h149.343v107.035H.843z" style="fill:#fff;stroke:#fff;stroke-width:.264583;stroke-linejoin:round"/><text xml:space="preserve" style="font-size:14.6667px;line-height:normal;font-family:&quot;Liberation Mono&quot;;-inkscape-font-specification:&quot;Liberation Mono&quot;;text-decoration-color:#000;white-space:pre;shape-inside:url(#a);display:inline;fill:#000;stroke-width:1;-inkscape-stroke:none;stop-color:#000" transform="scale(.26458)"><tspan x="15.289" y="30.888">src_sfDie.svg</tspan></text><path d="M9.776 82.088h26.458v26.458H9.776z" style="fill:#e6e6e6;stroke:#1a1a1a;stroke-width:.264583;stroke-linejoin:round"/><path d="M36.235 82.088h10.456v26.591H36.235z" style="fill:#f4d7d7;stroke:#1a1a1a;stroke-width:.264583;stroke-linejoin:round"/><path d="M46.691 82.154h26.458v26.458H46.691z" style="fill:#e6e6e6;stroke:#1a1a1a;stroke-width:.264583;stroke-linejoin:round"/><path d="M73.149 82.088h10.456v26.591H73.149z" style="fill:#f4d7d7;stroke:#1a1a1a;stroke-width:.264583;stroke-linejoin:round"/><path d="M-82.154 46.625h10.456v26.591h-10.456z" style="fill:#f4d7d7;stroke:#1a1a1a;stroke-width:.264583;stroke-linejoin:round" transform="rotate(-90)"/><path d="M83.605 82.154h26.458v26.458H83.605z" style="fill:#e6e6e6;stroke:#1a1a1a;stroke-width:.264583;stroke-linejoin:round"/><path d="M110.063 82.088h10.456v26.591h-10.456z" style="fill:#f4d7d7;stroke:#1a1a1a;stroke-width:.264583;stroke-linejoin:round"/><path d="M120.519 82.154h26.458v26.458h-26.458zM46.691 45.24h26.458v26.458H46.691z" style="fill:#e6e6e6;stroke:#1a1a1a;stroke-width:.264583;stroke-linejoin:round"/><path d="M-119.068 46.625h10.456v26.591h-10.456z" style="fill:#f4d7d7;stroke:#1a1a1a;stroke-width:.264583;stroke-linejoin:round" transform="rotate(-90)"/><path d="M46.691 119.068h26.458v26.458H46.691z" style="fill:#e6e6e6;stroke:#1a1a1a;stroke-width:.264583;stroke-linejoin:round"/><ellipse cx="59.92" cy="95.383" rx="3.218" ry="3.159" style="fill:#fff;stroke:#1a1a1a;stroke-width:.264583;stroke-linejoin:round"/><ellipse cx="126.784" cy="88.206" rx="3.218" ry="3.159" style="fill:#fff;stroke:#1a1a1a;stroke-width:.264583;stroke-linejoin:round"/><ellipse cx="127.051" cy="95.703" rx="3.218" ry="3.159" style="fill:#fff;stroke:#1a1a1a;stroke-width:.264583;stroke-linejoin:round"/><ellipse cx="127.254" cy="102.99" rx="3.218" ry="3.159" style="fill:#fff;stroke:#1a1a1a;stroke-width:.264583;stroke-linejoin:round"/><ellipse cx="139.816" cy="87.852" rx="3.218" ry="3.159" style="fill:#fff;stroke:#1a1a1a;stroke-width:.264583;stroke-linejoin:round"/><ellipse cx="140.083" cy="95.349" rx="3.218" ry="3.159" style="fill:#fff;stroke:#1a1a1a;stroke-width:.264583;stroke-linejoin:round"/><ellipse cx="140.286" cy="102.636" rx="3.218" ry="3.159" style="fill:#fff;stroke:#1a1a1a;stroke-width:.264583;stroke-linejoin:round"/><ellipse cx="91.365" cy="89.777" rx="3.218" ry="3.159" style="fill:#fff;stroke:#1a1a1a;stroke-width:.264583;stroke-linejoin:round"/><ellipse cx="102.381" cy="101.365" rx="3.218" ry="3.159" style="fill:#fff;stroke:#1a1a1a;stroke-width:.264583;stroke-linejoin:round"/><ellipse cx="22.561" cy="95.317" rx="3.218" ry="3.159" style="fill:#fff;stroke:#1a1a1a;stroke-width:.264583;stroke-linejoin:round"/><ellipse cx="59.92" cy="132.298" rx="3.218" ry="3.159" style="fill:#fff;stroke:#1a1a1a;stroke-width:.264583;stroke-linejoin:round"/><ellipse cx="52.735" cy="124.2" rx="3.218" ry="3.159" style="fill:#fff;stroke:#1a1a1a;stroke-width:.264583;stroke-linejoin:round"/><ellipse cx="67.223" cy="139.495" rx="3.218" ry="3.159" style="fill:#fff;stroke:#1a1a1a;stroke-width:.264583;stroke-linejoin:round"/><ellipse cx="53.193" cy="51.528" rx="3.218" ry="3.159" style="fill:#fff;stroke:#1a1a1a;stroke-width:.264583;stroke-linejoin:round"/><ellipse cx="66.866" cy="65.206" rx="3.218" ry="3.159" style="fill:#fff;stroke:#1a1a1a;stroke-width:.264583;stroke-linejoin:round"/><ellipse cx="53.269" cy="65.235" rx="3.218" ry="3.159" style="fill:#fff;stroke:#1a1a1a;stroke-width:.264583;stroke-linejoin:round"/><ellipse cx="66.673" cy="51.568" rx="3.218" ry="3.159" style="fill:#fff;stroke:#1a1a1a;stroke-width:.264583;stroke-linejoin:round"/><ellipse cx="15.96" cy="88.269" rx="3.218" ry="3.159" style="fill:#fff;stroke:#1a1a1a;stroke-width:.264583;stroke-linejoin:round"/><ellipse cx="30.112" cy="88.492" rx="3.218" ry="3.159" style="fill:#fff;stroke:#1a1a1a;stroke-width:.264583;stroke-linejoin:round"/><ellipse cx="16.198" cy="102.409" rx="3.218" ry="3.159" style="fill:#fff;stroke:#1a1a1a;stroke-width:.264583;stroke-linejoin:round"/><ellipse cx="30.136" cy="103.214" rx="3.218" ry="3.159" style="fill:#fff;stroke:#1a1a1a;stroke-width:.264583;stroke-linejoin:round"/><path d="M6.601 82.088v26.458" style="fill:#e6e6e6;stroke:#00f;stroke-width:.264583;stroke-linejoin:round;marker-start:url(#b);marker-end:url(#b)"/><text xml:space="preserve" style="font-size:14.6667px;line-height:normal;font-family:&quot;Liberation Mono&quot;;-inkscape-font-specification:&quot;Liberation Mono&quot;;text-decoration-color:#000;white-space:pre;shape-inside:url(#c);display:inline;fill:#00f;stroke-width:1;-inkscape-stroke:none;stop-color:#000" transform="translate(-2.528 37.925)scale(.26458)"><tspan x="14.652" y="216.913">W1</tspan></text><path d="m17.867 84.616 2.191-9.776" style="fill:#00f;stroke:#00f;stroke-width:.264583;stroke-linejoin:round;marker-start:url(#b)"/><text xml:space="preserve" style="font-size:14.6667px;line-height:normal;font-family:&quot;Liberation Mono&quot;;-inkscape-font-specification:&quot;Liberation Mono&quot;;text-decoration-color:#000;white-space:pre;shape-inside:url(#d);display:inline;fill:#00f;stroke-width:1;-inkscape-stroke:none;stop-color:#000" transform="translate(2.697 14.641)scale(.26458)"><tspan x="59.885" y="223.921">D1</tspan></text><path d="m73.829 114.957 26.632 8.933" style="fill:#00f;stroke:green;stroke-width:.264583;stroke-linejoin:round;marker-start:url(#b)"/><path d="m82.594 109.9 19.215 12.473" style="fill:#00f;stroke:green;stroke-width:.264583;stroke-linejoin:round;marker-start:url(#b)"/><path d="m111.249 110.069-6.911 11.462" style="fill:#00f;stroke:green;stroke-width:.264583;stroke-linejoin:round;marker-start:url(#b)"/><text xml:space="preserve" style="font-size:14.6667px;line-height:normal;font-family:&quot;Liberation Mono&quot;;-inkscape-font-specification:&quot;Liberation Mono&quot;;text-decoration-color:#000;white-space:pre;shape-inside:url(#e);display:inline;fill:green;stroke-width:1;-inkscape-stroke:none;stop-color:#000" transform="scale(.26458)"><tspan x="386.703" y="478.749">Jradius
</tspan><tspan x="386.703" y="497.083">Jneutral
</tspan><tspan x="386.703" y="515.416">Jmark</tspan></text><path d="m74.166 75.683 8.428-10.788" style="fill:green;stroke:green;stroke-width:.264583;stroke-linejoin:round;marker-start:url(#b)"/><path d="m81.75 81.077 2.192-14.665" style="fill:green;stroke:green;stroke-width:.264583;stroke-linejoin:round;marker-start:url(#b)"/><text xml:space="preserve" style="font-size:14.6667px;line-height:normal;font-family:&quot;Liberation Mono&quot;;-inkscape-font-specification:&quot;Liberation Mono&quot;;text-decoration-color:#000;white-space:pre;shape-inside:url(#f);display:inline;fill:green;stroke-width:1;-inkscape-stroke:none;stop-color:#000" transform="translate(-3.877 5.9)scale(.26458)"><tspan x="329.365" y="222.009">J1</tspan></text><path d="m116.344 80.674 1.517-9.945" style="fill:green;stroke:green;stroke-width:.264583;stroke-linejoin:round;marker-start:url(#g)"/><text xml:space="preserve" style="font-size:14.6667px;line-height:normal;font-family:&quot;Liberation Mono&quot;;-inkscape-font-specification:&quot;Liberation Mono&quot;;text-decoration-color:#000;white-space:pre;shape-inside:url(#h);display:inline;fill:green;stroke-width:1;-inkscape-stroke:none;stop-color:#000" transform="translate(29.011 9.868)scale(.26458)"><tspan x="329.365" y="222.009">J5</tspan></text><path d="m127.599 140.072 6.236-10.282" style="fill:green;stroke:purple;stroke-width:.264583;stroke-linejoin:round;marker-end:url(#b)"/><text xml:space="preserve" style="font-size:14.6667px;line-height:normal;font-family:&quot;Liberation Mono&quot;;-inkscape-font-specification:&quot;Liberation Mono&quot;;text-decoration-color:#000;white-space:pre;shape-inside:url(#i);display:inline;fill:purple;stroke-width:1;-inkscape-stroke:none;stop-color:#000" transform="translate(-1.517 -.674)scale(.26458)"><tspan x="500.738" y="524.618">Th</tspan></text><text xml:space="preserve" style="font-size:14.6667px;line-height:normal;font-family:&quot;Liberation Mono&quot;;-inkscape-font-specification:&quot;Liberation Mono&quot;;text-decoration-color:#000;white-space:pre;shape-inside:url(#j);display:inline;fill:#666;stroke-width:1;-inkscape-stroke:none;stop-color:#000" transform="translate(45.174 -35.229)scale(.26458)"><tspan x="32.49" y="528.441">fa1</tspan></text><text xml:space="preserve" style="font-size:14.6667px;line-height:normal;font-family:&quot;Liberation Mono&quot;;-inkscape-font-specification:&quot;Liberation Mono&quot;;text-decoration-color:#000;white-space:pre;shape-inside:url(#k);display:inline;fill:#666;stroke-width:1;-inkscape-stroke:none;stop-color:#000" transform="translate(76.406 -34.843)scale(.26458)"><tspan x="32.49" y="528.441">fa2</tspan></text><text xml:space="preserve" style="font-size:14.6667px;line-height:normal;font-family:&quot;Liberation Mono&quot;;-inkscape-font-specification:&quot;Liberation Mono&quot;;text-decoration-color:#000;white-space:pre;shape-inside:url(#l);display:inline;fill:#666;stroke-width:1;-inkscape-stroke:none;stop-color:#000" transform="translate(41.182 2.623)scale(.26458)"><tspan x="32.49" y="528.441">fa3</tspan></text><text xml:space="preserve" style="font-size:14.6667px;line-height:normal;font-family:&quot;Liberation Mono&quot;;-inkscape-font-specification:&quot;Liberation Mono&quot;;text-decoration-color:#000;white-space:pre;shape-inside:url(#m);display:inline;fill:#666;stroke-width:1;-inkscape-stroke:none;stop-color:#000" transform="translate(47.827 -78.477)scale(.26458)"><tspan x="32.49" y="528.441">fa4</tspan></text><text xml:space="preserve" style="font-size:14.6667px;line-height:normal;font-family:&quot;Liberation Mono&quot;;-inkscape-font-specification:&quot;Liberation Mono&quot;;text-decoration-color:#000;white-space:pre;shape-inside:url(#n);display:inline;fill:#666;stroke-width:1;-inkscape-stroke:none;stop-color:#000" transform="translate(2.576 -42.406)scale(.26458)"><tspan x="32.49" y="528.441">fa5</tspan></text><text xml:space="preserve" style="font-size:14.6667px;line-height:normal;font-family:&quot;Liberation Mono&quot;;-inkscape-font-specification:&quot;Liberation Mono&quot;;text-decoration-color:#000;white-space:pre;shape-inside:url(#o);display:inline;fill:#666;stroke-width:1;-inkscape-stroke:none;stop-color:#000" transform="translate(121.352 -47.158)scale(.26458)"><tspan x="32.49" y="528.441">fa6</tspan></text><path d="M53.77 113.271h9.608" style="fill:#666;stroke:#666;stroke-width:.264583;stroke-linejoin:round;marker-end:url(#b)"/><text xml:space="preserve" style="font-size:14.6667px;line-height:normal;font-family:&quot;Liberation Mono&quot;;-inkscape-font-specification:&quot;Liberation Mono&quot;;text-decoration-color:#000;white-space:pre;shape-inside:url(#p);display:inline;fill:#666;stroke-width:1;-inkscape-stroke:none;stop-color:#000" transform="translate(43.825 -16.856)scale(.26458)"><tspan x="25.482" y="497.224">A</tspan></text><text xml:space="preserve" style="font-size:14.6667px;line-height:normal;font-family:&quot;Liberation Mono&quot;;-inkscape-font-specification:&quot;Liberation Mono&quot;;text-decoration-color:#000;white-space:pre;shape-inside:url(#q);display:inline;fill:#666;stroke-width:1;-inkscape-stroke:none;stop-color:#000" transform="translate(53.602 -38.937)scale(.26458)"><tspan x="40.135" y="580.681">B</tspan></text><path d="M78.253 99.149v-9.608" style="fill:#666;stroke:#666;stroke-width:.264583;stroke-linejoin:round;marker-end:url(#r)"/><path d="M115.53 99.624v-9.608" style="fill:#666;stroke:#666;stroke-width:.264583;stroke-linejoin:round;marker-end:url(#s)"/><path d="M64.478 76.816H54.87" style="fill:#666;stroke:#666;stroke-width:.264583;stroke-linejoin:round;marker-end:url(#t)"/><path d="M40.716 89.587v9.607" style="fill:#666;stroke:#666;stroke-width:.264583;stroke-linejoin:round;marker-end:url(#u)"/><text xml:space="preserve" style="font-size:14.6667px;line-height:normal;font-family:&quot;Liberation Mono&quot;;-inkscape-font-specification:&quot;Liberation Mono&quot;;text-decoration-color:#000;white-space:pre;shape-inside:url(#v);display:inline;fill:#666;stroke-width:1;-inkscape-stroke:none;stop-color:#000" transform="translate(70.348 -28.563)scale(.26458)"><tspan x="25.482" y="497.224">A</tspan></text><text xml:space="preserve" style="font-size:14.6667px;line-height:normal;font-family:&quot;Liberation Mono&quot;;-inkscape-font-specification:&quot;Liberation Mono&quot;;text-decoration-color:#000;white-space:pre;shape-inside:url(#w);display:inline;fill:#666;stroke-width:1;-inkscape-stroke:none;stop-color:#000" transform="translate(107.668 -27.931)scale(.26458)"><tspan x="25.482" y="497.224">A</tspan></text><text xml:space="preserve" style="font-size:14.6667px;line-height:normal;font-family:&quot;Liberation Mono&quot;;-inkscape-font-specification:&quot;Liberation Mono&quot;;text-decoration-color:#000;white-space:pre;shape-inside:url(#x);display:inline;fill:#666;stroke-width:1;-inkscape-stroke:none;stop-color:#000" transform="translate(58.391 -53.245)scale(.26458)"><tspan x="25.482" y="497.224">A</tspan></text><text xml:space="preserve" style="font-size:14.6667px;line-height:normal;font-family:&quot;Liberation Mono&quot;;-inkscape-font-specification:&quot;Liberation Mono&quot;;text-decoration-color:#000;white-space:pre;shape-inside:url(#y);display:inline;fill:#666;stroke-width:1;-inkscape-stroke:none;stop-color:#000" transform="translate(32.54 -42.54)scale(.26458)"><tspan x="25.482" y="497.224">A</tspan></text><text xml:space="preserve" style="font-size:14.6667px;line-height:normal;font-family:&quot;Liberation Mono&quot;;-inkscape-font-specification:&quot;Liberation Mono&quot;;text-decoration-color:#000;white-space:pre;shape-inside:url(#z);display:inline;fill:#666;stroke-width:1;-inkscape-stroke:none;stop-color:#000" transform="translate(66.47 -65.424)scale(.26458)"><tspan x="40.135" y="580.681">B</tspan></text><text xml:space="preserve" style="font-size:14.6667px;line-height:normal;font-family:&quot;Liberation Mono&quot;;-inkscape-font-specification:&quot;Liberation Mono&quot;;text-decoration-color:#000;white-space:pre;shape-inside:url(#A);display:inline;fill:#666;stroke-width:1;-inkscape-stroke:none;stop-color:#000" transform="translate(40.83 -75.38)scale(.26458)"><tspan x="40.135" y="580.681">B</tspan></text><text xml:space="preserve" style="font-size:14.6667px;line-height:normal;font-family:&quot;Liberation Mono&quot;;-inkscape-font-specification:&quot;Liberation Mono&quot;;text-decoration-color:#000;white-space:pre;shape-inside:url(#B);display:inline;fill:#666;stroke-width:1;-inkscape-stroke:none;stop-color:#000" transform="translate(28.798 -50.42)scale(.26458)"><tspan x="40.135" y="580.681">B</tspan></text><text xml:space="preserve" style="font-size:14.6667px;line-height:normal;font-family:&quot;Liberation Mono&quot;;-inkscape-font-specification:&quot;Liberation Mono&quot;;text-decoration-color:#000;white-space:pre;shape-inside:url(#C);display:inline;fill:#666;stroke-width:1;-inkscape-stroke:none;stop-color:#000" transform="translate(103.73 -65.132)scale(.26458)"><tspan x="40.135" y="580.681">B</tspan></text><text xml:space="preserve" style="font-size:14.6667px;line-height:normal;font-family:&quot;Liberation Mono&quot;;-inkscape-font-specification:&quot;Liberation Mono&quot;;text-decoration-color:#000;white-space:pre;shape-inside:url(#D);display:inline;fill:#ff8080;stroke-width:1;-inkscape-stroke:none;stop-color:#000" transform="translate(45.68 -31.183)scale(.26458)"><tspan x="35.676" y="559.021">J1</tspan></text><text xml:space="preserve" style="font-size:14.6667px;line-height:normal;font-family:&quot;Liberation Mono&quot;;-inkscape-font-specification:&quot;Liberation Mono&quot;;text-decoration-color:#000;white-space:pre;shape-inside:url(#E);display:inline;fill:#ff8080;stroke-width:1;-inkscape-stroke:none;stop-color:#000" transform="translate(60.175 -50.399)scale(.26458)"><tspan x="68.803" y="554.56">J2</tspan></text><text xml:space="preserve" style="font-size:14.6667px;line-height:normal;font-family:&quot;Liberation Mono&quot;;-inkscape-font-specification:&quot;Liberation Mono&quot;;text-decoration-color:#000;white-space:pre;shape-inside:url(#F);display:inline;fill:#ff8080;stroke-width:1;-inkscape-stroke:none;stop-color:#000" transform="translate(30.34 -76.02)scale(.26458)"><tspan x="101.295" y="591.511">J3</tspan></text><text xml:space="preserve" style="font-size:14.6667px;line-height:normal;font-family:&quot;Liberation Mono&quot;;-inkscape-font-specification:&quot;Liberation Mono&quot;;text-decoration-color:#000;white-space:pre;shape-inside:url(#G);display:inline;fill:#ff8080;stroke-width:1;-inkscape-stroke:none;stop-color:#000" transform="translate(32.7 -62.198)scale(.26458)"><tspan x="32.49" y="598.519">J4</tspan></text><text xml:space="preserve" style="font-size:14.6667px;line-height:normal;font-family:&quot;Liberation Mono&quot;;-inkscape-font-specification:&quot;Liberation Mono&quot;;text-decoration-color:#000;white-space:pre;shape-inside:url(#H);display:inline;fill:#ff8080;stroke-width:1;-inkscape-stroke:none;stop-color:#000" transform="translate(75.346 -66.75)scale(.26458)"><tspan x="132.512" y="620.179">J5</tspan></text></svg>