<svg xmlns="http://www.w3.org/2000/svg" width="600" height="4000" viewBox="0 0 158.75 1058.333"><defs><path id="an" d="M522.717 2381.941h129.325v52.272H522.717z"/><path id="ak" d="M494.399 2258.919h21.848v25.001h-21.848z"/><path id="aj" d="M479.758 2278.74h28.155v28.605h-28.155z"/><path id="ai" d="M470.298 2298.786h24.101v23.875h-24.101z"/><path id="ah" d="M463.316 2319.734h28.605v23.425h-28.605z"/><path id="ag" d="M450.928 2337.978h32.209v24.326h-32.209z"/><path id="af" d="M400.081 2295.368h71.989v34.402h-71.989z"/><path id="ae" d="M409.809 2436.798H519.85v45.869H409.809z"/><path id="ad" d="M397.942 2267.277h97.699v40.832h-97.699z"/><path id="ac" d="M409 2353.979h88.553v40.135H409z"/><path id="Y" d="M50.329 1894.332H122v29.624H50.329z"/><path id="X" d="M36.95 1867.893h62.433v37.587H36.95z"/><path id="W" d="M26.757 1855.47h62.114v39.18H26.757z"/><path id="V" d="M20.705 1887.642h63.707v24.846H20.705z"/><path id="U" d="M28.987 1875.538h60.522v35.676H28.987z"/><path id="T" d="M45.869 1866.3h67.848v31.854H45.869z"/><path id="E" d="M245.44 1315.574H600v374.618H245.44z"/><path id="D" d="M30.632 1465.854h420.295v140.549H30.632z"/><path id="C" d="M244.26 1244.219h287.303v113.971H244.26z"/><path id="B" d="M181.542 1430.727h27.479v24.765h-27.479z"/><path id="A" d="M148.207 1429.14h26.128v19.821h-26.128z"/><path id="z" d="M111.922 1428.914h29.303v21.398h-29.303z"/><path id="y" d="M76.581 1427.338h29.281v17.343H76.581z"/><path id="x" d="M276.143 1337.918h376.599v157.667H276.143z"/><path id="u" d="M410.274 1310.774h209.027v62.328H410.274z"/><path id="t" d="M419.511 1264.586h324.737v76.292H419.511z"/><path id="s" d="M385.269 1308.863h32.491v21.66h-32.491z"/><path id="r" d="M374.439 1319.375h29.624v22.616h-29.624z"/><path id="q" d="M357.556 1317.941h27.235v17.042h-27.235z"/><path id="p" d="M360.582 1312.685h33.606v21.342h-33.606z"/><path id="o" d="M368.705 1320.012h23.094v17.201h-23.094z"/><path id="m" d="M454.982 842.393h50.453v35.137h-50.453z"/><path id="l" d="M415.34 899.153h54.057v41.444H415.34z"/><path id="k" d="M388.312 891.044h71.175v44.147h-71.175z"/><path id="h" d="M437.864 202.264h68.923v24.326h-68.923z"/><path id="g" d="M432.909 340.561h39.192v19.821h-39.192z"/><path id="f" d="M427.954 297.766H471.2v19.371h-43.246z"/><path id="c" d="M419.845 242.064h47.3v20.114h-47.3z"/><path id="a" d="M7.645 5.097h205.137v48.417H7.645z"/><path id="d" d="M419.845 242.064h47.3v20.114h-47.3z"/><path id="e" d="M419.845 242.064h47.3v20.114h-47.3z"/><path id="i" d="M432.909 340.561h39.192v19.821h-39.192z"/><path id="j" d="M427.954 297.766H471.2v19.371h-43.246z"/><path id="w" d="M368.705 1320.012h23.094v17.201h-23.094z"/><path id="G" d="M419.845 242.064h47.3v20.114h-47.3z"/><path id="H" d="M419.845 242.064h47.3v20.114h-47.3z"/><path id="I" d="M419.845 242.064h47.3v20.114h-47.3z"/><path id="J" d="M427.954 297.766H471.2v19.371h-43.246z"/><path id="K" d="M432.909 340.561h39.192v19.821h-39.192z"/><path id="L" d="M437.864 202.264h68.923v24.326h-68.923z"/><marker id="n" markerHeight="1" markerWidth="1" orient="auto-start-reverse" preserveAspectRatio="xMidYMid" refX="0" refY="0" style="overflow:visible" viewBox="0 0 1 1"><path d="M3-3 0 0l3 3" style="fill:none;stroke:context-stroke;stroke-width:1;stroke-linecap:butt" transform="rotate(180 .125 0)"/></marker><marker id="b" markerHeight="1" markerWidth="1" orient="auto-start-reverse" preserveAspectRatio="xMidYMid" refX="0" refY="0" style="overflow:visible" viewBox="0 0 1 1"><path d="M3-3 0 0l3 3" style="fill:none;stroke:context-stroke;stroke-width:1;stroke-linecap:butt" transform="rotate(180 .125 0)"/></marker><marker id="v" markerHeight="1" markerWidth="1" orient="auto-start-reverse" preserveAspectRatio="xMidYMid" refX="0" refY="0" style="overflow:visible" viewBox="0 0 1 1"><path d="M3-3 0 0l3 3" style="fill:none;stroke:context-stroke;stroke-width:1;stroke-linecap:butt" transform="rotate(180 .125 0)"/></marker><marker id="F" markerHeight="1" markerWidth="1" orient="auto-start-reverse" preserveAspectRatio="xMidYMid" refX="0" refY="0" style="overflow:visible" viewBox="0 0 1 1"><path d="M3-3 0 0l3 3" style="fill:none;stroke:context-stroke;stroke-width:1;stroke-linecap:butt" transform="rotate(180 .125 0)"/></marker><marker id="M" markerHeight="1" markerWidth="1" orient="auto-start-reverse" preserveAspectRatio="xMidYMid" refX="0" refY="0" style="overflow:visible" viewBox="0 0 1 1"><path d="M3-3 0 0l3 3" style="fill:none;stroke:context-stroke;stroke-width:1;stroke-linecap:butt" transform="rotate(180 .125 0)"/></marker><marker id="N" markerHeight="1" markerWidth="1" orient="auto-start-reverse" preserveAspectRatio="xMidYMid" refX="0" refY="0" style="overflow:visible" viewBox="0 0 1 1"><path d="M3-3 0 0l3 3" style="fill:none;stroke:context-stroke;stroke-width:1;stroke-linecap:butt" transform="rotate(180 .125 0)"/></marker><marker id="O" markerHeight="1" markerWidth="1" orient="auto-start-reverse" preserveAspectRatio="xMidYMid" refX="0" refY="0" style="overflow:visible" viewBox="0 0 1 1"><path d="M3-3 0 0l3 3" style="fill:none;stroke:context-stroke;stroke-width:1;stroke-linecap:butt" transform="rotate(180 .125 0)"/></marker><marker id="P" markerHeight="1" markerWidth="1" orient="auto-start-reverse" preserveAspectRatio="xMidYMid" refX="0" refY="0" style="overflow:visible" viewBox="0 0 1 1"><path d="M3-3 0 0l3 3" style="fill:none;stroke:context-stroke;stroke-width:1;stroke-linecap:butt" transform="rotate(180 .125 0)"/></marker><marker id="Q" markerHeight="1" markerWidth="1" orient="auto-start-reverse" preserveAspectRatio="xMidYMid" refX="0" refY="0" style="overflow:visible" viewBox="0 0 1 1"><path d="M3-3 0 0l3 3" style="fill:none;stroke:context-stroke;stroke-width:1;stroke-linecap:butt" transform="rotate(180 .125 0)"/></marker><marker id="R" markerHeight="1" markerWidth="1" orient="auto-start-reverse" preserveAspectRatio="xMidYMid" refX="0" refY="0" style="overflow:visible" viewBox="0 0 1 1"><path d="M3-3 0 0l3 3" style="fill:none;stroke:context-stroke;stroke-width:1;stroke-linecap:butt" transform="rotate(180 .125 0)"/></marker><marker id="S" markerHeight="1" markerWidth="1" orient="auto-start-reverse" preserveAspectRatio="xMidYMid" refX="0" refY="0" style="overflow:visible" viewBox="0 0 1 1"><path d="M3-3 0 0l3 3" style="fill:none;stroke:context-stroke;stroke-width:1;stroke-linecap:butt" transform="rotate(180 .125 0)"/></marker><marker id="Z" markerHeight="1" markerWidth="1" orient="auto-start-reverse" preserveAspectRatio="xMidYMid" refX="0" refY="0" style="overflow:visible" viewBox="0 0 1 1"><path d="M3-3 0 0l3 3" style="fill:none;stroke:context-stroke;stroke-width:1;stroke-linecap:butt" transform="rotate(180 .125 0)"/></marker><marker id="aa" markerHeight="1" markerWidth="1" orient="auto-start-reverse" preserveAspectRatio="xMidYMid" refX="0" refY="0" style="overflow:visible" viewBox="0 0 1 1"><path d="M3-3 0 0l3 3" style="fill:none;stroke:context-stroke;stroke-width:1;stroke-linecap:butt" transform="rotate(180 .125 0)"/></marker><marker id="ab" markerHeight="1" markerWidth="1" orient="auto-start-reverse" preserveAspectRatio="xMidYMid" refX="0" refY="0" style="overflow:visible" viewBox="0 0 1 1"><path d="M3-3 0 0l3 3" style="fill:none;stroke:context-stroke;stroke-width:1;stroke-linecap:butt" transform="rotate(180 .125 0)"/></marker><marker id="al" markerHeight="1" markerWidth="1" orient="auto-start-reverse" preserveAspectRatio="xMidYMid" refX="0" refY="0" style="overflow:visible" viewBox="0 0 1 1"><path d="M3-3 0 0l3 3" style="fill:none;stroke:context-stroke;stroke-width:1;stroke-linecap:butt" transform="rotate(180 .125 0)"/></marker><marker id="am" markerHeight="1" markerWidth="1" orient="auto-start-reverse" preserveAspectRatio="xMidYMid" refX="0" refY="0" style="overflow:visible" viewBox="0 0 1 1"><path d="M3-3 0 0l3 3" style="fill:none;stroke:context-stroke;stroke-width:1;stroke-linecap:butt" transform="rotate(180 .125 0)"/></marker><marker id="ao" markerHeight="1" markerWidth="1" orient="auto-start-reverse" preserveAspectRatio="xMidYMid" refX="0" refY="0" style="overflow:visible" viewBox="0 0 1 1"><path d="M3-3 0 0l3 3" style="fill:none;stroke:context-stroke;stroke-width:1;stroke-linecap:butt" transform="rotate(180 .125 0)"/></marker><marker id="ap" markerHeight="1" markerWidth="1" orient="auto-start-reverse" preserveAspectRatio="xMidYMid" refX="0" refY="0" style="overflow:visible" viewBox="0 0 1 1"><path d="M3-3 0 0l3 3" style="fill:none;stroke:context-stroke;stroke-width:1;stroke-linecap:butt" transform="rotate(180 .125 0)"/></marker></defs><path d="M102.054 595.572h48.48v51.489h-48.48z" style="fill:#fff;stroke:#fff;stroke-width:.264583;stroke-linejoin:round;stroke-dasharray:none"/><path d="m104.71 641.528 16.419.057v-19.621l12.74-12.705-11.612-11.58-17.417 17.37z" style="fill:#fff6d5;stroke:olive;stroke-width:.264582;stroke-linejoin:round"/><path d="M22.25 473.144h92.37v98.944H22.25zM27.981 584.392h62.535v85.628H27.981z" style="fill:#fff;stroke:#fff;stroke-width:.264583;stroke-linejoin:round;stroke-dasharray:none"/><path d="M36.472 132.776h76.758v111.322H36.472zM10.727 15.733h93.921v99.642H10.727z" style="fill:#fff;stroke:#fff;stroke-width:.264583;stroke-linejoin:round"/><text xml:space="preserve" x="-17.019" style="font-size:14.6667px;line-height:normal;font-family:&quot;Liberation Mono&quot;;-inkscape-font-specification:&quot;Liberation Mono&quot;;text-align:start;text-decoration-color:#000;white-space:pre;shape-inside:url(#a);display:inline;fill:#000;stroke-width:1;-inkscape-stroke:none;stop-color:#000" transform="translate(2.865 3.54)scale(.26458)"><tspan x="7.645" y="18.146">src_maison.svg</tspan></text><path d="M33.88 62.872v28.824h34.386V53.939L49.83 36.529Z" style="fill:#d7f4e3;stroke:#000;stroke-width:.264583;stroke-linejoin:round"/><path d="M68.266 53.939h13.99M49.557 36.397h45.51" style="fill:#fff;stroke:#ccc;stroke-width:.264583;stroke-linejoin:round"/><path d="M68.398 91.696h26.67" style="fill:#fff;stroke:#ccc;stroke-width:.264582;stroke-linejoin:round"/><path d="M19.758 62.872H33.88M19.758 91.696h13.99M33.88 105.818v-13.99M68.266 105.554v-13.99M33.748 63.005V22.538M49.829 36.529v-13.99" style="fill:#fff;stroke:#ccc;stroke-width:.264583;stroke-linejoin:round"/><path d="M95.067 36.397v55.299" style="fill:#fff;stroke:#f0f;stroke-width:.264583;stroke-linejoin:round;marker-start:url(#b);marker-end:url(#b)"/><path d="m33.88 105.818 34.386-.264" style="fill:#fff;stroke:#f0f;stroke-width:.264583;stroke-linejoin:round;marker-start:url(#b);marker-end:url(#b)"/><path d="M19.758 62.872v28.824" style="fill:#fff;stroke:#f0f;stroke-width:.264583;stroke-linejoin:round;marker-start:url(#b);marker-end:url(#b)"/><path d="M33.748 22.538h16.081" style="fill:#fff;stroke:#f0f;stroke-width:.264583;stroke-linejoin:round;marker-start:url(#b);marker-end:url(#b)"/><path d="M82.257 53.939v37.757" style="fill:#fff;stroke:#f0f;stroke-width:.264583;stroke-linejoin:round;marker-start:url(#b);marker-end:url(#b)"/><text xml:space="preserve" style="font-size:14.6667px;line-height:normal;font-family:&quot;Liberation Mono&quot;;-inkscape-font-specification:&quot;Liberation Mono&quot;;text-align:center;text-decoration-color:#000;white-space:pre;shape-inside:url(#c);display:inline;fill:#000;stroke-width:1;-inkscape-stroke:none;stop-color:#000" transform="translate(-18.117 -2.175)scale(.26458)"><tspan x="434.694" y="255.115">H1</tspan></text><text xml:space="preserve" style="font-size:14.6667px;line-height:normal;font-family:&quot;Liberation Mono&quot;;-inkscape-font-specification:&quot;Liberation Mono&quot;;text-align:center;text-decoration-color:#000;white-space:pre;shape-inside:url(#d);display:inline;fill:#000;stroke-width:1;-inkscape-stroke:none;stop-color:#000" transform="translate(-31.819 6.604)scale(.26458)"><tspan x="434.694" y="255.115">H2</tspan></text><text xml:space="preserve" style="font-size:14.6667px;line-height:normal;font-family:&quot;Liberation Mono&quot;;-inkscape-font-specification:&quot;Liberation Mono&quot;;text-align:center;text-decoration-color:#000;white-space:pre;shape-inside:url(#e);display:inline;fill:#000;stroke-width:1;-inkscape-stroke:none;stop-color:#000" transform="translate(-100.784 10.47)scale(.26458)"><tspan x="434.694" y="255.115">H3</tspan></text><text xml:space="preserve" style="font-size:14.6667px;line-height:normal;font-family:&quot;Liberation Mono&quot;;-inkscape-font-specification:&quot;Liberation Mono&quot;;text-align:center;text-decoration-color:#000;white-space:pre;shape-inside:url(#f);display:inline;fill:#000;stroke-width:1;-inkscape-stroke:none;stop-color:#000" transform="translate(-68.414 27.771)scale(.26458)"><tspan x="440.775" y="310.816">W1</tspan></text><text xml:space="preserve" style="font-size:14.6667px;line-height:normal;font-family:&quot;Liberation Mono&quot;;-inkscape-font-specification:&quot;Liberation Mono&quot;;text-align:center;text-decoration-color:#000;white-space:pre;shape-inside:url(#g);display:inline;fill:#000;stroke-width:1;-inkscape-stroke:none;stop-color:#000" transform="translate(-68.414 20.024)scale(.26458)"><tspan x="443.702" y="353.611">W2</tspan></text><text xml:space="preserve" style="font-size:14.6667px;line-height:normal;font-family:&quot;Liberation Mono&quot;;-inkscape-font-specification:&quot;Liberation Mono&quot;;text-align:center;text-decoration-color:#000;white-space:pre;shape-inside:url(#h);display:inline;fill:#000;stroke-width:1;-inkscape-stroke:none;stop-color:#000" transform="translate(-82.955 -35.757)scale(.26458)"><tspan x="463.524" y="215.314">RS</tspan></text><path d="M-59.356 182.099h27.499v36.949h-27.499zM-48.584 182.1v36.948" style="fill:none;stroke:red;stroke-width:.264583;stroke-linejoin:round"/><path d="M68.653 130.173h24.315v48.629H68.653z" style="fill:none;stroke:red;stroke-width:.264583;stroke-linejoin:round" transform="rotate(39.059)"/><path d="m-21.318 150.34-30.642 37.761" style="fill:none;stroke:red;stroke-width:.264583;stroke-linejoin:round"/><path d="M40.533 221.718h27.499l.132-32.18 21.891-27.208-18.88-15.32-30.642 37.76z" style="fill:#d5d5ff;stroke:teal;stroke-width:.264583;stroke-linejoin:round"/><path d="m51.306 221.718.158-35.302 27.107-33.405M40.533 184.77l27.631 4.768" style="fill:none;stroke:#00f;stroke-width:.264583;stroke-linejoin:round"/><path d="M68.116 221.724h35.014M68.415 189.8h34.631" style="fill:#fff;stroke:#ccc;stroke-width:.264583;stroke-linejoin:round"/><path d="m90.055 162.33 11.484 9.32M68.164 189.538l11.484 9.319" style="fill:none;stroke:#999;stroke-width:.264583;stroke-linejoin:round"/><path d="m79.648 198.857 21.891-27.208" style="fill:none;stroke:#f0f;stroke-width:.264583;stroke-linejoin:round;marker-start:url(#b);marker-end:url(#b)"/><path d="M103.046 189.794v31.684" style="fill:none;stroke:#f0f;stroke-width:.264583;stroke-linejoin:round;marker-start:url(#b);marker-end:url(#b)"/><path d="M68.603 193.42s2.676-1.133 3.119-2.359c.46-1.275-.927-3.961-.927-3.961" style="fill:none;stroke:#f0f;stroke-width:.264583;stroke-linejoin:round;marker-start:url(#b);marker-end:url(#b)"/><path d="M40.533 221.85v15.761M67.984 221.857v15.76" style="fill:#d5d5ff;stroke:#ccc;stroke-width:.264583;stroke-linejoin:round"/><path d="m40.533 237.611 27.45.006" style="fill:#d5d5ff;stroke:#f0f;stroke-width:.264583;stroke-linejoin:round;marker-start:url(#b);marker-end:url(#b)"/><path d="m71.175 147.01 9.319-11.485M90.075 162.144l9.319-11.484" style="fill:none;stroke:#999;stroke-width:.264583;stroke-linejoin:round"/><path d="m80.494 135.525 18.9 15.135" style="fill:#d5d5ff;stroke:#f0f;stroke-width:.264583;stroke-linejoin:round;marker-start:url(#b);marker-end:url(#b)"/><text xml:space="preserve" style="font-size:14.6667px;line-height:normal;font-family:&quot;Liberation Mono&quot;;-inkscape-font-specification:&quot;Liberation Mono&quot;;text-align:center;text-decoration-color:#000;white-space:pre;shape-inside:url(#i);display:inline;fill:#000;stroke-width:1;-inkscape-stroke:none;stop-color:#000" transform="translate(-26.955 47.126)scale(.26458)"><tspan x="443.702" y="353.611">W2</tspan></text><text xml:space="preserve" style="font-size:14.6667px;line-height:normal;font-family:&quot;Liberation Mono&quot;;-inkscape-font-specification:&quot;Liberation Mono&quot;;text-align:center;text-decoration-color:#000;white-space:pre;shape-inside:url(#j);display:inline;fill:#000;stroke-width:1;-inkscape-stroke:none;stop-color:#000" transform="translate(-65.205 159.21)scale(.26458)"><tspan x="440.775" y="310.816">W1</tspan></text><text xml:space="preserve" style="font-size:14.6667px;line-height:normal;font-family:&quot;Liberation Mono&quot;;-inkscape-font-specification:&quot;Liberation Mono&quot;;text-decoration-color:#000;white-space:pre;shape-inside:url(#k);display:inline;fill:#000;stroke-width:1;-inkscape-stroke:none;stop-color:#000" transform="translate(-30.75 -46.245)scale(.26458)"><tspan x="388.313" y="904.095">A1</tspan></text><text xml:space="preserve" style="font-size:14.6667px;line-height:normal;font-family:&quot;Liberation Mono&quot;;-inkscape-font-specification:&quot;Liberation Mono&quot;;text-decoration-color:#000;white-space:pre;shape-inside:url(#l);display:inline;fill:#000;stroke-width:1;-inkscape-stroke:none;stop-color:#000" transform="translate(-5.721 -33.134)scale(.26458)"><tspan x="415.34" y="912.202">L1</tspan></text><text xml:space="preserve" style="font-size:14.6667px;line-height:normal;font-family:&quot;Liberation Mono&quot;;-inkscape-font-specification:&quot;Liberation Mono&quot;;text-decoration-color:#000;white-space:pre;shape-inside:url(#m);display:inline;fill:#000;stroke-width:1;-inkscape-stroke:none;stop-color:#000" transform="translate(-29.32 -38.379)scale(.26458)"><tspan x="454.982" y="855.443">L2</tspan></text><path d="M10.939 338.183h27.499v36.949H10.939zM21.711 338.183v36.949" style="fill:none;stroke:red;stroke-width:.264583;stroke-linejoin:round"/><path d="M221.588 207.078h24.315v48.629h-24.315z" style="fill:none;stroke:red;stroke-width:.264583;stroke-linejoin:round" transform="rotate(39.059)"/><path d="m48.977 306.424-30.642 37.76" style="fill:none;stroke:red;stroke-width:.264583;stroke-linejoin:round"/><path d="m10.925 338.217 39.637 6.727" style="fill:#fff;stroke:#fc0;stroke-width:.264583;stroke-linejoin:round"/><path d="M38.736 346.124s1.955-.593 2.503-1.37c.51-.724.589-1.754.417-2.623-.103-.524-.834-1.37-.834-1.37" style="fill:none;stroke:#00f;stroke-width:.264583;stroke-linejoin:round;marker-start:url(#b);marker-end:url(#b)"/><path d="M17.402 339.698s.005.97-.239 1.36c-.234.375-1.073.776-1.073.776" style="fill:none;stroke:#00f;stroke-width:.264583;stroke-linejoin:round;marker-start:url(#n);marker-end:url(#n)"/><path d="M26.504 340.539s.308-.662.337-1.018-.169-1.057-.169-1.057" style="fill:none;stroke:#00f;stroke-width:.264583;stroke-linejoin:round;marker-start:url(#n);marker-end:url(#n)"/><text xml:space="preserve" style="font-size:14.6667px;line-height:normal;font-family:&quot;Liberation Mono&quot;;-inkscape-font-specification:&quot;Liberation Mono&quot;;text-decoration-color:#000;white-space:pre;shape-inside:url(#o);display:inline;fill:#000;stroke-width:1;-inkscape-stroke:none;stop-color:#000" transform="translate(-55.416 -7.496)scale(.26458)"><tspan x="368.705" y="1333.062">A1</tspan></text><text xml:space="preserve" style="font-size:14.6667px;line-height:normal;font-family:&quot;Liberation Mono&quot;;-inkscape-font-specification:&quot;Liberation Mono&quot;;text-decoration-color:#000;white-space:pre;shape-inside:url(#p);display:inline;fill:#000;stroke-width:1;-inkscape-stroke:none;stop-color:#000" transform="translate(-77.792 -7.791)scale(.26458)"><tspan x="360.582" y="1325.736">A2</tspan></text><text xml:space="preserve" style="font-size:14.6667px;line-height:normal;font-family:&quot;Liberation Mono&quot;;-inkscape-font-specification:&quot;Liberation Mono&quot;;text-decoration-color:#000;white-space:pre;shape-inside:url(#q);display:inline;fill:#000;stroke-width:1;-inkscape-stroke:none;stop-color:#000" transform="translate(-79.52 -3.999)scale(.26458)"><tspan x="357.557" y="1330.992">W2</tspan></text><text xml:space="preserve" style="font-size:14.6667px;line-height:normal;font-family:&quot;Liberation Mono&quot;;-inkscape-font-specification:&quot;Liberation Mono&quot;;text-decoration-color:#000;white-space:pre;shape-inside:url(#r);display:inline;fill:#000;stroke-width:1;-inkscape-stroke:none;stop-color:#000" transform="translate(-70.333 -11.457)scale(.26458)"><tspan x="374.439" y="1332.425">A3</tspan></text><text xml:space="preserve" style="font-size:14.6667px;line-height:normal;font-family:&quot;Liberation Mono&quot;;-inkscape-font-specification:&quot;Liberation Mono&quot;;text-decoration-color:#000;white-space:pre;shape-inside:url(#s);display:inline;fill:#000;stroke-width:1;-inkscape-stroke:none;stop-color:#000" transform="translate(-72.65 -11.963)scale(.26458)"><tspan x="385.27" y="1321.913">W1</tspan></text><text xml:space="preserve" style="font-size:14.6667px;line-height:normal;font-family:&quot;Liberation Mono&quot;;-inkscape-font-specification:&quot;Liberation Mono&quot;;text-decoration-color:#000;white-space:pre;shape-inside:url(#t);display:inline;fill:#000;stroke-width:1;-inkscape-stroke:none;stop-color:#000" transform="translate(60.76 -32.828)scale(.26458)"><tspan x="419.512" y="1277.636">With W2=BE and W1=BC
</tspan><tspan x="419.512" y="1295.969">W2/cos(A2)=W1/cos(A3)
</tspan><tspan x="419.512" y="1314.303">W2*cos(A3)=W1*cos(A2)</tspan></text><text xml:space="preserve" style="font-size:14.6667px;line-height:normal;font-family:&quot;Liberation Mono&quot;;-inkscape-font-specification:&quot;Liberation Mono&quot;;text-decoration-color:#000;white-space:pre;shape-inside:url(#u);display:inline;fill:#000;stroke-width:1;-inkscape-stroke:none;stop-color:#000" transform="translate(-43.612 -16.714)scale(.26458)"><tspan x="410.273" y="1323.823">A1=(Pi/2-A3)+(Pi/2-A2)
</tspan><tspan x="410.273" y="1342.157">A2+A3=Pi-A1
</tspan></text><path d="M11.356 341.288s1.955-.593 2.503-1.371c.51-.723.588-1.754.417-2.622-.103-.525-.834-1.37-.834-1.37" style="fill:none;stroke:#00f;stroke-width:.264583;stroke-linejoin:round;marker-start:url(#v);marker-end:url(#v)"/><text xml:space="preserve" style="font-size:14.6667px;line-height:normal;font-family:&quot;Liberation Mono&quot;;-inkscape-font-specification:&quot;Liberation Mono&quot;;text-decoration-color:#000;white-space:pre;shape-inside:url(#w);display:inline;fill:#000;stroke-width:1;-inkscape-stroke:none;stop-color:#000" transform="translate(-82.796 -14.979)scale(.26458)"><tspan x="368.705" y="1333.062">A1</tspan></text><text xml:space="preserve" style="font-size:14.6667px;line-height:normal;font-family:&quot;Liberation Mono&quot;;-inkscape-font-specification:&quot;Liberation Mono&quot;;text-decoration-color:#000;white-space:pre;shape-inside:url(#x);display:inline;fill:#000;stroke-width:1;-inkscape-stroke:none;stop-color:#000" transform="translate(95.232 -5.23)scale(.26458)"><tspan x="276.143" y="1350.968">cos(A1)=-cos(A2+A3)
</tspan><tspan x="276.143" y="1369.301">cos(A1)=sin(A2)*sin(A3)-cos(A2)*cos(A3)</tspan></text><path d="m38.494 342.654-8.675 10.85" style="fill:#d4aa00;stroke:green;stroke-width:.52916666;stroke-linejoin:round"/><path d="m38.494 342.654-.056-4.47" style="fill:#d4aa00;stroke:green;stroke-width:.529167;stroke-linejoin:round"/><text xml:space="preserve" style="font-size:14.6667px;line-height:normal;font-family:&quot;Liberation Mono&quot;;-inkscape-font-specification:&quot;Liberation Mono&quot;;text-decoration-color:#000;white-space:pre;shape-inside:url(#y);display:inline;fill:#000;stroke-width:1;-inkscape-stroke:none;stop-color:#000" transform="translate(-11.86 -41.774)scale(.26458)"><tspan x="76.582" y="1440.388">B</tspan></text><text xml:space="preserve" style="font-size:14.6667px;line-height:normal;font-family:&quot;Liberation Mono&quot;;-inkscape-font-specification:&quot;Liberation Mono&quot;;text-decoration-color:#000;white-space:pre;shape-inside:url(#z);display:inline;fill:#000;stroke-width:1;-inkscape-stroke:none;stop-color:#000" transform="translate(8.932 -44.338)scale(.26458)"><tspan x="111.922" y="1441.964">C</tspan></text><text xml:space="preserve" style="font-size:14.6667px;line-height:normal;font-family:&quot;Liberation Mono&quot;;-inkscape-font-specification:&quot;Liberation Mono&quot;;text-decoration-color:#000;white-space:pre;shape-inside:url(#A);display:inline;fill:#000;stroke-width:1;-inkscape-stroke:none;stop-color:#000" transform="translate(-.231 -36.622)scale(.26458)"><tspan x="148.207" y="1442.191">D</tspan></text><text xml:space="preserve" style="font-size:14.6667px;line-height:normal;font-family:&quot;Liberation Mono&quot;;-inkscape-font-specification:&quot;Liberation Mono&quot;;text-decoration-color:#000;white-space:pre;shape-inside:url(#B);display:inline;fill:#000;stroke-width:1;-inkscape-stroke:none;stop-color:#000" transform="translate(-19.603 -24.612)scale(.26458)"><tspan x="181.543" y="1443.777">E</tspan></text><path d="m29.82 353.504 8.618-15.32" style="fill:#d4aa00;stroke:olive;stroke-width:.26458333;stroke-linejoin:round"/><text xml:space="preserve" style="font-size:14.6667px;line-height:normal;font-family:&quot;Liberation Mono&quot;;-inkscape-font-specification:&quot;Liberation Mono&quot;;text-decoration-color:#000;white-space:pre;shape-inside:url(#C);display:inline;fill:#000;stroke-width:1;-inkscape-stroke:none;stop-color:#000" transform="translate(108.939 -4.536)scale(.26458)"><tspan x="244.26" y="1257.269">With V1=DC and V2=DE
</tspan><tspan x="244.26" y="1275.602">V1/sin(A3)=V2/sin(A2)
</tspan><tspan x="244.26" y="1293.936">V1*sin(A2)=V2*sin(A3)</tspan></text><text xml:space="preserve" style="font-size:14.6667px;line-height:normal;font-family:&quot;Liberation Mono&quot;;-inkscape-font-specification:&quot;Liberation Mono&quot;;text-decoration-color:#000;white-space:pre;shape-inside:url(#D);display:inline;fill:#000;stroke-width:1;-inkscape-stroke:none;stop-color:#000" transform="translate(167.58 -13.217)scale(.26458)"><tspan x="30.633" y="1478.904">Law of cosinus in BCE:
</tspan><tspan x="30.633" y="1497.237">CE=W1**2+W2**2-2*W1*W2*cos(EBC)
</tspan><tspan x="30.633" y="1515.57">with EBC=A2+A3=Pi-A1</tspan></text><text xml:space="preserve" style="font-size:14.6667px;line-height:normal;font-family:&quot;Liberation Mono&quot;;-inkscape-font-specification:&quot;Liberation Mono&quot;;text-decoration-color:#000;white-space:pre;shape-inside:url(#E);display:inline;fill:#000;stroke-width:1;-inkscape-stroke:none;stop-color:#000" transform="scale(.26458)"><tspan x="245.441" y="1328.624">1) Law of cosines in EBC
</tspan><tspan x="245.441" y="1346.958">in: aEBC=A2+A3, W1 and W2
</tspan><tspan x="245.441" y="1365.291">out: CE
</tspan><tspan x="245.441" y="1383.624">
</tspan><tspan x="245.441" y="1401.958">2.a) Law of cosines in CEB
</tspan><tspan x="245.441" y="1420.291">in: W1, W2 and CE
</tspan><tspan x="245.441" y="1438.625">out: aCEB
</tspan><tspan x="245.441" y="1456.958">
</tspan><tspan x="245.441" y="1475.291">2.b) Law of cosines in BCE
</tspan><tspan x="245.441" y="1493.625">in: W1, W2 and CE
</tspan><tspan x="245.441" y="1511.958">out: aBCE
</tspan><tspan x="245.441" y="1530.291">
</tspan><tspan x="245.441" y="1548.625">3) compute aECD and aDEC
</tspan><tspan x="245.441" y="1566.958">aECD=Pi/2-aBCE
</tspan><tspan x="245.441" y="1585.292">aDEC=Pi/2-aCEB
</tspan><tspan x="245.441" y="1603.625">check if aECD&lt;0 or aDEC&lt;0
</tspan><tspan x="245.441" y="1621.958">
</tspan><tspan x="245.441" y="1640.292">4) Law of sines in CED
</tspan><tspan x="245.441" y="1658.625">CE/sin(A1)=CD/sin(aDEC)=ED/sin(aECD)
</tspan></text><path d="M163.142 537.401v28.824h34.385v-37.757l-18.437-17.41Z" style="fill:#d7f4e3;stroke:#000;stroke-width:.264583;stroke-linejoin:round"/><path d="M79.375 510.288h13.99M60.665 492.746h45.511" style="fill:#fff;stroke:#ccc;stroke-width:.264583;stroke-linejoin:round"/><path d="M79.507 548.045h26.67" style="fill:#fff;stroke:#ccc;stroke-width:.264582;stroke-linejoin:round"/><path d="M30.866 519.222H44.99M30.866 548.045h13.99M44.99 562.168v-13.99M79.375 561.903v-13.99M44.857 519.354v-40.466M60.938 492.878v-13.99" style="fill:#fff;stroke:#ccc;stroke-width:.264583;stroke-linejoin:round"/><path d="M106.176 492.746v55.3" style="fill:#fff;stroke:#f0f;stroke-width:.264583;stroke-linejoin:round;marker-start:url(#F);marker-end:url(#F)"/><path d="m44.99 562.168 34.385-.265" style="fill:#fff;stroke:#f0f;stroke-width:.264583;stroke-linejoin:round;marker-start:url(#F);marker-end:url(#F)"/><path d="M30.866 519.222v28.823" style="fill:#fff;stroke:#f0f;stroke-width:.264583;stroke-linejoin:round;marker-start:url(#F);marker-end:url(#F)"/><path d="M44.857 478.888h16.08" style="fill:#fff;stroke:#f0f;stroke-width:.264583;stroke-linejoin:round;marker-start:url(#F);marker-end:url(#F)"/><path d="M93.365 510.288v37.757" style="fill:#fff;stroke:#f0f;stroke-width:.264583;stroke-linejoin:round;marker-start:url(#F);marker-end:url(#F)"/><text xml:space="preserve" style="font-size:14.6667px;line-height:normal;font-family:&quot;Liberation Mono&quot;;-inkscape-font-specification:&quot;Liberation Mono&quot;;text-align:center;text-decoration-color:#000;white-space:pre;shape-inside:url(#G);display:inline;fill:#000;stroke-width:1;-inkscape-stroke:none;stop-color:#000" transform="translate(-7.008 454.175)scale(.26458)"><tspan x="434.694" y="255.115">H1</tspan></text><text xml:space="preserve" style="font-size:14.6667px;line-height:normal;font-family:&quot;Liberation Mono&quot;;-inkscape-font-specification:&quot;Liberation Mono&quot;;text-align:center;text-decoration-color:#000;white-space:pre;shape-inside:url(#H);display:inline;fill:#000;stroke-width:1;-inkscape-stroke:none;stop-color:#000" transform="translate(-20.71 462.953)scale(.26458)"><tspan x="434.694" y="255.115">H2</tspan></text><text xml:space="preserve" style="font-size:14.6667px;line-height:normal;font-family:&quot;Liberation Mono&quot;;-inkscape-font-specification:&quot;Liberation Mono&quot;;text-align:center;text-decoration-color:#000;white-space:pre;shape-inside:url(#I);display:inline;fill:#000;stroke-width:1;-inkscape-stroke:none;stop-color:#000" transform="translate(-89.675 466.82)scale(.26458)"><tspan x="434.694" y="255.115">H3</tspan></text><text xml:space="preserve" style="font-size:14.6667px;line-height:normal;font-family:&quot;Liberation Mono&quot;;-inkscape-font-specification:&quot;Liberation Mono&quot;;text-align:center;text-decoration-color:#000;white-space:pre;shape-inside:url(#J);display:inline;fill:#000;stroke-width:1;-inkscape-stroke:none;stop-color:#000" transform="translate(-57.306 484.12)scale(.26458)"><tspan x="440.775" y="310.816">W1</tspan></text><text xml:space="preserve" style="font-size:14.6667px;line-height:normal;font-family:&quot;Liberation Mono&quot;;-inkscape-font-specification:&quot;Liberation Mono&quot;;text-align:center;text-decoration-color:#000;white-space:pre;shape-inside:url(#K);display:inline;fill:#000;stroke-width:1;-inkscape-stroke:none;stop-color:#000" transform="translate(-57.306 476.373)scale(.26458)"><tspan x="443.702" y="353.611">W2</tspan></text><text xml:space="preserve" style="font-size:14.6667px;line-height:normal;font-family:&quot;Liberation Mono&quot;;-inkscape-font-specification:&quot;Liberation Mono&quot;;text-align:center;text-decoration-color:#000;white-space:pre;shape-inside:url(#L);display:inline;fill:#000;stroke-width:1;-inkscape-stroke:none;stop-color:#000" transform="translate(-71.847 420.593)scale(.26458)"><tspan x="459.123" y="215.314">RS%</tspan></text><path d="M168.793 500.626h4.214M168.528 525.399h5.984M166.656 512.247h5.984M166.637 509.297l11.478-4.107" style="fill:#d4aa00;stroke:olive;stroke-width:.264583;stroke-linejoin:round"/><path d="M166.656 512.247q-1.61-1.39-.02-2.95" style="fill:none;stroke:olive;stroke-width:.264583;stroke-linejoin:round"/><path d="m174.532 522.45-11.478-4.108" style="fill:#d4aa00;stroke:olive;stroke-width:.264583;stroke-linejoin:round"/><path d="M174.512 525.399q1.61-1.39.02-2.95" style="fill:none;stroke:olive;stroke-width:.264583;stroke-linejoin:round"/><path d="M44.99 548.045h34.385v-37.757h5.984q1.601-1.18.02-2.95L73.9 503.231l-10.856-10.353H58.83l-8.368 19.287-11.478 4.107q-1.588 1.657.02 2.95h5.984z" style="fill:#fff6d5;stroke:olive;stroke-width:.264583;stroke-linejoin:round"/><path d="M58.83 492.878v-5.056M63.045 492.878v-5.056" style="fill:#fff;stroke:#ccc;stroke-width:.264583;stroke-linejoin:round"/><path d="M59.083 487.822h3.598" style="fill:#fff;stroke:#f0f;stroke-width:.264583;stroke-linejoin:round;marker-start:url(#M);marker-end:url(#M)"/><path d="M85.379 507.338h5.056" style="fill:#fff;stroke:#ccc;stroke-width:.264583;stroke-linejoin:round"/><path d="M90.435 507.338v2.95" style="fill:#fff;stroke:#f0f;stroke-width:.264583;stroke-linejoin:round;marker-start:url(#N);marker-end:url(#N)"/><path d="M85.359 515.345v-5.057" style="fill:#fff;stroke:#ccc;stroke-width:.264583;stroke-linejoin:round"/><path d="M79.76 515.345h5.467" style="fill:#fff;stroke:#f0f;stroke-width:.264582;stroke-linejoin:round;marker-start:url(#O);marker-end:url(#O)"/><path d="M73.9 503.231v-5.056" style="fill:#fff;stroke:#ccc;stroke-width:.264583;stroke-linejoin:round"/><path d="M85.51 507.206v-9.031" style="fill:#fff;stroke:#ccc;stroke-width:.264582;stroke-linejoin:round"/><path d="M74.136 498.175h10.998" style="fill:#fff;stroke:#f0f;stroke-width:.264583;stroke-linejoin:round;marker-start:url(#P);marker-end:url(#P)"/><path d="M73.768 503.099h7.796" style="fill:#fff;stroke:#ccc;stroke-width:.264584;stroke-linejoin:round"/><path d="M80.522 503.352c.722.905-.022 1.607-.882 1.933" style="fill:#fff;stroke:#f0f;stroke-width:.264583;stroke-linejoin:round;marker-start:url(#Q);marker-end:url(#Q)"/><path d="M38.985 516.272v-5.057M38.196 517.9v-6.685" style="fill:#fff;stroke:#ccc;stroke-width:.264583;stroke-linejoin:round"/><path d="M35.482 511.384h2.419" style="fill:#fff;stroke:#f0f;stroke-width:.264583;stroke-linejoin:round;stroke-dasharray:none;marker-end:url(#R)"/><path d="M41.7 511.384h-2.42" style="fill:#fff;stroke:#f0f;stroke-width:.264583;stroke-linejoin:round;stroke-dasharray:none;marker-end:url(#S)"/><text xml:space="preserve" style="font-size:14.6667px;line-height:normal;font-family:&quot;Liberation Mono&quot;;-inkscape-font-specification:&quot;Liberation Mono&quot;;text-decoration-color:#000;white-space:pre;shape-inside:url(#T);display:inline;fill:#000;stroke-width:1;-inkscape-stroke:none;stop-color:#000" transform="translate(46.775 -10.872)scale(.26458)"><tspan x="45.869" y="1879.351">WF</tspan></text><text xml:space="preserve" style="font-size:14.6667px;line-height:normal;font-family:&quot;Liberation Mono&quot;;-inkscape-font-specification:&quot;Liberation Mono&quot;;text-decoration-color:#000;white-space:pre;shape-inside:url(#U);display:inline;fill:#000;stroke-width:1;-inkscape-stroke:none;stop-color:#000" transform="translate(68.35 -1.938)scale(.26458)"><tspan x="28.986" y="1888.587">WBH%</tspan></text><text xml:space="preserve" style="font-size:14.6667px;line-height:normal;font-family:&quot;Liberation Mono&quot;;-inkscape-font-specification:&quot;Liberation Mono&quot;;text-decoration-color:#000;white-space:pre;shape-inside:url(#V);display:inline;fill:#000;stroke-width:1;-inkscape-stroke:none;stop-color:#000" transform="translate(75.177 16.266)scale(.26458)"><tspan x="20.705" y="1900.693">WBL%</tspan></text><text xml:space="preserve" style="font-size:14.6667px;line-height:normal;font-family:&quot;Liberation Mono&quot;;-inkscape-font-specification:&quot;Liberation Mono&quot;;text-decoration-color:#000;white-space:pre;shape-inside:url(#W);display:inline;fill:#000;stroke-width:1;-inkscape-stroke:none;stop-color:#000" transform="translate(84.195 15.255)scale(.26458)"><tspan x="26.758" y="1868.521">WBE</tspan></text><text xml:space="preserve" style="font-size:14.6667px;line-height:normal;font-family:&quot;Liberation Mono&quot;;-inkscape-font-specification:&quot;Liberation Mono&quot;;text-decoration-color:#000;white-space:pre;shape-inside:url(#X);display:inline;fill:#000;stroke-width:1;-inkscape-stroke:none;stop-color:#000" transform="translate(71.3 8.09)scale(.26458)"><tspan x="36.949" y="1880.943">AB</tspan></text><text xml:space="preserve" style="font-size:14.6667px;line-height:normal;font-family:&quot;Liberation Mono&quot;;-inkscape-font-specification:&quot;Liberation Mono&quot;;text-decoration-color:#000;white-space:pre;shape-inside:url(#Y);display:inline;fill:#000;stroke-width:1;-inkscape-stroke:none;stop-color:#000" transform="translate(20.901 5.31)scale(.26458)"><tspan x="50.328" y="1907.382">WBR</tspan></text><path d="M48.328 606.879h16.013v22.081H48.328z" style="fill:#faa;stroke:olive;stroke-width:.264583;stroke-linejoin:round;stroke-dasharray:none"/><path d="M40.386 667.723h34.386v-37.757h5.984q1.6-1.18.02-2.95l-11.479-4.107-10.855-10.353h-4.214l-8.368 19.286-11.478 4.107q-1.589 1.659.02 2.95h5.984z" style="fill:#fff6d5;stroke:olive;stroke-width:.264583;stroke-linejoin:round"/><path d="M48.328 606.879v-13.99M64.341 606.879v-13.99M78.464 606.879h-13.99" style="fill:#fff;stroke:#ccc;stroke-width:.264583;stroke-linejoin:round"/><path d="M78.464 612.556H58.442" style="fill:#fff;stroke:#ccc;stroke-width:.264582;stroke-linejoin:round"/><path d="M48.7 592.889H63.97" style="fill:#fff;stroke:#f0f;stroke-width:.264583;stroke-linejoin:round;marker-start:url(#Z);marker-end:url(#Z)"/><path d="M78.464 607.071v5.188" style="fill:#fff;stroke:#f0f;stroke-width:.264584;stroke-linejoin:round;marker-start:url(#aa);marker-end:url(#aa)"/><path d="m42.32 606.957-2.568-5.73" style="fill:#fff;stroke:#f0f;stroke-width:.264583;stroke-linejoin:round;stroke-dasharray:none;marker-end:url(#ab)"/><text xml:space="preserve" style="font-size:14.6667px;line-height:normal;font-family:&quot;Liberation Mono&quot;;-inkscape-font-specification:&quot;Liberation Mono&quot;;text-decoration-color:#000;white-space:pre;shape-inside:url(#ac);display:inline;fill:#000;stroke-width:1;-inkscape-stroke:none;stop-color:#000" transform="translate(-28.318 -15.224)scale(.26458)"><tspan x="409" y="2367.029">ChiH</tspan></text><text xml:space="preserve" style="font-size:14.6667px;line-height:normal;font-family:&quot;Liberation Mono&quot;;-inkscape-font-specification:&quot;Liberation Mono&quot;;text-decoration-color:#000;white-space:pre;shape-inside:url(#ad);display:inline;fill:#000;stroke-width:1;-inkscape-stroke:none;stop-color:#000" transform="translate(-53.718 -13.316)scale(.26458)"><tspan x="397.943" y="2280.327">ChiW</tspan></text><text xml:space="preserve" style="font-size:14.6667px;line-height:normal;font-family:&quot;Liberation Mono&quot;;-inkscape-font-specification:&quot;Liberation Mono&quot;;text-decoration-color:#000;white-space:pre;shape-inside:url(#ae);display:inline;fill:#000;stroke-width:1;-inkscape-stroke:none;stop-color:#000" transform="translate(-78.395 -41.215)scale(.26458)"><tspan x="409.809" y="2449.847">ChiT</tspan></text><text xml:space="preserve" style="font-size:14.6667px;line-height:normal;font-family:&quot;Liberation Mono&quot;;-inkscape-font-specification:&quot;Liberation Mono&quot;;text-decoration-color:#000;white-space:pre;shape-inside:url(#af);display:inline;fill:#000;stroke-width:1;-inkscape-stroke:none;stop-color:#000" transform="translate(1.131 -9.661)scale(.26458)"><tspan x="400.08" y="2308.417">ChiNb</tspan></text><path d="M110.812 633.999h4.214v4.383h-4.214z" style="fill:none;stroke:#f0f;stroke-width:.264583;stroke-linejoin:round"/><text xml:space="preserve" style="font-size:14.6667px;line-height:normal;font-family:&quot;Liberation Mono&quot;;-inkscape-font-specification:&quot;Liberation Mono&quot;;text-decoration-color:#000;white-space:pre;shape-inside:url(#ag);fill:#000;stroke-width:1;-inkscape-stroke:none;stop-color:#000" transform="translate(-7.628 15.06)scale(.26458)"><tspan x="450.928" y="2351.029">1</tspan></text><text xml:space="preserve" style="font-size:14.6667px;line-height:normal;font-family:&quot;Liberation Mono&quot;;-inkscape-font-specification:&quot;Liberation Mono&quot;;text-decoration-color:#000;white-space:pre;shape-inside:url(#ah);fill:#000;stroke-width:1;-inkscape-stroke:none;stop-color:#000" transform="translate(.096 -8.32)scale(.26458)"><tspan x="463.316" y="2332.785">2</tspan></text><text xml:space="preserve" style="font-size:14.6667px;line-height:normal;font-family:&quot;Liberation Mono&quot;;-inkscape-font-specification:&quot;Liberation Mono&quot;;text-decoration-color:#000;white-space:pre;shape-inside:url(#ai);fill:#000;stroke-width:1;-inkscape-stroke:none;stop-color:#000" transform="translate(-11.919 8.582)scale(.26458)"><tspan x="470.299" y="2311.837">3</tspan></text><text xml:space="preserve" style="font-size:14.6667px;line-height:normal;font-family:&quot;Liberation Mono&quot;;-inkscape-font-specification:&quot;Liberation Mono&quot;;text-decoration-color:#000;white-space:pre;shape-inside:url(#aj);fill:#000;stroke-width:1;-inkscape-stroke:none;stop-color:#000" transform="translate(-15.375 22.646)scale(.26458)"><tspan x="479.758" y="2291.79">4</tspan></text><text xml:space="preserve" style="font-size:14.6667px;line-height:normal;font-family:&quot;Liberation Mono&quot;;-inkscape-font-specification:&quot;Liberation Mono&quot;;text-decoration-color:#000;white-space:pre;shape-inside:url(#ak);fill:#000;stroke-width:1;-inkscape-stroke:none;stop-color:#000" transform="translate(-13.506 12.91)scale(.26458)"><tspan x="494.398" y="2271.97">5</tspan></text><path d="M110.812 625.707h4.214v4.383h-4.214z" style="fill:none;stroke:#f0f;stroke-width:.264583;stroke-linejoin:round"/><path d="M402.533 479.832h4.214v4.383h-4.214z" style="fill:none;stroke:#f0f;stroke-width:.264583;stroke-linejoin:round" transform="rotate(29.616)"/><path d="M518.413 334.908h4.214v4.383h-4.214zM518.279 342.581h4.214v4.383h-4.214z" style="fill:none;stroke:#f0f;stroke-width:.264583;stroke-linejoin:round" transform="rotate(45.552)"/><path d="M127.181 638.382h-12.155M127.181 641.585h-6.077" style="fill:#fff;stroke:#ccc;stroke-width:.264583;stroke-linejoin:round"/><path d="M127.181 633.194v5.188" style="fill:#fff;stroke:#f0f;stroke-width:.264583;stroke-linejoin:round;stroke-dasharray:none;marker-end:url(#al)"/><path d="M127.181 646.773v-5.188" style="fill:#fff;stroke:#f0f;stroke-width:.264583;stroke-linejoin:round;stroke-dasharray:none;marker-end:url(#am)"/><text xml:space="preserve" style="font-size:14.6667px;line-height:normal;font-family:&quot;Liberation Mono&quot;;-inkscape-font-specification:&quot;Liberation Mono&quot;;text-decoration-color:#000;white-space:pre;shape-inside:url(#an);fill:#000;stroke-width:1;-inkscape-stroke:none;stop-color:#000" transform="translate(-10.448 7.772)scale(.26458)"><tspan x="522.717" y="2394.992">ChiOffset</tspan></text><path d="m138.147 618.842-11.254-11.223M140.633 616.004l-6.764-6.745" style="fill:#fff;stroke:#ccc;stroke-width:.264583;stroke-linejoin:round"/><path d="m144.078 612.122-3.312 3.993" style="fill:#fff;stroke:#f0f;stroke-width:.264583;stroke-linejoin:round;stroke-dasharray:none;marker-end:url(#ao)"/><path d="m134.735 622.91 3.312-3.993" style="fill:#fff;stroke:#f0f;stroke-width:.264583;stroke-linejoin:round;stroke-dasharray:none;marker-end:url(#ap)"/></svg>