<svg xmlns="http://www.w3.org/2000/svg" width="600" height="3000" viewBox="0 0 158.75 793.75"><defs><path id="C" d="M403.516 492.043h28.367v23.394h-28.367z"/><path id="w" d="M381.532 480.365h41.794v38.442h-41.794z"/><path id="u" d="M217.882 543.601h45.707v30.712h-45.707z"/><path id="o" d="M30.573 186.882h48.82v42.965h-48.82z"/><path id="a" d="M9.68 22.355h200.734v50.82H9.68z"/><path id="p" d="M30.573 186.882h48.82v42.965h-48.82z"/><path id="q" d="M30.573 186.882h48.82v42.965h-48.82z"/><path id="r" d="M30.573 186.882h48.82v42.965h-48.82z"/><path id="s" d="M30.573 186.882h48.82v42.965h-48.82z"/><path id="t" d="M30.573 186.882h48.82v42.965h-48.82z"/><path id="v" d="M217.882 543.601h45.707v30.712h-45.707z"/><path id="b" d="M217.882 543.601h45.707v30.712h-45.707z"/><path id="x" d="M381.532 480.365h41.794v38.442h-41.794z"/><path id="y" d="M381.532 480.365h41.794v38.442h-41.794z"/><path id="z" d="M381.532 480.365h41.794v38.442h-41.794z"/><path id="A" d="M381.532 480.365h41.794v38.442h-41.794z"/><path id="B" d="M381.532 480.365h41.794v38.442h-41.794z"/><marker id="c" markerHeight="1" markerWidth="1" orient="auto-start-reverse" preserveAspectRatio="xMidYMid" refX="0" refY="0" style="overflow:visible" viewBox="0 0 1 1"><path d="M3-3 0 0l3 3" style="fill:none;stroke:context-stroke;stroke-width:1;stroke-linecap:butt" transform="rotate(180 .125 0)"/></marker><marker id="d" markerHeight="1" markerWidth="1" orient="auto-start-reverse" preserveAspectRatio="xMidYMid" refX="0" refY="0" style="overflow:visible" viewBox="0 0 1 1"><path d="M3-3 0 0l3 3" style="fill:none;stroke:context-stroke;stroke-width:1;stroke-linecap:butt" transform="rotate(180 .125 0)"/></marker><marker id="e" markerHeight="1" markerWidth="1" orient="auto-start-reverse" preserveAspectRatio="xMidYMid" refX="0" refY="0" style="overflow:visible" viewBox="0 0 1 1"><path d="M3-3 0 0l3 3" style="fill:none;stroke:context-stroke;stroke-width:1;stroke-linecap:butt" transform="rotate(180 .125 0)"/></marker><marker id="f" markerHeight="1" markerWidth="1" orient="auto-start-reverse" preserveAspectRatio="xMidYMid" refX="0" refY="0" style="overflow:visible" viewBox="0 0 1 1"><path d="M3-3 0 0l3 3" style="fill:none;stroke:context-stroke;stroke-width:1;stroke-linecap:butt" transform="rotate(180 .125 0)"/></marker><marker id="g" markerHeight="1" markerWidth="1" orient="auto-start-reverse" preserveAspectRatio="xMidYMid" refX="0" refY="0" style="overflow:visible" viewBox="0 0 1 1"><path d="M3-3 0 0l3 3" style="fill:none;stroke:context-stroke;stroke-width:1;stroke-linecap:butt" transform="rotate(180 .125 0)"/></marker><marker id="h" markerHeight="1" markerWidth="1" orient="auto-start-reverse" preserveAspectRatio="xMidYMid" refX="0" refY="0" style="overflow:visible" viewBox="0 0 1 1"><path d="M3-3 0 0l3 3" style="fill:none;stroke:context-stroke;stroke-width:1;stroke-linecap:butt" transform="rotate(180 .125 0)"/></marker><marker id="i" markerHeight="1" markerWidth="1" orient="auto-start-reverse" preserveAspectRatio="xMidYMid" refX="0" refY="0" style="overflow:visible" viewBox="0 0 1 1"><path d="M3-3 0 0l3 3" style="fill:none;stroke:context-stroke;stroke-width:1;stroke-linecap:butt" transform="rotate(180 .125 0)"/></marker><marker id="j" markerHeight="1" markerWidth="1" orient="auto-start-reverse" preserveAspectRatio="xMidYMid" refX="0" refY="0" style="overflow:visible" viewBox="0 0 1 1"><path d="M3-3 0 0l3 3" style="fill:none;stroke:context-stroke;stroke-width:1;stroke-linecap:butt" transform="rotate(180 .125 0)"/></marker><marker id="k" markerHeight="1" markerWidth="1" orient="auto-start-reverse" preserveAspectRatio="xMidYMid" refX="0" refY="0" style="overflow:visible" viewBox="0 0 1 1"><path d="M3-3 0 0l3 3" style="fill:none;stroke:context-stroke;stroke-width:1;stroke-linecap:butt" transform="rotate(180 .125 0)"/></marker><marker id="l" markerHeight="1" markerWidth="1" orient="auto-start-reverse" preserveAspectRatio="xMidYMid" refX="0" refY="0" style="overflow:visible" viewBox="0 0 1 1"><path d="M3-3 0 0l3 3" style="fill:none;stroke:context-stroke;stroke-width:1;stroke-linecap:butt" transform="rotate(180 .125 0)"/></marker><marker id="m" markerHeight="1" markerWidth="1" orient="auto-start-reverse" preserveAspectRatio="xMidYMid" refX="0" refY="0" style="overflow:visible" viewBox="0 0 1 1"><path d="M3-3 0 0l3 3" style="fill:none;stroke:context-stroke;stroke-width:1;stroke-linecap:butt" transform="rotate(180 .125 0)"/></marker><marker id="n" markerHeight="1" markerWidth="1" orient="auto-start-reverse" preserveAspectRatio="xMidYMid" refX="0" refY="0" style="overflow:visible" viewBox="0 0 1 1"><path d="M3-3 0 0l3 3" style="fill:none;stroke:context-stroke;stroke-width:1;stroke-linecap:butt" transform="rotate(180 .125 0)"/></marker></defs><path d="M19.43 53.475h92.696v85.47H19.43z" style="fill:#fff;stroke:#fff;stroke-width:.264583"/><text xml:space="preserve" x="-51.584" style="font-size:14.6667px;line-height:normal;font-family:&quot;Liberation Mono&quot;;-inkscape-font-specification:&quot;Liberation Mono&quot;;text-align:start;text-decoration-color:#000;white-space:pre;shape-inside:url(#a);display:inline;fill:#000;stroke-width:1;-inkscape-stroke:none;stop-color:#000" transform="translate(7.1 .031)scale(.26458)"><tspan x="9.68" y="35.406">src_rail.svg</tspan></text><path d="M58.06 123.319h27.064l-.014-5.184-20.856-9.14v-28.86l13.292-3.562V65.009c-3.93-4.448-10.007-7.103-18.72-7.553" style="fill:#fff;stroke:#000;stroke-width:.264583"/><path d="M59.592 123.319H32.527l.014-5.184 20.856-9.14v-28.86l-13.292-3.562V65.009c3.931-4.448 10.007-7.103 18.72-7.553" style="fill:#fff;stroke:#000;stroke-width:.264583"/><text xml:space="preserve" style="font-size:14.6667px;line-height:normal;font-family:&quot;Liberation Mono&quot;;-inkscape-font-specification:&quot;Liberation Mono&quot;;text-align:center;text-decoration-color:#000;white-space:pre;shape-inside:url(#b);display:inline;fill:#00f;stroke-width:1;-inkscape-stroke:none;stop-color:#000" transform="translate(-4.462 -77.51)scale(.26458)"><tspan x="231.935" y="556.652">W3</tspan></text><path d="M32.527 123.319v10.225M85.125 123.451v10.225" style="fill:#fff;stroke:#ccc;stroke-width:.264583"/><path d="m32.527 133.544 52.598.132" style="fill:#fff;stroke:#00f;stroke-width:.264583;marker-start:url(#c);marker-end:url(#c)"/><path d="M85.257 123.319h10.225M85.11 118.135h10.226" style="fill:#fff;stroke:#ccc;stroke-width:.264583"/><path d="m95.336 118.531.146 4.384" style="fill:#fff;stroke:#00f;stroke-width:.264583;marker-start:url(#c);marker-end:url(#c)"/><path d="m53.573 94.564 10.505.133" style="fill:#fff;stroke:#00f;stroke-width:.264583;marker-start:url(#d);marker-end:url(#d)"/><path d="m40.17 70.79 37.313.133" style="fill:#fff;stroke:#00f;stroke-width:.264583;marker-start:url(#e);marker-end:url(#e)"/><path d="M64.254 108.994h31.008M64.254 80.135h31.008" style="fill:#fff;stroke:#ccc;stroke-width:.264583"/><path d="m95.19 109.227.146 8.51" style="fill:#fff;stroke:#00f;stroke-width:.264583;marker-start:url(#f);marker-end:url(#f)"/><path d="m95.269 80.524.146 28.091" style="fill:#fff;stroke:#00f;stroke-width:.264584;marker-start:url(#g);marker-end:url(#g)"/><path d="M77.736 76.616h17.526M77.546 65.009h17.527" style="fill:#fff;stroke:#ccc;stroke-width:.264583"/><path d="M58.826 57.456h36.247" style="fill:#fff;stroke:#ccc;stroke-width:.264582"/><path d="M95.073 57.593v7.018" style="fill:#fff;stroke:#00f;stroke-width:.264583;marker-start:url(#c);marker-end:url(#c)"/><path d="M95.073 65.4V76.36" style="fill:#fff;stroke:#00f;stroke-width:.264583;marker-start:url(#h);marker-end:url(#h)"/><path d="M95.262 77.034v2.717" style="fill:#fff;stroke:#00f;stroke-width:.264583;marker-start:url(#i);marker-end:url(#i)"/><path d="m33.288 62.305 5.46 2.603" style="fill:#fff;stroke:teal;stroke-width:.264583;marker-end:url(#c)"/><path d="m34.053 79.744 5.46-2.603" style="fill:#fff;stroke:teal;stroke-width:.264583;marker-end:url(#j)"/><path d="m46.819 83.955 5.46-2.603" style="fill:#fff;stroke:teal;stroke-width:.264583;marker-end:url(#k)"/><path d="m46.697 105.714 5.46 2.603" style="fill:#fff;stroke:teal;stroke-width:.264583;marker-end:url(#l)"/><path d="m25.94 115.226 5.46 2.603" style="fill:#fff;stroke:teal;stroke-width:.264583;marker-end:url(#m)"/><path d="m25.947 125.754 5.46-2.603" style="fill:#fff;stroke:teal;stroke-width:.264583;marker-end:url(#n)"/><text xml:space="preserve" style="font-size:14.6667px;line-height:normal;font-family:&quot;Liberation Mono&quot;;-inkscape-font-specification:&quot;Liberation Mono&quot;;text-align:center;text-decoration-color:#000;white-space:pre;shape-inside:url(#o);display:inline;fill:teal;stroke-width:1;-inkscape-stroke:none;stop-color:#000" transform="translate(16.278 10.37)scale(.26458)"><tspan x="46.182" y="199.931">R1</tspan></text><text xml:space="preserve" style="font-size:14.6667px;line-height:normal;font-family:&quot;Liberation Mono&quot;;-inkscape-font-specification:&quot;Liberation Mono&quot;;text-align:center;text-decoration-color:#000;white-space:pre;shape-inside:url(#p);display:inline;fill:teal;stroke-width:1;-inkscape-stroke:none;stop-color:#000" transform="translate(17.115 27.692)scale(.26458)"><tspan x="46.182" y="199.931">R1</tspan></text><text xml:space="preserve" style="font-size:14.6667px;line-height:normal;font-family:&quot;Liberation Mono&quot;;-inkscape-font-specification:&quot;Liberation Mono&quot;;text-align:center;text-decoration-color:#000;white-space:pre;shape-inside:url(#q);display:inline;fill:teal;stroke-width:1;-inkscape-stroke:none;stop-color:#000" transform="translate(30.118 33.142)scale(.26458)"><tspan x="46.182" y="199.931">R1</tspan></text><text xml:space="preserve" style="font-size:14.6667px;line-height:normal;font-family:&quot;Liberation Mono&quot;;-inkscape-font-specification:&quot;Liberation Mono&quot;;text-align:center;text-decoration-color:#000;white-space:pre;shape-inside:url(#r);display:inline;fill:teal;stroke-width:1;-inkscape-stroke:none;stop-color:#000" transform="translate(29.297 53.92)scale(.26458)"><tspan x="46.182" y="199.931">R1</tspan></text><text xml:space="preserve" style="font-size:14.6667px;line-height:normal;font-family:&quot;Liberation Mono&quot;;-inkscape-font-specification:&quot;Liberation Mono&quot;;text-align:center;text-decoration-color:#000;white-space:pre;shape-inside:url(#s);display:inline;fill:teal;stroke-width:1;-inkscape-stroke:none;stop-color:#000" transform="translate(9.062 63.65)scale(.26458)"><tspan x="46.182" y="199.931">R1</tspan></text><text xml:space="preserve" style="font-size:14.6667px;line-height:normal;font-family:&quot;Liberation Mono&quot;;-inkscape-font-specification:&quot;Liberation Mono&quot;;text-align:center;text-decoration-color:#000;white-space:pre;shape-inside:url(#t);display:inline;fill:teal;stroke-width:1;-inkscape-stroke:none;stop-color:#000" transform="translate(9.003 74.345)scale(.26458)"><tspan x="46.182" y="199.931">R1</tspan></text><text xml:space="preserve" style="font-size:14.6667px;line-height:normal;font-family:&quot;Liberation Mono&quot;;-inkscape-font-specification:&quot;Liberation Mono&quot;;text-align:center;text-decoration-color:#000;white-space:pre;shape-inside:url(#u);display:inline;fill:#00f;stroke-width:1;-inkscape-stroke:none;stop-color:#000" transform="translate(-5.138 -14.566)scale(.26458)"><tspan x="231.935" y="556.652">W1</tspan></text><text xml:space="preserve" style="font-size:14.6667px;line-height:normal;font-family:&quot;Liberation Mono&quot;;-inkscape-font-specification:&quot;Liberation Mono&quot;;text-align:center;text-decoration-color:#000;white-space:pre;shape-inside:url(#v);display:inline;fill:#00f;stroke-width:1;-inkscape-stroke:none;stop-color:#000" transform="translate(-5.092 -53.642)scale(.26458)"><tspan x="231.935" y="556.652">W2</tspan></text><text xml:space="preserve" style="font-size:14.6667px;line-height:normal;font-family:&quot;Liberation Mono&quot;;-inkscape-font-specification:&quot;Liberation Mono&quot;;text-align:center;text-decoration-color:#000;white-space:pre;shape-inside:url(#w);display:inline;fill:#00f;stroke-width:1;-inkscape-stroke:none;stop-color:#000" transform="translate(-7.892 -8.44)scale(.26458)"><tspan x="393.628" y="493.415">H1</tspan></text><text xml:space="preserve" style="font-size:14.6667px;line-height:normal;font-family:&quot;Liberation Mono&quot;;-inkscape-font-specification:&quot;Liberation Mono&quot;;text-align:center;text-decoration-color:#000;white-space:pre;shape-inside:url(#x);display:inline;fill:#00f;stroke-width:1;-inkscape-stroke:none;stop-color:#000" transform="translate(-8.235 -15.653)scale(.26458)"><tspan x="393.628" y="493.415">H2</tspan></text><text xml:space="preserve" style="font-size:14.6667px;line-height:normal;font-family:&quot;Liberation Mono&quot;;-inkscape-font-specification:&quot;Liberation Mono&quot;;text-align:center;text-decoration-color:#000;white-space:pre;shape-inside:url(#y);display:inline;fill:#00f;stroke-width:1;-inkscape-stroke:none;stop-color:#000" transform="translate(-7.818 -34.439)scale(.26458)"><tspan x="393.628" y="493.415">H3</tspan></text><text xml:space="preserve" style="font-size:14.6667px;line-height:normal;font-family:&quot;Liberation Mono&quot;;-inkscape-font-specification:&quot;Liberation Mono&quot;;text-align:center;text-decoration-color:#000;white-space:pre;shape-inside:url(#z);display:inline;fill:#00f;stroke-width:1;-inkscape-stroke:none;stop-color:#000" transform="translate(-7.646 -50.582)scale(.26458)"><tspan x="393.628" y="493.415">H4</tspan></text><text xml:space="preserve" style="font-size:14.6667px;line-height:normal;font-family:&quot;Liberation Mono&quot;;-inkscape-font-specification:&quot;Liberation Mono&quot;;text-align:center;text-decoration-color:#000;white-space:pre;shape-inside:url(#A);display:inline;fill:#00f;stroke-width:1;-inkscape-stroke:none;stop-color:#000" transform="translate(-8.775 -58.298)scale(.26458)"><tspan x="393.628" y="493.415">H5</tspan></text><text xml:space="preserve" style="font-size:14.6667px;line-height:normal;font-family:&quot;Liberation Mono&quot;;-inkscape-font-specification:&quot;Liberation Mono&quot;;text-align:center;text-decoration-color:#000;white-space:pre;shape-inside:url(#B);display:inline;fill:#00f;stroke-width:1;-inkscape-stroke:none;stop-color:#000" transform="translate(-7.646 -68.039)scale(.26458)"><tspan x="393.628" y="493.415">H6</tspan></text><path d="m101.046 133.663 6.792-8.63" style="fill:#00f;stroke:#d45500;stroke-width:.264583;marker-end:url(#c)"/><text xml:space="preserve" style="font-size:14.6667px;line-height:normal;font-family:&quot;Liberation Mono&quot;;-inkscape-font-specification:&quot;Liberation Mono&quot;;text-align:center;text-decoration-color:#000;white-space:pre;shape-inside:url(#C);display:inline;fill:#d45500;stroke-width:1;-inkscape-stroke:none;stop-color:#000" transform="translate(-2.581 -1.427)scale(.26458)"><tspan x="408.898" y="505.093">L1</tspan></text></svg>