<svg xmlns="http://www.w3.org/2000/svg" width="600" height="3000" viewBox="0 0 158.75 793.75"><defs><path id="i" d="M411.849 270.85H436.4v20.159h-24.551z"/><path id="g" d="M406.458 244.193h56.374v38.761h-56.374z"/><path id="f" d="M389.251 195.822h45.869v31.613h-45.869z"/><path id="e" d="M116.903 287.001h80.271v28.987h-80.271z"/><path id="d" d="M293.711 141.45h75.23v31.533h-75.23z"/><path id="b" d="M45.869 286.045h124.866v75.811H45.869z"/><path id="a" d="M26.757 25.483h231.894v80.271H26.757z"/><path id="j" d="M349.115 99.383h55.425v47.143h-55.425z"/><path id="o" d="M349.115 99.383h55.425v47.143h-55.425z"/><path id="p" d="M187.936 533.866h73.9v44.595h-73.9z"/><path id="q" d="M435.757 303.246h78.36v64.344h-78.36z"/><path id="r" d="M421.933 172.994h86.45v28.958h-86.45z"/><path id="t" d="M187.936 533.866h73.9v44.595h-73.9z"/><path id="u" d="M49.054 523.036h145.252v74.537H49.054z"/><marker id="c" markerHeight="1" markerWidth="1" orient="auto-start-reverse" preserveAspectRatio="xMidYMid" refX="0" refY="0" style="overflow:visible" viewBox="0 0 1 1"><path d="M3-3 0 0l3 3" style="fill:none;stroke:context-stroke;stroke-width:1;stroke-linecap:butt" transform="rotate(180 .125 0)"/></marker><marker id="h" markerHeight="1" markerWidth="1" orient="auto-start-reverse" preserveAspectRatio="xMidYMid" refX="0" refY="0" style="overflow:visible" viewBox="0 0 1 1"><path d="M3-3 0 0l3 3" style="fill:none;stroke:context-stroke;stroke-width:1;stroke-linecap:butt" transform="rotate(180 .125 0)"/></marker><marker id="k" markerHeight="1" markerWidth="1" orient="auto-start-reverse" preserveAspectRatio="xMidYMid" refX="0" refY="0" style="overflow:visible" viewBox="0 0 1 1"><path d="M3-3 0 0l3 3" style="fill:none;stroke:context-stroke;stroke-width:1;stroke-linecap:butt" transform="rotate(180 .125 0)"/></marker><marker id="l" markerHeight="1" markerWidth="1" orient="auto-start-reverse" preserveAspectRatio="xMidYMid" refX="0" refY="0" style="overflow:visible" viewBox="0 0 1 1"><path d="M3-3 0 0l3 3" style="fill:none;stroke:context-stroke;stroke-width:1;stroke-linecap:butt" transform="rotate(180 .125 0)"/></marker><marker id="m" markerHeight="1" markerWidth="1" orient="auto-start-reverse" preserveAspectRatio="xMidYMid" refX="0" refY="0" style="overflow:visible" viewBox="0 0 1 1"><path d="M3-3 0 0l3 3" style="fill:none;stroke:context-stroke;stroke-width:1;stroke-linecap:butt" transform="rotate(180 .125 0)"/></marker><marker id="n" markerHeight="1" markerWidth="1" orient="auto-start-reverse" preserveAspectRatio="xMidYMid" refX="0" refY="0" style="overflow:visible" viewBox="0 0 1 1"><path d="M3-3 0 0l3 3" style="fill:none;stroke:context-stroke;stroke-width:1;stroke-linecap:butt" transform="rotate(180 .125 0)"/></marker><marker id="s" markerHeight="1" markerWidth="1" orient="auto-start-reverse" preserveAspectRatio="xMidYMid" refX="0" refY="0" style="overflow:visible" viewBox="0 0 1 1"><path d="M3-3 0 0l3 3" style="fill:none;stroke:context-stroke;stroke-width:1;stroke-linecap:butt" transform="rotate(180 .125 0)"/></marker><marker id="v" markerHeight="1" markerWidth="1" orient="auto-start-reverse" preserveAspectRatio="xMidYMid" refX="0" refY="0" style="overflow:visible" viewBox="0 0 1 1"><path d="M3-3 0 0l3 3" style="fill:none;stroke:context-stroke;stroke-width:1;stroke-linecap:butt" transform="rotate(180 .125 0)"/></marker></defs><path d="M28.318 39.106h95.404v54.95H28.318z" style="fill:#fff;stroke:#fff;stroke-width:.264583;stroke-linejoin:round"/><text xml:space="preserve" style="font-size:16px;line-height:normal;font-family:&quot;Liberation Mono&quot;;-inkscape-font-specification:&quot;Liberation Mono&quot;;text-decoration-color:#000;white-space:pre;shape-inside:url(#a);display:inline;fill:#000;stroke-width:1;-inkscape-stroke:none;stop-color:#000" transform="scale(.26458)"><tspan x="26.758" y="39.719">src_armChain.svg</tspan></text><path d="M-30.846 45.679h8.259v11.462h-8.259z" style="fill:#fff;stroke:#000;stroke-width:.264583;stroke-linejoin:round"/><circle cx="-16.687" cy="51.41" r="3.793" style="fill:#fff;stroke:#000;stroke-width:.264583;stroke-linejoin:round"/><path d="M48.545 58.49h8.26l5.899-1.939s2.411-.779 3.17-1.71c.457-.561.711-1.363.622-2.082-.115-.935-.774-1.766-1.443-2.429-.644-.637-2.35-1.364-2.35-1.364l-5.899-1.938h-8.26z" style="fill:#ffd5d5;stroke:#000;stroke-width:.264583;stroke-linejoin:round"/><circle cx="-36.746" cy="51.41" r="3.793" style="fill:#fff;stroke:#000;stroke-width:.264583;stroke-linejoin:round"/><path d="m66.897 60.185 7.871 2.501 7.683.104s1.7-.51 2.341-1.082c.453-.402.77-.97.949-1.549.19-.613.232-1.296.097-1.924-.139-.65-.907-1.777-.907-1.777l-6.692-4.695-7.872-2.502-6.21.061s-2.398-.056-3.366.539c-.676.415-1.17 1.167-1.396 1.927-.252.85-.246 1.856.135 2.657.449.946 2.331 2.106 2.331 2.106z" style="fill:#f6ffd5;stroke:#000;stroke-width:.264583;stroke-linejoin:round"/><path d="M-46.699 79.592h8.26l5.899-1.938s2.411-.78 3.17-1.71c.457-.562.711-1.364.623-2.083-.116-.935-.775-1.766-1.444-2.429-.643-.637-2.35-1.363-2.35-1.363l-5.899-1.939h-8.259z" style="fill:#fff;stroke:#000;stroke-width:.264583;stroke-linejoin:round"/><path d="M-25.63 79.592h8.26l7.354-2.228s1.465-1 1.904-1.74c.309-.52.439-1.158.434-1.763a3.9 3.9 0 0 0-.489-1.863c-.33-.578-1.403-1.419-1.403-1.419l-7.8-2.449h-8.26l-5.899 1.939s-2.303.672-3.046 1.532c-.518.601-.762 1.467-.746 2.26.017.887.327 1.843.932 2.491.715.766 2.86 1.302 2.86 1.302z" style="fill:#fff;stroke:#000;stroke-width:.264583;stroke-linejoin:round"/><path d="m82.84 67.888 5.902 5.779 6.812 3.553s1.747.31 2.578.089c.585-.156 1.124-.52 1.544-.956a3.9 3.9 0 0 0 .954-1.674c.169-.643-.01-1.995-.01-1.995l-3.86-7.207-5.9-5.778-5.572-2.743s-2.116-1.131-3.248-1.036c-.79.067-1.571.515-2.115 1.092-.608.646-1.055 1.546-1.076 2.432-.025 1.047 1.132 2.931 1.132 2.931z" style="fill:#f6ffd5;stroke:#000;stroke-width:.264583;stroke-linejoin:round"/><path d="m107.41 85.28-2.791-7.774-3.819-4.897s-1.548-2.006-2.68-2.405c-.683-.24-1.506-.172-2.17.117-.802.35-1.494 1.041-1.888 1.822-.459.91-.4 3.03-.4 3.03l.169 6.207 2.791 7.773z" style="fill:#ffd5d5;stroke:#000;stroke-width:.264583;stroke-linejoin:round"/><circle cx="62.494" cy="52.93" r="2.023" style="fill:#fff;stroke:#000;stroke-width:.264583;stroke-linejoin:round"/><circle cx="82.038" cy="59.084" r="2.023" style="fill:#fff;stroke:#000;stroke-width:.264583;stroke-linejoin:round"/><circle cx="97.05" cy="73.305" r="2.023" style="fill:#fff;stroke:#000;stroke-width:.264583;stroke-linejoin:round"/><text xml:space="preserve" style="font-size:16px;line-height:normal;font-family:&quot;Liberation Mono&quot;;-inkscape-font-specification:&quot;Liberation Mono&quot;;text-decoration-color:#000;white-space:pre;shape-inside:url(#b);display:inline;fill:#00f;stroke-width:1;-inkscape-stroke:none;stop-color:#000" transform="translate(18.879 -6.91)scale(.26458)"><tspan x="45.869" y="300.281">jointNb</tspan></text><path d="M61.861 55.119 49.725 69.783" style="fill:#f6ffd5;stroke:#00f;stroke-width:.264583;stroke-linejoin:round;marker-start:url(#c)"/><path d="M80.026 60.215 50.568 70.626" style="fill:#00f;stroke:#00f;stroke-width:.264583;stroke-linejoin:round;marker-start:url(#c)"/><path d="M42.898 52.8h29.44M59.38 51.937l27.992 9.117" style="fill:#999;stroke:#999;stroke-width:.264583;stroke-linejoin:round"/><text xml:space="preserve" style="font-size:16px;line-height:normal;font-family:&quot;Liberation Mono&quot;;-inkscape-font-specification:&quot;Liberation Mono&quot;;text-decoration-color:#000;white-space:pre;shape-inside:url(#d);display:inline;fill:#00f;stroke-width:1;-inkscape-stroke:none;stop-color:#000" transform="translate(-1.06 6.827)scale(.26458)"><tspan x="293.711" y="155.686">jointA</tspan></text><path d="M70.143 52.86s.17.756.119 1.133c-.051.38-.417 1.072-.417 1.072" style="fill:none;stroke:#00f;stroke-width:.52916667;stroke-linejoin:round"/><path d="m81.654 49.708-10.446 3.935" style="fill:none;stroke:#00f;stroke-width:.264583;stroke-linejoin:round;marker-end:url(#c)"/><text xml:space="preserve" style="font-size:16px;line-height:normal;font-family:&quot;Liberation Mono&quot;;-inkscape-font-specification:&quot;Liberation Mono&quot;;text-decoration-color:#000;white-space:pre;shape-inside:url(#e);display:inline;fill:#00f;stroke-width:1;-inkscape-stroke:none;stop-color:#000" transform="translate(.59 -1.77)scale(.26458)"><tspan x="116.902" y="301.236">twist?</tspan></text><path d="m91.918 58.64 5.901 5.779" style="fill:#00f;stroke:#00f;stroke-width:.264583;stroke-linejoin:round;marker-start:url(#c);marker-end:url(#c)"/><text xml:space="preserve" style="font-size:16px;line-height:normal;font-family:&quot;Liberation Mono&quot;;-inkscape-font-specification:&quot;Liberation Mono&quot;;text-decoration-color:#000;white-space:pre;shape-inside:url(#f);display:inline;fill:#00f;stroke-width:1;-inkscape-stroke:none;stop-color:#000" transform="translate(-8.054 5.324)scale(.26458)"><tspan x="389.25" y="210.059">L1</tspan></text><text xml:space="preserve" style="font-size:16px;line-height:normal;font-family:&quot;Liberation Mono&quot;;-inkscape-font-specification:&quot;Liberation Mono&quot;;text-decoration-color:#000;white-space:pre;shape-inside:url(#g);display:inline;fill:#00f;stroke-width:1;-inkscape-stroke:none;stop-color:#000" transform="scale(.26458)"><tspan x="406.459" y="258.43">Dinit</tspan></text><path d="m99.073 72.776 8.47-4.4" style="fill:#00f;stroke:#00f;stroke-width:.264583;stroke-linejoin:round;marker-start:url(#c)"/><path d="m95.74 70.321-1.313-2.83" style="fill:#00f;stroke:#00f;stroke-width:.264583;stroke-linejoin:round;marker-start:url(#c)"/><path d="m96.172 71.436.925 1.919" style="fill:#00f;stroke:#00f;stroke-width:.264583;stroke-linejoin:round;marker-start:url(#h)"/><text xml:space="preserve" style="font-size:16px;line-height:normal;font-family:&quot;Liberation Mono&quot;;-inkscape-font-specification:&quot;Liberation Mono&quot;;text-decoration-color:#000;white-space:pre;shape-inside:url(#i);display:inline;fill:#00f;stroke-width:1;-inkscape-stroke:none;stop-color:#000" transform="translate(-19.398 -6.377)scale(.26458)"><tspan x="411.85" y="285.086">S1</tspan></text><path d="M21.446 117.688H134.46v92.773H21.446z" style="fill:#fff;stroke:#fff;stroke-width:.264583;stroke-linejoin:round"/><text xml:space="preserve" style="font-size:16px;line-height:normal;font-family:&quot;Liberation Mono&quot;;-inkscape-font-specification:&quot;Liberation Mono&quot;;text-decoration-color:#000;white-space:pre;shape-inside:url(#j);display:inline;fill:#00f;stroke-width:1;-inkscape-stroke:none;stop-color:#000" transform="translate(21.733 140.975)scale(.26458)"><tspan x="349.115" y="113.619">W2B</tspan></text><path d="M111.519 144.05v52.916" style="fill:none;stroke:#00f;stroke-width:.264583;stroke-linejoin:round;marker-start:url(#k);marker-end:url(#k)"/><path d="M84.178 197.08h27.34" style="fill:none;stroke:#999;stroke-width:.264583;stroke-linejoin:round"/><rect width="52.917" height="52.917" x="44.932" y="144.05" ry="13.822" style="fill:#ffe6d5;stroke:purple;stroke-width:.264583;stroke-linejoin:round"/><rect width="40.443" height="40.443" x="51.168" y="150.286" ry="10.564" style="fill:#fff;stroke:purple;stroke-width:.264583;stroke-linejoin:round"/><path d="M44.932 156.901v-27.34M97.848 156.783v-27.34" style="fill:none;stroke:#999;stroke-width:.264583;stroke-linejoin:round"/><path d="M44.932 129.61h52.916" style="fill:none;stroke:#00f;stroke-width:.264583;stroke-linejoin:round;marker-start:url(#l);marker-end:url(#l)"/><path d="M61.25 204.39v-7.292M81.584 204.443v-7.292" style="fill:none;stroke:#999;stroke-width:.264583;stroke-linejoin:round"/><path d="M61.63 203.25h19.732" style="fill:none;stroke:#666;stroke-width:.264583;stroke-linejoin:round;marker-start:url(#m);marker-end:url(#m)"/><path d="M92.066 170.508h5.376" style="fill:none;stroke:#00f;stroke-width:.264583;stroke-linejoin:round;marker-start:url(#n);marker-end:url(#n)"/><text xml:space="preserve" style="font-size:16px;line-height:normal;font-family:&quot;Liberation Mono&quot;;-inkscape-font-specification:&quot;Liberation Mono&quot;;text-decoration-color:#000;white-space:pre;shape-inside:url(#o);display:inline;fill:#00f;stroke-width:1;-inkscape-stroke:none;stop-color:#000" transform="translate(-21.649 98.202)scale(.26458)"><tspan x="349.115" y="113.619">W2A</tspan></text><text xml:space="preserve" style="font-style:normal;font-variant:normal;font-weight:400;font-stretch:normal;font-size:16px;line-height:normal;font-family:&quot;Liberation Mono&quot;;-inkscape-font-specification:&quot;Liberation Mono&quot;;font-variant-ligatures:normal;font-variant-position:normal;font-variant-caps:normal;font-variant-numeric:normal;font-variant-alternates:normal;font-variant-east-asian:normal;font-feature-settings:normal;font-variation-settings:normal;text-indent:0;text-align:start;text-decoration-line:none;text-decoration-style:solid;text-decoration-color:#000;letter-spacing:normal;word-spacing:normal;text-transform:none;writing-mode:lr-tb;direction:ltr;text-orientation:mixed;dominant-baseline:auto;baseline-shift:baseline;white-space:pre;shape-inside:url(#p);shape-padding:0;shape-margin:0;inline-size:0;display:inline;vector-effect:none;fill:#666;fill-opacity:1;stroke-width:1;stroke-linecap:butt;stroke-linejoin:miter;stroke-miterlimit:4;stroke-dasharray:none;stroke-dashoffset:0;stroke-opacity:1;-inkscape-stroke:none;stop-color:#000" transform="translate(18.42 62.213)scale(.26458)"><tspan x="187.936" y="548.102">W1A</tspan></text><text xml:space="preserve" style="font-style:normal;font-variant:normal;font-weight:400;font-stretch:normal;font-size:16px;line-height:normal;font-family:&quot;Liberation Mono&quot;;-inkscape-font-specification:&quot;Liberation Mono&quot;;font-variant-ligatures:normal;font-variant-position:normal;font-variant-caps:normal;font-variant-numeric:normal;font-variant-alternates:normal;font-variant-east-asian:normal;font-feature-settings:normal;font-variation-settings:normal;text-indent:0;text-align:start;text-decoration-line:none;text-decoration-style:solid;text-decoration-color:#000;letter-spacing:normal;word-spacing:normal;text-transform:none;writing-mode:lr-tb;direction:ltr;text-orientation:mixed;dominant-baseline:auto;baseline-shift:baseline;white-space:pre;shape-inside:url(#q);shape-padding:0;shape-margin:0;inline-size:0;display:inline;vector-effect:none;fill:#00f;fill-opacity:1;stroke-width:1;stroke-linecap:butt;stroke-linejoin:miter;stroke-miterlimit:4;stroke-dasharray:none;stroke-dashoffset:0;stroke-opacity:1;-inkscape-stroke:none;stop-color:#000" transform="translate(-15.75 87.582)scale(.26458)"><tspan x="435.756" y="317.483">T1</tspan></text><path d="M84.178 144.05h27.34" style="fill:none;stroke:#999;stroke-width:.264583;stroke-linejoin:round"/><text xml:space="preserve" style="font-size:16px;line-height:normal;font-family:&quot;Liberation Mono&quot;;-inkscape-font-specification:&quot;Liberation Mono&quot;;text-decoration-color:#000;white-space:pre;shape-inside:url(#r);display:inline;fill:teal;stroke-width:1;-inkscape-stroke:none;stop-color:#000" transform="translate(7.003 73.76)scale(.26458)"><tspan x="421.934" y="187.231">eqWAB</tspan></text><path d="m78.138 125.508 39.432-2.865" style="fill:#00f;stroke:teal;stroke-width:.264583;stroke-linejoin:round;stroke-dasharray:none;marker-start:url(#l)"/><path d="m116.569 165.962 3.034-40.622" style="fill:teal;stroke:teal;stroke-width:.264583;stroke-linejoin:round;stroke-dasharray:none;marker-start:url(#l)"/><path d="M36.432 160.209h8.367M36.371 180.543h8.368" style="fill:none;stroke:#999;stroke-width:.264583;stroke-linejoin:round"/><path d="M37.06 160.588v19.732" style="fill:#666;stroke:#666;stroke-width:.264583;stroke-linejoin:round;marker-start:url(#s);marker-end:url(#s)"/><text xml:space="preserve" style="font-style:normal;font-variant:normal;font-weight:400;font-stretch:normal;font-size:16px;line-height:normal;font-family:&quot;Liberation Mono&quot;;-inkscape-font-specification:&quot;Liberation Mono&quot;;font-variant-ligatures:normal;font-variant-position:normal;font-variant-caps:normal;font-variant-numeric:normal;font-variant-alternates:normal;font-variant-east-asian:normal;font-feature-settings:normal;font-variation-settings:normal;text-indent:0;text-align:start;text-decoration-line:none;text-decoration-style:solid;text-decoration-color:#000;letter-spacing:normal;word-spacing:normal;text-transform:none;writing-mode:lr-tb;direction:ltr;text-orientation:mixed;dominant-baseline:auto;baseline-shift:baseline;white-space:pre;shape-inside:url(#t);shape-padding:0;shape-margin:0;inline-size:0;display:inline;vector-effect:none;fill:#666;fill-opacity:1;stroke-width:1;stroke-linecap:butt;stroke-linejoin:miter;stroke-miterlimit:4;stroke-dasharray:none;stroke-dashoffset:0;stroke-opacity:1;-inkscape-stroke:none;stop-color:#000" transform="translate(-21.54 27.77)scale(.26458)"><tspan x="187.936" y="548.102">W1B</tspan></text><text xml:space="preserve" style="font-size:16px;line-height:normal;font-family:&quot;Liberation Mono&quot;;-inkscape-font-specification:&quot;Liberation Mono&quot;;text-decoration-color:#000;white-space:pre;shape-inside:url(#u);display:inline;fill:#00f;stroke-width:1;-inkscape-stroke:none;stop-color:#000" transform="translate(9.703 54.376)scale(.26458)"><tspan x="49.055" y="537.272">Jradius
</tspan><tspan x="49.055" y="557.272">Jneutral
</tspan><tspan x="49.055" y="577.272">Jmark</tspan></text><path d="m47.406 193.733-5.118 3.893" style="fill:#00f;stroke:#00f;stroke-width:.264583;stroke-linejoin:round;marker-start:url(#v)"/></svg>