<svg xmlns="http://www.w3.org/2000/svg" width="600" height="3000" viewBox="0 0 158.75 793.75"><defs><path id="P" d="M321.641 1726.93h154.964v45.249H321.641z"/><path id="O" d="M138.979 1791.098h133.076v72.977H138.979z"/><path id="N" d="M329.366 547.881h33.128v28.668h-33.128z"/><path id="M" d="M337.011 488.529h40.773v32.914h-40.773z"/><path id="K" d="M383.517 531.317h62.433v43.958h-62.433z"/><path id="J" d="M366.316 458.054h58.611v40.773h-58.611z"/><path id="I" d="M421.104 421.104h52.24v44.595h-52.24z"/><path id="H" d="M380.969 402.629h60.522v52.24h-60.522z"/><path id="G" d="M429.386 467.518h59.885v43.413h-59.885z"/><path id="F" d="M414.638 382.88h70.173v49.692h-70.173z"/><path id="E" d="M414.638 361.219h45.964v42.684h-45.964z"/><path id="D" d="M391.162 288.632h63.707v73.225h-63.707z"/><path id="g" d="M171.056 528.769h63.386v32.809h-63.386z"/><path id="a" d="M14.016 16.564h256.103v73.9H14.016z"/><path id="h" d="M171.056 528.769h63.386v32.809h-63.386z"/><path id="k" d="M187.936 533.866h73.9v44.595h-73.9z"/><path id="l" d="M450.027 984.154h36.489v38.43h-36.489z"/><path id="n" d="M336.844 630.218h41.53v28.349h-41.53z"/><path id="p" d="M187.936 533.866h73.9v44.595h-73.9z"/><path id="q" d="M349.115 99.383h55.425v47.143h-55.425z"/><path id="v" d="M349.115 99.383h55.425v47.143h-55.425z"/><path id="w" d="M187.936 533.866h73.9v44.595h-73.9z"/><path id="x" d="M435.757 303.246h78.36v64.344h-78.36z"/><path id="y" d="M421.933 172.994h86.45v28.958h-86.45z"/><path id="A" d="M187.936 533.866h73.9v44.595h-73.9z"/><path id="B" d="M49.054 523.036h145.252v74.537H49.054z"/><marker id="b" markerHeight="1" markerWidth="1" orient="auto-start-reverse" preserveAspectRatio="xMidYMid" refX="0" refY="0" style="overflow:visible" viewBox="0 0 1 1"><path d="M3-3 0 0l3 3" style="fill:none;stroke:context-stroke;stroke-width:1;stroke-linecap:butt" transform="rotate(180 .125 0)"/></marker><marker id="c" markerHeight="1" markerWidth="1" orient="auto-start-reverse" preserveAspectRatio="xMidYMid" refX="0" refY="0" style="overflow:visible" viewBox="0 0 1 1"><path d="M3-3 0 0l3 3" style="fill:none;stroke:context-stroke;stroke-width:1;stroke-linecap:butt" transform="rotate(180 .125 0)"/></marker><marker id="d" markerHeight="1" markerWidth="1" orient="auto-start-reverse" preserveAspectRatio="xMidYMid" refX="0" refY="0" style="overflow:visible" viewBox="0 0 1 1"><path d="M3-3 0 0l3 3" style="fill:none;stroke:context-stroke;stroke-width:1;stroke-linecap:butt" transform="rotate(180 .125 0)"/></marker><marker id="e" markerHeight="1" markerWidth="1" orient="auto-start-reverse" preserveAspectRatio="xMidYMid" refX="0" refY="0" style="overflow:visible" viewBox="0 0 1 1"><path d="M3-3 0 0l3 3" style="fill:none;stroke:context-stroke;stroke-width:1;stroke-linecap:butt" transform="rotate(180 .125 0)"/></marker><marker id="f" markerHeight="1" markerWidth="1" orient="auto-start-reverse" preserveAspectRatio="xMidYMid" refX="0" refY="0" style="overflow:visible" viewBox="0 0 1 1"><path d="M3-3 0 0l3 3" style="fill:none;stroke:context-stroke;stroke-width:1;stroke-linecap:butt" transform="rotate(180 .125 0)"/></marker><marker id="i" markerHeight="1" markerWidth="1" orient="auto-start-reverse" preserveAspectRatio="xMidYMid" refX="0" refY="0" style="overflow:visible" viewBox="0 0 1 1"><path d="M3-3 0 0l3 3" style="fill:none;stroke:context-stroke;stroke-width:1;stroke-linecap:butt" transform="rotate(180 .125 0)"/></marker><marker id="j" markerHeight="1" markerWidth="1" orient="auto-start-reverse" preserveAspectRatio="xMidYMid" refX="0" refY="0" style="overflow:visible" viewBox="0 0 1 1"><path d="M3-3 0 0l3 3" style="fill:none;stroke:context-stroke;stroke-width:1;stroke-linecap:butt" transform="rotate(180 .125 0)"/></marker><marker id="m" markerHeight="1" markerWidth="1" orient="auto-start-reverse" preserveAspectRatio="xMidYMid" refX="0" refY="0" style="overflow:visible" viewBox="0 0 1 1"><path d="M3-3 0 0l3 3" style="fill:none;stroke:context-stroke;stroke-width:1;stroke-linecap:butt" transform="rotate(180 .125 0)"/></marker><marker id="o" markerHeight="1" markerWidth="1" orient="auto-start-reverse" preserveAspectRatio="xMidYMid" refX="0" refY="0" style="overflow:visible" viewBox="0 0 1 1"><path d="M3-3 0 0l3 3" style="fill:none;stroke:context-stroke;stroke-width:1;stroke-linecap:butt" transform="rotate(180 .125 0)"/></marker><marker id="r" markerHeight="1" markerWidth="1" orient="auto-start-reverse" preserveAspectRatio="xMidYMid" refX="0" refY="0" style="overflow:visible" viewBox="0 0 1 1"><path d="M3-3 0 0l3 3" style="fill:none;stroke:context-stroke;stroke-width:1;stroke-linecap:butt" transform="rotate(180 .125 0)"/></marker><marker id="s" markerHeight="1" markerWidth="1" orient="auto-start-reverse" preserveAspectRatio="xMidYMid" refX="0" refY="0" style="overflow:visible" viewBox="0 0 1 1"><path d="M3-3 0 0l3 3" style="fill:none;stroke:context-stroke;stroke-width:1;stroke-linecap:butt" transform="rotate(180 .125 0)"/></marker><marker id="t" markerHeight="1" markerWidth="1" orient="auto-start-reverse" preserveAspectRatio="xMidYMid" refX="0" refY="0" style="overflow:visible" viewBox="0 0 1 1"><path d="M3-3 0 0l3 3" style="fill:none;stroke:context-stroke;stroke-width:1;stroke-linecap:butt" transform="rotate(180 .125 0)"/></marker><marker id="u" markerHeight="1" markerWidth="1" orient="auto-start-reverse" preserveAspectRatio="xMidYMid" refX="0" refY="0" style="overflow:visible" viewBox="0 0 1 1"><path d="M3-3 0 0l3 3" style="fill:none;stroke:context-stroke;stroke-width:1;stroke-linecap:butt" transform="rotate(180 .125 0)"/></marker><marker id="z" markerHeight="1" markerWidth="1" orient="auto-start-reverse" preserveAspectRatio="xMidYMid" refX="0" refY="0" style="overflow:visible" viewBox="0 0 1 1"><path d="M3-3 0 0l3 3" style="fill:none;stroke:context-stroke;stroke-width:1;stroke-linecap:butt" transform="rotate(180 .125 0)"/></marker><marker id="C" markerHeight="1" markerWidth="1" orient="auto-start-reverse" preserveAspectRatio="xMidYMid" refX="0" refY="0" style="overflow:visible" viewBox="0 0 1 1"><path d="M3-3 0 0l3 3" style="fill:none;stroke:context-stroke;stroke-width:1;stroke-linecap:butt" transform="rotate(180 .125 0)"/></marker><marker id="L" markerHeight="1" markerWidth="1" orient="auto-start-reverse" preserveAspectRatio="xMidYMid" refX="0" refY="0" style="overflow:visible" viewBox="0 0 1 1"><path d="M3-3 0 0l3 3" style="fill:none;stroke:context-stroke;stroke-width:1;stroke-linecap:butt" transform="rotate(180 .125 0)"/></marker></defs><path d="M14.303 26.222h77.711v111.322H14.303z" style="fill:#fff;stroke:#fff;stroke-width:.264583;stroke-linejoin:round"/><path d="M32.181 404.527h92.252v62.455H32.181z" style="fill:#fff;stroke:#fff;stroke-width:.264582;stroke-linejoin:round"/><path d="m89.733 426.72 15.695-4.582-.334 12.68-4.429 11.723-1.14 1.984-1.72.995-1.837-.238-2.93-2.145-3.64-7.736z" style="fill:#fca;stroke:#fca;stroke-width:.264583;stroke-linejoin:round"/><ellipse cx="97.413" cy="445.364" rx="2.246" ry="2.189" style="fill:#fff;stroke:#fca;stroke-width:.264583;stroke-linejoin:round"/><path d="m38.353 429.57 15.696-4.582-.335 12.68-15.695 4.583z" style="fill:#fca;stroke:#fca;stroke-width:.26458333;stroke-linejoin:round"/><path d="m32.363 70.457 6.405-25.502s.483-3.518 1.338-5.027c.827-1.458 2.065-2.747 3.506-3.604 1.568-.934 3.445-1.512 5.27-1.482 2.037.033 4.106.756 5.827 1.847 1.181.749 2.172 1.854 2.853 3.076.874 1.568 1.433 5.19 1.433 5.19l6.406 25.502v17.53l-6.406 19.793s-.387 2.852-.904 4.18a6.4 6.4 0 0 1-1.05 1.796c-1.008 1.202-2.188 2.336-3.586 3.045a10.2 10.2 0 0 1-4.573 1.093c-1.576-.001-3.205-.365-4.596-1.105-1.592-.847-3.038-2.123-3.986-3.657-.975-1.579-1.532-5.352-1.532-5.352l-6.405-19.792Z" style="fill:#fca;stroke:#000;stroke-width:.264583;stroke-linejoin:round"/><text xml:space="preserve" style="font-size:16px;line-height:normal;font-family:&quot;Liberation Mono&quot;;-inkscape-font-specification:&quot;Liberation Mono&quot;;text-decoration-color:#000;white-space:pre;shape-inside:url(#a);display:inline;fill:#000;stroke-width:1;-inkscape-stroke:none;stop-color:#000" transform="scale(.26458)"><tspan x="14.016" y="30.801">src_armBone.svg</tspan></text><path d="M-40.133 70.457h33.037v17.53h-33.037z" style="fill:none;stroke:#000;stroke-width:.264583;stroke-linejoin:round"/><circle cx="48.882" cy="79.222" r="8.004" style="fill:#fff;stroke:#000;stroke-width:.264583;stroke-linejoin:round"/><circle cx="-23.614" cy="44.955" r="10.114" style="fill:#fff;stroke:#000;stroke-width:.264583;stroke-linejoin:round"/><circle cx="48.882" cy="44.955" r="6.742" style="fill:#fff;stroke:#000;stroke-width:.264583;stroke-linejoin:round"/><circle cx="-23.614" cy="107.78" r="10.114" style="fill:#fff;stroke:#000;stroke-width:.264583;stroke-linejoin:round"/><circle cx="48.882" cy="107.78" r="5.225" style="fill:#fff;stroke:#000;stroke-width:.264583;stroke-linejoin:round"/><circle cx="48.882" cy="94.415" r="3.491" style="fill:#fff;stroke:#000;stroke-width:.264583;stroke-linejoin:round"/><circle cx="48.882" cy="61.549" r="6.077" style="fill:#fff;stroke:#000;stroke-width:.264584;stroke-linejoin:round"/><path d="M48.882 45.088h31.094M48.882 107.912h31.094M65.4 87.988h14.576M65.4 70.457h14.576" style="fill:#fff;stroke:#999;stroke-width:.264583;stroke-linejoin:round"/><path d="M32.363 123.579V87.988M65.533 123.698V88.106" style="fill:#fff;stroke:#ccc;stroke-width:.264583;stroke-linejoin:round"/><path d="M79.976 70.577v17.412" style="fill:#fff;stroke:#00f;stroke-width:.264583;stroke-linejoin:round;marker-start:url(#b);marker-end:url(#b)"/><path d="M79.976 45.576V69.97" style="fill:#fff;stroke:#00f;stroke-width:.264584;stroke-linejoin:round;marker-start:url(#c);marker-end:url(#c)"/><path d="M79.976 88.464v19.118" style="fill:#fff;stroke:#00f;stroke-width:.264584;stroke-linejoin:round;marker-start:url(#d);marker-end:url(#d)"/><path d="M32.746 122.81h32.318" style="fill:#fff;stroke:#666;stroke-width:.264585;stroke-linejoin:round;marker-start:url(#e);marker-end:url(#e)"/><path d="M65.401 70.457h4.72v17.53h-4.72zM27.644 70.457h4.72v17.53h-4.72z" style="fill:#fca;stroke:#1a1a1a;stroke-width:.264583;stroke-linejoin:round"/><path d="M27.644 130.144V88.099M70.12 130.033V87.988" style="fill:#fff;stroke:#ccc;stroke-width:.264583;stroke-linejoin:round"/><path d="M28.102 129.257h41.56" style="fill:#00f;stroke:#00f;stroke-width:.264585;stroke-linejoin:round;marker-start:url(#f);marker-end:url(#f)"/><text xml:space="preserve" style="font-size:16px;line-height:normal;font-family:&quot;Liberation Mono&quot;;-inkscape-font-specification:&quot;Liberation Mono&quot;;text-decoration-color:#000;white-space:pre;shape-inside:url(#g);display:inline;fill:#000;stroke-width:1;-inkscape-stroke:none;stop-color:#000" transform="translate(-.163 -17.193)scale(.26458)"><tspan x="171.057" y="543.006">W1A</tspan></text><text xml:space="preserve" style="font-size:16px;line-height:normal;font-family:&quot;Liberation Mono&quot;;-inkscape-font-specification:&quot;Liberation Mono&quot;;text-decoration-color:#000;white-space:pre;shape-inside:url(#h);display:inline;fill:#00f;stroke-width:1;-inkscape-stroke:none;stop-color:#000" transform="translate(-.186 -10.507)scale(.26458)"><tspan x="171.057" y="543.006">W2A</tspan></text><path d="M45.641 169.995h72.48v57.657h-72.48z" style="fill:#fff;stroke:#fff;stroke-width:.264583;stroke-linejoin:round;stroke-dasharray:none"/><path d="M70.45 174.346h20.267v35.397H70.45zM90.717 174.346h11.671v35.397H90.717zM58.779 174.346H70.45v35.397H58.779z" style="fill:#ffe6d5;stroke:purple;stroke-width:.264583;stroke-linejoin:round"/><path d="M70.45 213.778v-4.034M90.717 213.812v-4.034" style="fill:none;stroke:#999;stroke-width:.264583;stroke-linejoin:round"/><path d="m70.45 213.778 20.267.132" style="fill:#ffe6d5;stroke:#666;stroke-width:.264583;stroke-linejoin:round;marker-start:url(#i);marker-end:url(#i)"/><path d="M109.768 209.744h-7.318M109.706 174.347h-7.318" style="fill:none;stroke:#999;stroke-width:.264583;stroke-linejoin:round"/><path d="m109.068 174.47-.132 35.05" style="fill:#ffe6d5;stroke:#00f;stroke-width:.264583;stroke-linejoin:round;marker-start:url(#j);marker-end:url(#j)"/><text xml:space="preserve" style="font-style:normal;font-variant:normal;font-weight:400;font-stretch:normal;font-size:16px;line-height:normal;font-family:&quot;Liberation Mono&quot;;-inkscape-font-specification:&quot;Liberation Mono&quot;;font-variant-ligatures:normal;font-variant-position:normal;font-variant-caps:normal;font-variant-numeric:normal;font-variant-alternates:normal;font-variant-east-asian:normal;font-feature-settings:normal;font-variation-settings:normal;text-indent:0;text-align:start;text-decoration-line:none;text-decoration-style:solid;text-decoration-color:#000;letter-spacing:normal;word-spacing:normal;text-transform:none;writing-mode:lr-tb;direction:ltr;text-orientation:mixed;dominant-baseline:auto;baseline-shift:baseline;white-space:pre;shape-inside:url(#k);shape-padding:0;shape-margin:0;inline-size:0;display:inline;vector-effect:none;fill:#666;fill-opacity:1;stroke-width:1;stroke-linecap:butt;stroke-linejoin:miter;stroke-miterlimit:4;stroke-dasharray:none;stroke-dashoffset:0;stroke-opacity:1;-inkscape-stroke:none;stop-color:#000" transform="translate(27.036 72.563)scale(.26458)"><tspan x="187.936" y="548.102">W1B</tspan></text><text xml:space="preserve" style="font-style:normal;font-variant:normal;font-weight:400;font-stretch:normal;font-size:16px;line-height:normal;font-family:&quot;Liberation Mono&quot;;-inkscape-font-specification:&quot;Liberation Mono&quot;;font-variant-ligatures:normal;font-variant-position:normal;font-variant-caps:normal;font-variant-numeric:normal;font-variant-alternates:normal;font-variant-east-asian:normal;font-feature-settings:normal;font-variation-settings:normal;text-indent:0;text-align:start;text-decoration-line:none;text-decoration-style:solid;text-decoration-color:#000;letter-spacing:normal;word-spacing:normal;text-transform:none;writing-mode:lr-tb;direction:ltr;text-orientation:mixed;dominant-baseline:auto;baseline-shift:baseline;white-space:pre;shape-inside:url(#l);shape-padding:0;shape-margin:0;inline-size:0;display:inline;vector-effect:none;fill:#00f;fill-opacity:1;stroke-width:1;stroke-linecap:butt;stroke-linejoin:miter;stroke-miterlimit:4;stroke-dasharray:none;stroke-dashoffset:0;stroke-opacity:1;-inkscape-stroke:none;stop-color:#000" transform="translate(-9.607 -70.142)scale(.26458)"><tspan x="450.027" y="998.391">L1</tspan></text><path d="M80.583 174.367v35.377" style="fill:teal;stroke:#fca;stroke-width:.264583;stroke-linejoin:round;stroke-dasharray:none"/><circle cx="80.583" cy="191.229" r="7.996" style="fill:#f9f9f9;stroke:purple;stroke-width:.264583;stroke-linejoin:round"/><path d="m72.639 187.768-17.086-5.579" style="fill:#00f;stroke:#00f;stroke-width:.264583;stroke-linejoin:round;marker-start:url(#m)"/><text xml:space="preserve" style="font-style:normal;font-variant:normal;font-weight:400;font-stretch:normal;font-size:16px;line-height:normal;font-family:&quot;Liberation Mono&quot;;-inkscape-font-specification:&quot;Liberation Mono&quot;;font-variant-ligatures:normal;font-variant-position:normal;font-variant-caps:normal;font-variant-numeric:normal;font-variant-alternates:normal;font-variant-east-asian:normal;font-feature-settings:normal;font-variation-settings:normal;text-indent:0;text-align:start;text-decoration-line:none;text-decoration-style:solid;text-decoration-color:#000;letter-spacing:normal;word-spacing:normal;text-transform:none;writing-mode:lr-tb;direction:ltr;text-orientation:mixed;dominant-baseline:auto;baseline-shift:baseline;white-space:pre;shape-inside:url(#n);shape-padding:0;shape-margin:0;inline-size:0;display:inline;vector-effect:none;fill:#00f;fill-opacity:1;stroke-width:1;stroke-linecap:butt;stroke-linejoin:miter;stroke-miterlimit:4;stroke-dasharray:none;stroke-dashoffset:0;stroke-opacity:1;-inkscape-stroke:none;stop-color:#000" transform="translate(-41.963 12.453)scale(.26458)"><tspan x="336.844" y="644.455">D3B</tspan></text><path d="m59.168 221.245 43.1.133" style="fill:#ffe6d5;stroke:#00f;stroke-width:.264583;stroke-linejoin:round;marker-start:url(#o);marker-end:url(#o)"/><path d="M102.388 221.074v-11.37M58.779 221.245v-11.369" style="fill:none;stroke:#999;stroke-width:.264583;stroke-linejoin:round"/><text xml:space="preserve" style="font-style:normal;font-variant:normal;font-weight:400;font-stretch:normal;font-size:16px;line-height:normal;font-family:&quot;Liberation Mono&quot;;-inkscape-font-specification:&quot;Liberation Mono&quot;;font-variant-ligatures:normal;font-variant-position:normal;font-variant-caps:normal;font-variant-numeric:normal;font-variant-alternates:normal;font-variant-east-asian:normal;font-feature-settings:normal;font-variation-settings:normal;text-indent:0;text-align:start;text-decoration-line:none;text-decoration-style:solid;text-decoration-color:#000;letter-spacing:normal;word-spacing:normal;text-transform:none;writing-mode:lr-tb;direction:ltr;text-orientation:mixed;dominant-baseline:auto;baseline-shift:baseline;white-space:pre;shape-inside:url(#p);shape-padding:0;shape-margin:0;inline-size:0;display:inline;vector-effect:none;fill:#00f;fill-opacity:1;stroke-width:1;stroke-linecap:butt;stroke-linejoin:miter;stroke-miterlimit:4;stroke-dasharray:none;stroke-dashoffset:0;stroke-opacity:1;-inkscape-stroke:none;stop-color:#000" transform="translate(27.183 79.957)scale(.26458)"><tspan x="187.936" y="548.102">W2B</tspan></text><path d="M17.663 264.166h113.014v92.773H17.663z" style="fill:#fff;stroke:#fff;stroke-width:.264583;stroke-linejoin:round"/><text xml:space="preserve" style="font-size:16px;line-height:normal;font-family:&quot;Liberation Mono&quot;;-inkscape-font-specification:&quot;Liberation Mono&quot;;text-decoration-color:#000;white-space:pre;shape-inside:url(#q);display:inline;fill:#00f;stroke-width:1;-inkscape-stroke:none;stop-color:#000" transform="translate(17.95 287.453)scale(.26458)"><tspan x="349.115" y="113.619">W2B</tspan></text><path d="M107.735 290.527v52.917" style="fill:none;stroke:#00f;stroke-width:.264583;stroke-linejoin:round;marker-start:url(#r);marker-end:url(#r)"/><path d="M80.395 343.557h27.34" style="fill:none;stroke:#999;stroke-width:.264583;stroke-linejoin:round"/><rect width="52.917" height="52.917" x="41.148" y="290.528" ry="13.822" style="fill:#ffe6d5;stroke:purple;stroke-width:.264583;stroke-linejoin:round"/><rect width="40.443" height="40.443" x="47.385" y="296.764" ry="10.564" style="fill:#fff;stroke:purple;stroke-width:.264583;stroke-linejoin:round"/><path d="M41.148 303.38v-27.341M94.065 303.261v-27.34" style="fill:none;stroke:#999;stroke-width:.264583;stroke-linejoin:round"/><path d="M41.148 276.088h52.917" style="fill:none;stroke:#00f;stroke-width:.264583;stroke-linejoin:round;marker-start:url(#s);marker-end:url(#s)"/><path d="M57.467 350.868v-7.292M77.8 350.921v-7.292" style="fill:none;stroke:#999;stroke-width:.264583;stroke-linejoin:round"/><path d="M57.846 349.727h19.732" style="fill:none;stroke:#666;stroke-width:.264583;stroke-linejoin:round;marker-start:url(#t);marker-end:url(#t)"/><path d="M88.282 316.986h5.376" style="fill:none;stroke:#00f;stroke-width:.264583;stroke-linejoin:round;marker-start:url(#u);marker-end:url(#u)"/><text xml:space="preserve" style="font-size:16px;line-height:normal;font-family:&quot;Liberation Mono&quot;;-inkscape-font-specification:&quot;Liberation Mono&quot;;text-decoration-color:#000;white-space:pre;shape-inside:url(#v);display:inline;fill:#00f;stroke-width:1;-inkscape-stroke:none;stop-color:#000" transform="translate(-25.432 244.68)scale(.26458)"><tspan x="349.115" y="113.619">W2A</tspan></text><text xml:space="preserve" style="font-style:normal;font-variant:normal;font-weight:400;font-stretch:normal;font-size:16px;line-height:normal;font-family:&quot;Liberation Mono&quot;;-inkscape-font-specification:&quot;Liberation Mono&quot;;font-variant-ligatures:normal;font-variant-position:normal;font-variant-caps:normal;font-variant-numeric:normal;font-variant-alternates:normal;font-variant-east-asian:normal;font-feature-settings:normal;font-variation-settings:normal;text-indent:0;text-align:start;text-decoration-line:none;text-decoration-style:solid;text-decoration-color:#000;letter-spacing:normal;word-spacing:normal;text-transform:none;writing-mode:lr-tb;direction:ltr;text-orientation:mixed;dominant-baseline:auto;baseline-shift:baseline;white-space:pre;shape-inside:url(#w);shape-padding:0;shape-margin:0;inline-size:0;display:inline;vector-effect:none;fill:#666;fill-opacity:1;stroke-width:1;stroke-linecap:butt;stroke-linejoin:miter;stroke-miterlimit:4;stroke-dasharray:none;stroke-dashoffset:0;stroke-opacity:1;-inkscape-stroke:none;stop-color:#000" transform="translate(14.637 208.69)scale(.26458)"><tspan x="187.936" y="548.102">W1A</tspan></text><text xml:space="preserve" style="font-style:normal;font-variant:normal;font-weight:400;font-stretch:normal;font-size:16px;line-height:normal;font-family:&quot;Liberation Mono&quot;;-inkscape-font-specification:&quot;Liberation Mono&quot;;font-variant-ligatures:normal;font-variant-position:normal;font-variant-caps:normal;font-variant-numeric:normal;font-variant-alternates:normal;font-variant-east-asian:normal;font-feature-settings:normal;font-variation-settings:normal;text-indent:0;text-align:start;text-decoration-line:none;text-decoration-style:solid;text-decoration-color:#000;letter-spacing:normal;word-spacing:normal;text-transform:none;writing-mode:lr-tb;direction:ltr;text-orientation:mixed;dominant-baseline:auto;baseline-shift:baseline;white-space:pre;shape-inside:url(#x);shape-padding:0;shape-margin:0;inline-size:0;display:inline;vector-effect:none;fill:#00f;fill-opacity:1;stroke-width:1;stroke-linecap:butt;stroke-linejoin:miter;stroke-miterlimit:4;stroke-dasharray:none;stroke-dashoffset:0;stroke-opacity:1;-inkscape-stroke:none;stop-color:#000" transform="translate(-19.533 234.06)scale(.26458)"><tspan x="435.756" y="317.483">T1</tspan></text><path d="M80.395 290.527h27.34" style="fill:none;stroke:#999;stroke-width:.264583;stroke-linejoin:round"/><text xml:space="preserve" style="font-size:16px;line-height:normal;font-family:&quot;Liberation Mono&quot;;-inkscape-font-specification:&quot;Liberation Mono&quot;;text-decoration-color:#000;white-space:pre;shape-inside:url(#y);display:inline;fill:teal;stroke-width:1;-inkscape-stroke:none;stop-color:#000" transform="translate(3.22 220.239)scale(.26458)"><tspan x="421.934" y="187.231">eqWAB</tspan></text><path d="m74.354 271.986 39.433-2.865" style="fill:#00f;stroke:teal;stroke-width:.264583;stroke-linejoin:round;stroke-dasharray:none;marker-start:url(#s)"/><path d="m112.785 312.44 3.035-40.623" style="fill:teal;stroke:teal;stroke-width:.264583;stroke-linejoin:round;stroke-dasharray:none;marker-start:url(#s)"/><path d="M32.648 306.687h8.368M32.588 327.02h8.367" style="fill:none;stroke:#999;stroke-width:.264583;stroke-linejoin:round"/><path d="M33.277 307.066v19.732" style="fill:#666;stroke:#666;stroke-width:.264583;stroke-linejoin:round;marker-start:url(#z);marker-end:url(#z)"/><text xml:space="preserve" style="font-style:normal;font-variant:normal;font-weight:400;font-stretch:normal;font-size:16px;line-height:normal;font-family:&quot;Liberation Mono&quot;;-inkscape-font-specification:&quot;Liberation Mono&quot;;font-variant-ligatures:normal;font-variant-position:normal;font-variant-caps:normal;font-variant-numeric:normal;font-variant-alternates:normal;font-variant-east-asian:normal;font-feature-settings:normal;font-variation-settings:normal;text-indent:0;text-align:start;text-decoration-line:none;text-decoration-style:solid;text-decoration-color:#000;letter-spacing:normal;word-spacing:normal;text-transform:none;writing-mode:lr-tb;direction:ltr;text-orientation:mixed;dominant-baseline:auto;baseline-shift:baseline;white-space:pre;shape-inside:url(#A);shape-padding:0;shape-margin:0;inline-size:0;display:inline;vector-effect:none;fill:#666;fill-opacity:1;stroke-width:1;stroke-linecap:butt;stroke-linejoin:miter;stroke-miterlimit:4;stroke-dasharray:none;stroke-dashoffset:0;stroke-opacity:1;-inkscape-stroke:none;stop-color:#000" transform="translate(-25.324 174.249)scale(.26458)"><tspan x="187.936" y="548.102">W1B</tspan></text><text xml:space="preserve" style="font-size:16px;line-height:normal;font-family:&quot;Liberation Mono&quot;;-inkscape-font-specification:&quot;Liberation Mono&quot;;text-decoration-color:#000;white-space:pre;shape-inside:url(#B);display:inline;fill:#00f;stroke-width:1;-inkscape-stroke:none;stop-color:#000" transform="translate(5.92 200.854)scale(.26458)"><tspan x="49.055" y="537.272">Jradius
</tspan><tspan x="49.055" y="557.272">Jneutral
</tspan><tspan x="49.055" y="577.272">Jmark</tspan></text><path d="m43.623 340.211-5.119 3.893" style="fill:#00f;stroke:#00f;stroke-width:.264583;stroke-linejoin:round;marker-start:url(#C)"/><text xml:space="preserve" style="font-size:16px;line-height:normal;font-family:&quot;Liberation Mono&quot;;-inkscape-font-specification:&quot;Liberation Mono&quot;;text-decoration-color:#000;white-space:pre;shape-inside:url(#D);display:inline;fill:#00f;stroke-width:1;-inkscape-stroke:none;stop-color:#000" transform="translate(-22.587 .544)scale(.26458)"><tspan x="391.162" y="302.867">L1</tspan></text><text xml:space="preserve" style="font-size:16px;line-height:normal;font-family:&quot;Liberation Mono&quot;;-inkscape-font-specification:&quot;Liberation Mono&quot;;text-decoration-color:#000;white-space:pre;shape-inside:url(#E);display:inline;fill:#00f;stroke-width:1;-inkscape-stroke:none;stop-color:#000" transform="translate(-28.87 -40.15)scale(.26458)"><tspan x="414.639" y="375.455">L2</tspan></text><text xml:space="preserve" style="font-size:16px;line-height:normal;font-family:&quot;Liberation Mono&quot;;-inkscape-font-specification:&quot;Liberation Mono&quot;;text-decoration-color:#000;white-space:pre;shape-inside:url(#F);display:inline;fill:#00f;stroke-width:1;-inkscape-stroke:none;stop-color:#000" transform="translate(-28.316 -5.9)scale(.26458)"><tspan x="414.639" y="397.115">L3</tspan></text><text xml:space="preserve" style="font-size:16px;line-height:normal;font-family:&quot;Liberation Mono&quot;;-inkscape-font-specification:&quot;Liberation Mono&quot;;text-decoration-color:#000;white-space:pre;shape-inside:url(#G);display:inline;fill:#00f;stroke-width:1;-inkscape-stroke:none;stop-color:#000" transform="translate(-90.347 -92.288)scale(.26458)"><tspan x="429.387" y="481.754">D1</tspan></text><path d="M24.61 62.198 41.97 73.323" style="fill:#00f;stroke:#00f;stroke-width:.264583;stroke-linejoin:round;marker-end:url(#b)"/><path d="m29.063 33.81 13.653 7.08" style="fill:#00f;stroke:#00f;stroke-width:.264583;stroke-linejoin:round;marker-end:url(#b)"/><text xml:space="preserve" style="font-size:16px;line-height:normal;font-family:&quot;Liberation Mono&quot;;-inkscape-font-specification:&quot;Liberation Mono&quot;;text-decoration-color:#000;white-space:pre;shape-inside:url(#H);display:inline;fill:#00f;stroke-width:1;-inkscape-stroke:none;stop-color:#000" transform="translate(-81.582 -48.545)scale(.26458)"><tspan x="380.969" y="416.865">D3A</tspan></text><text xml:space="preserve" style="font-size:16px;line-height:normal;font-family:&quot;Liberation Mono&quot;;-inkscape-font-specification:&quot;Liberation Mono&quot;;text-decoration-color:#000;white-space:pre;shape-inside:url(#I);display:inline;fill:#00f;stroke-width:1;-inkscape-stroke:none;stop-color:#000" transform="translate(-90.347 -68.121)scale(.26458)"><tspan x="421.104" y="435.34">D2</tspan></text><path d="m26.8 46.354 16.52 11.293" style="fill:#00f;stroke:#00f;stroke-width:.264583;stroke-linejoin:round;marker-end:url(#b)"/><text xml:space="preserve" style="font-size:16px;line-height:normal;font-family:&quot;Liberation Mono&quot;;-inkscape-font-specification:&quot;Liberation Mono&quot;;text-decoration-color:#000;white-space:pre;shape-inside:url(#J);display:inline;fill:#00f;stroke-width:1;-inkscape-stroke:none;stop-color:#000" transform="translate(-77.705 -24.104)scale(.26458)"><tspan x="366.316" y="472.291">D4</tspan></text><text xml:space="preserve" style="font-size:16px;line-height:normal;font-family:&quot;Liberation Mono&quot;;-inkscape-font-specification:&quot;Liberation Mono&quot;;text-decoration-color:#000;white-space:pre;shape-inside:url(#K);display:inline;fill:#00f;stroke-width:1;-inkscape-stroke:none;stop-color:#000" transform="translate(-81.92 -30.51)scale(.26458)"><tspan x="383.518" y="545.555">D5</tspan></text><path d="M25.115 99.28 44.5 94.73" style="fill:#00f;stroke:#00f;stroke-width:.264583;stroke-linejoin:round;marker-end:url(#b)"/><path d="m24.61 112.091 18.541-3.54" style="fill:#00f;stroke:#00f;stroke-width:.264583;stroke-linejoin:round;marker-end:url(#b)"/><path d="M48.882 38.213v-3.371" style="fill:#00f;stroke:#00f;stroke-width:.264583;stroke-linejoin:round;marker-start:url(#b);marker-end:url(#b)"/><path d="M48.882 117.795v-4.678" style="fill:#00f;stroke:#00f;stroke-width:.264583;stroke-linejoin:round;marker-start:url(#L);marker-end:url(#L)"/><text xml:space="preserve" style="font-size:16px;line-height:normal;font-family:&quot;Liberation Mono&quot;;-inkscape-font-specification:&quot;Liberation Mono&quot;;text-decoration-color:#000;white-space:pre;shape-inside:url(#M);display:inline;fill:#00f;stroke-width:1;-inkscape-stroke:none;stop-color:#000" transform="translate(-42.432 -99.15)scale(.26458)"><tspan x="337.012" y="502.766">S1</tspan></text><text xml:space="preserve" style="font-size:16px;line-height:normal;font-family:&quot;Liberation Mono&quot;;-inkscape-font-specification:&quot;Liberation Mono&quot;;text-decoration-color:#000;white-space:pre;shape-inside:url(#N);display:inline;fill:#00f;stroke-width:1;-inkscape-stroke:none;stop-color:#000" transform="translate(-37.43 -32.575)scale(.26458)"><tspan x="329.365" y="562.117">S2</tspan></text><path d="m37.756 438.354 12.37 4.128.335-12.68-1.337-13.86-2.34-2.949h-2.675l-1.84 1.917-4.346 12.385zM53.452 433.771l12.37 4.129.335-12.68-1.337-13.86-2.34-2.95h-2.676l-1.839 1.917-4.346 12.386z" style="fill:#00f;stroke:#00f;stroke-width:.264583;stroke-linejoin:round"/><path d="m50.294 431.424-12.37-4.129-.335 12.68 1.337 13.86 2.34 2.95h2.675l1.84-1.917 4.346-12.386zM65.99 426.841l-12.371-4.128-.334 12.68 1.337 13.86 2.34 2.949h2.675l1.84-1.917 4.346-12.385z" style="fill:#00f;stroke:#00f;stroke-width:.264583;stroke-linejoin:round"/><path d="m50.461 429.802 15.696-4.583-.334 12.68-15.696 4.583z" style="fill:#55d400;stroke:#55d400;stroke-width:.26458333;stroke-linejoin:round"/><ellipse cx="45.347" cy="417.218" rx="2.246" ry="2.189" style="fill:#fff;stroke:#00f;stroke-width:.264583;stroke-linejoin:round"/><ellipse cx="42.646" cy="452.709" rx="2.246" ry="2.189" style="fill:#fff;stroke:#00f;stroke-width:.264583;stroke-linejoin:round"/><ellipse cx="58.365" cy="447.927" rx="2.246" ry="2.189" style="fill:#fff;stroke:#00f;stroke-width:.264583;stroke-linejoin:round"/><ellipse cx="60.982" cy="412.524" rx="2.246" ry="2.189" style="fill:#fff;stroke:#00f;stroke-width:.264583;stroke-linejoin:round"/><path d="m89.565 437.78 12.371 4.128.334-12.68-1.337-13.86-2.34-2.95h-2.675l-1.839 1.917-4.346 12.386zM105.261 433.197l12.37 4.128.335-12.68-1.337-13.86-2.34-2.949h-2.675l-1.84 1.917-4.346 12.385z" style="fill:#00f;stroke:#00f;stroke-width:.264583;stroke-linejoin:round"/><ellipse cx="97.156" cy="416.643" rx="2.246" ry="2.189" style="fill:#fff;stroke:#00f;stroke-width:.264583;stroke-linejoin:round"/><ellipse cx="112.791" cy="411.95" rx="2.246" ry="2.189" style="fill:#fff;stroke:#00f;stroke-width:.264583;stroke-linejoin:round"/><path d="m102.27 429.227 15.696-4.582-.334 12.68-4.429 11.722-1.14 1.985-1.72.995-1.837-.238-2.931-2.146-3.639-7.735z" style="fill:#55d400;stroke:#55d400;stroke-width:.264583;stroke-linejoin:round"/><ellipse cx="109.951" cy="447.871" rx="2.246" ry="2.189" style="fill:#fff;stroke:#55d400;stroke-width:.264583;stroke-linejoin:round"/><text xml:space="preserve" style="font-size:16px;line-height:normal;font-family:&quot;Liberation Mono&quot;;-inkscape-font-specification:&quot;Liberation Mono&quot;;text-decoration-color:#000;white-space:pre;shape-inside:url(#O);display:inline;fill:#000;stroke-width:1;-inkscape-stroke:none;stop-color:#000" transform="translate(3.54 -14.525)scale(.26458)"><tspan x="138.979" y="1805.334">straight</tspan></text><text xml:space="preserve" style="font-size:16px;line-height:normal;font-family:&quot;Liberation Mono&quot;;-inkscape-font-specification:&quot;Liberation Mono&quot;;text-decoration-color:#000;white-space:pre;shape-inside:url(#P);display:inline;fill:#000;stroke-width:1;-inkscape-stroke:none;stop-color:#000" transform="translate(8.857 -3.914)scale(.26458)"><tspan x="321.641" y="1741.166">twisted</tspan></text></svg>