<svg xmlns="http://www.w3.org/2000/svg" width="600" height="3000" viewBox="0 0 158.75 793.75"><defs><path id="x" d="M350.471 400.024h40.092v37.39h-40.092z"/><path id="w" d="M295.964 400.024H330.2v27.479h-34.236z"/><path id="p" d="M161.816 322.677h37.906v33.128h-37.906z"/><path id="o" d="M130.6 183.795h99.383v65.937H130.6z"/><path id="n" d="M333.188 299.105h31.854v25.801h-31.854z"/><path id="m" d="M109.576 123.91h32.172v26.757h-32.172z"/><path id="l" d="M186.662 158.312h36.632v30.579h-36.632z"/><path id="k" d="M138.563 151.304h34.083v27.713h-34.083z"/><path id="j" d="M194.307 194.625h30.261v25.164h-30.261z"/><path id="i" d="M186.025 161.179h24.846v23.253h-24.846z"/><path id="h" d="M140.156 181.884h27.394v23.89h-27.394z"/><path id="g" d="M84.093 170.735h25.483v20.386H84.093z"/><path id="f" d="M90.146 199.085h40.135v23.253H90.146z"/><path id="e" d="M27.394 268.526h26.757v24.209H27.394z"/><path id="a" d="M14.016 10.83h273.941v49.054H14.016z"/><path id="t" d="M161.816 322.677h37.906v33.128h-37.906z"/><path id="u" d="M161.816 322.677h37.906v33.128h-37.906z"/><path id="v" d="M161.816 322.677h37.906v33.128h-37.906z"/><path id="z" d="M295.964 400.024H330.2v27.479h-34.236z"/><path id="A" d="M350.471 400.024h40.092v37.39h-40.092z"/><path id="C" d="M295.964 400.024H330.2v27.479h-34.236z"/><path id="D" d="M350.471 400.024h40.092v37.39h-40.092z"/><path id="F" d="M295.964 400.024H330.2v27.479h-34.236z"/><path id="G" d="M350.471 400.024h40.092v37.39h-40.092z"/><marker id="c" markerHeight="1" markerWidth="1" orient="auto-start-reverse" preserveAspectRatio="xMidYMid" refX="0" refY="0" style="overflow:visible" viewBox="0 0 1 1"><path d="M3-3 0 0l3 3" style="fill:none;stroke:context-stroke;stroke-width:1;stroke-linecap:round" transform="rotate(180 .125 0)"/></marker><marker id="d" markerHeight="1" markerWidth="1" orient="auto-start-reverse" preserveAspectRatio="xMidYMid" refX="0" refY="0" style="overflow:visible" viewBox="0 0 1 1"><path d="M3-3 0 0l3 3" style="fill:none;stroke:context-stroke;stroke-width:1;stroke-linecap:round" transform="rotate(180 .125 0)"/></marker><marker id="b" markerHeight="1" markerWidth="1" orient="auto-start-reverse" preserveAspectRatio="xMidYMid" refX="0" refY="0" style="overflow:visible" viewBox="0 0 1 1"><path d="M3-3 0 0l3 3" style="fill:none;stroke:context-stroke;stroke-width:1;stroke-linecap:round" transform="rotate(180 .125 0)"/></marker><marker id="q" markerHeight="1" markerWidth="1" orient="auto-start-reverse" preserveAspectRatio="xMidYMid" refX="0" refY="0" style="overflow:visible" viewBox="0 0 1 1"><path d="M3-3 0 0l3 3" style="fill:none;stroke:context-stroke;stroke-width:1;stroke-linecap:round" transform="rotate(180 .125 0)"/></marker><marker id="r" markerHeight="1" markerWidth="1" orient="auto-start-reverse" preserveAspectRatio="xMidYMid" refX="0" refY="0" style="overflow:visible" viewBox="0 0 1 1"><path d="M3-3 0 0l3 3" style="fill:none;stroke:context-stroke;stroke-width:1;stroke-linecap:round" transform="rotate(180 .125 0)"/></marker><marker id="s" markerHeight="1" markerWidth="1" orient="auto-start-reverse" preserveAspectRatio="xMidYMid" refX="0" refY="0" style="overflow:visible" viewBox="0 0 1 1"><path d="M3-3 0 0l3 3" style="fill:none;stroke:context-stroke;stroke-width:1;stroke-linecap:round" transform="rotate(180 .125 0)"/></marker><marker id="y" markerHeight="1" markerWidth="1" orient="auto-start-reverse" preserveAspectRatio="xMidYMid" refX="0" refY="0" style="overflow:visible" viewBox="0 0 1 1"><path d="M3-3 0 0l3 3" style="fill:none;stroke:context-stroke;stroke-width:1;stroke-linecap:round" transform="rotate(180 .125 0)"/></marker><marker id="B" markerHeight="1" markerWidth="1" orient="auto-start-reverse" preserveAspectRatio="xMidYMid" refX="0" refY="0" style="overflow:visible" viewBox="0 0 1 1"><path d="M3-3 0 0l3 3" style="fill:none;stroke:context-stroke;stroke-width:1;stroke-linecap:round" transform="rotate(180 .125 0)"/></marker><marker id="E" markerHeight="1" markerWidth="1" orient="auto-start-reverse" preserveAspectRatio="xMidYMid" refX="0" refY="0" style="overflow:visible" viewBox="0 0 1 1"><path d="M3-3 0 0l3 3" style="fill:none;stroke:context-stroke;stroke-width:1;stroke-linecap:round" transform="rotate(180 .125 0)"/></marker></defs><path d="M8.293 21.511h142.162v79.841H8.293z" style="fill:#fff;stroke:#fff;stroke-width:.264583;stroke-linejoin:round;stroke-dasharray:none"/><path d="M65.455-126.908h8.028v24.768h-8.028z" style="fill:#ffe6d5;stroke:#ffe6d5;stroke-width:.264584;stroke-linejoin:round" transform="rotate(79.407)scale(1 .99999)skewX(-.29)"/><path d="M114.451 27.72h9.051v28.454h-9.051z" style="fill:#ffe6d5;stroke:#ffe6d5;stroke-width:.264594;stroke-linejoin:round" transform="matrix(.97517 .22144 -.23495 .972 0 0)"/><path d="M5.159 97.405h9.279v28.483H5.159z" style="fill:#ffe6d5;stroke:#ffe6d5;stroke-width:.26463;stroke-linejoin:round" transform="matrix(.69693 -.71713 .69825 .71586 0 0)"/><path d="M63.379 66.027h8.033v24.699h-8.033z" style="fill:#ffe6d5;stroke:#ffe6d5;stroke-width:.264583;stroke-linejoin:round"/><text xml:space="preserve" style="font-size:14.6667px;line-height:normal;font-family:&quot;Liberation Mono&quot;;-inkscape-font-specification:&quot;Liberation Mono&quot;;text-decoration-color:#000;white-space:pre;shape-inside:url(#a);display:inline;fill:#000;stroke-width:1;-inkscape-stroke:none;stop-color:#000" transform="scale(.26458)"><tspan x="14.016" y="23.88">src_demoSheetFold2.svg</tspan></text><path d="M24.073 66.027h39.306v24.699H24.073zM71.412 66.027v24.7l20.084-4.309ZM78.074 59.374l19.888 20.39 6.905-27.476ZM113.923 54.292l-6.686 27.658 31.18-32.426Z" style="fill:#fff6d5;stroke:#d4aa00;stroke-width:.264583;stroke-linejoin:round"/><path d="M102.512 49.866h24.767v15.565h-24.767z" style="fill:#fff6d5;stroke:#d4aa00;stroke-width:.264584;stroke-linejoin:round" transform="rotate(-10.291)skewX(-.024)"/><path d="M18.669 66.027v24.7" style="fill:#fff6d5;stroke:#00f;stroke-width:.264583;stroke-linejoin:round;stroke-dasharray:none;marker-start:url(#b);marker-end:url(#c)"/><path d="M24.073 63.322h39.306" style="fill:#fff6d5;stroke:#00f;stroke-width:.264583;stroke-linejoin:round;stroke-dasharray:none;marker-start:url(#b);marker-end:url(#d)"/><path d="m73.564 63.586 20.084 20.391" style="fill:#fff6d5;stroke:#00f;stroke-width:.264583;stroke-linejoin:round;stroke-dasharray:none;marker-start:url(#d);marker-end:url(#d)"/><path d="M71.7 72.202s1.484.411 2.151.143c.723-.29 1.578-1.723 1.578-1.723" style="fill:#fff6d5;stroke:#00f;stroke-width:.264583;stroke-linejoin:round;stroke-dasharray:none"/><path d="m100.786 79.995 6.905-27.476" style="fill:#fff6d5;stroke:#00f;stroke-width:.264583;stroke-linejoin:round;stroke-dasharray:none;marker-start:url(#d);marker-end:url(#d)"/><path d="M94.652 76.223s1.242-1.595 2.152-1.867c.693-.208 2.151.287 2.151.287" style="fill:#fff6d5;stroke:#00f;stroke-width:.264583;stroke-linejoin:round;stroke-dasharray:none"/><path d="m113.492 51.707 24.448-4.759" style="fill:#fff6d5;stroke:#00f;stroke-width:.264583;stroke-linejoin:round;stroke-dasharray:none;marker-start:url(#d);marker-end:url(#d)"/><path d="M113.157 57.124s2.158-.283 2.87-1.005c.53-.54.716-2.154.716-2.154" style="fill:#fff6d5;stroke:#00f;stroke-width:.264583;stroke-linejoin:round;stroke-dasharray:none"/><path d="m137.563 25.755 2.774 15.312" style="fill:#fff6d5;stroke:#00f;stroke-width:.264583;stroke-linejoin:round;stroke-dasharray:none;marker-start:url(#d);marker-end:url(#d)"/><text xml:space="preserve" style="font-size:14.6667px;line-height:normal;font-family:&quot;Liberation Mono&quot;;-inkscape-font-specification:&quot;Liberation Mono&quot;;text-decoration-color:#000;white-space:pre;shape-inside:url(#e);display:inline;fill:#00f;stroke-width:1;-inkscape-stroke:none;stop-color:#000" transform="translate(5.365 4.91)scale(.26458)"><tspan x="27.395" y="281.575">L1</tspan></text><text xml:space="preserve" style="font-size:14.6667px;line-height:normal;font-family:&quot;Liberation Mono&quot;;-inkscape-font-specification:&quot;Liberation Mono&quot;;text-decoration-color:#000;white-space:pre;shape-inside:url(#f);display:inline;fill:#00f;stroke-width:1;-inkscape-stroke:none;stop-color:#000" transform="translate(15.842 5.442)scale(.26458)"><tspan x="90.146" y="212.134">W1</tspan></text><text xml:space="preserve" style="font-size:14.6667px;line-height:normal;font-family:&quot;Liberation Mono&quot;;-inkscape-font-specification:&quot;Liberation Mono&quot;;text-decoration-color:#000;white-space:pre;shape-inside:url(#g);display:inline;fill:#00f;stroke-width:1;-inkscape-stroke:none;stop-color:#000" transform="translate(50.078 28.426)scale(.26458)"><tspan x="84.094" y="183.784">A2</tspan></text><text xml:space="preserve" style="font-size:14.6667px;line-height:normal;font-family:&quot;Liberation Mono&quot;;-inkscape-font-specification:&quot;Liberation Mono&quot;;text-decoration-color:#000;white-space:pre;shape-inside:url(#h);display:inline;fill:#00f;stroke-width:1;-inkscape-stroke:none;stop-color:#000" transform="translate(42.089 16.451)scale(.26458)"><tspan x="140.156" y="194.935">L2</tspan></text><text xml:space="preserve" style="font-size:14.6667px;line-height:normal;font-family:&quot;Liberation Mono&quot;;-inkscape-font-specification:&quot;Liberation Mono&quot;;text-decoration-color:#000;white-space:pre;shape-inside:url(#i);display:inline;fill:#00f;stroke-width:1;-inkscape-stroke:none;stop-color:#000" transform="translate(45.158 26.714)scale(.26458)"><tspan x="186.025" y="174.23">A3</tspan></text><text xml:space="preserve" style="font-size:14.6667px;line-height:normal;font-family:&quot;Liberation Mono&quot;;-inkscape-font-specification:&quot;Liberation Mono&quot;;text-decoration-color:#000;white-space:pre;shape-inside:url(#j);display:inline;fill:#00f;stroke-width:1;-inkscape-stroke:none;stop-color:#000" transform="translate(55.438 7.789)scale(.26458)"><tspan x="194.307" y="207.675">L3</tspan></text><text xml:space="preserve" style="font-size:14.6667px;line-height:normal;font-family:&quot;Liberation Mono&quot;;-inkscape-font-specification:&quot;Liberation Mono&quot;;text-decoration-color:#000;white-space:pre;shape-inside:url(#k);display:inline;fill:#00f;stroke-width:1;-inkscape-stroke:none;stop-color:#000" transform="translate(79.29 15.84)scale(.26458)"><tspan x="138.563" y="164.355">A4</tspan></text><text xml:space="preserve" style="font-size:14.6667px;line-height:normal;font-family:&quot;Liberation Mono&quot;;-inkscape-font-specification:&quot;Liberation Mono&quot;;text-decoration-color:#000;white-space:pre;shape-inside:url(#l);display:inline;fill:#00f;stroke-width:1;-inkscape-stroke:none;stop-color:#000" transform="translate(67.74 3.575)scale(.26458)"><tspan x="186.662" y="171.363">L4</tspan></text><text xml:space="preserve" style="font-size:14.6667px;line-height:normal;font-family:&quot;Liberation Mono&quot;;-inkscape-font-specification:&quot;Liberation Mono&quot;;text-decoration-color:#000;white-space:pre;shape-inside:url(#m);display:inline;fill:#00f;stroke-width:1;-inkscape-stroke:none;stop-color:#000" transform="translate(110.613 -3.062)scale(.26458)"><tspan x="109.576" y="136.96">W5</tspan></text><path d="m132.093 94.747 5.308-9.19" style="fill:#fff;stroke:purple;stroke-width:.264583;stroke-linejoin:round;marker-end:url(#d)"/><text xml:space="preserve" style="font-size:14.6667px;line-height:normal;font-family:&quot;Liberation Mono&quot;;-inkscape-font-specification:&quot;Liberation Mono&quot;;text-decoration-color:#000;white-space:pre;shape-inside:url(#n);display:inline;fill:purple;stroke-width:1;-inkscape-stroke:none;stop-color:#000" transform="translate(47.112 11.95)scale(.26458)"><tspan x="333.188" y="312.156">Th</tspan></text><text xml:space="preserve" style="font-size:14.6667px;line-height:normal;font-family:&quot;Liberation Mono&quot;;-inkscape-font-specification:&quot;Liberation Mono&quot;;text-decoration-color:#000;white-space:pre;shape-inside:url(#o);display:inline;fill:green;stroke-width:1;-inkscape-stroke:none;stop-color:#000" transform="translate(12.386 -20.034)scale(.26458)"><tspan x="130.6" y="196.845">Jradius
</tspan><tspan x="130.6" y="215.178">Jneutral
</tspan><tspan x="130.6" y="233.512">Jmark</tspan></text><path d="m64.67 41.185 3.013 22.832" style="fill:green;stroke:green;stroke-width:.264583;stroke-linejoin:round;marker-end:url(#d)"/><path d="m66.392 40.036 8.607 18.955" style="fill:green;stroke:green;stroke-width:.264583;stroke-linejoin:round;marker-end:url(#d)"/><path d="m68.83 39.892 42.462 9.334" style="fill:green;stroke:green;stroke-width:.264583;stroke-linejoin:round;marker-end:url(#b)"/><path d="M64.403 91.588s1.627 1.657 2.833 1.723c1.238.067 3.21-1.436 3.21-1.436" style="fill:#fff;stroke:#f60;stroke-width:.264583;stroke-linejoin:round;marker-start:url(#d);marker-end:url(#d)"/><text xml:space="preserve" style="font-size:14.6667px;line-height:normal;font-family:&quot;Liberation Mono&quot;;-inkscape-font-specification:&quot;Liberation Mono&quot;;text-decoration-color:#000;white-space:pre;shape-inside:url(#p);display:inline;fill:#f60;stroke-width:1;-inkscape-stroke:none;stop-color:#000" transform="translate(21.68 8.55)scale(.26458)"><tspan x="161.816" y="335.726">J1</tspan></text><path d="M92.7 86.7s2.321.056 3.233-.738c.936-.814 1.306-3.268 1.306-3.268" style="fill:none;stroke:#f60;stroke-width:.264583;stroke-linejoin:round;marker-start:url(#q);marker-end:url(#q)"/><path d="M99.335 80.848s1.254 1.955 2.422 2.266c1.198.32 3.436-.75 3.436-.75" style="fill:none;stroke:#f60;stroke-width:.264583;stroke-linejoin:round;marker-start:url(#r);marker-end:url(#r)"/><path d="M139.32 48.584s1.183-1.998.937-3.182c-.252-1.216-2.21-2.739-2.21-2.739" style="fill:none;stroke:#f60;stroke-width:.264583;stroke-linejoin:round;marker-start:url(#s);marker-end:url(#s)"/><text xml:space="preserve" style="font-size:14.6667px;line-height:normal;font-family:&quot;Liberation Mono&quot;;-inkscape-font-specification:&quot;Liberation Mono&quot;;text-decoration-color:#000;white-space:pre;shape-inside:url(#t);display:inline;fill:#f60;stroke-width:1;-inkscape-stroke:none;stop-color:#000" transform="translate(52.348 1.902)scale(.26458)"><tspan x="161.816" y="335.726">J2</tspan></text><text xml:space="preserve" style="font-size:14.6667px;line-height:normal;font-family:&quot;Liberation Mono&quot;;-inkscape-font-specification:&quot;Liberation Mono&quot;;text-decoration-color:#000;white-space:pre;shape-inside:url(#u);display:inline;fill:#f60;stroke-width:1;-inkscape-stroke:none;stop-color:#000" transform="translate(58.081 -1.987)scale(.26458)"><tspan x="161.816" y="335.726">J3</tspan></text><text xml:space="preserve" style="font-size:14.6667px;line-height:normal;font-family:&quot;Liberation Mono&quot;;-inkscape-font-specification:&quot;Liberation Mono&quot;;text-decoration-color:#000;white-space:pre;shape-inside:url(#v);display:inline;fill:#f60;stroke-width:1;-inkscape-stroke:none;stop-color:#000" transform="translate(97.552 -42.266)scale(.26458)"><tspan x="161.816" y="335.726">J4</tspan></text><path d="M64.958 83.075v-9.297" style="fill:purple;stroke:#d45500;stroke-width:.264583;stroke-linejoin:round;marker-end:url(#c)"/><text xml:space="preserve" style="font-size:14.6667px;line-height:normal;font-family:&quot;Liberation Mono&quot;;-inkscape-font-specification:&quot;Liberation Mono&quot;;text-decoration-color:#000;white-space:pre;shape-inside:url(#w);display:inline;fill:#d45500;stroke-width:1;-inkscape-stroke:none;stop-color:#000" transform="translate(-14.66 -22.646)scale(.26458)"><tspan x="295.963" y="413.074">A</tspan></text><text xml:space="preserve" style="font-size:14.6667px;line-height:normal;font-family:&quot;Liberation Mono&quot;;-inkscape-font-specification:&quot;Liberation Mono&quot;;text-decoration-color:#000;white-space:pre;shape-inside:url(#x);display:inline;fill:#d45500;stroke-width:1;-inkscape-stroke:none;stop-color:#000" transform="translate(-29.201 -36.233)scale(.26458)"><tspan x="350.471" y="413.074">B</tspan></text><path d="m86.688 72.48 6.56 6.587" style="fill:purple;stroke:#d45500;stroke-width:.264583;stroke-linejoin:round;marker-end:url(#y)"/><text xml:space="preserve" style="font-size:14.6667px;line-height:normal;font-family:&quot;Liberation Mono&quot;;-inkscape-font-specification:&quot;Liberation Mono&quot;;text-decoration-color:#000;white-space:pre;shape-inside:url(#z);display:inline;fill:#d45500;stroke-width:1;-inkscape-stroke:none;stop-color:#000" transform="translate(5.281 -37.115)scale(.26458)"><tspan x="295.963" y="413.074">A</tspan></text><text xml:space="preserve" style="font-size:14.6667px;line-height:normal;font-family:&quot;Liberation Mono&quot;;-inkscape-font-specification:&quot;Liberation Mono&quot;;text-decoration-color:#000;white-space:pre;shape-inside:url(#A);display:inline;fill:#d45500;stroke-width:1;-inkscape-stroke:none;stop-color:#000" transform="translate(.547 -27.408)scale(.26458)"><tspan x="350.471" y="413.074">B</tspan></text><path d="m104.117 76.895 2.278-9.013" style="fill:purple;stroke:#d45500;stroke-width:.264583;stroke-linejoin:round;marker-end:url(#B)"/><text xml:space="preserve" style="font-size:14.6667px;line-height:normal;font-family:&quot;Liberation Mono&quot;;-inkscape-font-specification:&quot;Liberation Mono&quot;;text-decoration-color:#000;white-space:pre;shape-inside:url(#C);display:inline;fill:#d45500;stroke-width:1;-inkscape-stroke:none;stop-color:#000" transform="translate(24.237 -29.029)scale(.26458)"><tspan x="295.963" y="413.074">A</tspan></text><text xml:space="preserve" style="font-size:14.6667px;line-height:normal;font-family:&quot;Liberation Mono&quot;;-inkscape-font-specification:&quot;Liberation Mono&quot;;text-decoration-color:#000;white-space:pre;shape-inside:url(#D);display:inline;fill:#d45500;stroke-width:1;-inkscape-stroke:none;stop-color:#000" transform="translate(12.778 -42.119)scale(.26458)"><tspan x="350.471" y="413.074">B</tspan></text><path d="m133.567 44.782-7.08 1.314" style="fill:purple;stroke:#d45500;stroke-width:.264583;stroke-linejoin:round;marker-end:url(#E)"/><text xml:space="preserve" style="font-size:14.6667px;line-height:normal;font-family:&quot;Liberation Mono&quot;;-inkscape-font-specification:&quot;Liberation Mono&quot;;text-decoration-color:#000;white-space:pre;shape-inside:url(#F);display:inline;fill:#d45500;stroke-width:1;-inkscape-stroke:none;stop-color:#000" transform="translate(56.21 -63.84)scale(.26458)"><tspan x="295.963" y="413.074">A</tspan></text><text xml:space="preserve" style="font-size:14.6667px;line-height:normal;font-family:&quot;Liberation Mono&quot;;-inkscape-font-specification:&quot;Liberation Mono&quot;;text-decoration-color:#000;white-space:pre;shape-inside:url(#G);display:inline;fill:#d45500;stroke-width:1;-inkscape-stroke:none;stop-color:#000" transform="translate(31.053 -61.72)scale(.26458)"><tspan x="350.471" y="413.074">B</tspan></text></svg>