<svg xmlns="http://www.w3.org/2000/svg" width="600" height="3000" viewBox="0 0 158.75 793.75"><defs><path id="ac" d="M181.565 1094.807h37.109v19.112h-37.109z"/><path id="aa" d="M278.082 866.417h83.456v27.713h-83.456z"/><path id="Z" d="M379.302 2034.356h201.814v239.654H379.302z"/><path id="Y" d="M151.623 2284.856h40.454v21.66h-40.454z"/><path id="X" d="M210.871 2277.53h48.417v39.498h-48.417z"/><path id="W" d="M300.379 2234.846h52.558v32.491h-52.558z"/><path id="V" d="M304.202 2224.972h35.995v34.72h-35.995z"/><path id="S" d="M244.635 2231.342h30.261v21.979h-30.261z"/><path id="R" d="M194.307 2241.217h33.128v19.749h-33.128z"/><path id="Q" d="M106.391 2229.75h46.506v24.846h-46.506z"/><path id="P" d="M396.895 2102.017H491.5v55.744h-94.605z"/><path id="O" d="M454.081 2088.864h72.076v59.914h-72.076z"/><path id="N" d="M358.353 1698.751H509.02v93.012H358.353z"/><path id="M" d="M324.906 1732.834h44.276v27.394h-44.276z"/><path id="L" d="M276.808 1753.858h27.394v26.12h-27.394z"/><path id="K" d="M414.733 1793.674h31.535v23.253h-31.535z"/><path id="J" d="M348.159 1779.977h46.188v39.18h-46.188z"/><path id="I" d="M338.285 1213.621h266.933V1505.4H338.285z"/><path id="H" d="M435.837 1345.576h39.417v31.308h-39.417z"/><path id="G" d="M397.997 1332.512h30.182v25.227h-30.182z"/><path id="F" d="M432.684 1307.286h25.677v23.65h-25.677z"/><path id="E" d="M414.89 1263.589h24.551v24.551H414.89z"/><path id="D" d="M423.899 1425.761h102.709v50.453H423.899z"/><path id="C" d="M321.641 1471.71h138.297v67.121H321.641z"/><path id="B" d="M427.053 1093.759h42.795v35.137h-42.795z"/><path id="A" d="M158.568 1105.472h54.508v64.418h-54.508z"/><path id="y" d="M387.636 1087.227h31.759v29.506h-31.759z"/><path id="x" d="M242.724 499.464h68.167v48.417h-68.167z"/><path id="w" d="M342.363 892.846h107.214v44.147H342.363z"/><path id="v" d="M404.529 980.915h34.236v38.065h-34.236z"/><path id="s" d="M412.637 1067.056h54.057v34.812h-54.057z"/><path id="r" d="M429.756 1047.36h50.453v32.885h-50.453z"/><path id="q" d="M399.574 727.521h172.533v107.214H399.574z"/><path id="p" d="M427.503 674.815h181.993v118.926H427.503z"/><path id="o" d="M448.676 761.307h28.831v22.073h-28.831z"/><path id="n" d="M429.305 792.39h27.029v30.182h-27.029z"/><path id="m" d="M404.078 721.214h40.092v36.489h-40.092z"/><path id="l" d="M377.951 793.741h31.083v38.291h-31.083z"/><path id="k" d="M42.047 469.522h42.047v33.128H42.047z"/><path id="j" d="M85.368 421.741h51.603v38.861H85.368z"/><path id="i" d="M52.877 379.695h64.981v40.773H52.877z"/><path id="h" d="M330.64 403.903h54.788v38.224H330.64z"/><path id="g" d="M57.973 80.271h145.252v111.487H57.973z"/><path id="f" d="M327.336 384.791h54.907v46.506h-54.907z"/><path id="e" d="M112.125 390.525h52.877v36.95h-52.877z"/><path id="d" d="M154.626 211.376h36.939v32.783h-36.939z"/><path id="a" d="M19.112 15.29h243.361v76.449H19.112z"/><path id="z" d="M387.636 1087.227h31.759v29.506h-31.759z"/><path id="T" d="M396.895 2102.017H491.5v55.744h-94.605z"/><path id="U" d="M454.081 2088.864h72.076v59.914h-72.076z"/><path id="ad" d="M181.565 1094.807h37.109v19.112h-37.109z"/><marker id="b" markerHeight="1" markerWidth="1" orient="auto-start-reverse" preserveAspectRatio="xMidYMid" refX="0" refY="0" style="overflow:visible" viewBox="0 0 1 1"><path d="M3-3 0 0l3 3" style="fill:none;stroke:context-stroke;stroke-width:1;stroke-linecap:butt" transform="rotate(180 .125 0)"/></marker><marker id="c" markerHeight="1" markerWidth="1" orient="auto-start-reverse" preserveAspectRatio="xMidYMid" refX="0" refY="0" style="overflow:visible" viewBox="0 0 1 1"><path d="M3-3 0 0l3 3" style="fill:none;stroke:context-stroke;stroke-width:1;stroke-linecap:butt" transform="rotate(180 .125 0)"/></marker><marker id="t" markerHeight="1" markerWidth="1" orient="auto-start-reverse" preserveAspectRatio="xMidYMid" refX="0" refY="0" style="overflow:visible" viewBox="0 0 1 1"><path d="M3-3 0 0l3 3" style="fill:none;stroke:context-stroke;stroke-width:1;stroke-linecap:butt" transform="rotate(180 .125 0)"/></marker><marker id="u" markerHeight="1" markerWidth="1" orient="auto-start-reverse" preserveAspectRatio="xMidYMid" refX="0" refY="0" style="overflow:visible" viewBox="0 0 1 1"><path d="M3-3 0 0l3 3" style="fill:none;stroke:context-stroke;stroke-width:1;stroke-linecap:butt" transform="rotate(180 .125 0)"/></marker><marker id="ab" markerHeight="1" markerWidth="1" orient="auto-start-reverse" preserveAspectRatio="xMidYMid" refX="0" refY="0" style="overflow:visible" viewBox="0 0 1 1"><path d="M3-3 0 0l3 3" style="fill:none;stroke:context-stroke;stroke-width:1;stroke-linecap:butt" transform="rotate(180 .125 0)"/></marker></defs><path d="m37.144 365.875 25.182 3.96" style="fill:none;stroke:#d4aa00;stroke-width:.264583;stroke-linejoin:round"/><path d="M37.725 228.723h74.074v63.528H37.725z" style="fill:#fff;stroke:#fff;stroke-width:.264583;stroke-linejoin:round"/><circle cx="73.337" cy="254.99" r="3.455" style="fill:none;stroke:#999;stroke-width:.264583;stroke-linejoin:round"/><circle cx="65.31" cy="262.093" r="3.455" style="fill:none;stroke:#999;stroke-width:.264583;stroke-linejoin:round"/><path d="m91.597 265.97 3.814.834 1.43-6.019s.965-3.968.114-6.053c-.819-2.01-4.226-4.376-4.226-4.376l-5.662-2.682-1.966 3.934 5.006 2.8s1.777 1.066 2.273 2.082c.533 1.093.29 3.46.29 3.46z" style="fill:#ccc;stroke:#666;stroke-width:.264583;stroke-linejoin:round"/><ellipse cx="74.54" cy="264.532" rx="23.464" ry="23.644" style="fill:none;stroke:#ffe680;stroke-width:.264583;stroke-linejoin:round"/><ellipse cx="74.284" cy="264.068" rx="13.631" ry="13.513" style="fill:none;stroke:#ffe680;stroke-width:.264583;stroke-linejoin:round"/><path d="M30.509 23.598h99.112v98.944H30.509z" style="fill:#fff;stroke:#fff;stroke-width:.264583;stroke-linejoin:round;stroke-dasharray:none"/><text xml:space="preserve" style="font-size:16px;line-height:normal;font-family:&quot;Liberation Mono&quot;;-inkscape-font-specification:&quot;Liberation Mono&quot;;text-decoration-color:#000;white-space:pre;shape-inside:url(#a);display:inline;fill:#000;stroke-width:1;-inkscape-stroke:none;stop-color:#000" transform="scale(.26458)"><tspan x="19.111" y="29.526">src_sfTube.svg</tspan></text><path d="M-30.341 33.254h11.293v10.282h-11.293zM-33.627 60.999h17.867v10.282h-17.867z" style="fill:#1a1a1a;stroke:#fff;stroke-width:.264583;stroke-linejoin:round"/><path d="M49.849 79.037H64.15v29.099H49.849z" style="fill:#ffe6d5;stroke:#ff7f2a;stroke-width:.264584;stroke-linejoin:round" transform="rotate(-10.785)skewX(-.057)"/><path d="M45.258 68.314h18.447l5.369 28.6H39.89ZM77.744 65.66l17.178-6.74 15.394 24.672-27.177 10.663Z" style="fill:#c6e9af;stroke:green;stroke-width:.264583;stroke-linejoin:round"/><path d="M48.944 100.538h14.31v29.08h-14.31z" style="fill:#ffe6d5;stroke:#ff7f2a;stroke-width:.264584;stroke-linejoin:round" transform="rotate(-32.3)skewX(-.14)"/><path d="m69.67 99.384 14.049-2.676" style="fill:#1a1a1a;stroke:#999;stroke-width:.264583;stroke-linejoin:round;stroke-dasharray:none;marker-start:url(#b);marker-end:url(#b)"/><path d="m68.833 95.048 1.85-.586.34 2.001" style="fill:none;stroke:#666;stroke-width:.264583;stroke-linejoin:round;stroke-dasharray:none"/><path d="M75.505 66.539 80.9 94.267" style="fill:none;stroke:#999;stroke-width:.264583;stroke-linejoin:round;stroke-dasharray:none;marker-start:url(#b);marker-end:url(#b)"/><path d="M40.653 93.34s1.593.605 2.044 1.269c.409.601.39 2.147.39 2.147M68.334 93.43s-1.593.605-2.044 1.269c-.409.6-.39 2.147-.39 2.147" style="fill:none;stroke:maroon;stroke-width:.264583;stroke-linejoin:round;stroke-dasharray:none"/><path d="m45.258 66.58 18.424.014" style="fill:none;stroke:#b3b3b3;stroke-width:.264583;stroke-linejoin:round;stroke-dasharray:none;marker-start:url(#b);marker-end:url(#b)"/><path d="m40.092 99.513 28.596.014" style="fill:none;stroke:#999;stroke-width:.264583;stroke-linejoin:round;stroke-dasharray:none;marker-start:url(#c);marker-end:url(#c)"/><text xml:space="preserve" style="font-size:16px;line-height:normal;font-family:&quot;Liberation Mono&quot;;-inkscape-font-specification:&quot;Liberation Mono&quot;;text-decoration-color:#000;white-space:pre;shape-inside:url(#d);display:inline;fill:#666;stroke-width:1;-inkscape-stroke:none;stop-color:#000" transform="translate(11.12 5.3)scale(.26458)"><tspan x="154.627" y="225.611">TW1</tspan></text><text xml:space="preserve" style="font-size:16px;line-height:normal;font-family:&quot;Liberation Mono&quot;;-inkscape-font-specification:&quot;Liberation Mono&quot;;text-decoration-color:#000;white-space:pre;shape-inside:url(#e);display:inline;fill:#666;stroke-width:1;-inkscape-stroke:none;stop-color:#000" transform="translate(21.275 -3.854)scale(.26458)"><tspan x="112.125" y="404.762">TW2</tspan></text><text xml:space="preserve" style="font-size:16px;line-height:normal;font-family:&quot;Liberation Mono&quot;;-inkscape-font-specification:&quot;Liberation Mono&quot;;text-decoration-color:#000;white-space:pre;shape-inside:url(#f);display:inline;fill:#666;stroke-width:1;-inkscape-stroke:none;stop-color:#000" transform="translate(-14.535 -23.779)scale(.26458)"><tspan x="327.336" y="399.027">L1</tspan></text><path d="m70.732 64.64 2.36-18.205" style="fill:none;stroke:#00f;stroke-width:.264583;stroke-linejoin:round;stroke-dasharray:none;marker-start:url(#b)"/><path d="m95.839 55.276-21.07-9.44" style="fill:none;stroke:#00f;stroke-width:.264583;stroke-linejoin:round;stroke-dasharray:none;marker-start:url(#b)"/><text xml:space="preserve" style="font-size:16px;line-height:normal;font-family:&quot;Liberation Mono&quot;;-inkscape-font-specification:&quot;Liberation Mono&quot;;text-decoration-color:#000;white-space:pre;shape-inside:url(#g);display:inline;fill:#00f;stroke-width:1;-inkscape-stroke:none;stop-color:#000" transform="translate(45.786 4.464)scale(.26458)"><tspan x="57.973" y="94.508"><tspan style="fill:#999">Jangle</tspan>
</tspan><tspan x="57.973" y="114.508">Jradius
</tspan><tspan x="57.973" y="134.508">Jneutral
</tspan><tspan x="57.973" y="154.508">Jmark</tspan></text><path d="M39.886 104.25s15.61 5.732 23.598 4.889c7.631-.805 21.07-9.27 21.07-9.27M85.05 99.868s16.629.09 23.857-3.415c6.904-3.348 16.67-15.874 16.67-15.874" style="fill:none;stroke:teal;stroke-width:.264583;stroke-linejoin:round;stroke-dasharray:none"/><path d="m73.598 108.633 11.967 6.574" style="fill:none;stroke:teal;stroke-width:.264583;stroke-linejoin:round;stroke-dasharray:none;marker-start:url(#b)"/><path d="m99.387 101.722-10.956 12.98" style="fill:none;stroke:teal;stroke-width:.264583;stroke-linejoin:round;stroke-dasharray:none;marker-start:url(#b)"/><text xml:space="preserve" style="font-size:16px;line-height:normal;font-family:&quot;Liberation Mono&quot;;-inkscape-font-specification:&quot;Liberation Mono&quot;;text-decoration-color:#000;white-space:pre;shape-inside:url(#h);display:inline;fill:teal;stroke-width:1;-inkscape-stroke:none;stop-color:#000" transform="translate(-1.242 9.184)scale(.26458)"><tspan x="330.641" y="418.139">N1</tspan></text><text xml:space="preserve" style="font-size:16px;line-height:normal;font-family:&quot;Liberation Mono&quot;;-inkscape-font-specification:&quot;Liberation Mono&quot;;text-decoration-color:#000;white-space:pre;shape-inside:url(#i);display:inline;fill:#999;stroke-width:1;-inkscape-stroke:none;stop-color:#000" transform="translate(29.604 -9.863)scale(.26458)"><tspan x="52.877" y="393.932">a1</tspan></text><path d="M54.01 68.434v28.15" style="fill:#999;stroke:#666;stroke-width:.264583;stroke-linejoin:round;stroke-dasharray:none;marker-start:url(#b);marker-end:url(#b)"/><text xml:space="preserve" style="font-size:16px;line-height:normal;font-family:&quot;Liberation Mono&quot;;-inkscape-font-specification:&quot;Liberation Mono&quot;;text-decoration-color:#000;white-space:pre;shape-inside:url(#j);display:inline;fill:#666;stroke-width:1;-inkscape-stroke:none;stop-color:#000" transform="translate(26.06 -32.195)scale(.26458)"><tspan x="85.367" y="435.979">T1</tspan></text><path d="m43.32 115.125 4.72-3.708" style="fill:#fff;stroke:#f0f;stroke-width:.264583;stroke-linejoin:round;marker-end:url(#b)"/><text xml:space="preserve" style="font-size:16px;line-height:normal;font-family:&quot;Liberation Mono&quot;;-inkscape-font-specification:&quot;Liberation Mono&quot;;text-decoration-color:#000;white-space:pre;shape-inside:url(#k);display:inline;fill:#f0f;stroke-width:1;-inkscape-stroke:none;stop-color:#000" transform="translate(35.566 -11.462)scale(.26458)"><tspan x="42.047" y="483.758">Th</tspan></text><path d="m57.478 217.778 28.318-23.936-20.732-13.147Z" style="fill:none;stroke:#668000;stroke-width:.264583;stroke-linejoin:round"/><path d="m85.796 193.842 6.405 14.496" style="fill:none;stroke:#d45500;stroke-width:.264583;stroke-linejoin:round"/><path d="M65.064 180.695 92.2 208.338l-34.723 9.44" style="fill:none;stroke:#00f;stroke-width:.264583;stroke-linejoin:round"/><path d="M86.808 203.282s-1.921 1.85-1.855 3.034c.072 1.279 2.36 3.034 2.36 3.034M83.79 195.35l1.072 2.503 1.67-1.787" style="fill:none;stroke:purple;stroke-width:.264583;stroke-linejoin:round"/><text xml:space="preserve" style="font-size:16px;line-height:normal;font-family:&quot;Liberation Mono&quot;;-inkscape-font-specification:&quot;Liberation Mono&quot;;text-decoration-color:#000;white-space:pre;shape-inside:url(#l);display:inline;fill:#000;stroke-width:1;-inkscape-stroke:none;stop-color:#000" transform="translate(-6.317 -3.456)scale(.26458)"><tspan x="377.951" y="807.979">A</tspan></text><text xml:space="preserve" style="font-size:16px;line-height:normal;font-family:&quot;Liberation Mono&quot;;-inkscape-font-specification:&quot;Liberation Mono&quot;;text-decoration-color:#000;white-space:pre;shape-inside:url(#m);display:inline;fill:#000;stroke-width:1;-inkscape-stroke:none;stop-color:#000" transform="translate(-42.908 -14.183)scale(.26458)"><tspan x="404.078" y="735.451">B</tspan></text><text xml:space="preserve" style="font-size:16px;line-height:normal;font-family:&quot;Liberation Mono&quot;;-inkscape-font-specification:&quot;Liberation Mono&quot;;text-decoration-color:#000;white-space:pre;shape-inside:url(#n);display:inline;fill:#000;stroke-width:1;-inkscape-stroke:none;stop-color:#000" transform="translate(-58.403 8.105)scale(.26458)"><tspan x="429.305" y="806.627">C</tspan></text><text xml:space="preserve" style="font-size:16px;line-height:normal;font-family:&quot;Liberation Mono&quot;;-inkscape-font-specification:&quot;Liberation Mono&quot;;text-decoration-color:#000;white-space:pre;shape-inside:url(#o);display:inline;fill:#000;stroke-width:1;-inkscape-stroke:none;stop-color:#000" transform="translate(-32.896 -11.919)scale(.26458)"><tspan x="448.676" y="775.543">D</tspan></text><text xml:space="preserve" style="font-size:16px;line-height:normal;font-family:&quot;Liberation Mono&quot;;-inkscape-font-specification:&quot;Liberation Mono&quot;;text-decoration-color:#000;white-space:pre;shape-inside:url(#p);display:inline;fill:#000;stroke-width:1;-inkscape-stroke:none;stop-color:#000" transform="translate(-19.07 -18.117)scale(.26458)"><tspan x="427.504" y="689.051">We know:
</tspan><tspan x="427.504" y="709.051">- AC=AB
</tspan><tspan x="427.504" y="729.051">- CAB=2PI/N
</tspan><tspan x="427.504" y="749.051">- CAD
</tspan><tspan x="427.504" y="769.051">- ADC = Pi/2
</tspan></text><text xml:space="preserve" style="font-size:16px;line-height:normal;font-family:&quot;Liberation Mono&quot;;-inkscape-font-specification:&quot;Liberation Mono&quot;;text-decoration-color:#000;white-space:pre;shape-inside:url(#q);display:inline;fill:#000;stroke-width:1;-inkscape-stroke:none;stop-color:#000" transform="scale(.26458)"><tspan x="399.574" y="741.758">We compute
</tspan><tspan x="399.574" y="761.758">- CD
</tspan><tspan x="399.574" y="781.758">- BC
</tspan><tspan x="399.574" y="801.758">- CDB
</tspan></text><path d="m88.08 258.52-27.452 2.744-11.091-25.261 20.596-18.355 23.822 13.916z" style="fill:none;stroke:purple;stroke-width:.264583;stroke-linejoin:round" transform="translate(2.026 23.719)"/><path d="m88.08 258.52-27.452 2.744-11.091-25.261 20.596-18.355 23.822 13.916z" style="fill:none;stroke:purple;stroke-width:.454672;stroke-linejoin:round" transform="matrix(.58194 0 0 .5819 32.02 123.835)"/><path d="m83.278 274.268 6.829 7.971M86.696 258.582l9.285-3.299M72.834 250.484l-.674-9.118M60.847 261.165l-9.284-1.444M67.302 275.864l-4.647 9.118" style="fill:none;stroke:#4a0;stroke-width:.264583;stroke-linejoin:round"/><text xml:space="preserve" style="font-size:16px;line-height:normal;font-family:&quot;Liberation Mono&quot;;-inkscape-font-specification:&quot;Liberation Mono&quot;;text-decoration-color:#000;white-space:pre;shape-inside:url(#r);display:inline;fill:#666;stroke-width:1;-inkscape-stroke:none;stop-color:#000" transform="translate(-40.848 -7.747)scale(.26458)"><tspan x="429.756" y="1061.596">W1</tspan></text><text xml:space="preserve" style="font-size:16px;line-height:normal;font-family:&quot;Liberation Mono&quot;;-inkscape-font-specification:&quot;Liberation Mono&quot;;text-decoration-color:#000;white-space:pre;shape-inside:url(#s);display:inline;fill:#666;stroke-width:1;-inkscape-stroke:none;stop-color:#000" transform="translate(-35.226 2.503)scale(.26458)"><tspan x="412.637" y="1081.293">W2</tspan></text><path d="m67.677 274.758 15.239-1.5" style="fill:#00f;stroke:#999;stroke-width:.264583;stroke-linejoin:round;marker-start:url(#b);marker-end:url(#b)"/><path d="m62.893 286.174 27.452-2.743" style="fill:#00f;stroke:#999;stroke-width:.264583;stroke-linejoin:round;marker-start:url(#b);marker-end:url(#b)"/><path d="m91.895 263.884-7.807-1.192" style="fill:#00f;stroke:#00f;stroke-width:.264583;stroke-linejoin:round;marker-start:url(#b)"/><path d="m96.062 264.674 7.807 1.192" style="fill:#00f;stroke:#00f;stroke-width:.264583;stroke-linejoin:round;marker-start:url(#t)"/><path d="m85.995 252.323-3.04 5.661" style="fill:#00f;stroke:#00f;stroke-width:.264583;stroke-linejoin:round;marker-start:url(#b)"/><path d="m87.574 249.73 3.04-5.662" style="fill:#00f;stroke:#00f;stroke-width:.264583;stroke-linejoin:round;marker-start:url(#u)"/><text xml:space="preserve" style="font-size:16px;line-height:normal;font-family:&quot;Liberation Mono&quot;;-inkscape-font-specification:&quot;Liberation Mono&quot;;text-decoration-color:#000;white-space:pre;shape-inside:url(#v);display:inline;fill:#00f;stroke-width:1;-inkscape-stroke:none;stop-color:#000" transform="translate(-2.622 2.563)scale(.26458)"><tspan x="404.529" y="995.15">Th</tspan></text><text xml:space="preserve" style="font-size:16px;line-height:normal;font-family:&quot;Liberation Mono&quot;;-inkscape-font-specification:&quot;Liberation Mono&quot;;text-decoration-color:#000;white-space:pre;shape-inside:url(#w);display:inline;fill:#00f;stroke-width:1;-inkscape-stroke:none;stop-color:#000" transform="translate(-2.384 3.576)scale(.26458)"><tspan x="342.363" y="907.082">Jneutral</tspan></text><text xml:space="preserve" style="font-size:16px;line-height:normal;font-family:&quot;Liberation Mono&quot;;-inkscape-font-specification:&quot;Liberation Mono&quot;;text-decoration-color:#000;white-space:pre;shape-inside:url(#x);display:inline;fill:#666;stroke-width:1;-inkscape-stroke:none;stop-color:#000" transform="translate(10.114 -34.072)scale(.26458)"><tspan x="242.725" y="513.701">JW</tspan></text><path d="m84.678 239.158-3.926 12.293" style="fill:#00f;stroke:#00f;stroke-width:.264583;stroke-linejoin:round;marker-end:url(#b)"/><text xml:space="preserve" style="font-size:16px;line-height:normal;font-family:&quot;Liberation Mono&quot;;-inkscape-font-specification:&quot;Liberation Mono&quot;;text-decoration-color:#000;white-space:pre;shape-inside:url(#y);display:inline;fill:#00f;stroke-width:1;-inkscape-stroke:none;stop-color:#000" transform="translate(-19.428 -52.622)scale(.26458)"><tspan x="387.637" y="1101.463">D1</tspan></text><path d="m53.51 251.851-6.55-3.104" style="fill:#666;stroke:#00f;stroke-width:.264583;stroke-linejoin:round;marker-start:url(#b)"/><text xml:space="preserve" style="font-size:16px;line-height:normal;font-family:&quot;Liberation Mono&quot;;-inkscape-font-specification:&quot;Liberation Mono&quot;;text-decoration-color:#000;white-space:pre;shape-inside:url(#z);display:inline;fill:#00f;stroke-width:1;-inkscape-stroke:none;stop-color:#000" transform="translate(-61.148 -42.371)scale(.26458)"><tspan x="387.637" y="1101.463">D2</tspan></text><text xml:space="preserve" style="font-size:16px;line-height:normal;font-family:&quot;Liberation Mono&quot;;-inkscape-font-specification:&quot;Liberation Mono&quot;;text-decoration-color:#000;white-space:pre;shape-inside:url(#A);display:inline;fill:#00f;stroke-width:1;-inkscape-stroke:none;stop-color:#000" transform="translate(-.715 -16.806)scale(.26458)"><tspan x="158.568" y="1119.709">N1</tspan></text><path d="M46.96 278.783c4.015 5.048 6.855 14.176 14.451 6.796" style="fill:none;stroke:#00f;stroke-width:.264583;stroke-linejoin:round;marker-end:url(#b)"/><path d="M46.484 276.995c-3.88-12.848-2.163-18.749 4.058-17.23" style="fill:none;stroke:#00f;stroke-width:.264583;stroke-linejoin:round;marker-end:url(#b)"/><path d="m101.787 282.478.835-7.271" style="fill:#fff;stroke:#00f;stroke-width:.264583;stroke-linejoin:round;marker-end:url(#b)"/><text xml:space="preserve" style="font-size:16px;line-height:normal;font-family:&quot;Liberation Mono&quot;;-inkscape-font-specification:&quot;Liberation Mono&quot;;text-decoration-color:#000;white-space:pre;shape-inside:url(#B);display:inline;fill:#00f;stroke-width:1;-inkscape-stroke:none;stop-color:#000" transform="translate(-10.489 -12.276)scale(.26458)"><tspan x="427.053" y="1107.996">H1</tspan></text><path d="m88.08 258.52-27.452 2.744-11.091-25.261 20.596-18.355 23.822 13.916z" style="fill:none;stroke:purple;stroke-width:.454672;stroke-linejoin:round" transform="matrix(.80357 .2601 -.79408 .16438 170.708 307.333)"/><path d="m88.08 258.52-27.452 2.744-11.091-25.261 20.596-18.355 23.822 13.916z" style="fill:none;stroke:purple;stroke-width:.638783;stroke-linejoin:round" transform="matrix(.52727 .20082 -.52104 .12692 126.896 282.321)"/><path d="m55.78 330.58 6.546 39.255" style="fill:#00f;stroke:teal;stroke-width:.264583;stroke-linejoin:round"/><path d="m37.144 365.875 12.119 5.412" style="fill:none;stroke:#d4aa00;stroke-width:.264583;stroke-linejoin:round"/><path d="m47.209 331.701 2.054 39.586" style="fill:none;stroke:red;stroke-width:.264583;stroke-linejoin:round"/><path d="m39.257 327.523-2.113 38.352" style="fill:none;stroke:#999;stroke-width:.264583;stroke-linejoin:round"/><path d="M61.482 364.592s-2.005.18-2.655.843c-.863.878-1.054 3.54-1.054 3.54M46.775 370.028s-.307-1.65.084-2.318c.424-.723 2.15-1.306 2.15-1.306" style="fill:none;stroke:#00f;stroke-width:.264583;stroke-linejoin:round"/><text xml:space="preserve" style="font-size:16px;line-height:normal;font-family:&quot;Liberation Mono&quot;;-inkscape-font-specification:&quot;Liberation Mono&quot;;text-decoration-color:#000;white-space:pre;shape-inside:url(#C);display:inline;fill:#00f;stroke-width:1;-inkscape-stroke:none;stop-color:#000" transform="translate(-15.716 -29.732)scale(.26458)"><tspan x="321.641" y="1485.947">aTilt1</tspan></text><text xml:space="preserve" style="font-size:16px;line-height:normal;font-family:&quot;Liberation Mono&quot;;-inkscape-font-specification:&quot;Liberation Mono&quot;;text-decoration-color:#000;white-space:pre;shape-inside:url(#D);display:inline;fill:#00f;stroke-width:1;-inkscape-stroke:none;stop-color:#000" transform="translate(-78.647 -2.2)scale(.26458)"><tspan x="423.898" y="1439.998">aTilt2</tspan></text><path d="m62.71 364.187 5.483-2.146" style="fill:#00f;stroke:#00f;stroke-width:.264583;stroke-linejoin:round;marker-start:url(#b)"/><path d="m46.263 370.623-2.027 4.41" style="fill:#00f;stroke:#00f;stroke-width:.264583;stroke-linejoin:round;marker-start:url(#b)"/><path d="m55.78 330.58-2.113 37.816M47.209 331.702l-2.113 37.875" style="fill:none;stroke:#e9afaf;stroke-width:.264583;stroke-linejoin:round"/><text xml:space="preserve" style="font-size:16px;line-height:normal;font-family:&quot;Liberation Mono&quot;;-inkscape-font-specification:&quot;Liberation Mono&quot;;text-decoration-color:#000;white-space:pre;shape-inside:url(#E);display:inline;fill:#000;stroke-width:1;-inkscape-stroke:none;stop-color:#000" transform="translate(-73.94 -10.603)scale(.26458)"><tspan x="414.891" y="1277.826">A</tspan></text><text xml:space="preserve" style="font-size:16px;line-height:normal;font-family:&quot;Liberation Mono&quot;;-inkscape-font-specification:&quot;Liberation Mono&quot;;text-decoration-color:#000;white-space:pre;shape-inside:url(#F);display:inline;fill:#000;stroke-width:1;-inkscape-stroke:none;stop-color:#000" transform="translate(-67.801 -19.005)scale(.26458)"><tspan x="432.684" y="1321.522">B</tspan></text><text xml:space="preserve" style="font-size:16px;line-height:normal;font-family:&quot;Liberation Mono&quot;;-inkscape-font-specification:&quot;Liberation Mono&quot;;text-decoration-color:#000;white-space:pre;shape-inside:url(#G);display:inline;fill:#000;stroke-width:1;-inkscape-stroke:none;stop-color:#000" transform="translate(-71.198 11.269)scale(.26458)"><tspan x="397.996" y="1346.748">C</tspan></text><text xml:space="preserve" style="font-size:16px;line-height:normal;font-family:&quot;Liberation Mono&quot;;-inkscape-font-specification:&quot;Liberation Mono&quot;;text-decoration-color:#000;white-space:pre;shape-inside:url(#H);display:inline;fill:#000;stroke-width:1;-inkscape-stroke:none;stop-color:#000" transform="translate(-66.073 14.665)scale(.26458)"><tspan x="435.838" y="1359.813">D</tspan></text><text xml:space="preserve" style="font-size:16px;line-height:normal;font-family:&quot;Liberation Mono&quot;;-inkscape-font-specification:&quot;Liberation Mono&quot;;text-decoration-color:#000;white-space:pre;shape-inside:url(#I);display:inline;fill:#000;stroke-width:1;-inkscape-stroke:none;stop-color:#000" transform="scale(.26458)"><tspan x="338.285" y="1227.858">AB=R1*cos(CAB/2)
</tspan><tspan x="338.285" y="1247.858">CD=R2*cos(CAB/2)
</tspan><tspan x="338.285" y="1267.858">CD-AB=(R2-R1)*cos(CAB/2)
</tspan><tspan x="338.285" y="1287.858">aTilt1=atan(H1/(R2-R1))
</tspan><tspan x="338.285" y="1307.858">aTilt2=atan(H1/(CD-AB))</tspan></text><path d="m34.892 444.32 39.105 18.036 31.015-35.903" style="fill:none;stroke:teal;stroke-width:.264583;stroke-linejoin:round"/><ellipse cx="69.867" cy="443.14" rx="15.929" ry="15.507" style="fill:none;stroke:#d45500;stroke-width:.264583;stroke-linejoin:round"/><path d="M69.867 443.14 81.85 453.36" style="fill:gray;stroke:purple;stroke-width:.264583;stroke-linejoin:round"/><path d="m62.687 457.14 7.18-14" style="fill:none;stroke:purple;stroke-width:.264583;stroke-linejoin:round"/><path d="m79.897 451.652 1.517-1.77 1.854 1.77M60.428 456.12l1.18-2.53 2.107 1.18" style="fill:none;stroke:gray;stroke-width:.264583;stroke-linejoin:round"/><path d="m69.867 443.14 4.13 19.216" style="fill:none;stroke:#ccc;stroke-width:.264583;stroke-linejoin:round"/><path d="M71.216 460.839s.663-1.092 1.18-1.433c.586-.386 1.321-.627 2.023-.59.666.035 1.854.759 1.854.759" style="fill:none;stroke:#f0f;stroke-width:.264583;stroke-linejoin:round"/><text xml:space="preserve" style="font-size:16px;line-height:normal;font-family:&quot;Liberation Mono&quot;;-inkscape-font-specification:&quot;Liberation Mono&quot;;text-decoration-color:#000;white-space:pre;shape-inside:url(#J);display:inline;fill:purple;stroke-width:1;-inkscape-stroke:none;stop-color:#000" transform="translate(-19.047 -29.076)scale(.26458)"><tspan x="348.16" y="1794.213">R1</tspan></text><text xml:space="preserve" style="font-size:16px;line-height:normal;font-family:&quot;Liberation Mono&quot;;-inkscape-font-specification:&quot;Liberation Mono&quot;;text-decoration-color:#000;white-space:pre;shape-inside:url(#K);display:inline;fill:#f0f;stroke-width:1;-inkscape-stroke:none;stop-color:#000" transform="translate(-39.611 -19.3)scale(.26458)"><tspan x="414.734" y="1807.91">a</tspan></text><text xml:space="preserve" style="font-size:16px;line-height:normal;font-family:&quot;Liberation Mono&quot;;-inkscape-font-specification:&quot;Liberation Mono&quot;;text-decoration-color:#000;white-space:pre;shape-inside:url(#L);display:inline;fill:#000;stroke-width:1;-inkscape-stroke:none;stop-color:#000" transform="translate(.169 -1.686)scale(.26458)"><tspan x="276.807" y="1768.094">F</tspan></text><text xml:space="preserve" style="font-size:16px;line-height:normal;font-family:&quot;Liberation Mono&quot;;-inkscape-font-specification:&quot;Liberation Mono&quot;;text-decoration-color:#000;white-space:pre;shape-inside:url(#M);display:inline;fill:#000;stroke-width:1;-inkscape-stroke:none;stop-color:#000" transform="translate(-3.455 -5.647)scale(.26458)"><tspan x="324.906" y="1747.07">G</tspan></text><text xml:space="preserve" style="font-size:16px;line-height:normal;font-family:&quot;Liberation Mono&quot;;-inkscape-font-specification:&quot;Liberation Mono&quot;;text-decoration-color:#000;white-space:pre;shape-inside:url(#N);display:inline;fill:#000;stroke-width:1;-inkscape-stroke:none;stop-color:#000" transform="scale(.26458)"><tspan x="358.354" y="1712.986">FG=R1/tan(a/2)</tspan></text><path d="M13.161 576.755h72.944M65.26 547.121H34.007L13.16 576.755h72.944z" style="fill:none;stroke:teal;stroke-width:.264583;stroke-linejoin:round"/><path d="M79.299 567.218 66 576.544" style="fill:none;stroke:purple;stroke-width:.264583;stroke-linejoin:round"/><path d="m44.97 546.942 20.846 29.634" style="fill:none;stroke:#d4aa00;stroke-width:.264583;stroke-linejoin:round"/><path d="m58.27 537.617-13.3 9.325" style="fill:none;stroke:purple;stroke-width:.264583;stroke-linejoin:round"/><text xml:space="preserve" style="font-size:16px;line-height:normal;font-family:&quot;Liberation Mono&quot;;-inkscape-font-specification:&quot;Liberation Mono&quot;;text-decoration-color:#000;white-space:pre;shape-inside:url(#O);display:inline;fill:#000;stroke-width:1;-inkscape-stroke:none;stop-color:#000" transform="translate(-64.48 4.052)scale(.26458)"><tspan x="454.082" y="2103.1">L1</tspan></text><path d="M83.94 573.698s-1.813.179-2.275.842c-.369.53 0 1.939 0 1.939M63.713 573.694s-1.813.18-2.275.843c-.37.53 0 1.939 0 1.939" style="fill:none;stroke:#f60;stroke-width:.264583;stroke-linejoin:round"/><text xml:space="preserve" style="font-size:16px;line-height:normal;font-family:&quot;Liberation Mono&quot;;-inkscape-font-specification:&quot;Liberation Mono&quot;;text-decoration-color:#000;white-space:pre;shape-inside:url(#P);display:inline;fill:#000;stroke-width:1;-inkscape-stroke:none;stop-color:#000" transform="translate(-29.078 15.18)scale(.26458)"><tspan x="396.895" y="2116.254">a1</tspan></text><text xml:space="preserve" style="font-size:16px;line-height:normal;font-family:&quot;Liberation Mono&quot;;-inkscape-font-specification:&quot;Liberation Mono&quot;;text-decoration-color:#000;white-space:pre;shape-inside:url(#Q);display:inline;fill:#000;stroke-width:1;-inkscape-stroke:none;stop-color:#000" transform="translate(-17.532 -14.234)scale(.26458)"><tspan x="106.391" y="2243.986">C</tspan></text><text xml:space="preserve" style="font-size:16px;line-height:normal;font-family:&quot;Liberation Mono&quot;;-inkscape-font-specification:&quot;Liberation Mono&quot;;text-decoration-color:#000;white-space:pre;shape-inside:url(#R);display:inline;fill:#000;stroke-width:1;-inkscape-stroke:none;stop-color:#000" transform="translate(34.89 -18.448)scale(.26458)"><tspan x="194.307" y="2255.453">A</tspan></text><text xml:space="preserve" style="font-size:16px;line-height:normal;font-family:&quot;Liberation Mono&quot;;-inkscape-font-specification:&quot;Liberation Mono&quot;;text-decoration-color:#000;white-space:pre;shape-inside:url(#S);display:inline;fill:#000;stroke-width:1;-inkscape-stroke:none;stop-color:#000" transform="translate(-.001 -47.609)scale(.26458)"><tspan x="244.635" y="2245.578">D</tspan></text><text xml:space="preserve" style="font-size:16px;line-height:normal;font-family:&quot;Liberation Mono&quot;;-inkscape-font-specification:&quot;Liberation Mono&quot;;text-decoration-color:#000;white-space:pre;shape-inside:url(#T);display:inline;fill:#000;stroke-width:1;-inkscape-stroke:none;stop-color:#000" transform="translate(-49.775 15.403)scale(.26458)"><tspan x="396.895" y="2116.254">a1</tspan></text><text xml:space="preserve" style="font-size:16px;line-height:normal;font-family:&quot;Liberation Mono&quot;;-inkscape-font-specification:&quot;Liberation Mono&quot;;text-decoration-color:#000;white-space:pre;shape-inside:url(#U);display:inline;fill:#000;stroke-width:1;-inkscape-stroke:none;stop-color:#000" transform="translate(-43.66 3.639)scale(.26458)"><tspan x="454.082" y="2103.1">L1</tspan></text><path d="m77.283 568.472-1.855-2.444 2.023-1.433" style="fill:none;stroke:#999;stroke-width:.264583;stroke-linejoin:round"/><text xml:space="preserve" style="font-size:16px;line-height:normal;font-family:&quot;Liberation Mono&quot;;-inkscape-font-specification:&quot;Liberation Mono&quot;;text-decoration-color:#000;white-space:pre;shape-inside:url(#V);display:inline;fill:#000;stroke-width:1;-inkscape-stroke:none;stop-color:#000" transform="translate(.167 -24.685)scale(.26458)"><tspan x="304.201" y="2239.209">F</tspan></text><text xml:space="preserve" style="font-size:16px;line-height:normal;font-family:&quot;Liberation Mono&quot;;-inkscape-font-specification:&quot;Liberation Mono&quot;;text-decoration-color:#000;white-space:pre;shape-inside:url(#W);display:inline;fill:#000;stroke-width:1;-inkscape-stroke:none;stop-color:#000" transform="translate(-14.835 -14.487)scale(.26458)"><tspan x="300.379" y="2249.082">G</tspan></text><path d="m13.161 583.105 52.84-.211" style="fill:none;stroke:#999;stroke-width:.264583;stroke-linejoin:round;marker-end:url(#b)"/><path d="M13.161 589.455h72.944" style="fill:none;stroke:#999;stroke-width:.264583;stroke-linejoin:round;marker-end:url(#b)"/><text xml:space="preserve" style="font-size:16px;line-height:normal;font-family:&quot;Liberation Mono&quot;;-inkscape-font-specification:&quot;Liberation Mono&quot;;text-decoration-color:#000;white-space:pre;shape-inside:url(#X);display:inline;fill:#000;stroke-width:1;-inkscape-stroke:none;stop-color:#000" transform="translate(-7.67 -13.189)scale(.26458)"><tspan x="210.871" y="2291.766">W2</tspan></text><text xml:space="preserve" style="font-size:16px;line-height:normal;font-family:&quot;Liberation Mono&quot;;-inkscape-font-specification:&quot;Liberation Mono&quot;;text-decoration-color:#000;white-space:pre;shape-inside:url(#Y);display:inline;fill:#000;stroke-width:1;-inkscape-stroke:none;stop-color:#000" transform="translate(-10.873 -21.686)scale(.26458)"><tspan x="151.623" y="2299.092">TW2</tspan></text><text xml:space="preserve" style="font-size:16px;line-height:normal;font-family:&quot;Liberation Mono&quot;;-inkscape-font-specification:&quot;Liberation Mono&quot;;text-decoration-color:#000;white-space:pre;shape-inside:url(#Z);display:inline;fill:#000;stroke-width:1;-inkscape-stroke:none;stop-color:#000" transform="scale(.26458)"><tspan x="379.303" y="2048.592">TW2=W2-2*GA
</tspan><tspan x="379.303" y="2068.592">GA=GF/sin(a1)
</tspan><tspan x="379.303" y="2088.592">GF=aJr/tan(aJa/2)</tspan></text><circle cx="55.961" cy="260.676" r="3.455" style="fill:none;stroke:#999;stroke-width:.264583;stroke-linejoin:round"/><circle cx="72.588" cy="245.799" r="3.455" style="fill:none;stroke:#999;stroke-width:.264583;stroke-linejoin:round"/><circle cx="91.886" cy="256.949" r="3.455" style="fill:none;stroke:#999;stroke-width:.264583;stroke-linejoin:round"/><circle cx="87.073" cy="279.001" r="3.455" style="fill:none;stroke:#999;stroke-width:.264583;stroke-linejoin:round"/><circle cx="64.911" cy="281.112" r="3.455" style="fill:none;stroke:#999;stroke-width:.264583;stroke-linejoin:round"/><text xml:space="preserve" style="font-size:16px;line-height:normal;font-family:&quot;Liberation Mono&quot;;-inkscape-font-specification:&quot;Liberation Mono&quot;;text-decoration-color:#000;white-space:pre;shape-inside:url(#aa);fill:#00f;stroke-width:1;-inkscape-stroke:none;stop-color:#000" transform="scale(.26458)"><tspan x="278.082" y="880.654">Jradius</tspan></text><path d="m73.65 242.257 4.227-8.288" style="fill:#666;stroke:#00f;stroke-width:.264583;stroke-linejoin:round;marker-start:url(#ab)"/><path d="m53.39 261.73-2.991 1.643M62.157 281.48l-2.992 1.643" style="fill:#00f;stroke:#999;stroke-width:.264583;stroke-linejoin:round"/><path d="m51.621 262.825 8.723 19.468" style="fill:#00f;stroke:#f95;stroke-width:.264583;stroke-linejoin:round;stroke-dasharray:none;marker-start:url(#b);marker-end:url(#b)"/><text xml:space="preserve" style="font-size:16px;line-height:normal;font-family:&quot;Liberation Mono&quot;;-inkscape-font-specification:&quot;Liberation Mono&quot;;text-decoration-color:#000;white-space:pre;shape-inside:url(#ac);fill:#f95;stroke-width:1;-inkscape-stroke:none;stop-color:#000" transform="translate(.38 -17.825)scale(.26458)"><tspan x="181.564" y="1109.043">TW2</tspan></text><path d="m62.493 258.569.927 1.475M70.33 251.636l.927 1.475" style="fill:#999;stroke:#999;stroke-width:.264583;stroke-linejoin:round;stroke-dasharray:none"/><path d="m62.62 258.4 7.5-6.49" style="fill:#999;stroke:#f95;stroke-width:.264583;stroke-linejoin:round;stroke-dasharray:none;marker-start:url(#b);marker-end:url(#b)"/><text xml:space="preserve" style="font-size:16px;line-height:normal;font-family:&quot;Liberation Mono&quot;;-inkscape-font-specification:&quot;Liberation Mono&quot;;text-decoration-color:#000;white-space:pre;shape-inside:url(#ad);display:inline;fill:#f95;stroke-width:1;-inkscape-stroke:none;stop-color:#000" transform="translate(10.722 -38.545)scale(.26458)"><tspan x="181.564" y="1109.043">TW1</tspan></text><path d="m78.486 234.027-5.066 17.521" style="fill:#999;stroke:#00f;stroke-width:.264583;stroke-linejoin:round;stroke-dasharray:none;marker-end:url(#ab)"/></svg>